<?xml version="1.0" encoding="utf-8"?>
<!-- Generator: Adobe Illustrator 18.1.1, SVG Export Plug-In . SVG Version: 6.00 Build 0)  -->
<svg version="1.1" xmlns="http://www.w3.org/2000/svg" xmlns:xlink="http://www.w3.org/1999/xlink" x="0px" y="0px"
	 viewBox="0 0 263 164.1" enable-background="new 0 0 263 164.1" xml:space="preserve">
<g id="Layer_1">
	<g>
		<g>
			<path fill="#434343" d="M71.1,8.8L90,0.4v4.7l-13.6,5.5v0.1L90,16.3v4.7l-18.9-8.4V8.8z"/>
			<path fill="#434343" d="M166.8,12.8l-18.9,8.2v-4.7l14-5.5v-0.1l-14-5.6V0.4l18.9,8.2V12.8z"/>
		</g>
		<g>
			<path fill="#1DBCBD" d="M18.4,19.3H0V0.9h18.4V19.3z M4.2,15.1h10.1V5.1H4.2V15.1z"/>
		</g>
		<g>
			<path fill="#1DBCBD" d="M18.4,54.7H0V36.3h18.4V54.7z M4.2,50.6h10.1V40.5H4.2V50.6z"/>
		</g>
		<g>
			<path fill="#1DBCBD" d="M18.4,90.2H0V71.8h18.4V90.2z M4.2,86h10.1V75.9H4.2V86z"/>
		</g>
		<g>
			<path fill="#1DBCBD" d="M18.4,125.6H0v-18.4h18.4V125.6z M4.2,121.5h10.1v-10.1H4.2V121.5z"/>
		</g>
		<g>
			<path fill="#1DBCBD" d="M18.4,161.1H0v-18.4h18.4V161.1z M4.2,156.9h10.1v-10.1H4.2V156.9z"/>
		</g>
		<g>
			<rect x="44.3" y="0" fill="#434343" width="3.7" height="163.6"/>
		</g>
		<g>
			<path fill="#434343" d="M71.1,150.3L90,142v4.7l-13.6,5.5v0.1l13.6,5.5v4.7l-18.9-8.4V150.3z"/>
			<path fill="#434343" d="M146.8,164.1L154,136h4.5l-7.2,28.1H146.8z"/>
			<path fill="#434343" d="M179.5,154.4l-18.9,8.2v-4.7l14-5.5v-0.1l-14-5.6V142l18.9,8.2V154.4z"/>
		</g>
		<g>
			<rect x="101.6" y="144.8" fill="#1DBCBD" width="34.8" height="14"/>
		</g>
		<g>
			<rect x="101.6" y="3.2" fill="#1DBCBD" width="34.8" height="14"/>
		</g>
		<g>
			<rect x="72.5" y="38.6" fill="#1DBCBD" width="34.8" height="14"/>
		</g>
		<g>
			<rect x="199.1" y="38.6" fill="#1DBCBD" width="34.8" height="14"/>
		</g>
		<g>
			<rect x="119" y="38.6" fill="#434343" width="69.2" height="14"/>
		</g>
		<g>
			<rect x="199.1" y="109.4" fill="#434343" width="34.8" height="14"/>
		</g>
		<g>
			<rect x="245.6" y="109.4" fill="#434343" width="17.4" height="14"/>
		</g>
		<g>
			<rect x="72.5" y="109.4" fill="#1DBCBD" width="115.6" height="14"/>
		</g>
		<g>
			<rect x="72.8" y="74" fill="#434343" width="34.8" height="13.9"/>
		</g>
		<g>
			<rect x="119.3" y="74" fill="#1DBCBD" width="34.6" height="14"/>
		</g>
	</g>
</g>
<g id="Layer_2">
</g>
<g id="Layer_3">
</g>
<g id="Layer_4">
</g>
</svg>
