<?xml version="1.0" encoding="utf-8"?>
<!-- Generator: Adobe Illustrator 18.1.1, SVG Export Plug-In . SVG Version: 6.00 Build 0)  -->
<svg version="1.1" xmlns="http://www.w3.org/2000/svg" xmlns:xlink="http://www.w3.org/1999/xlink" x="0px" y="0px"
	 viewBox="0 0 182.1 257.2" enable-background="new 0 0 182.1 257.2" xml:space="preserve">
<g id="Layer_1">
	<g>
		<g>
			<g>
				<g>
					<g>
						<path fill="#805DA8" d="M172,157.8h-5.3v-21.4c0-0.7-0.6-1.3-1.3-1.3H16.8c-0.7,0-1.3,0.6-1.3,1.3v21.4h-5.3v-21.4
							c0-3.6,3-6.6,6.6-6.6h148.6c3.6,0,6.6,3,6.6,6.6V157.8z"/>
					</g>
				</g>
				<g>
					<g>
						<rect x="88.4" y="113.6" fill="#805DA8" width="5.3" height="44.2"/>
					</g>
				</g>
			</g>
		</g>
		<g>
			<path fill="#414042" d="M144.9,24.1v-4.7h-11.3l-8.2-8.2V0h-4.7v8.9h-6V0h-4.7v8.9h-6V0h-4.7v8.9h-6V0h-4.7v8.9h-6V0h-4.7v8.9h-6
				V0h-4.7v8.9h-6V0h-4.7v11.3l-8.2,8.2H37.2v4.7h8.9v6h-8.9v4.7h8.9v6h-8.9v4.7h8.9v6h-8.9v4.7h8.9v6h-8.9v4.7h8.9v6h-8.9v4.7h8.9
				v6h-8.9v4.7h11.3l8.2,8.2v11.3h4.7v-8.9h6v8.9H72v-8.9h6v8.9h4.7v-8.9h6v8.9h4.7v-8.9h6v8.9h4.7v-8.9h6v8.9h4.7v-8.9h6v8.9h4.7
				V96.4l8.2-8.2h11.3v-4.7H136v-6h8.9v-4.7H136v-6h8.9v-4.7H136v-6h8.9v-4.7H136v-6h8.9v-4.7H136v-6h8.9v-4.7H136v-6H144.9z
				 M133.3,24.4v58.8l-12.8,12.8H61.7L48.8,83.2V24.4l12.8-12.8h58.8L133.3,24.4z"/>
		</g>
		<g>
			<path fill="#805DA8" d="M118.5,16.3H63.6L53.5,26.4v54.9l10.1,10.1h54.9l10.1-10.1V26.4L118.5,16.3z M115.9,71.5l-7.1,7.1H73.4
				l-7.1-7.1V36.2l7.1-7.1h35.4l7.1,7.1V71.5z"/>
		</g>
		<g>
			<rect x="79" y="41.5" fill="#414042" width="24" height="24.7"/>
		</g>
		<g>
			<rect x="107.8" y="40.3" fill="#805DA8" width="3.6" height="2.3"/>
		</g>
		<g>
			<rect x="107.8" y="65" fill="#805DA8" width="3.6" height="2.3"/>
		</g>
		<g>
			<rect x="107.8" y="44.5" fill="#805DA8" width="3.6" height="2.3"/>
		</g>
		<g>
			<rect x="107.8" y="48.6" fill="#805DA8" width="3.6" height="2.3"/>
		</g>
		<g>
			<rect x="107.8" y="52.7" fill="#805DA8" width="3.6" height="2.3"/>
		</g>
		<g>
			<rect x="107.8" y="56.8" fill="#805DA8" width="3.6" height="2.3"/>
		</g>
		<g>
			<rect x="107.8" y="60.9" fill="#805DA8" width="3.6" height="2.3"/>
		</g>
		<g>
			<rect x="70.7" y="40.3" fill="#805DA8" width="3.8" height="2.3"/>
		</g>
		<g>
			<rect x="70.7" y="65" fill="#805DA8" width="3.8" height="2.3"/>
		</g>
		<g>
			<rect x="70.7" y="44.5" fill="#805DA8" width="3.8" height="2.3"/>
		</g>
		<g>
			<rect x="70.7" y="48.6" fill="#805DA8" width="3.8" height="2.3"/>
		</g>
		<g>
			<rect x="70.7" y="52.7" fill="#805DA8" width="3.8" height="2.3"/>
		</g>
		<g>
			<rect x="70.7" y="56.8" fill="#805DA8" width="3.8" height="2.3"/>
		</g>
		<g>
			<rect x="70.7" y="60.9" fill="#805DA8" width="3.8" height="2.3"/>
		</g>
		<g>
			<rect x="102.2" y="70.9" fill="#805DA8" width="2.3" height="3.3"/>
		</g>
		<g>
			<rect x="77.6" y="70.9" fill="#805DA8" width="2.3" height="3.3"/>
		</g>
		<g>
			<rect x="98.1" y="70.9" fill="#805DA8" width="2.3" height="3.3"/>
		</g>
		<g>
			<rect x="94" y="70.9" fill="#805DA8" width="2.3" height="3.3"/>
		</g>
		<g>
			<rect x="89.9" y="70.9" fill="#805DA8" width="2.3" height="3.3"/>
		</g>
		<g>
			<rect x="85.8" y="70.9" fill="#805DA8" width="2.3" height="3.3"/>
		</g>
		<g>
			<rect x="81.7" y="70.9" fill="#805DA8" width="2.3" height="3.3"/>
		</g>
		<g>
			<rect x="102.2" y="33.5" fill="#805DA8" width="2.3" height="3.3"/>
		</g>
		<g>
			<rect x="77.6" y="33.5" fill="#805DA8" width="2.3" height="3.3"/>
		</g>
		<g>
			<rect x="98.1" y="33.5" fill="#805DA8" width="2.3" height="3.3"/>
		</g>
		<g>
			<rect x="94" y="33.5" fill="#805DA8" width="2.3" height="3.3"/>
		</g>
		<g>
			<rect x="89.9" y="33.5" fill="#805DA8" width="2.3" height="3.3"/>
		</g>
		<g>
			<rect x="85.8" y="33.5" fill="#805DA8" width="2.3" height="3.3"/>
		</g>
		<g>
			<rect x="81.7" y="33.5" fill="#805DA8" width="2.3" height="3.3"/>
		</g>
		<g>
			<path fill="#414042" d="M103.9,180.8H78.3v-25.6h25.6V180.8z M83.6,175.5h15v-15h-15V175.5z"/>
		</g>
		<g>
			<path fill="#414042" d="M25.6,180.8H0v-25.6h25.6V180.8z M5.3,175.5h15v-15h-15V175.5z"/>
		</g>
		<g>
			<path fill="#805DA8" d="M182.1,180.8h-25.6v-25.6h25.6V180.8z M161.8,175.5h15v-15h-15V175.5z"/>
		</g>
		<g>
			<g>
				<g>
					<g>
						<path fill="#414042" d="M93.7,234.3h-5.3v-21.4c0-0.7-0.6-1.3-1.3-1.3H14.8v-5.3h72.3c3.6,0,6.6,3,6.6,6.6V234.3z"/>
					</g>
				</g>
				<g>
					<g>
						<rect x="10.2" y="186.1" fill="#414042" width="5.3" height="48.2"/>
					</g>
				</g>
			</g>
		</g>
		<g>
			<path fill="#805DA8" d="M25.6,257.2H0v-25.6h25.6V257.2z M5.3,251.9h15v-15h-15V251.9z"/>
		</g>
		<g>
			<path fill="#414042" d="M103.9,257.2H78.3v-25.6h25.6V257.2z M83.6,251.9h15v-15h-15V251.9z"/>
		</g>
	</g>
</g>
<g id="Layer_2">
</g>
<g id="Layer_3">
</g>
<g id="Layer_4">
</g>
</svg>
