<?xml version="1.0" encoding="utf-8"?>
<!-- Generator: Adobe Illustrator 18.1.1, SVG Export Plug-In . SVG Version: 6.00 Build 0)  -->
<svg version="1.1" xmlns="http://www.w3.org/2000/svg" xmlns:xlink="http://www.w3.org/1999/xlink" x="0px" y="0px"
	 viewBox="0 0 333.5 309.7" enable-background="new 0 0 333.5 309.7" xml:space="preserve">
<g id="Layer_1">
	<g>
		<g>
			<path fill="#0CB3DB" d="M80.7,191.3c-0.7,0-1.4-0.3-1.9-0.8c-1-1.1-0.9-2.7,0.1-3.7L188.3,86c1-1,2.7-0.9,3.7,0.1
				c1,1.1,0.9,2.7-0.1,3.7L82.4,190.7C81.9,191.1,81.3,191.3,80.7,191.3z"/>
		</g>
		<g>
			<path fill="#434343" d="M62,234.6c-0.7,0-1.4-0.3-1.9-0.8c-1-1.1-0.9-2.7,0.1-3.7L162,136.4c1-1,2.7-0.9,3.7,0.1
				c1,1.1,0.9,2.7-0.1,3.7L63.8,233.9C63.3,234.4,62.7,234.6,62,234.6z"/>
		</g>
		<g>
			<path fill="#0CB3DB" d="M2.6,309.7c-0.7,0-1.4-0.3-1.9-0.8c-1-1.1-0.9-2.7,0.1-3.7l179-165c1-1,2.7-0.9,3.7,0.1
				c1,1.1,0.9,2.7-0.1,3.7l-179,165C3.8,309.5,3.2,309.7,2.6,309.7z"/>
		</g>
		<g>
			<path fill="#0CB3DB" d="M144.6,197.7c-0.7,0-1.4-0.3-1.9-0.8c-1-1.1-0.9-2.7,0.1-3.7l29.7-27.4c1-1,2.7-0.9,3.7,0.1
				c1,1.1,0.9,2.7-0.1,3.7L146.4,197C145.9,197.4,145.3,197.7,144.6,197.7z"/>
		</g>
		<g>
			<path fill="#434343" d="M144.6,222.7c-0.7,0-1.4-0.3-1.9-0.8c-1-1.1-0.9-2.7,0.1-3.7l84-77.4c1-1,2.7-0.9,3.7,0.1
				c1,1.1,0.9,2.7-0.1,3.7l-84,77.4C145.9,222.5,145.3,222.7,144.6,222.7z"/>
		</g>
		<g>
			<g>
				<g>
					<path fill="#434343" d="M267.4,38.3c-2.1,1.9-4.1,3.9-6,5.8c-8,0.5-21.4,4.4-38.7,20.7c0,0,16-3.3,14.3,7.1
						c-2.7,3.7-5.1,7.2-7,10.5l15.2,16.1c3.4-1.7,7-3.9,10.9-6.4c10.4-1,6.2,14.7,6.2,14.7c17.3-16.3,22-29.4,23-37.3
						c2.1-1.8,4.1-3.7,6.2-5.7C321.3,35.5,333.5,0,333.5,0S297.3,10.1,267.4,38.3z M303.8,35.3c-2.2,2-5.5,1.9-7.6-0.2
						c-2-2.2-1.9-5.5,0.2-7.6c2.2-2,5.5-1.9,7.6,0.2C306.1,29.9,306,33.3,303.8,35.3z"/>
				</g>
			</g>
			<g>
				<path fill="#0CB3DB" d="M190.1,135.3l2.8-5.9c1.5-3.2,14.8-30.9,20-35.8c2.8-2.6,6.4-4,10.2-4c4.1,0,8.1,1.7,10.9,4.7
					c5.6,6,5.3,15.5-0.7,21.1c-5.2,4.8-33.8,16.2-37,17.5L190.1,135.3z M223.1,94.8c-2.5,0-4.8,0.9-6.6,2.6
					c-2.8,2.6-10.3,16.9-15.9,28.2c11.7-4.8,26.4-11.3,29.2-14c3.9-3.7,4.1-9.8,0.5-13.8C228.3,95.9,225.8,94.8,223.1,94.8z"/>
			</g>
		</g>
	</g>
</g>
<g id="Layer_2">
</g>
<g id="Layer_3">
</g>
<g id="Layer_4">
</g>
</svg>
