<?xml version="1.0" encoding="utf-8"?>
<!-- Generator: Adobe Illustrator 18.1.1, SVG Export Plug-In . SVG Version: 6.00 Build 0)  -->
<svg version="1.1" xmlns="http://www.w3.org/2000/svg" xmlns:xlink="http://www.w3.org/1999/xlink" x="0px" y="0px"
	 viewBox="0 0 139.9 139.9" enable-background="new 0 0 139.9 139.9" xml:space="preserve">
<g id="Layer_1">
	<g>
		<path fill="#434343" d="M112.4,9.6c4.9-4.9,12.9-4.9,17.8,0c4.9,4.9,4.9,12.9,0,17.8L93.7,64l4.2,4.2l36.5-36.5
			c7.2-7.2,7.2-19,0-26.2c-7.2-7.2-19-7.2-26.2,0L71.7,42l4.2,4.2L112.4,9.6z"/>
		<polygon fill="#434343" points="21.3,120.6 19.2,126.1 8.2,132.7 7.2,131.7 13.7,120.7 19.3,118.5 54.7,83.1 50.5,78.9 16,113.4 
			9.4,116 0,132.9 7,139.9 23.9,130.5 26.4,123.9 61,89.3 56.8,85.1 		"/>
		<polygon fill="#434343" points="79.8,50.1 84,54.3 120.9,17.5 116.7,13.2 		"/>
		<polygon fill="#434343" points="126.6,23.2 122.4,19 85.6,55.9 89.8,60.1 		"/>
		<path fill="#0CB3DB" d="M70.1,50.7C57.8,38.5,49.3,28.6,48.6,25c0-0.2-0.1-0.4-0.1-0.6c-0.3-5.4-2.5-10.6-6.6-14.7
			C35.1,3,25.2,1.3,16.8,4.9l0.3,0.3c0,0,15.5,15.5,15.5,15.5c1.7,1.7,0.3,5.8-3,9.1c-3.3,3.3-7.4,4.7-9.1,3
			c0,0-15.5-15.5-15.5-15.5L4.7,17c-3.5,8.3-1.9,18.3,4.9,25.1c4.1,4.1,9.4,6.3,14.7,6.6c0.2,0,0.4,0.1,0.6,0.1
			c3.6,0.6,13.5,9.2,25.7,21.4l64.4,64.4c5.4,5.4,14.1,5.4,19.5,0c5.4-5.4,5.4-14.1,0-19.5L70.1,50.7z M127.9,128
			c-1.7,1.7-4.5,1.7-6.3,0c-1.7-1.7-1.7-4.5,0-6.3c1.7-1.7,4.5-1.7,6.3,0C129.6,123.5,129.6,126.3,127.9,128z"/>
	</g>
</g>
<g id="Layer_2">
</g>
<g id="Layer_3">
</g>
<g id="Layer_4">
</g>
</svg>
