<?xml version="1.0" encoding="utf-8"?>
<!-- Generator: Adobe Illustrator 19.2.1, SVG Export Plug-In . SVG Version: 6.00 Build 0)  -->
<!DOCTYPE svg PUBLIC "-//W3C//DTD SVG 1.1//EN" "http://www.w3.org/Graphics/SVG/1.1/DTD/svg11.dtd">
<svg version="1.1" id="Layer_1" xmlns="http://www.w3.org/2000/svg" xmlns:xlink="http://www.w3.org/1999/xlink" x="0px" y="0px"
	 viewBox="0 0 16 16" style="enable-background:new 0 0 16 16;" xml:space="preserve">
<path d="M5.8,3.2c0,0.4,0,2.3,0,2.3H4.2v2.8h1.6V16h3.4V8.3h2.3c0,0,0.2-1.3,0.3-2.8c-0.3,0-2.6,0-2.6,0s0-1.6,0-1.9
	c0-0.3,0.4-0.7,0.7-0.7c0.4,0,1.1,0,1.8,0c0-0.4,0-1.7,0-2.9c-0.9,0-2,0-2.5,0C5.8,0,5.8,2.8,5.8,3.2z"/>
</svg>
