<?xml version="1.0" encoding="utf-8"?>
<!-- Generator: Adobe Illustrator 19.2.1, SVG Export Plug-In . SVG Version: 6.00 Build 0)  -->
<!DOCTYPE svg PUBLIC "-//W3C//DTD SVG 1.1//EN" "http://www.w3.org/Graphics/SVG/1.1/DTD/svg11.dtd">
<svg version="1.1" id="Layer_1" xmlns="http://www.w3.org/2000/svg" xmlns:xlink="http://www.w3.org/1999/xlink" x="0px" y="0px"
	 viewBox="0 0 324 290" style="enable-background:new 0 0 324 290;" xml:space="preserve">
<style type="text/css">
	.st0{opacity:0.9;}
	.st1{fill:none;stroke:#0AB8FA;stroke-width:3;stroke-linecap:round;stroke-miterlimit:10;}
	.st2{fill:#D2D7D9;}
	.st3{fill:#282828;}
	.st4{fill:#444444;}
	.st5{fill:#5FD9FF;}
	.st6{fill:none;stroke:#00AEEF;stroke-width:1.2;stroke-miterlimit:10;}
</style>
<g class="st0">
	<g>
		<path class="st1" d="M188.7,247.4c-8.1,3.9-17.1,6.1-26.7,6.1s-18.6-2.2-26.7-6.1"/>
		<path class="st1" d="M179.7,228.9c-5.4,2.6-11.4,4.1-17.7,4.1c-6.4,0-12.4-1.5-17.7-4.1"/>
		<path class="st1" d="M170.9,210.5c-2.7,1.3-5.7,2-8.9,2s-6.2-0.7-8.9-2"/>
	</g>
	<g>
		<path class="st1" d="M135.3,37.5c8.1-3.9,17.1-6.1,26.7-6.1s18.6,2.2,26.7,6.1"/>
		<path class="st1" d="M144.3,56c5.4-2.6,11.4-4.1,17.7-4.1c6.4,0,12.4,1.5,17.7,4.1"/>
		<path class="st1" d="M153.1,74.4c2.7-1.3,5.7-2,8.9-2s6.2,0.7,8.9,2"/>
	</g>
	<path class="st2" d="M54.2,289.1H3c-1.7,0-3-1.4-3-3v-88c0-1.6,1.4-3,3-3h51.2c1.7,0,3,1.4,3,3v88
		C57.2,287.8,55.9,289.1,54.2,289.1z"/>
	<rect x="4.6" y="200.1" class="st3" width="48" height="72.7"/>
	<path class="st2" d="M54.2,94.8H3c-1.7,0-3-1.4-3-3v-88c0-1.7,1.4-3,3-3h51.2c1.7,0,3,1.3,3,3v88C57.2,93.5,55.9,94.8,54.2,94.8z"
		/>
	<rect x="4.6" y="5.9" class="st3" width="48" height="72.7"/>
	<path class="st2" d="M321,289.1h-51.2c-1.6,0-3-1.4-3-3v-88c0-1.6,1.4-3,3-3H321c1.6,0,3,1.4,3,3v88
		C324,287.8,322.7,289.1,321,289.1z"/>
	<rect x="271.4" y="200.1" class="st3" width="48" height="72.7"/>
	<path class="st2" d="M321,94.8h-51.2c-1.6,0-3-1.4-3-3v-88c0-1.7,1.4-3,3-3H321c1.6,0,3,1.3,3,3v88C324,93.5,322.7,94.8,321,94.8z"
		/>
	<rect x="271.4" y="5.9" class="st3" width="48" height="72.7"/>
	<g>
		<g>
			<g>
				<g>
					<path class="st2" d="M205.1,141.9h-82c-0.6,0-1-0.5-1-1v-15.3c0-0.5,0.4-1,1-1h82c0.6,0,1,0.5,1,1v15.3
						C206.1,141.5,205.7,141.9,205.1,141.9z"/>
					<circle class="st4" cx="131.6" cy="133.3" r="3.4"/>
				</g>
				<g>
					<path class="st2" d="M205.1,165.4h-82c-0.6,0-1-0.4-1-1v-15.3c0-0.6,0.4-1,1-1h82c0.6,0,1,0.4,1,1v15.3
						C206.1,164.9,205.7,165.4,205.1,165.4z"/>
					<circle class="st4" cx="131.6" cy="156.7" r="3.4"/>
				</g>
			</g>
			<path class="st4" d="M198.6,135.6h-15.9c-0.5,0-0.9-0.4-0.9-0.9v-2.8c0-0.5,0.4-0.9,0.9-0.9h15.9c0.5,0,0.9,0.4,0.9,0.9v2.8
				C199.5,135.2,199.1,135.6,198.6,135.6z"/>
			<path class="st4" d="M198.6,159h-15.9c-0.5,0-0.9-0.4-0.9-0.9v-2.8c0-0.5,0.4-0.9,0.9-0.9h15.9c0.5,0,0.9,0.4,0.9,0.9v2.8
				C199.5,158.6,199.1,159,198.6,159z"/>
		</g>
		<g>
			<path class="st2" d="M99.7,147.2H74.3c-0.4,0-0.7-0.3-0.7-0.7v-3c0-0.4,0.3-0.7,0.7-0.7h25.3c0.4,0,0.7,0.3,0.7,0.7v3
				C100.4,146.9,100.1,147.2,99.7,147.2z"/>
			<path class="st5" d="M66.6,147.2H41.2c-0.4,0-0.7-0.3-0.7-0.7v-3c0-0.4,0.3-0.7,0.7-0.7h25.3c0.4,0,0.7,0.3,0.7,0.7v3
				C67.3,146.9,67,147.2,66.6,147.2z"/>
			<path class="st5" d="M284.8,147.2h-25.3c-0.4,0-0.7-0.3-0.7-0.7v-3c0-0.4,0.3-0.7,0.7-0.7h25.3c0.4,0,0.7,0.3,0.7,0.7v3
				C285.5,146.9,285.2,147.2,284.8,147.2z"/>
			<path class="st2" d="M251.7,147.2h-25.3c-0.4,0-0.7-0.3-0.7-0.7v-3c0-0.4,0.3-0.7,0.7-0.7h25.3c0.4,0,0.7,0.3,0.7,0.7v3
				C252.4,146.9,252.1,147.2,251.7,147.2z"/>
		</g>
		<g>
			<path class="st2" d="M116.7,101.8L98.7,83.9c-0.3-0.3-0.3-0.7,0-1l2.1-2.1c0.3-0.3,0.7-0.3,1,0l17.9,17.9c0.3,0.3,0.3,0.7,0,1
				l-2.1,2.1C117.4,102.1,116.9,102.1,116.7,101.8z"/>
			<path class="st5" d="M93.2,78.4L75.3,60.5c-0.3-0.3-0.3-0.7,0-1l2.1-2.1c0.3-0.3,0.7-0.3,1,0l17.9,17.9c0.3,0.3,0.3,0.7,0,1
				l-2.1,2.1C94,78.6,93.5,78.6,93.2,78.4z"/>
			<path class="st5" d="M247.6,232.7l-17.9-17.9c-0.3-0.3-0.3-0.7,0-1l2.1-2.1c0.3-0.3,0.7-0.3,1,0l17.9,17.9c0.3,0.3,0.3,0.7,0,1
				l-2.1,2.1C248.3,233,247.8,233,247.6,232.7z"/>
			<path class="st2" d="M224.2,209.3l-17.9-17.9c-0.3-0.3-0.3-0.7,0-1l2.1-2.1c0.3-0.3,0.7-0.3,1,0l17.9,17.9c0.3,0.3,0.3,0.7,0,1
				l-2.1,2.1C224.9,209.6,224.4,209.6,224.2,209.3z"/>
		</g>
		<g>
			<path class="st2" d="M206.2,98.6l17.9-17.9c0.3-0.3,0.7-0.3,1,0l2.1,2.1c0.3,0.3,0.3,0.7,0,1l-17.9,17.9c-0.3,0.3-0.7,0.3-1,0
				l-2.1-2.1C206,99.4,206,98.9,206.2,98.6z"/>
			<path class="st5" d="M229.7,75.2l17.9-17.9c0.3-0.3,0.7-0.3,1,0l2.1,2.1c0.3,0.3,0.3,0.7,0,1l-17.9,17.9c-0.3,0.3-0.7,0.3-1,0
				l-2.1-2.1C229.4,76,229.4,75.5,229.7,75.2z"/>
			<path class="st5" d="M75.3,229.5l17.9-17.9c0.3-0.3,0.7-0.3,1,0l2.1,2.1c0.3,0.3,0.3,0.7,0,1l-17.9,17.9c-0.3,0.3-0.7,0.3-1,0
				l-2.1-2.1C75.1,230.3,75.1,229.8,75.3,229.5z"/>
			<path class="st2" d="M98.7,206.1l17.9-17.9c0.3-0.3,0.7-0.3,1,0l2.1,2.1c0.3,0.3,0.3,0.7,0,1l-17.9,17.9c-0.3,0.3-0.7,0.3-1,0
				l-2.1-2.1C98.5,206.9,98.5,206.4,98.7,206.1z"/>
		</g>
	</g>
	<circle class="st4" cx="28.6" cy="86.6" r="3.4"/>
	<circle class="st4" cx="295.4" cy="281" r="3.4"/>
	<path class="st4" d="M307,88.9h-23.2c-0.5,0-0.9-0.4-0.9-0.9v-2.8c0-0.5,0.4-0.9,0.9-0.9H307c0.5,0,0.9,0.4,0.9,0.9V88
		C307.9,88.5,307.5,88.9,307,88.9z"/>
	<path class="st4" d="M40.2,283.3H17c-0.5,0-0.9-0.4-0.9-0.9v-2.8c0-0.5,0.4-0.9,0.9-0.9h23.2c0.5,0,0.9,0.4,0.9,0.9v2.8
		C41.1,282.9,40.7,283.3,40.2,283.3z"/>
	<polygon class="st6" points="284.7,51.5 306.1,51.5 295.4,32.9 	"/>
	<polygon class="st6" points="305.8,242.5 295.4,248.5 285,242.5 285,230.5 295.4,224.5 305.8,230.5 	"/>
	<circle class="st6" cx="28.6" cy="42.2" r="10.3"/>
	<rect x="18.9" y="226.4" class="st6" width="19.4" height="20.2"/>
</g>
</svg>
