<?xml version="1.0" encoding="utf-8"?>
<!-- Generator: Adobe Illustrator 19.2.1, SVG Export Plug-In . SVG Version: 6.00 Build 0)  -->
<!DOCTYPE svg PUBLIC "-//W3C//DTD SVG 1.1//EN" "http://www.w3.org/Graphics/SVG/1.1/DTD/svg11.dtd">
<svg version="1.1" id="Layer_1" xmlns="http://www.w3.org/2000/svg" xmlns:xlink="http://www.w3.org/1999/xlink" x="0px" y="0px"
	 viewBox="0 0 226 210" style="enable-background:new 0 0 226 210;" xml:space="preserve">
<style type="text/css">
	.st0{fill:#0CB3DB;}
	.st1{fill:#434343;}
</style>
<g id="Layer_1_1_">
	<g>
		<g>
			<path class="st0" d="M54.7,129.7c-0.5,0-0.9-0.2-1.3-0.5c-0.7-0.7-0.6-1.8,0.1-2.5l74.1-68.3c0.7-0.7,1.8-0.6,2.5,0.1
				c0.7,0.7,0.6,1.8-0.1,2.5l-74.2,68.4C55.5,129.6,55.1,129.7,54.7,129.7z"/>
		</g>
		<g>
			<path class="st1" d="M42,159c-0.5,0-0.9-0.2-1.3-0.5c-0.7-0.7-0.6-1.8,0.1-2.5l69-63.5c0.7-0.7,1.8-0.6,2.5,0.1
				c0.7,0.7,0.6,1.8-0.1,2.5l-69,63.5C42.9,158.9,42.5,159,42,159z"/>
		</g>
		<g>
			<path class="st0" d="M1.8,209.9c-0.5,0-0.9-0.2-1.3-0.5c-0.7-0.7-0.6-1.8,0.1-2.5L121.8,95.1c0.7-0.7,1.8-0.6,2.5,0.1
				c0.7,0.7,0.6,1.8-0.1,2.5L3,209.5C2.6,209.8,2.2,209.9,1.8,209.9z"/>
		</g>
		<g>
			<path class="st0" d="M98,134c-0.5,0-0.9-0.2-1.3-0.5c-0.7-0.7-0.6-1.8,0.1-2.5l20.1-18.6c0.7-0.7,1.8-0.6,2.5,0.1
				c0.7,0.7,0.6,1.8-0.1,2.5l-20.1,18.6C98.9,133.8,98.5,134,98,134z"/>
		</g>
		<g>
			<path class="st1" d="M98,151c-0.5,0-0.9-0.2-1.3-0.5c-0.7-0.7-0.6-1.8,0.1-2.5l56.9-52.5c0.7-0.7,1.8-0.6,2.5,0.1
				c0.7,0.7,0.6,1.8-0.1,2.5l-56.9,52.5C98.9,150.8,98.5,151,98,151z"/>
		</g>
		<g>
			<g>
				<g>
					<path class="st1" d="M181.2,26c-1.4,1.3-2.8,2.6-4.1,3.9c-5.4,0.3-14.5,3-26.2,14c0,0,10.8-2.2,9.7,4.8
						c-1.8,2.5-3.5,4.9-4.7,7.1l10.3,10.9c2.3-1.2,4.7-2.6,7.4-4.3c7-0.7,4.2,10,4.2,10c11.7-11,14.9-19.9,15.6-25.3
						c1.4-1.2,2.8-2.5,4.2-3.9C217.7,24.1,226,0.1,226,0.1S201.5,6.9,181.2,26z M205.9,24c-1.5,1.4-3.7,1.3-5.2-0.1
						c-1.4-1.5-1.3-3.7,0.1-5.2c1.5-1.4,3.7-1.3,5.2,0.1C207.4,20.3,207.4,22.6,205.9,24z"/>
				</g>
			</g>
			<g>
				<path class="st0" d="M128.8,91.8l1.9-4c1-2.2,10-20.9,13.6-24.3c1.9-1.8,4.3-2.7,6.9-2.7c2.8,0,5.5,1.2,7.4,3.2
					c3.8,4.1,3.6,10.5-0.5,14.3c-3.5,3.3-22.9,11-25.1,11.9L128.8,91.8z M151.2,64.3c-1.7,0-3.3,0.6-4.5,1.8
					c-1.9,1.8-7,11.5-10.8,19.1c7.9-3.3,17.9-7.7,19.8-9.5c2.6-2.5,2.8-6.6,0.3-9.4C154.7,65.1,153,64.3,151.2,64.3z"/>
			</g>
		</g>
	</g>
</g>
<g id="Layer_2">
</g>
<g id="Layer_3">
</g>
<g id="Layer_4">
</g>
</svg>
