<?xml version="1.0" encoding="utf-8"?>
<!-- Generator: Adobe Illustrator 19.2.1, SVG Export Plug-In . SVG Version: 6.00 Build 0)  -->
<!DOCTYPE svg PUBLIC "-//W3C//DTD SVG 1.1//EN" "http://www.w3.org/Graphics/SVG/1.1/DTD/svg11.dtd">
<svg version="1.1" id="Layer_1" xmlns="http://www.w3.org/2000/svg" xmlns:xlink="http://www.w3.org/1999/xlink" x="0px" y="0px"
	 viewBox="130 278 532 56" style="enable-background:new 130 278 532 56;" xml:space="preserve">
<style type="text/css">
	.st0{fill:#FFFFFF;}
</style>
<g>
	<path class="st0" d="M153.8,332.3h-23.3v-52.6h20.7c3.8,0,6.8,0.4,9.4,1.1c2.6,0.8,4.5,1.9,6,3.4c2.3,2.6,3.4,5.6,3.4,9.4
		c0,4.1-1.5,7.1-4.1,9.4c-0.8,0.8-1.5,1.1-1.9,1.5c-0.4,0-1.1,0.4-1.9,0.8c3.4,0.8,6,2.3,7.9,4.5c1.9,2.3,3,4.9,3,8.3
		c0,3.8-1.1,6.8-3.8,9.8C166.2,330.8,160.9,332.3,153.8,332.3z M142.5,301.1h5.6c3.4,0,5.6-0.4,7.1-1.1c1.5-0.8,2.3-2.3,2.3-4.5
		s-0.8-3.8-2.3-4.5s-3.8-1.1-7.5-1.1h-5.3V301.1z M142.5,322.5h7.9c3.4,0,6-0.4,7.5-1.1s2.6-2.6,2.6-4.9c0-2.6-0.8-4.1-2.6-4.9
		c-1.9-0.8-4.5-1.1-8.6-1.1h-6.8V322.5z"/>
	<path class="st0" d="M227,325.2c-5.3,5.3-12,7.9-19.9,7.9c-7.9,0-14.3-2.6-19.9-7.9s-7.9-11.6-7.9-19.5s2.6-14.3,7.9-19.5
		c5.3-5.3,12-7.9,19.9-7.9s14.3,2.6,19.9,7.9s7.9,11.6,7.9,19.5C235.3,313.5,232.3,319.9,227,325.2z M223.3,305.6
		c0-4.9-1.5-8.6-4.5-12c-3-3.4-6.8-4.9-11.3-4.9c-4.5,0-8.3,1.5-11.3,4.9c-3,3.4-4.5,7.5-4.5,12c0,4.9,1.5,8.6,4.5,12
		s6.8,4.9,11.3,4.9c4.5,0,8.3-1.5,11.3-4.9C221.8,314.3,223.3,310.5,223.3,305.6z"/>
	<path class="st0" d="M257.1,290.2c-1.1,0.8-1.9,2.3-1.9,3.8c0,1.5,0.8,2.6,2.3,3.8c1.5,0.8,4.5,1.9,9.8,3.4c4.9,1.1,9,3,11.6,5.6
		c2.6,2.6,4.1,6,4.1,10.9s-1.9,8.6-5.3,11.6c-3.4,3-8.3,4.5-13.9,4.5c-8.3,0-15.8-3-22.5-9.4l7.1-8.6c5.6,4.9,10.9,7.5,15.8,7.5
		c2.3,0,3.8-0.4,5.3-1.5c1.1-0.8,1.9-2.3,1.9-3.8c0-1.5-0.8-3-1.9-3.8c-1.1-0.8-3.8-1.9-7.9-3c-6-1.5-10.5-3.4-13.5-5.6
		c-3-2.3-4.1-6-4.1-10.9s1.9-9,5.3-11.6c3.8-2.6,8.3-4.1,13.5-4.1c3.4,0,7.1,0.8,10.5,1.9c3.4,1.1,6.8,3,9.4,5.3l-6,8.6
		c-4.5-3.4-9.4-5.3-14.3-5.3C259.7,288.7,258.2,289.1,257.1,290.2z"/>
	<path class="st0" d="M314.9,289.9v42.4h-11.6v-42.4h-15v-10.1h41.7v10.1H314.9z"/>
	<path class="st0" d="M381.4,325.2c-5.3,5.3-12,7.9-19.9,7.9c-7.9,0-14.3-2.6-19.9-7.9s-7.9-11.6-7.9-19.5s2.6-14.3,7.9-19.5
		c5.3-5.3,12-7.9,19.9-7.9c7.9,0,14.3,2.6,19.9,7.9c5.3,5.3,7.9,11.6,7.9,19.5S386.6,319.9,381.4,325.2z M377.2,305.6
		c0-4.9-1.5-8.6-4.5-12c-3-3.4-6.8-4.9-11.3-4.9c-4.5,0-8.3,1.5-11.3,4.9c-3,3.4-4.5,7.5-4.5,12c0,4.9,1.5,8.6,4.5,12
		c3,3.4,6.8,4.9,11.3,4.9c4.5,0,8.3-1.5,11.3-4.9C375.7,314.3,377.2,310.5,377.2,305.6z"/>
	<path class="st0" d="M436.2,279.7h11.6v52.6h-11.6l-25.2-33v33h-11.6v-52.6h10.9l25.9,34.2L436.2,279.7L436.2,279.7z"/>
	<path class="st0" d="M497.4,284.2c3.8,3,5.6,7.9,5.6,14.6c0,6.4-1.9,11.3-5.6,14.3c-3.8,3-9.8,4.5-17.3,4.5H473v14.6h-11.6v-52.6
		h18.8C488,279.7,493.6,281.2,497.4,284.2z M488.8,305.2c1.5-1.5,2.3-3.8,2.3-7.1c0-3.4-0.8-5.3-2.6-6.4c-1.9-1.1-4.9-1.9-8.6-1.9
		H473v17.6h7.9C484.6,307.5,487.3,306.8,488.8,305.2z"/>
	<path class="st0" d="M546.6,332.3l-4.9-11.3h-22.2l-4.9,11.3h-12.4l22.9-52.9h11.3l22.9,52.9H546.6z M530.8,295.5l-6.8,15.4h13.1
		L530.8,295.5z"/>
	<path class="st0" d="M605.9,286.5c4.9,4.5,7.5,10.9,7.5,19.2s-2.6,14.6-7.5,19.5c-4.9,4.9-12.4,7.1-22.5,7.1h-18v-52.6h18.8
		C593.5,279.7,600.7,282,605.9,286.5z M597.3,318c3-2.6,4.5-6.8,4.5-12c0-5.3-1.5-9-4.5-12c-3-2.6-7.5-4.1-13.5-4.1H577v32.3h7.5
		C590.1,322.1,594.3,320.6,597.3,318z"/>
	<path class="st0" d="M635.6,290.2c-1.1,0.8-1.9,2.3-1.9,3.8c0,1.5,0.8,2.6,2.3,3.8c1.5,0.8,4.5,1.9,9.8,3.4c4.9,1.1,9,3,11.6,5.6
		c2.6,2.6,4.1,6,4.1,10.9s-1.9,8.6-5.3,11.6c-3.4,3-8.3,4.5-13.9,4.5c-8.3,0-15.8-3-22.5-9.4l7.1-8.6c5.6,4.9,10.9,7.5,15.8,7.5
		c2.3,0,3.8-0.4,5.3-1.5c1.1-0.8,1.9-2.3,1.9-3.8c0-1.5-0.8-3-1.9-3.8s-3.8-1.9-7.9-3c-6-1.5-10.5-3.4-13.5-5.6
		c-3-2.3-4.1-6-4.1-10.9s1.9-9,5.3-11.6s8.3-4.1,13.5-4.1c3.4,0,7.1,0.8,10.5,1.9s6.8,3,9.4,5.3l-6,8.6c-4.5-3.4-9.4-5.3-14.3-5.3
		C638.2,288.7,636.7,289.1,635.6,290.2z"/>
</g>
</svg>
