<?xml version="1.0" encoding="utf-8"?>
<!-- Generator: Adobe Illustrator 19.2.1, SVG Export Plug-In . SVG Version: 6.00 Build 0)  -->
<!DOCTYPE svg PUBLIC "-//W3C//DTD SVG 1.1//EN" "http://www.w3.org/Graphics/SVG/1.1/DTD/svg11.dtd">
<svg version="1.1" id="Layer_1" xmlns="http://www.w3.org/2000/svg" xmlns:xlink="http://www.w3.org/1999/xlink" x="0px" y="0px"
	 viewBox="0 0 310 128" style="enable-background:new 0 0 310 128;" xml:space="preserve">
<style type="text/css">
	.st0{fill:#B12931;}
	.st1{fill:#EC2127;}
	.st2{fill:#1252A0;}
	.st3{fill:#2AACE3;}
	.st4{fill:#01A64F;}
	.st5{fill:#A5CE39;}
</style>
<g>
	<g>
		<path d="M10,6.5L15,43.7L33.4,6.5h7.6L14.2,58H8.3L0,6.5H10z"/>
		<path d="M60.1,53.4c-4.9,3-9.9,5.4-15,5.4c-7,0-11.7-4.4-11.7-12.2c0-12.2,11.3-27.8,24-27.8c6,0,8,3.7,8,7.1
			c0,5.3-3.4,8.6-7.9,10.5c-4.4,2-9.9,2.7-13.7,3.1c-0.9,2.6-1.2,5.5-1.2,7.5c0,3.3,1.5,6.3,4.9,6.3c2.3,0,5.1-1,10.2-4.1L60.1,53.4
			z M58.3,26.3c0-1.6-0.9-2.9-2.6-2.9c-2.6,0-7.1,3.2-10.7,11.9C49.3,34.8,58.3,33.6,58.3,26.3L58.3,26.3z"/>
		<path d="M81.4,19.5l-2.8,14.1c2.1-4.9,6.3-14.9,13.2-14.9c0.5,0,1,0.1,1.6,0.2l-1.6,7.8c-0.3-0.1-0.9-0.2-1.6-0.2
			c-4.3,0-7.6,5.1-10.1,11.1c-3,6.8-4.9,15-6,20.3h-8.6l7.7-38.5H81.4z"/>
		<path d="M114.5,25.2c-2.8-1.2-4.6-1.4-6.1-1.4c-4.1,0-6,2.3-6,4.5c0,1.7,0.6,2.7,3.7,6l1.2,1.3c3.2,3.3,6,6.5,6,11.1
			c0,5-3.7,12.1-14.3,12.1c-4.3,0-7.6-1.2-10.5-2.9l2.3-4.5c1.7,1,4.4,2.3,7.8,2.3c4.3,0,6.4-2.6,6.4-5.5c0-2.2-1.5-4-4.4-7.1
			L98.9,39c-3.2-3.3-4.8-5.9-4.8-9.2c0-6,5.8-11.1,13.9-11.1c2.5,0,5.8,0.7,8.4,1.8L114.5,25.2z"/>
		<path d="M144.7,58h-8.1l2.3-11.1c-1.9,3.5-6.4,11.8-14.1,11.8c-5.6,0-8.5-4.7-8.5-10.8c0-11.6,8.6-29.2,24.8-29.2
			c4.6,0,8.5,1.4,11.1,2.6L144.7,58z M125.3,47.9c0,1.9,0.9,4.6,3.2,4.6c3.2,0,6.5-4.7,8.3-9c1.5-3.6,4-10,6.1-19.5
			c-0.5-0.2-1.6-0.5-3.2-0.5C131.1,23.5,125.3,39.2,125.3,47.9L125.3,47.9z"/>
		<path d="M175.4,6.5l-9,45.6h17.4l-1.1,5.8h-27.3l10.3-51.4H175.4z"/>
		<path d="M203.4,19.5L195.7,58h-8.8l7.7-38.5H203.4z M207.4,7l-6.9,4.8L196,4.8l6.9-4.8L207.4,7z"/>
		<path d="M221.5,19.5l-2.2,11.1c3.3-6.4,8.3-11.8,14.6-11.8c4.1,0,7.2,2.6,7.2,7.2c0,1.9-0.5,4.9-0.9,6.5L235.2,58h-8.8l5-25.2
			c0.2-0.7,0.9-3.8,0.9-5.3c0-2.2-1.6-2.6-2.5-2.6c-3.7,0-7.2,5.8-8.4,8.5c-3.1,6.8-4.9,14.4-7,24.5h-8.6l7.7-38.5H221.5z"/>
		<path d="M264.7,1.5l-7.2,36.1c3.7-7.3,10.6-18.8,20.6-18.8c1,0,1.6,0.1,2.3,0.2l-0.9,5c-0.6-0.1-1.3-0.2-2.3-0.2
			c-5.5,0-9.4,5.5-10.5,6.9c-0.2,8,2.3,18.4,9,27.2h-10c-2.7-4.3-5.6-11.6-5.8-19.4c-3.1,6.2-5.1,12.7-6.5,19.4h-8.6l11.3-56.5
			H264.7z"/>
	</g>
	<g>
		<polygon class="st0" points="103.8,80.5 115.6,80.5 117.5,80.8 118.8,81.4 119.8,82.2 120.9,83.3 130.4,101.6 113.1,101.6 		"/>
		<polygon class="st1" points="112.9,80.5 100.4,80.5 98.6,80.8 97.4,81.3 96.3,82 95.3,82.9 86.5,97.6 100.7,97.6 109.5,82.8 
			110.2,81.9 110.8,81.4 111.6,81 112.1,80.7 		"/>
		<polygon class="st2" points="136.8,127.9 154.7,127.9 156.5,127.5 157.6,127 158.2,126.4 159,125.4 173.7,99.5 151.7,99.5 		"/>
		<polygon class="st3" points="151.3,127.9 134.3,127.9 132.7,127.7 131.1,127.2 129.8,126.3 128.5,124.8 115,104.8 134.4,104.8 
			144.3,121.4 145.4,123 146.4,124 147.6,125.3 148.7,126.4 150,127.2 		"/>
		<polygon class="st4" points="191.3,67.3 175.9,67.3 173.7,67.7 172.3,68.2 170.9,68.7 169.8,69.6 169.2,70.3 153.7,95.6 
			175.5,95.6 		"/>
		<polygon class="st5" points="177.3,67.3 194.9,67.3 196.9,67.7 198.1,68.3 199.1,69 200.3,70.1 213.6,91.8 193.7,91.8 182.1,70.9 
			181.7,70.4 181.3,69.8 180.7,69.2 179.8,68.4 178.7,67.8 		"/>
	</g>
	<g>
		<path d="M310,12.3c0,6.2-5,11.2-11.2,11.2c-6.2,0-11.2-5-11.2-11.2c0-6.2,5.1-11.2,11.2-11.2C305,1.1,310,6.1,310,12.3L310,12.3z
			 M308.5,12.2c0-5.3-4.3-9.5-9.6-9.5c-5.3,0-9.7,4.2-9.7,9.6c0,5.4,4.3,9.7,9.7,9.7C304.1,21.9,308.5,17.6,308.5,12.2L308.5,12.2z
			 M298,5.4c2.3,0,5.8,0,5.8,3.3c0,2-1.4,3.1-3,3.6l4.3,6.5h-3.5l-3.4-5.8h-0.9v5.8h-3.1V5.4H298z M297.2,6.9v4.6h0.6
			c1.5,0,2.9-0.1,2.9-2.5c0-2-1.1-2.1-2.9-2.1H297.2z"/>
	</g>
</g>
</svg>
