<?xml version="1.0" encoding="utf-8"?>
<!-- Generator: Adobe Illustrator 19.2.1, SVG Export Plug-In . SVG Version: 6.00 Build 0)  -->
<!DOCTYPE svg PUBLIC "-//W3C//DTD SVG 1.1//EN" "http://www.w3.org/Graphics/SVG/1.1/DTD/svg11.dtd">
<svg version="1.1" id="Layer_1" xmlns="http://www.w3.org/2000/svg" xmlns:xlink="http://www.w3.org/1999/xlink" x="0px" y="0px"
	 viewBox="0 0 16 16" style="enable-background:new 0 0 16 16;" xml:space="preserve">
<path d="M8,16c-0.4,0-0.7,0-0.9-0.1c-0.3,0-0.5-0.1-0.7-0.2c-0.2-0.1-0.4-0.2-0.5-0.4c-0.1-0.2-0.2-0.4-0.2-0.6v-4.7H1.5
	c-0.2,0-0.4-0.1-0.5-0.2C0.8,9.9,0.7,9.7,0.6,9.5C0.5,9.3,0.4,9.1,0.4,8.9c0-0.2-0.1-0.5-0.1-0.9c0-0.3,0-0.6,0.1-0.8
	c0-0.3,0.1-0.5,0.2-0.6c0.1-0.2,0.2-0.4,0.4-0.5c0.2-0.1,0.4-0.2,0.6-0.2h4.3V1.2c0-0.2,0.1-0.4,0.2-0.6C6,0.5,6.2,0.3,6.4,0.2
	c0.2-0.1,0.4-0.1,0.7-0.2C7.3,0,7.6,0,8,0c0.4,0,0.7,0,0.9,0.1c0.3,0,0.5,0.1,0.7,0.2c0.2,0.1,0.4,0.2,0.5,0.4
	c0.1,0.2,0.2,0.4,0.2,0.6v4.7h4.3c0.2,0,0.4,0.1,0.5,0.2c0.2,0.1,0.3,0.3,0.4,0.5c0.1,0.2,0.1,0.4,0.2,0.6c0,0.2,0.1,0.5,0.1,0.8
	c0,0.3,0,0.6-0.1,0.9c0,0.3-0.1,0.5-0.2,0.7C15.3,9.7,15.2,9.9,15,10c-0.2,0.1-0.4,0.2-0.5,0.2h-4.3v4.7c0,0.2-0.1,0.4-0.2,0.6
	c-0.1,0.2-0.3,0.3-0.5,0.4c-0.2,0.1-0.4,0.1-0.7,0.2C8.7,16,8.4,16,8,16z M6.8,14.8C6.8,14.8,6.8,14.8,6.8,14.8
	C6.9,14.9,7,14.9,7.2,15c0.2,0,0.5,0,0.8,0c0.3,0,0.6,0,0.8,0c0.2,0,0.3-0.1,0.4-0.1c0.1,0,0.1,0,0.1,0l0-5.7h5.3c0,0,0,0,0.1-0.1
	c0-0.1,0.1-0.2,0.1-0.3c0-0.2,0-0.4,0-0.7c0-0.3,0-0.5,0-0.7c0-0.2-0.1-0.3-0.1-0.4c0-0.1,0-0.1,0-0.1l-5.3,0V1.2c0,0,0,0,0,0
	c0,0,0,0-0.1,0C9.1,1.1,9,1.1,8.8,1C8.6,1,8.3,1,8,1C7.7,1,7.4,1,7.2,1C7,1.1,6.9,1.1,6.8,1.1c0,0-0.1,0-0.1,0l0,5.7H1.5
	c0,0,0,0,0,0.1c0,0.1-0.1,0.2-0.1,0.4c0,0.2,0,0.4,0,0.7c0,0.3,0,0.5,0,0.7c0,0.2,0.1,0.3,0.1,0.4c0,0.1,0.1,0.1,0.1,0.1l5.2,0V14.8
	z"/>
</svg>
