<?xml version="1.0" encoding="utf-8"?>
<!-- Generator: Adobe Illustrator 18.1.1, SVG Export Plug-In . SVG Version: 6.00 Build 0)  -->
<svg version="1.1" id="Isolation_Mode" xmlns="http://www.w3.org/2000/svg" xmlns:xlink="http://www.w3.org/1999/xlink" x="0px"
	 y="0px" viewBox="0 0 300 300" enable-background="new 0 0 300 300" xml:space="preserve">
<g>
	<path d="M150,273c-5.4,0-10-0.3-13.9-0.8c-4.1-0.6-7.5-1.5-10.2-2.7c-3.3-1.5-5.8-3.4-7.5-5.7c-1.9-2.5-2.9-5.6-2.9-8.9v-72H50.1
		c-3,0-5.9-0.8-8.4-2.5c-2.4-1.6-4.4-3.9-6-7c-1.4-2.7-2.4-5.9-3.2-9.9c-0.7-3.7-1-8-1-13.3c0-4.9,0.3-9.3,0.9-12.9
		c0.6-4.1,1.6-7.3,2.8-10c1.5-3.1,3.4-5.4,5.6-7.1c2.5-1.7,5.4-2.7,8.5-2.7h66.2V45.7c0-3.2,0.9-6.2,2.7-8.9
		c1.7-2.6,4.3-4.8,7.7-6.3c2.8-1.2,6.1-2.1,10.2-2.7c3.8-0.6,8.4-0.9,13.9-0.9c5.4,0,10.1,0.3,13.9,0.9c4.1,0.6,7.4,1.5,10.1,2.7
		c3.5,1.6,6.1,3.8,7.8,6.6c1.6,2.6,2.4,5.5,2.4,8.6v71.8h66.5c2.9,0,5.6,0.8,8.1,2.5c2.4,1.6,4.4,4,6,7.2c1.3,2.6,2.2,5.9,2.8,10
		c0.6,3.7,0.9,8,0.9,12.9c0,5.1-0.3,9.5-0.9,13.1c-0.7,4.1-1.7,7.4-3.1,10.1c-1.6,3.1-3.8,5.5-6.3,7.1c-2.6,1.6-5.4,2.4-8.4,2.4
		h-65.7v72c0,3.2-0.9,6.1-2.6,8.7c-1.6,2.4-4.2,4.4-7.5,6c-2.7,1.2-6.1,2.1-10.2,2.7C160.1,272.7,155.4,273,150,273z M130.8,254.8
		c0.1,0.1,0.5,0.4,1.4,0.8c1,0.4,2.8,1.1,6.2,1.6c3.1,0.4,7,0.7,11.7,0.7c4.7,0,8.6-0.2,11.7-0.7c3.3-0.5,5.2-1.1,6.1-1.6
		c0.9-0.4,1.3-0.7,1.3-0.7l-0.1-87.3h80.9c0.3-0.1,0.7-0.4,1.2-1.4c0.4-0.8,1-2.4,1.5-5.4c0.4-2.8,0.7-6.4,0.7-10.7
		c0-4.1-0.2-7.7-0.7-10.6c-0.5-3.1-1.1-4.8-1.5-5.7c-0.4-0.9-0.7-1.2-0.8-1.2l-81.4,0.1v-87c0-0.3-0.1-0.5-0.2-0.8
		c0,0-0.2-0.2-1-0.5c-0.9-0.4-2.8-1-6.1-1.5c-3.1-0.5-7-0.7-11.7-0.7c-4.7,0-8.6,0.2-11.6,0.7c-3.3,0.5-5.2,1.1-6.2,1.6
		c-0.8,0.3-1.1,0.7-1.2,0.8l-0.2,87.5H49.5c0,0.1-0.3,0.5-0.6,1.1c-0.4,0.9-1,2.5-1.5,5.7c-0.5,2.9-0.7,6.5-0.7,10.6
		c0,4.3,0.3,7.8,0.8,10.5c0.6,3,1.2,4.7,1.7,5.6c0.6,1.1,0.9,1.4,1,1.4l80.7,0V254.8z"/>
	<rect x="0" y="0" fill="none" width="300" height="300"/>
</g>
</svg>
