<?xml version="1.0" encoding="utf-8"?>
<!-- Generator: Adobe Illustrator 19.2.1, SVG Export Plug-In . SVG Version: 6.00 Build 0)  -->
<!DOCTYPE svg PUBLIC "-//W3C//DTD SVG 1.1//EN" "http://www.w3.org/Graphics/SVG/1.1/DTD/svg11.dtd">
<svg version="1.1" id="Layer_1" xmlns="http://www.w3.org/2000/svg" xmlns:xlink="http://www.w3.org/1999/xlink" x="0px" y="0px"
	 viewBox="0 0 16 16" style="enable-background:new 0 0 16 16;" xml:space="preserve">
<path d="M14.2,1.8H1.8C0.8,1.8,0,2.6,0,3.6v8.7c0,1,0.8,1.8,1.8,1.8h12.3c1,0,1.8-0.8,1.8-1.8V3.6C16,2.6,15.2,1.8,14.2,1.8z M1.8,3
	h12.3c0.3,0,0.6,0.3,0.6,0.6v0.8L8.6,8.3c-0.4,0.2-0.9,0.2-1.3,0L1.2,4.4V3.6C1.2,3.3,1.5,3,1.8,3z M14.2,13H1.8
	c-0.3,0-0.6-0.3-0.6-0.6V5.9l5.5,3.5C7.1,9.6,7.6,9.7,8,9.7c0.4,0,0.9-0.1,1.3-0.4l5.5-3.5v6.5C14.8,12.7,14.5,13,14.2,13z"/>
</svg>
