<?xml version="1.0" encoding="utf-8"?>
<!-- Generator: Adobe Illustrator 18.1.1, SVG Export Plug-In . SVG Version: 6.00 Build 0)  -->
<svg version="1.1" id="Isolation_Mode" xmlns="http://www.w3.org/2000/svg" xmlns:xlink="http://www.w3.org/1999/xlink" x="0px"
	 y="0px" viewBox="0 0 300 300" enable-background="new 0 0 300 300" xml:space="preserve">
<g>
	<g>
		<g>
			<path d="M233.8,133c-4.1,0-7.4,3.4-7.4,7.6v68.5c0,4.2,3.3,7.6,7.4,7.6c4.1,0,7.4-3.4,7.4-7.6v-68.5
				C241.3,136.4,237.9,133,233.8,133z M229.6,110.6c3.7-1.7,5.4-6.2,3.7-10.1C218.6,67,185.9,45.3,150,45.3h0
				c-50.3,0-91.3,41.9-91.3,93.4V201c0,4.2,3.3,7.6,7.4,7.6c4.1,0,7.4-3.4,7.4-7.6v-62.3c0-43.1,34.3-78.2,76.4-78.2c0,0,0,0,0,0
				c30,0,57.4,18.2,69.7,46.3C221.4,110.6,225.8,112.3,229.6,110.6z M95.6,130.6c-4.1,0-7.4,3.4-7.4,7.6v82.7c0,4.2,3.3,7.6,7.4,7.6
				c4.1,0,7.4-3.4,7.4-7.6v-82.7C103,134,99.7,130.6,95.6,130.6z M150,74.6c-18.8,0-36.4,8.7-48.2,23.7c-1.3,1.6-1.9,3.6-1.6,5.6
				c0.2,2.1,1.2,3.9,2.8,5.2c3,2.5,8,2,10.5-1.2c9-11.4,22.3-18,36.6-18c25.9,0.1,47,21.6,47.1,48.2v69.3
				c-0.1,13-5.1,25.3-14.2,34.4c-3,3-3,7.8-0.1,10.8c1.4,1.4,3.3,2.3,5.4,2.3c1.9,0,3.8-0.8,5.2-2.2c12-12,18.7-28.1,18.6-45.3
				v-69.3C211.8,103,184.1,74.6,150,74.6z M184.6,169.7l-0.1-29.3c0-19.5-15.5-35.4-34.6-35.4c-19.1,0-34.6,15.8-34.6,35.4v67
				c0,19.6,15.5,35.5,34.6,35.5c5.4,0,10.8-1.3,15.5-3.8c3.7-1.9,5.1-6.5,3.3-10.2c-1.9-3.7-6.5-5.3-10-3.4
				c-2.8,1.4-5.7,2.2-8.9,2.2c-10.9-0.1-19.7-9.1-19.7-20.2v-67c0-11.1,8.8-20.2,19.7-20.2c10.9,0,19.7,9.1,19.8,20.2v29.3
				c0,4.2,3.3,7.6,7.4,7.6C181.3,177.3,184.6,173.9,184.6,169.7z M142.6,143.1V203c0,4.2,3.3,7.6,7.4,7.6c4.1,0,7.4-3.4,7.4-7.6
				v-59.9c0-4.2-3.3-7.6-7.4-7.6C145.9,135.5,142.6,138.9,142.6,143.1z"/>
		</g>
	</g>
	<rect x="0" y="0" fill="none" width="300" height="300"/>
</g>
</svg>
