<?xml version="1.0" encoding="utf-8"?>
<!-- Generator: Adobe Illustrator 18.1.1, SVG Export Plug-In . SVG Version: 6.00 Build 0)  -->
<svg version="1.1" id="Isolation_Mode" xmlns="http://www.w3.org/2000/svg" xmlns:xlink="http://www.w3.org/1999/xlink" x="0px"
	 y="0px" viewBox="0 0 300 300" enable-background="new 0 0 300 300" xml:space="preserve">
<g>
	<path d="M280.8,102.8l-4.3-4.7c-2.9-3.2-6.9-5.2-11.1-5.7c-1.1-0.1-2.4-0.5-3.6-1.7c-1.2-1.3-1.7-3.2-1.3-5l1.4-6.1l-3.2-5.3
		l-0.6-0.9l-0.7-0.9c-1.5-1.8-37.3-45.2-85.4-45.2h0c-7.3,0-14.7,1-21.7,3c-4.8,1.3-8.9,4.7-11.2,9.3l-0.1,0.2l-0.2,0.4
		c-2.7,5.8-2.4,12.5,1,18c3.3,5.5,9.1,8.7,15.4,8.7h0c6.6,0,18.6,1.6,28.4,12.3c2,2.2,2.7,2.9,0.6,5.6L142,121.4L60.3,41.3
		c-4.1-4.1-11.1-4-15,0.1L17.1,71.1c-1.9,2-3,4.8-2.9,7.6c0,2.9,1.3,5.8,3.3,7.8L95.7,164l-54.4,52.7c-7.7,7.4-8.5,18.9-1.8,26
		l18.9,20.4c3.2,3.4,7.4,5.3,12.1,5.3c4.9,0,9.6-2,13.4-5.7l56.4-54.6l62.2,61.6c2.1,2,4.7,3.2,7.6,3.2c2.9,0,5.5-1.2,7.5-3.2
		l29.1-30.8c1.9-2.1,3-4.8,2.9-7.7c-0.1-2.9-1.3-5.8-3.4-7.8l-62-60.8l34.5-37.8c0.4-0.3,1.6-1.4,2.7-2.5c1.2-1.1,2.6-1.4,3.5-1.4
		c0.9,0,2.5,0.2,3.9,1.7c1,1.1,1.3,2.2,1.4,3c0.6,3.9,2.2,7.4,4.8,10.2l5.5,5.9c3.4,3.7,8.2,5.8,13.2,5.8c4.7,0,9.2-1.8,12.6-5.2
		l13.8-13.4C287.4,122.1,287.7,110.2,280.8,102.8z M30.9,78.5l22-23.2l8.8,8.7L49.1,77.2l9.3,9.2l12.7-13.3l15.8,15.5L79.8,96
		l9.3,9.2l7.1-7.5l15.9,15.6l-7.1,7.4l9.3,9.2l7.1-7.5l9.1,8.9l-11.9,10.4c-0.3,0.3-0.7,0.7-1.1,1l-11,10.7L30.9,78.5z M188.4,188.1
		l-7.1,7.4l9.3,9.2l7.1-7.5l17,16.6l-12.7,13.3l9.3,9.2l12.7-13.3l8.6,8.5l-23,24.3L151,197.6l9.3-9c0.5-0.5,0.8-0.9,1.2-1.3
		l12.3-13.5L188.4,188.1z M269.8,118l-13.9,13.4c-0.6,0.6-1.4,0.9-2.2,0.9c-0.9,0-1.7-0.3-2.4-1l-5.5-5.9c-0.5-0.5-0.8-1.2-0.9-1.9
		c-0.6-4.1-2.4-8.1-5.4-11.3c-4-4.3-9.4-6.5-14.8-6.5c-3.5,0-6.9,1-10.1,2.8l0,0l-0.2,0.2c-1.3,0.8-2.5,1.7-3.6,2.8
		c-0.3,0.3-0.5,0.5-0.8,0.8c-0.3,0.3-59.7,64.9-59.7,64.9c-0.1,0.1-0.3,0.3-0.4,0.4l-76.5,74.1c-1,1-2.2,1.5-3.1,1.5
		c-0.5,0-0.9-0.2-1.2-0.5l-18.9-20.4c-0.9-0.9-0.3-2.9,1.3-4.4l76.4-74c0.1-0.1,0.3-0.3,0.4-0.4l66.5-58c4.5-5.4,9.9-15.6-0.5-26.8
		c-13.8-14.9-30.4-17.1-39-17.1c-0.1,0-0.2,0-0.3,0c0,0,0,0,0,0c-2.4,0-4-2.6-2.9-4.8l0.1-0.1c0.4-0.8,1.1-1.4,2-1.7
		c6.1-1.7,12-2.5,17.7-2.5c41.7,0,73.9,39.7,73.9,39.7l0.1,0.1c-1.5,6.6,0.2,13.7,5,19c3.5,3.8,8,5.9,12.7,6.4c0.8,0.1,1.4,0.5,2,1
		l4.3,4.7C271.2,114.6,271.1,116.7,269.8,118z"/>
	<rect x="0" y="0" fill="none" width="300" height="300"/>
</g>
</svg>
