<?xml version="1.0" encoding="utf-8"?>
<!-- Generator: Adobe Illustrator 19.2.1, SVG Export Plug-In . SVG Version: 6.00 Build 0)  -->
<!DOCTYPE svg PUBLIC "-//W3C//DTD SVG 1.1//EN" "http://www.w3.org/Graphics/SVG/1.1/DTD/svg11.dtd">
<svg version="1.1" id="Layer_1" xmlns="http://www.w3.org/2000/svg" xmlns:xlink="http://www.w3.org/1999/xlink" x="0px" y="0px"
	 viewBox="0 0 152 152" style="enable-background:new 0 0 152 152;" xml:space="preserve">
<style type="text/css">
	.st0{fill:#FFFFFF;}
</style>
<g>
	<g>
		<path class="st0" d="M146.2,125.2l-70-70c-13.3-13.3-22.6-24.1-23.3-28c0-0.2-0.1-0.4-0.1-0.6c-0.4-5.8-2.8-11.5-7.2-16
			c-7.4-7.4-18.2-9.1-27.3-5.3l0.3,0.3l16.9,16.9c1.8,1.8,0.4,6.3-3.3,9.9c-3.6,3.6-8.1,5.1-9.9,3.3c0,0-16.9-16.9-16.9-16.9
			l-0.3-0.3c-3.8,9-2.1,19.9,5.3,27.3c4.5,4.4,10.2,6.8,16,7.2c0.2,0,0.4,0.1,0.6,0.1c3.9,0.7,14.6,10,28,23.3l70,70
			c5.8,5.8,15.3,5.8,21.2,0C152,140.5,152,131,146.2,125.2z M139,139.1c-1.9,1.9-4.9,1.9-6.8,0c-1.9-1.9-1.9-4.9,0-6.8
			c1.9-1.9,4.9-1.9,6.8,0C140.9,134.2,140.9,137.3,139,139.1z"/>
	</g>
	<g>
		<path class="st0" d="M146.1,34.4l-39.7,39.7l-4.6-4.6l39.7-39.7c5.4-5.3,5.4-14,0-19.4c-5.3-5.3-14-5.3-19.4,0L82.5,50.2l-4.6-4.6
			l39.7-39.7c7.9-7.9,20.7-7.9,28.5,0C154,13.8,154,26.6,146.1,34.4z"/>
	</g>
	<g>
		<polygon class="st0" points="25.9,141.8 7.6,152 0,144.4 10.2,126.1 17.4,123.3 54.9,85.8 59.5,90.3 21,128.8 14.9,131.2 
			7.8,143.1 8.9,144.2 20.8,137.1 23.2,131 61.7,92.5 66.3,97.1 28.7,134.6 		"/>
	</g>
	<g>
		<g>
			<rect x="80.7" y="33.5" transform="matrix(0.7072 -0.707 0.707 0.7072 5.9774 87.844)" class="st0" width="56.6" height="6.5"/>
		</g>
		<g>
			<rect x="87" y="39.7" transform="matrix(0.707 -0.7072 0.7072 0.707 3.3966 94.1233)" class="st0" width="56.6" height="6.5"/>
		</g>
	</g>
</g>
</svg>
