<?xml version="1.0" encoding="utf-8"?>
<!-- Generator: Adobe Illustrator 19.2.1, SVG Export Plug-In . SVG Version: 6.00 Build 0)  -->
<!DOCTYPE svg PUBLIC "-//W3C//DTD SVG 1.1//EN" "http://www.w3.org/Graphics/SVG/1.1/DTD/svg11.dtd">
<svg version="1.1" id="Layer_1" xmlns="http://www.w3.org/2000/svg" xmlns:xlink="http://www.w3.org/1999/xlink" x="0px" y="0px"
	 viewBox="0 0 132 130" style="enable-background:new 0 0 132 130;" xml:space="preserve">
<style type="text/css">
	.st0{fill:none;stroke:#0AB8FA;stroke-width:3;stroke-linecap:round;stroke-miterlimit:10;}
	.st1{fill:#DEE1E2;}
	.st2{fill:#0AB8FA;}
	.st3{fill:#444444;}
	.st4{fill:#D2D7D9;}
	.st5{fill:#2E2D2F;}
	.st6{fill:#FFFFFF;}
</style>
<g>
	<g>
		<path class="st0" d="M76.5,105.2c-3.2,1.5-6.7,2.4-10.5,2.4c-3.8,0-7.3-0.9-10.5-2.4"/>
		<path class="st0" d="M73,97.9c-2.1,1-4.5,1.6-7,1.6c-2.5,0-4.9-0.6-7-1.6"/>
		<path class="st0" d="M69.5,90.7c-1.1,0.5-2.2,0.8-3.5,0.8c-1.3,0-2.4-0.3-3.5-0.8"/>
	</g>
	<g>
		<path class="st0" d="M55.5,22.8c3.2-1.5,6.7-2.4,10.5-2.4c3.8,0,7.3,0.9,10.5,2.4"/>
		<path class="st0" d="M59,30.1c2.1-1,4.5-1.6,7-1.6c2.5,0,4.9,0.6,7,1.6"/>
		<path class="st0" d="M62.5,37.3c1.1-0.5,2.2-0.8,3.5-0.8c1.3,0,2.4,0.3,3.5,0.8"/>
	</g>
	<g>
		<g>
			<g>
				<path class="st1" d="M19.9,45.3H3.4c-1.6,0-3-1.3-3-3V11.4c0-1.6,1.3-3,3-3h16.5c1.6,0,3,1.4,3,3v30.9
					C22.9,44,21.5,45.3,19.9,45.3z"/>
				<rect x="3.1" y="11.8" class="st2" width="17.1" height="26.8"/>
				<rect x="6.8" y="40.5" class="st3" width="9.7" height="1.6"/>
			</g>
		</g>
		<g>
			<g>
				<path class="st1" d="M128.6,45.3h-16.5c-1.7,0-3-1.3-3-3V11.4c0-1.6,1.3-3,3-3h16.5c1.7,0,3,1.4,3,3v30.9
					C131.6,44,130.3,45.3,128.6,45.3z"/>
				<rect x="111.8" y="11.8" class="st2" width="17.1" height="26.8"/>
				<rect x="115.5" y="40.5" class="st3" width="9.7" height="1.6"/>
			</g>
		</g>
		<g>
			<g>
				<g>
					<g>
						<path class="st4" d="M83.6,63.7H50.1c-0.5,0-1-0.4-1-1v-5.3c0-0.5,0.5-1,1-1h33.5c0.5,0,1,0.5,1,1v5.3
							C84.6,63.3,84.1,63.7,83.6,63.7z"/>
						<circle class="st5" cx="53.1" cy="60" r="1.4"/>
					</g>
					<g>
						<path class="st4" d="M83.6,73.6H50.1c-0.5,0-1-0.4-1-1v-5.3c0-0.6,0.5-1,1-1h33.5c0.5,0,1,0.4,1,1v5.3
							C84.6,73.2,84.1,73.6,83.6,73.6z"/>
						<circle class="st5" cx="53.1" cy="70" r="1.4"/>
					</g>
				</g>
				<path class="st5" d="M80.9,61h-5.7c-0.5,0-0.9-0.4-0.9-0.9V60c0-0.5,0.4-0.9,0.9-0.9h5.7c0.5,0,0.9,0.4,0.9,0.9v0.1
					C81.8,60.6,81.4,61,80.9,61z"/>
				<path class="st5" d="M80.9,70.9h-5.7c-0.5,0-0.9-0.4-0.9-0.9v-0.1c0-0.5,0.4-0.9,0.9-0.9h5.7c0.5,0,0.9,0.4,0.9,0.9V70
					C81.8,70.5,81.4,70.9,80.9,70.9z"/>
			</g>
			<g>
				<path class="st3" d="M41.1,65.9H32c-0.4,0-0.7-0.3-0.7-0.7v-0.3c0-0.4,0.3-0.7,0.7-0.7h9.1c0.4,0,0.7,0.3,0.7,0.7v0.3
					C41.8,65.5,41.5,65.9,41.1,65.9z"/>
				<path class="st3" d="M28.1,65.9H19c-0.4,0-0.7-0.3-0.7-0.7v-0.3c0-0.4,0.3-0.7,0.7-0.7h9.1c0.4,0,0.7,0.3,0.7,0.7v0.3
					C28.8,65.5,28.5,65.9,28.1,65.9z"/>
				<path class="st3" d="M113.8,65.9h-9.1c-0.4,0-0.7-0.3-0.7-0.7v-0.3c0-0.4,0.3-0.7,0.7-0.7h9.1c0.4,0,0.7,0.3,0.7,0.7v0.3
					C114.5,65.5,114.2,65.9,113.8,65.9z"/>
				<path class="st3" d="M100.8,65.9h-9.1c-0.4,0-0.7-0.3-0.7-0.7v-0.3c0-0.4,0.3-0.7,0.7-0.7h9.1c0.4,0,0.7,0.3,0.7,0.7v0.3
					C101.5,65.5,101.2,65.9,100.8,65.9z"/>
			</g>
			<g>
				<path class="st3" d="M47.9,47.7l-6.4-6.4c-0.3-0.3-0.3-0.7,0-1l0.2-0.2c0.3-0.3,0.7-0.3,1,0l6.4,6.4c0.3,0.3,0.3,0.7,0,1
					l-0.2,0.2C48.6,48,48.2,48,47.9,47.7z"/>
				<path class="st3" d="M38.7,38.5l-6.4-6.4c-0.3-0.3-0.3-0.7,0-1l0.2-0.2c0.3-0.3,0.7-0.3,1,0l6.4,6.4c0.3,0.3,0.3,0.7,0,1
					l-0.2,0.2C39.4,38.8,39,38.8,38.7,38.5z"/>
				<path class="st3" d="M99.3,99.1l-6.4-6.4c-0.3-0.3-0.3-0.7,0-1l0.2-0.2c0.3-0.3,0.7-0.3,1,0l6.4,6.4c0.3,0.3,0.3,0.7,0,1
					l-0.2,0.2C100,99.4,99.6,99.4,99.3,99.1z"/>
				<path class="st3" d="M90.1,89.9l-6.4-6.4c-0.3-0.3-0.3-0.7,0-1l0.2-0.2c0.3-0.3,0.7-0.3,1,0l6.4,6.4c0.3,0.3,0.3,0.7,0,1
					l-0.2,0.2C90.8,90.2,90.4,90.2,90.1,89.9z"/>
			</g>
			<g>
				<path class="st3" d="M83.7,46.5l6.4-6.4c0.3-0.3,0.7-0.3,1,0l0.2,0.2c0.3,0.3,0.3,0.7,0,1l-6.4,6.4c-0.3,0.3-0.7,0.3-1,0
					l-0.2-0.2C83.4,47.2,83.4,46.8,83.7,46.5z"/>
				<path class="st3" d="M92.9,37.3l6.4-6.4c0.3-0.3,0.7-0.3,1,0l0.2,0.2c0.3,0.3,0.3,0.7,0,1l-6.4,6.4c-0.3,0.3-0.7,0.3-1,0
					l-0.2-0.2C92.6,38,92.6,37.6,92.9,37.3z"/>
				<path class="st3" d="M32.3,97.9l6.4-6.4c0.3-0.3,0.7-0.3,1,0l0.2,0.2c0.3,0.3,0.3,0.7,0,1l-6.4,6.4c-0.3,0.3-0.7,0.3-1,0
					l-0.2-0.2C32,98.6,32,98.2,32.3,97.9z"/>
				<path class="st3" d="M41.5,88.7l6.4-6.4c0.3-0.3,0.7-0.3,1,0l0.2,0.2c0.3,0.3,0.3,0.7,0,1l-6.4,6.4c-0.3,0.3-0.7,0.3-1,0
					l-0.2-0.2C41.2,89.4,41.2,89,41.5,88.7z"/>
			</g>
		</g>
		<g>
			<path class="st4" d="M128.6,121.6h-16.5c-1.7,0-3-1.4-3-3V87.7c0-1.6,1.3-3,3-3h16.5c1.7,0,3,1.4,3,3v30.9
				C131.6,120.2,130.3,121.6,128.6,121.6z"/>
			<rect x="111.8" y="88.1" class="st2" width="17.1" height="26.8"/>
			<rect x="115.5" y="117.8" class="st6" width="9.7" height="1.6"/>
		</g>
		<g>
			<path class="st1" d="M128.6,121.6h-16.5c-1.7,0-3-1.4-3-3V87.7c0-1.6,1.3-3,3-3h16.5c1.7,0,3,1.4,3,3v30.9
				C131.6,120.2,130.3,121.6,128.6,121.6z"/>
			<rect x="111.8" y="88.1" class="st2" width="17.1" height="26.8"/>
			<rect x="115.5" y="116.8" class="st3" width="9.7" height="1.6"/>
		</g>
		<g>
			<path class="st1" d="M19.9,121.6H3.4c-1.6,0-3-1.4-3-3V87.7c0-1.6,1.4-3,3-3h16.5c1.6,0,3,1.4,3,3v30.9
				C22.9,120.2,21.5,121.6,19.9,121.6z"/>
			<rect x="3.1" y="88.1" class="st2" width="17.1" height="26.8"/>
			<rect x="6.8" y="116.8" class="st3" width="9.7" height="1.6"/>
		</g>
	</g>
</g>
</svg>
