<?xml version="1.0" encoding="utf-8"?>
<!-- Generator: Adobe Illustrator 19.2.1, SVG Export Plug-In . SVG Version: 6.00 Build 0)  -->
<!DOCTYPE svg PUBLIC "-//W3C//DTD SVG 1.1//EN" "http://www.w3.org/Graphics/SVG/1.1/DTD/svg11.dtd">
<svg version="1.1" id="Layer_1" xmlns="http://www.w3.org/2000/svg" xmlns:xlink="http://www.w3.org/1999/xlink" x="0px" y="0px"
	 viewBox="0 0 140 198" style="enable-background:new 0 0 140 198;" xml:space="preserve">
<style type="text/css">
	.st0{fill:#805DA8;}
	.st1{fill:#414042;}
</style>
<g id="Layer_1_1_">
	<g>
		<g>
			<g>
				<g>
					<g>
						<path class="st0" d="M132.2,121.4h-4.1V105c0-0.5-0.5-1-1-1H12.9c-0.5,0-1,0.5-1,1v16.5H7.8V105c0-2.8,2.3-5.1,5.1-5.1h114.2
							c2.8,0,5.1,2.3,5.1,5.1L132.2,121.4L132.2,121.4z"/>
					</g>
				</g>
				<g>
					<g>
						<rect x="68" y="87.5" class="st0" width="4.1" height="34"/>
					</g>
				</g>
			</g>
		</g>
		<g>
			<path class="st1" d="M111.4,18.7V15h-8.7l-6.3-6.3V0.1h-3.6V7h-4.6V0.1h-3.6V7H80V0.1h-3.6V7h-4.6V0.1h-3.6V7h-4.6V0.1h-3.6V7
				h-4.6V0.1h-3.6V7h-4.6V0.1h-3.6v8.7l-6.3,6.3h-8.5v3.6h6.8v4.6h-6.8V27h6.8v4.6h-6.8v3.6h6.8v4.6h-6.8v3.6h6.8V48h-6.8v3.6h6.8
				v4.6h-6.8v3.6h6.8v4.6h-6.8v3.6h8.7l6.3,6.3v8.7h3.6v-6.8h4.6v6.8h3.5v-6.8H60v6.8h3.6v-6.8h4.6v6.8h3.6v-6.8h4.6v6.8H80v-6.8
				h4.6v6.8h3.6v-6.8h4.6v6.8h3.6v-8.8l6.3-6.3h8.7v-3.6h-6.9v-4.6h6.8v-3.6h-6.8v-4.6h6.8v-3.6h-6.8v-4.6h6.8v-3.6h-6.8V35h6.8
				v-3.6h-6.8v-4.6h6.8v-3.6h-6.8v-4.6L111.4,18.7L111.4,18.7z M102.5,18.9v45.2l-9.8,9.8H47.4l-9.9-9.8V18.9L47.4,9h45.2
				L102.5,18.9z"/>
		</g>
		<g>
			<path class="st0" d="M91.1,12.7H48.9l-7.8,7.8v42.2l7.8,7.8h42.2l7.8-7.8V20.4L91.1,12.7z M89.1,55.1l-5.5,5.5H56.4L51,55.1V28
				l5.5-5.5h27.2l5.5,5.5V55.1z"/>
		</g>
		<g>
			<rect x="60.7" y="32" class="st1" width="18.5" height="19"/>
		</g>
		<g>
			<rect x="82.9" y="31.1" class="st0" width="2.8" height="1.8"/>
		</g>
		<g>
			<rect x="82.9" y="50.1" class="st0" width="2.8" height="1.8"/>
		</g>
		<g>
			<rect x="82.9" y="34.3" class="st0" width="2.8" height="1.8"/>
		</g>
		<g>
			<rect x="82.9" y="37.5" class="st0" width="2.8" height="1.8"/>
		</g>
		<g>
			<rect x="82.9" y="40.6" class="st0" width="2.8" height="1.8"/>
		</g>
		<g>
			<rect x="82.9" y="43.8" class="st0" width="2.8" height="1.8"/>
		</g>
		<g>
			<rect x="82.9" y="47" class="st0" width="2.8" height="1.8"/>
		</g>
		<g>
			<rect x="54.4" y="31.1" class="st0" width="2.9" height="1.8"/>
		</g>
		<g>
			<rect x="54.4" y="50.1" class="st0" width="2.9" height="1.8"/>
		</g>
		<g>
			<rect x="54.4" y="34.3" class="st0" width="2.9" height="1.8"/>
		</g>
		<g>
			<rect x="54.4" y="37.5" class="st0" width="2.9" height="1.8"/>
		</g>
		<g>
			<rect x="54.4" y="40.6" class="st0" width="2.9" height="1.8"/>
		</g>
		<g>
			<rect x="54.4" y="43.8" class="st0" width="2.9" height="1.8"/>
		</g>
		<g>
			<rect x="54.4" y="47" class="st0" width="2.9" height="1.8"/>
		</g>
		<g>
			<rect x="78.6" y="54.6" class="st0" width="1.8" height="2.5"/>
		</g>
		<g>
			<rect x="59.7" y="54.6" class="st0" width="1.8" height="2.5"/>
		</g>
		<g>
			<rect x="75.4" y="54.6" class="st0" width="1.8" height="2.5"/>
		</g>
		<g>
			<rect x="72.3" y="54.6" class="st0" width="1.8" height="2.5"/>
		</g>
		<g>
			<rect x="69.1" y="54.6" class="st0" width="1.8" height="2.5"/>
		</g>
		<g>
			<rect x="66" y="54.6" class="st0" width="1.8" height="2.5"/>
		</g>
		<g>
			<rect x="62.8" y="54.6" class="st0" width="1.8" height="2.5"/>
		</g>
		<g>
			<rect x="78.6" y="25.9" class="st0" width="1.8" height="2.5"/>
		</g>
		<g>
			<rect x="59.7" y="25.9" class="st0" width="1.8" height="2.5"/>
		</g>
		<g>
			<rect x="75.4" y="25.9" class="st0" width="1.8" height="2.5"/>
		</g>
		<g>
			<rect x="72.3" y="25.9" class="st0" width="1.8" height="2.5"/>
		</g>
		<g>
			<rect x="69.1" y="25.9" class="st0" width="1.8" height="2.5"/>
		</g>
		<g>
			<rect x="66" y="25.9" class="st0" width="1.8" height="2.5"/>
		</g>
		<g>
			<rect x="62.8" y="25.9" class="st0" width="1.8" height="2.5"/>
		</g>
		<g>
			<path class="st1" d="M79.9,139.1H60.2v-19.7h19.7V139.1z M64.3,135.1h11.5v-11.5H64.3V135.1z"/>
		</g>
		<g>
			<path class="st1" d="M19.7,139.1H0v-19.7h19.7V139.1z M4.1,135.1h11.5v-11.5H4.1C4.1,123.5,4.1,135.1,4.1,135.1z"/>
		</g>
		<g>
			<path class="st0" d="M140,139.1h-19.7v-19.7H140V139.1z M124.4,135.1h11.5v-11.5h-11.5V135.1z"/>
		</g>
		<g>
			<g>
				<g>
					<g>
						<path class="st1" d="M72,180.3H68v-16.5c0-0.5-0.5-1-1-1H11.4v-4.1H67c2.8,0,5.1,2.3,5.1,5.1C72,163.8,72,180.3,72,180.3z"/>
					</g>
				</g>
				<g>
					<g>
						<rect x="7.8" y="143.2" class="st1" width="4.1" height="37.1"/>
					</g>
				</g>
			</g>
		</g>
		<g>
			<path class="st0" d="M19.7,197.9H0v-19.7h19.7V197.9z M4.1,193.8h11.5v-11.5H4.1C4.1,182.3,4.1,193.8,4.1,193.8z"/>
		</g>
		<g>
			<path class="st1" d="M79.9,197.9H60.2v-19.7h19.7V197.9z M64.3,193.8h11.5v-11.5H64.3V193.8z"/>
		</g>
	</g>
</g>
<g id="Layer_2">
</g>
<g id="Layer_3">
</g>
<g id="Layer_4">
</g>
</svg>
