<?xml version="1.0" encoding="utf-8"?>
<!-- Generator: Adobe Illustrator 19.2.1, SVG Export Plug-In . SVG Version: 6.00 Build 0)  -->
<!DOCTYPE svg PUBLIC "-//W3C//DTD SVG 1.1//EN" "http://www.w3.org/Graphics/SVG/1.1/DTD/svg11.dtd">
<svg version="1.1" id="Layer_1" xmlns="http://www.w3.org/2000/svg" xmlns:xlink="http://www.w3.org/1999/xlink" x="0px" y="0px"
	 viewBox="0 0 370 300" style="enable-background:new 0 0 370 300;" xml:space="preserve">
<style type="text/css">
	.st0{opacity:0.9;}
	.st1{fill:#A5A5A5;}
	.st2{fill:#00AEEF;}
	.st3{fill:#D2D7D9;}
	.st4{fill:#FFFFFF;}
	.st5{clip-path:url(#SVGID_2_);}
	.st6{fill:#282828;}
	.st7{fill:#636363;}
	.st8{opacity:0.14;fill:#FFFFFF;}
	.st9{fill:none;stroke:#00AEEF;stroke-width:2;stroke-miterlimit:10;}
	.st10{fill:none;stroke:#FFFFFF;stroke-width:2;stroke-miterlimit:10;}
</style>
<g class="st0">
	<g>
		<g>
			<g>
				<g>
					<rect x="0" y="54.9" class="st1" width="35.3" height="26.8"/>
				</g>
				<g>
					<rect x="42.7" y="54.9" class="st1" width="83.6" height="26.8"/>
				</g>
			</g>
			<g>
				<rect x="0" y="22" class="st1" width="126.3" height="26.8"/>
			</g>
			<g>
				<g>
					<rect x="0" y="89" class="st2" width="35.3" height="47.6"/>
				</g>
				<g>
					<g>
						<rect x="42.7" y="130.9" class="st3" width="83.6" height="5.7"/>
					</g>
					<g>
						<rect x="42.7" y="89" class="st3" width="83.6" height="16.2"/>
					</g>
					<g>
						<rect x="42.7" y="110" class="st3" width="83.6" height="16.2"/>
					</g>
				</g>
			</g>
			<g>
				<g>
					<rect x="0" y="-0.4" class="st3" width="54.3" height="5.7"/>
				</g>
				<g>
					<rect x="0" y="10.1" class="st3" width="108.6" height="5.7"/>
				</g>
			</g>
		</g>
		<g>
			<path class="st4" d="M24.6,112.1c0-0.2-0.1-0.4-0.1-0.5c-0.1-0.1-0.1-0.2-0.2-0.3c-0.1-0.1-0.2-0.1-0.3-0.1h-4.6v-5
				c0-0.1,0-0.2-0.1-0.3c-0.1-0.1-0.1-0.2-0.3-0.2c-0.1-0.1-0.3-0.1-0.5-0.1c-0.2,0-0.5,0-0.8,0c-0.3,0-0.6,0-0.8,0
				c-0.2,0-0.4,0.1-0.5,0.1c-0.1,0.1-0.2,0.1-0.3,0.2c-0.1,0.1-0.1,0.2-0.1,0.3v5h-4.6c-0.1,0-0.2,0-0.3,0.1
				c-0.1,0.1-0.1,0.1-0.2,0.3c-0.1,0.1-0.1,0.3-0.1,0.5c0,0.2,0,0.5,0,0.8c0,0.3,0,0.6,0.1,0.8c0,0.2,0.1,0.4,0.2,0.5
				c0.1,0.1,0.1,0.2,0.2,0.3c0.1,0.1,0.2,0.1,0.3,0.1h4.6v5c0,0.1,0,0.2,0.1,0.3c0.1,0.1,0.2,0.2,0.3,0.2c0.1,0.1,0.3,0.1,0.5,0.1
				c0.2,0,0.5,0,0.8,0c0.3,0,0.6,0,0.8,0c0.2,0,0.4-0.1,0.5-0.1c0.1-0.1,0.2-0.1,0.3-0.2c0.1-0.1,0.1-0.2,0.1-0.3v-5h4.6
				c0.1,0,0.2,0,0.3-0.1c0.1-0.1,0.2-0.1,0.2-0.3c0.1-0.1,0.1-0.3,0.1-0.5c0-0.2,0-0.5,0-0.8C24.7,112.6,24.6,112.3,24.6,112.1z"/>
		</g>
	</g>
	<g>
		<g>
			<g>
				<rect x="243" y="229" class="st1" width="26" height="26.8"/>
			</g>
			<g>
				<rect x="276.4" y="229" class="st1" width="26" height="26.8"/>
			</g>
			<g>
				<rect x="309.8" y="229" class="st1" width="26" height="26.8"/>
			</g>
			<g>
				<rect x="343.1" y="229" class="st2" width="26" height="26.8"/>
			</g>
			<g>
				<path class="st4" d="M363.1,241.7c0-0.2-0.1-0.4-0.1-0.5c-0.1-0.1-0.1-0.2-0.2-0.3c-0.1-0.1-0.2-0.1-0.3-0.1h-4.6v-5
					c0-0.1,0-0.2-0.1-0.3c-0.1-0.1-0.1-0.2-0.3-0.2c-0.1-0.1-0.3-0.1-0.5-0.1c-0.2,0-0.5,0-0.8,0c-0.3,0-0.6,0-0.8,0
					c-0.2,0-0.4,0.1-0.5,0.1c-0.1,0.1-0.2,0.1-0.3,0.2c-0.1,0.1-0.1,0.2-0.1,0.3v5h-4.6c-0.1,0-0.2,0-0.3,0.1
					c-0.1,0.1-0.1,0.1-0.2,0.3c-0.1,0.1-0.1,0.3-0.1,0.5c0,0.2,0,0.5,0,0.8c0,0.3,0,0.6,0.1,0.8c0,0.2,0.1,0.4,0.2,0.5
					c0.1,0.1,0.1,0.2,0.2,0.3c0.1,0.1,0.2,0.1,0.3,0.1h4.6v5c0,0.1,0,0.2,0.1,0.3c0.1,0.1,0.2,0.2,0.3,0.2c0.1,0.1,0.3,0.1,0.5,0.1
					c0.2,0,0.5,0,0.8,0c0.3,0,0.6,0,0.8,0c0.2,0,0.4-0.1,0.5-0.1c0.1-0.1,0.2-0.1,0.3-0.2c0.1-0.1,0.1-0.2,0.1-0.3v-5h4.6
					c0.1,0,0.2,0,0.3-0.1c0.1-0.1,0.2-0.1,0.2-0.3c0.1-0.1,0.1-0.3,0.1-0.5c0-0.2,0-0.5,0-0.8C363.2,242.2,363.1,241.9,363.1,241.7z
					"/>
			</g>
		</g>
		<g>
			<rect x="243" y="196.1" class="st1" width="126.3" height="26.8"/>
		</g>
		<g>
			<g>
				<g>
					<rect x="243" y="263.2" class="st3" width="26" height="5.7"/>
				</g>
				<g>
					<rect x="243" y="273.7" class="st3" width="26" height="5.7"/>
				</g>
				<g>
					<rect x="243" y="284.2" class="st3" width="26" height="5.7"/>
				</g>
				<g>
					<rect x="243" y="294.6" class="st3" width="26" height="5.7"/>
				</g>
			</g>
		</g>
		<g>
			<g>
				<g>
					<rect x="276.4" y="263.2" class="st3" width="93.6" height="5.7"/>
				</g>
				<g>
					<rect x="276.4" y="273.7" class="st3" width="93.6" height="5.7"/>
				</g>
				<g>
					<rect x="276.4" y="284.2" class="st3" width="93.6" height="5.7"/>
				</g>
				<g>
					<rect x="276.4" y="294.6" class="st3" width="93.6" height="5.7"/>
				</g>
			</g>
		</g>
		<g>
			<rect x="243" y="173.8" class="st3" width="92.9" height="16.2"/>
		</g>
	</g>
	<g>
		<defs>
			<path id="SVGID_1_" d="M278.9,214.6H98.4c-1.8,0-3.2-1.4-3.2-3.2V89.6c0-1.8,1.4-3.2,3.2-3.2h180.5c1.8,0,3.2,1.4,3.2,3.2v121.7
				C282.1,213.1,280.7,214.6,278.9,214.6z"/>
		</defs>
		<clipPath id="SVGID_2_">
			<use xlink:href="#SVGID_1_"  style="overflow:visible;"/>
		</clipPath>
		<g class="st5">
			<rect x="83.6" y="125.9" class="st3" width="210.1" height="112.4"/>
		</g>
		<g class="st5">
			<rect x="83.6" y="83.8" class="st6" width="210.1" height="112.4"/>
		</g>
	</g>
	<g>
		<path class="st3" d="M213.1,242l-5.7-18.5c-0.4-1.2-1.4-2-2.6-2h-32.2c-1.2,0-2.3,0.8-2.6,2l-5.7,18.5c-0.4,1.2-1.4,2-2.6,2h-3.5
			c-1.5,0-2.8,1.2-2.8,2.8l0,0c0,1.5,1.2,2.8,2.8,2.8h8.3H211h8.3c1.5,0,2.8-1.2,2.8-2.8l0,0c0-1.5-1.2-2.8-2.8-2.8h-3.5
			C214.6,243.9,213.5,243.1,213.1,242z"/>
	</g>
	<g>
		<g>
			<path class="st7" d="M217.5,152.6c0,0-4.8-1.7-5.2-1.9c-0.4-0.1-0.4-1.1-0.4-1.1c0,0,0,0-0.1,0c0-0.2,0.1-0.5,0.1-0.7
				c0-0.2,0-0.5,0-0.7c0,0,0,0,0.1,0c0,0,0.2-1,0.6-1c0.4-0.1,5.5-0.7,5.5-0.7c0.5-0.1,0.9-0.4,0.9-0.8c0.1-1,0-1.6-0.2-2.6
				c-0.1-0.4-0.6-0.7-1-0.7c0,0-5.1,0-5.5,0c-0.4,0-0.8-0.9-0.8-0.9c0,0,0,0,0,0c-0.1-0.5-0.2-0.9-0.3-1.4c0,0,0,0,0,0
				c0,0-0.1-1,0.3-1.2c0.4-0.2,4.9-2.5,4.9-2.5c0.4-0.2,0.7-0.7,0.6-1.1c-0.3-1-0.5-1.5-1-2.3c-0.2-0.3-0.8-0.5-1.2-0.3
				c0,0-4.8,1.7-5.2,1.9c-0.4,0.1-1-0.6-1-0.6c0,0,0,0,0,0c-0.3-0.4-0.5-0.8-0.8-1.2c0,0,0,0,0,0c0,0-0.4-0.9-0.2-1.2
				c0.3-0.3,3.8-4,3.8-4c0.3-0.3,0.4-0.9,0.2-1.2c-0.6-0.8-1-1.2-1.8-1.9c-0.3-0.3-0.9-0.2-1.2,0.1c0,0-3.9,3.3-4.2,3.5
				c-0.3,0.3-1.2-0.2-1.2-0.2c0,0,0,0,0,0c-0.4-0.3-0.7-0.6-1.1-0.9c0,0,0,0,0,0c0,0-0.7-0.7-0.6-1.1c0.2-0.4,2.2-5.1,2.2-5.1
				c0.2-0.4,0.1-1-0.3-1.2c-0.8-0.6-1.3-0.8-2.3-1.1c-0.4-0.1-0.9,0.1-1.1,0.5c0,0-2.6,4.4-2.8,4.8c-0.2,0.3-1.2,0.2-1.2,0.2
				c0,0,0,0,0,0c-0.4-0.1-0.9-0.3-1.4-0.4c0,0,0,0,0-0.1c0,0-0.9-0.4-0.9-0.8c0-0.4,0.3-5.5,0.3-5.5c0-0.5-0.3-1-0.7-1.1
				c-1-0.3-1.5-0.3-2.5-0.3c-0.4,0-0.8,0.4-0.9,0.9c0,0-0.9,5-1,5.4c-0.1,0.4-1,0.6-1,0.6c0,0,0,0,0,0c-0.5,0-1,0-1.4,0.1
				c0,0,0,0,0,0c0,0-1-0.1-1.1-0.5c-0.1-0.4-1.6-5.3-1.6-5.3c-0.1-0.4-0.6-0.8-1-0.8c-1,0.1-1.5,0.2-2.5,0.6
				c-0.4,0.1-0.6,0.7-0.5,1.1c0,0,0.9,5,0.9,5.4c0.1,0.4-0.8,0.9-0.8,0.9c0,0,0,0,0,0c-0.4,0.2-0.9,0.4-1.3,0.6c0,0,0,0,0,0
				c0,0-0.9,0.3-1.2,0c-0.2-0.3-3.3-4.4-3.3-4.4c-0.3-0.4-0.8-0.6-1.2-0.4c-0.9,0.4-1.4,0.7-2.1,1.4c-0.3,0.3-0.3,0.8-0.1,1.2
				c0,0,2.5,4.4,2.7,4.8c0.2,0.4-0.4,1.1-0.4,1.1c0,0,0,0,0,0c-0.4,0.3-0.7,0.6-1,1c0,0,0,0,0,0c0,0-0.8,0.6-1.1,0.4
				c-0.3-0.2-4.6-3-4.6-3c-0.4-0.3-1-0.3-1.2,0c-0.7,0.7-1,1.1-1.5,2.1c-0.2,0.4,0,0.9,0.3,1.2c0,0,3.9,3.3,4.2,3.5
				c0.3,0.3,0,1.2,0,1.2c0,0,0,0,0,0c-0.2,0.4-0.4,0.8-0.6,1.3c0,0,0,0,0,0c0,0-0.5,0.8-0.9,0.7c-0.4-0.1-5.4-1.2-5.4-1.2
				c-0.5-0.1-1,0.1-1.2,0.5c-0.4,0.9-0.6,1.4-0.7,2.5c-0.1,0.4,0.3,0.9,0.7,1c0,0,4.8,1.8,5.2,1.9c0.4,0.1,0.4,1.1,0.4,1.1
				c0,0,0,0,0.1,0c0,0.2-0.1,0.5-0.1,0.7c0,0.2,0,0.5,0,0.7c0,0,0,0-0.1,0c0,0-0.2,1-0.6,1c-0.4,0.1-5.5,0.7-5.5,0.7
				c-0.5,0.1-0.9,0.4-0.9,0.8c-0.1,1,0,1.5,0.2,2.6c0.1,0.4,0.6,0.7,1,0.7c0,0,5.1,0,5.5,0c0.4,0,0.8,0.9,0.8,0.9c0,0,0,0,0,0
				c0.1,0.5,0.2,0.9,0.3,1.4c0,0,0,0,0,0c0,0,0.1,1-0.3,1.2c-0.4,0.2-4.9,2.5-4.9,2.5c-0.4,0.2-0.7,0.7-0.6,1.1c0.3,1,0.5,1.5,1,2.3
				c0.2,0.3,0.8,0.5,1.2,0.3c0,0,4.8-1.7,5.2-1.9c0.4-0.1,1,0.6,1,0.6c0,0,0,0,0,0c0.3,0.4,0.5,0.8,0.8,1.2c0,0,0,0,0,0
				c0,0,0.4,0.9,0.2,1.2c-0.3,0.3-3.8,4-3.8,4c-0.3,0.3-0.4,0.9-0.2,1.2c0.6,0.8,1,1.2,1.8,1.9c0.3,0.3,0.9,0.2,1.2-0.1
				c0,0,3.9-3.3,4.2-3.5c0.3-0.3,1.2,0.2,1.2,0.2c0,0,0,0,0,0c0.4,0.3,0.7,0.6,1.1,0.9c0,0,0,0,0,0c0,0,0.7,0.7,0.6,1.1
				c-0.2,0.4-2.2,5.1-2.2,5.1c-0.2,0.4-0.1,1,0.3,1.2c0.8,0.6,1.3,0.8,2.3,1.1c0.4,0.1,0.9-0.1,1.1-0.5c0,0,2.6-4.4,2.8-4.8
				c0.2-0.4,1.2-0.2,1.2-0.2c0,0,0,0,0,0c0.5,0.1,0.9,0.3,1.4,0.4c0,0,0,0,0,0.1c0,0,0.9,0.4,0.9,0.8c0,0.4-0.3,5.5-0.3,5.5
				c0,0.5,0.3,1,0.7,1.1c1,0.3,1.5,0.3,2.5,0.3c0.4,0,0.8-0.4,0.9-0.9c0,0,0.9-5,1-5.4c0.1-0.4,1-0.6,1-0.6c0,0,0,0,0-0.1
				c0.5,0,1,0,1.4-0.1c0,0,0,0,0,0c0,0,1,0.1,1.1,0.5c0.1,0.4,1.6,5.3,1.6,5.3c0.1,0.4,0.6,0.8,1,0.8c1-0.1,1.5-0.2,2.5-0.6
				c0.4-0.1,0.6-0.7,0.5-1.1c0,0-0.9-5-0.9-5.4c-0.1-0.4,0.8-0.9,0.8-0.9c0,0,0,0,0,0c0.4-0.2,0.9-0.4,1.3-0.6c0,0,0,0,0,0
				c0,0,0.9-0.3,1.2,0c0.3,0.3,3.3,4.4,3.3,4.4c0.3,0.4,0.8,0.6,1.2,0.4c0.9-0.4,1.4-0.7,2.1-1.4c0.3-0.3,0.3-0.8,0.1-1.2
				c0,0-2.5-4.4-2.7-4.8c-0.2-0.4,0.4-1.1,0.4-1.1c0,0,0,0,0,0c0.4-0.3,0.7-0.6,1-1c0,0,0,0,0,0c0,0,0.8-0.6,1.1-0.4
				c0.3,0.2,4.6,3,4.6,3c0.4,0.3,1,0.3,1.2,0c0.7-0.7,1-1.2,1.5-2.1c0.2-0.4,0-0.9-0.3-1.2c0,0-3.9-3.3-4.2-3.5
				c-0.3-0.3,0-1.2,0-1.2c0,0,0,0,0,0c0.2-0.4,0.4-0.8,0.6-1.3c0,0,0,0,0,0c0,0,0.5-0.8,0.9-0.7c0.4,0.1,5.4,1.2,5.4,1.2
				c0.5,0.1,1-0.1,1.2-0.5c0.4-0.9,0.6-1.4,0.7-2.5C218.3,153.2,217.9,152.7,217.5,152.6z M186.9,161.8c-8.7-1-14.9-8.8-13.9-17.5
				c1-8.7,8.8-14.9,17.5-13.9c8.6,1,14.9,8.8,13.9,17.5C203.4,156.6,195.5,162.8,186.9,161.8z"/>
		</g>
		<g>
			
				<ellipse transform="matrix(0.1146 -0.9934 0.9934 0.1146 21.9122 316.8297)" class="st2" cx="188.7" cy="146.1" rx="5.5" ry="5.5"/>
		</g>
	</g>
	<path class="st8" d="M275.6,86.4H240l-61.3,128.2h96.9c3.6,0,6.5-2.9,6.5-6.5V92.9C282.1,89.3,279.2,86.4,275.6,86.4z"/>
	<path class="st9" d="M264.1,115.2h89.2c1.1,0,2,0.9,2,2v115.3"/>
	<g>
		<path class="st4" d="M257.4,109.9c3,0,5.4,2.4,5.4,5.4c0,3-2.4,5.4-5.4,5.4c-3,0-5.4-2.4-5.4-5.4
			C252.1,112.3,254.4,109.9,257.4,109.9 M257.4,107.1c-4.5,0-8.1,3.6-8.1,8.1s3.6,8.1,8.1,8.1c4.5,0,8.1-3.6,8.1-8.1
			S261.9,107.1,257.4,107.1L257.4,107.1z"/>
	</g>
	<path class="st9" d="M108.9,173.9H19.7c-1.1,0-2-0.9-2-2v-40.5"/>
	<g>
		<path class="st4" d="M115.6,179.5c-3,0-5.4-2.4-5.4-5.4c0-3,2.4-5.4,5.4-5.4c3,0,5.4,2.4,5.4,5.4
			C120.9,177.2,118.5,179.5,115.6,179.5 M115.6,182.3c4.5,0,8.1-3.6,8.1-8.1c0-4.5-3.6-8.1-8.1-8.1c-4.5,0-8.1,3.6-8.1,8.1
			C107.5,178.7,111.1,182.3,115.6,182.3L115.6,182.3z"/>
	</g>
	<line class="st10" x1="244.1" y1="115.2" x2="229" y2="115.2"/>
	<line class="st10" x1="144.8" y1="174" x2="129.7" y2="174"/>
</g>
</svg>
