<?xml version="1.0" encoding="utf-8"?>
<!-- Generator: Adobe Illustrator 19.2.1, SVG Export Plug-In . SVG Version: 6.00 Build 0)  -->
<!DOCTYPE svg PUBLIC "-//W3C//DTD SVG 1.1//EN" "http://www.w3.org/Graphics/SVG/1.1/DTD/svg11.dtd">
<svg version="1.1" id="Layer_1" xmlns="http://www.w3.org/2000/svg" xmlns:xlink="http://www.w3.org/1999/xlink" x="0px" y="0px"
	 viewBox="0 0 170 130" style="enable-background:new 0 0 170 130;" xml:space="preserve">
<style type="text/css">
	.st0{fill:#444444;}
	.st1{fill:#00AEEF;}
	.st2{fill:#FFFFFF;}
	.st3{opacity:0.3;}
	.st4{clip-path:url(#SVGID_2_);}
	.st5{fill:#D2D7D9;}
	.st6{fill:#1E1E1E;}
	.st7{opacity:0.2;}
</style>
<g>
	<g>
		<g>
			<g>
				<rect x="103.9" y="64.9" class="st0" width="13.6" height="14"/>
			</g>
			<g>
				<rect x="121.4" y="64.9" class="st0" width="13.6" height="14"/>
			</g>
			<g>
				<rect x="138.9" y="64.9" class="st0" width="13.6" height="14"/>
			</g>
			<g>
				<rect x="156.3" y="64.9" class="st1" width="13.6" height="14"/>
			</g>
			<g>
				<path class="st2" d="M166.8,71.5c0-0.1,0-0.2-0.1-0.3c0-0.1-0.1-0.1-0.1-0.1c0,0-0.1,0-0.1,0H164v-2.6c0-0.1,0-0.1,0-0.2
					c0,0-0.1-0.1-0.1-0.1c-0.1,0-0.2-0.1-0.3-0.1c-0.1,0-0.3,0-0.4,0c-0.2,0-0.3,0-0.4,0c-0.1,0-0.2,0-0.3,0.1
					c-0.1,0-0.1,0.1-0.1,0.1c0,0,0,0.1,0,0.2V71h-2.4c-0.1,0-0.1,0-0.1,0c0,0-0.1,0.1-0.1,0.1c0,0.1-0.1,0.2-0.1,0.3
					c0,0.1,0,0.2,0,0.4c0,0.2,0,0.3,0,0.4c0,0.1,0,0.2,0.1,0.3c0,0.1,0.1,0.1,0.1,0.1c0,0,0.1,0,0.1,0h2.4v2.6c0,0.1,0,0.1,0,0.1
					c0,0,0.1,0.1,0.1,0.1c0.1,0,0.2,0.1,0.3,0.1c0.1,0,0.3,0,0.4,0c0.2,0,0.3,0,0.4,0c0.1,0,0.2,0,0.3-0.1c0.1,0,0.1-0.1,0.1-0.1
					c0,0,0-0.1,0-0.1v-2.6h2.4c0.1,0,0.1,0,0.1,0c0,0,0.1-0.1,0.1-0.1c0-0.1,0.1-0.2,0.1-0.3c0-0.1,0-0.2,0-0.4
					C166.8,71.7,166.8,71.6,166.8,71.5z"/>
			</g>
		</g>
		<g>
			<rect x="103.9" y="47.6" class="st0" width="66.1" height="14"/>
		</g>
		<g>
			<rect x="103.9" y="82.7" class="st0" width="18.5" height="24.9"/>
		</g>
		<g class="st3">
			<g>
				<rect x="126.2" y="82.7" class="st0" width="43.8" height="3"/>
			</g>
			<g>
				<rect x="126.2" y="88.2" class="st0" width="43.8" height="3"/>
			</g>
			<g>
				<rect x="126.2" y="93.7" class="st0" width="43.8" height="3"/>
			</g>
			<g>
				<rect x="126.2" y="99.2" class="st0" width="43.8" height="3"/>
			</g>
			<g>
				<rect x="126.2" y="104.7" class="st0" width="43.8" height="3"/>
			</g>
		</g>
		<g>
			<g>
				<rect x="131.1" y="35.9" class="st0" width="11.7" height="3"/>
			</g>
			<g>
				<rect x="115.2" y="41.4" class="st0" width="43.4" height="3"/>
			</g>
		</g>
		<g>
			<g>
				<g>
					<rect x="0" y="64.9" class="st0" width="13.6" height="14"/>
				</g>
				<g>
					<rect x="17.5" y="64.9" class="st0" width="48.6" height="14"/>
				</g>
				<g>
					<rect x="35" y="64.9" class="st0" width="13.6" height="14"/>
				</g>
				<g>
					<rect x="52.5" y="64.9" class="st0" width="13.6" height="14"/>
				</g>
			</g>
			<g class="st3">
				<rect x="0" y="47.6" class="st0" width="66.1" height="14"/>
			</g>
			<g>
				<g>
					<rect x="0" y="82.7" class="st1" width="18.5" height="24.9"/>
				</g>
				<g>
					<g>
						<rect x="22.3" y="82.7" class="st0" width="43.8" height="3"/>
					</g>
					<g>
						<rect x="22.3" y="88.2" class="st0" width="43.8" height="3"/>
					</g>
					<g>
						<rect x="22.3" y="93.7" class="st0" width="43.8" height="3"/>
					</g>
					<g>
						<rect x="22.3" y="99.2" class="st0" width="43.8" height="3"/>
					</g>
					<g>
						<rect x="22.3" y="104.7" class="st0" width="43.8" height="3"/>
					</g>
				</g>
			</g>
			<g class="st3">
				<g>
					<rect x="27.2" y="35.9" class="st0" width="11.7" height="3"/>
				</g>
				<g>
					<rect x="11.4" y="41.4" class="st0" width="43.4" height="3"/>
				</g>
			</g>
		</g>
	</g>
	<g>
		<g>
			<defs>
				<path id="SVGID_1_" d="M130.7,89.4H39.3c-1.8,0-3.2-1.4-3.2-3.2V25.5c0-1.8,1.4-3.2,3.2-3.2h91.4c1.8,0,3.2,1.4,3.2,3.2v60.7
					C133.9,88,132.5,89.4,130.7,89.4z"/>
			</defs>
			<clipPath id="SVGID_2_">
				<use xlink:href="#SVGID_1_"  style="overflow:visible;"/>
			</clipPath>
			<g class="st4">
				<rect x="30" y="43" class="st5" width="110" height="58.8"/>
			</g>
			<g class="st4">
				<rect x="30" y="20.9" class="st1" width="110" height="58.8"/>
			</g>
		</g>
		<g>
			<path class="st5" d="M97.8,103.8l-3-9.7c-0.2-0.6-0.7-1-1.4-1H76.6c-0.6,0-1.2,0.4-1.4,1l-3,9.7c-0.2,0.6-0.7,1-1.4,1H69
				c-0.8,0-1.4,0.6-1.4,1.4l0,0c0,0.8,0.6,1.4,1.4,1.4h4.3h23.3h4.3c0.8,0,1.4-0.6,1.4-1.4l0,0c0-0.8-0.6-1.4-1.4-1.4h-1.8
				C98.5,104.8,98,104.4,97.8,103.8z"/>
		</g>
		<g class="st3">
			<path class="st0" d="M94.8,94.1c-0.2-0.6-0.7-1-1.4-1H76.6c-0.6,0-1.2,0.4-1.4,1l-1.1,3.7h21.9L94.8,94.1z"/>
		</g>
	</g>
	<g>
		<g>
			<path class="st6" d="M100.1,58c0,0-2.5-0.9-2.7-1c-0.2-0.1-0.2-0.6-0.2-0.6c0,0,0,0,0,0c0-0.1,0-0.2,0.1-0.4c0-0.1,0-0.3,0-0.4
				c0,0,0,0,0,0c0,0,0.1-0.5,0.3-0.5c0.2,0,2.9-0.4,2.9-0.4c0.2,0,0.5-0.2,0.5-0.4c0-0.5,0-0.8-0.1-1.3c0-0.2-0.3-0.4-0.5-0.4
				c0,0-2.7,0-2.9,0c-0.2,0-0.4-0.5-0.4-0.5c0,0,0,0,0,0c-0.1-0.2-0.1-0.5-0.2-0.7c0,0,0,0,0,0c0,0-0.1-0.5,0.1-0.6
				c0.2-0.1,2.6-1.3,2.6-1.3c0.2-0.1,0.4-0.4,0.3-0.6c-0.1-0.5-0.3-0.8-0.5-1.2c-0.1-0.2-0.4-0.3-0.6-0.2c0,0-2.5,0.9-2.7,1
				c-0.2,0.1-0.5-0.3-0.5-0.3c0,0,0,0,0,0c-0.1-0.2-0.3-0.4-0.4-0.6c0,0,0,0,0,0c0,0-0.2-0.5-0.1-0.6c0.1-0.2,2-2.1,2-2.1
				c0.2-0.2,0.2-0.5,0.1-0.6c-0.3-0.4-0.5-0.6-0.9-1c-0.2-0.1-0.5-0.1-0.6,0.1c0,0-2,1.7-2.2,1.8c-0.2,0.1-0.6-0.1-0.6-0.1
				c0,0,0,0,0,0c-0.2-0.2-0.4-0.3-0.6-0.5c0,0,0,0,0,0c0,0-0.4-0.4-0.3-0.6c0.1-0.2,1.1-2.7,1.1-2.7c0.1-0.2,0-0.5-0.1-0.6
				c-0.4-0.3-0.7-0.4-1.2-0.6c-0.2-0.1-0.5,0.1-0.6,0.3c0,0-1.3,2.3-1.4,2.5c-0.1,0.2-0.6,0.1-0.6,0.1c0,0,0,0,0,0
				c-0.2-0.1-0.5-0.1-0.7-0.2c0,0,0,0,0,0c0,0-0.5-0.2-0.5-0.4c0-0.2,0.2-2.9,0.2-2.9c0-0.2-0.1-0.5-0.3-0.6
				c-0.5-0.1-0.8-0.2-1.3-0.2c-0.2,0-0.4,0.2-0.5,0.5c0,0-0.5,2.6-0.5,2.8c0,0.2-0.5,0.3-0.5,0.3c0,0,0,0,0,0c-0.3,0-0.5,0-0.8,0
				c0,0,0,0,0,0c0,0-0.5,0-0.6-0.2c-0.1-0.2-0.8-2.8-0.8-2.8C82.4,39.2,82.2,39,82,39c-0.5,0.1-0.8,0.1-1.3,0.3
				c-0.2,0.1-0.3,0.4-0.3,0.6c0,0,0.5,2.6,0.5,2.8c0,0.2-0.4,0.5-0.4,0.5c0,0,0,0,0,0c-0.2,0.1-0.5,0.2-0.7,0.3c0,0,0,0,0,0
				c0,0-0.5,0.1-0.6,0c-0.1-0.2-1.7-2.3-1.7-2.3C77.3,41,77,40.9,76.8,41c-0.5,0.2-0.7,0.4-1.1,0.7c-0.2,0.1-0.2,0.4-0.1,0.6
				c0,0,1.3,2.3,1.4,2.5c0.1,0.2-0.2,0.6-0.2,0.6c0,0,0,0,0,0c-0.2,0.2-0.4,0.3-0.5,0.5c0,0,0,0,0,0c0,0-0.4,0.3-0.6,0.2
				c-0.2-0.1-2.4-1.6-2.4-1.6c-0.2-0.1-0.5-0.1-0.7,0c-0.4,0.4-0.5,0.6-0.8,1.1c-0.1,0.2,0,0.5,0.2,0.6c0,0,2,1.7,2.2,1.9
				c0.2,0.1,0,0.6,0,0.6c0,0,0,0,0,0c-0.1,0.2-0.2,0.4-0.3,0.7c0,0,0,0,0,0c0,0-0.3,0.4-0.5,0.4c-0.2,0-2.8-0.6-2.8-0.6
				c-0.2-0.1-0.5,0-0.6,0.2c-0.2,0.5-0.3,0.8-0.4,1.3c0,0.2,0.1,0.4,0.4,0.5c0,0,2.5,0.9,2.7,1c0.2,0.1,0.2,0.6,0.2,0.6c0,0,0,0,0,0
				c0,0.1,0,0.2-0.1,0.4c0,0.1,0,0.2,0,0.4c0,0,0,0,0,0c0,0-0.1,0.5-0.3,0.5c-0.2,0-2.9,0.3-2.9,0.3c-0.2,0-0.5,0.2-0.5,0.4
				c0,0.5,0,0.8,0.1,1.3c0,0.2,0.3,0.4,0.5,0.4c0,0,2.7,0,2.9,0c0.2,0,0.4,0.5,0.4,0.5c0,0,0,0,0,0c0.1,0.2,0.1,0.5,0.2,0.7
				c0,0,0,0,0,0c0,0,0.1,0.5-0.1,0.6c-0.2,0.1-2.6,1.3-2.6,1.3c-0.2,0.1-0.4,0.4-0.3,0.6c0.1,0.5,0.3,0.8,0.5,1.2
				c0.1,0.2,0.4,0.3,0.6,0.2c0,0,2.5-0.9,2.7-1c0.2-0.1,0.5,0.3,0.5,0.3c0,0,0,0,0,0c0.1,0.2,0.3,0.4,0.4,0.6c0,0,0,0,0,0
				c0,0,0.2,0.5,0.1,0.6c-0.1,0.2-2,2.1-2,2.1c-0.2,0.2-0.2,0.5-0.1,0.6c0.3,0.4,0.5,0.6,0.9,1c0.2,0.1,0.5,0.1,0.6-0.1
				c0,0,2-1.7,2.2-1.8c0.2-0.1,0.6,0.1,0.6,0.1c0,0,0,0,0,0c0.2,0.2,0.4,0.3,0.6,0.5c0,0,0,0,0,0c0,0,0.4,0.4,0.3,0.6
				c-0.1,0.2-1.1,2.7-1.1,2.7c-0.1,0.2,0,0.5,0.1,0.6c0.4,0.3,0.7,0.4,1.2,0.6c0.2,0.1,0.5-0.1,0.6-0.3c0,0,1.3-2.3,1.4-2.5
				c0.1-0.2,0.6-0.1,0.6-0.1c0,0,0,0,0,0c0.2,0.1,0.5,0.1,0.7,0.2c0,0,0,0,0,0c0,0,0.5,0.2,0.5,0.4c0,0.2-0.2,2.9-0.2,2.9
				c0,0.2,0.1,0.5,0.3,0.6c0.5,0.1,0.8,0.2,1.3,0.2c0.2,0,0.4-0.2,0.5-0.5c0,0,0.5-2.6,0.5-2.8c0-0.2,0.5-0.3,0.5-0.3c0,0,0,0,0,0
				c0.3,0,0.5,0,0.8,0c0,0,0,0,0,0c0,0,0.5,0,0.6,0.2c0.1,0.2,0.8,2.8,0.8,2.8c0.1,0.2,0.3,0.4,0.5,0.4c0.5-0.1,0.8-0.1,1.3-0.3
				c0.2-0.1,0.3-0.3,0.3-0.6c0,0-0.5-2.6-0.5-2.8c0-0.2,0.4-0.5,0.4-0.5c0,0,0,0,0,0c0.2-0.1,0.5-0.2,0.7-0.3c0,0,0,0,0,0
				c0,0,0.5-0.1,0.6,0c0.1,0.2,1.7,2.3,1.7,2.3c0.1,0.2,0.4,0.3,0.6,0.2c0.5-0.2,0.7-0.4,1.1-0.7c0.2-0.1,0.2-0.4,0.1-0.6
				c0,0-1.3-2.3-1.4-2.5c-0.1-0.2,0.2-0.6,0.2-0.6c0,0,0,0,0,0c0.2-0.2,0.4-0.3,0.5-0.5c0,0,0,0,0,0c0,0,0.4-0.3,0.6-0.2
				c0.2,0.1,2.4,1.6,2.4,1.6c0.2,0.1,0.5,0.1,0.7,0c0.4-0.4,0.5-0.6,0.8-1.1c0.1-0.2,0-0.5-0.2-0.6c0,0-2-1.7-2.2-1.9
				c-0.2-0.1,0-0.6,0-0.6c0,0,0,0,0,0c0.1-0.2,0.2-0.4,0.3-0.7c0,0,0,0,0,0c0,0,0.3-0.4,0.5-0.4c0.2,0.1,2.8,0.7,2.8,0.7
				c0.2,0.1,0.5,0,0.6-0.2c0.2-0.5,0.3-0.8,0.4-1.3C100.5,58.3,100.3,58.1,100.1,58z M84.1,62.8c-4.5-0.5-7.8-4.6-7.3-9.2
				c0.5-4.5,4.6-7.8,9.1-7.3c4.5,0.5,7.8,4.6,7.3,9.2C92.7,60.1,88.6,63.4,84.1,62.8z"/>
		</g>
		<g>
			<ellipse transform="matrix(0.1146 -0.9934 0.9934 0.1146 20.979 132.8216)" class="st6" cx="85" cy="54.6" rx="2.9" ry="2.9"/>
		</g>
	</g>
	<g>
		<path class="st2" d="M12.9,94.8c0-0.1,0-0.2-0.1-0.3c0-0.1-0.1-0.1-0.1-0.1c0,0-0.1,0-0.1,0h-2.4v-2.6c0-0.1,0-0.1,0-0.2
			c0,0-0.1-0.1-0.1-0.1c-0.1,0-0.2-0.1-0.3-0.1c-0.1,0-0.3,0-0.4,0c-0.2,0-0.3,0-0.4,0c-0.1,0-0.2,0-0.3,0.1c-0.1,0-0.1,0.1-0.1,0.1
			c0,0,0,0.1,0,0.2v2.6H5.9c-0.1,0-0.1,0-0.1,0c0,0-0.1,0.1-0.1,0.1c0,0.1-0.1,0.2-0.1,0.3c0,0.1,0,0.2,0,0.4c0,0.2,0,0.3,0,0.4
			c0,0.1,0,0.2,0.1,0.3c0,0.1,0.1,0.1,0.1,0.1c0,0,0.1,0,0.1,0h2.4v2.6c0,0.1,0,0.1,0,0.1c0,0,0.1,0.1,0.1,0.1C8.6,99,8.7,99,8.8,99
			c0.1,0,0.3,0,0.4,0c0.2,0,0.3,0,0.4,0c0.1,0,0.2,0,0.3-0.1c0.1,0,0.1-0.1,0.1-0.1c0,0,0-0.1,0-0.1v-2.6h2.4c0.1,0,0.1,0,0.1,0
			c0,0,0.1-0.1,0.1-0.1c0-0.1,0.1-0.2,0.1-0.3c0-0.1,0-0.2,0-0.4C12.9,95.1,12.9,94.9,12.9,94.8z"/>
	</g>
	<g>
		<rect x="54.5" y="29.4" class="st2" width="15.1" height="3.5"/>
	</g>
	<g>
		<path class="st2" d="M47.5,29.1c1.1,0,2.1,0.9,2.1,2.1c0,1.1-0.9,2.1-2.1,2.1c-1.1,0-2.1-0.9-2.1-2.1C45.4,30,46.4,29.1,47.5,29.1
			 M47.5,28c-1.7,0-3.1,1.4-3.1,3.1c0,1.7,1.4,3.1,3.1,3.1c1.7,0,3.1-1.4,3.1-3.1C50.6,29.4,49.2,28,47.5,28L47.5,28z"/>
	</g>
	<g>
		<path class="st2" d="M119.2,69.8c1.1,0,2.1,0.9,2.1,2.1c0,1.1-0.9,2.1-2.1,2.1c-1.1,0-2.1-0.9-2.1-2.1
			C117.2,70.7,118.1,69.8,119.2,69.8 M119.2,68.8c-1.7,0-3.1,1.4-3.1,3.1c0,1.7,1.4,3.1,3.1,3.1c1.7,0,3.1-1.4,3.1-3.1
			C122.4,70.2,121,68.8,119.2,68.8L119.2,68.8z"/>
	</g>
	<g>
		<g>
			<path class="st2" d="M9.2,80.5c-0.3,0-0.5-0.2-0.5-0.5v-3.2c0-0.3,0.2-0.5,0.5-0.5c0.3,0,0.5,0.2,0.5,0.5V80
				C9.8,80.3,9.5,80.5,9.2,80.5z M9.2,74.2c-0.3,0-0.5-0.2-0.5-0.5v-3.2c0-0.3,0.2-0.5,0.5-0.5c0.3,0,0.5,0.2,0.5,0.5v3.2
				C9.8,73.9,9.5,74.2,9.2,74.2z M9.2,67.8c-0.3,0-0.5-0.2-0.5-0.5v-3.2c0-0.3,0.2-0.5,0.5-0.5c0.3,0,0.5,0.2,0.5,0.5v3.2
				C9.8,67.5,9.5,67.8,9.2,67.8z M9.2,61.4c-0.3,0-0.5-0.2-0.5-0.5v-3.2c0-0.3,0.2-0.5,0.5-0.5c0.3,0,0.5,0.2,0.5,0.5v3.2
				C9.8,61.2,9.5,61.4,9.2,61.4z M9.2,55c-0.3,0-0.5-0.2-0.5-0.5v-3.2c0-0.3,0.2-0.5,0.5-0.5c0.3,0,0.5,0.2,0.5,0.5v3.2
				C9.8,54.8,9.5,55,9.2,55z M9.2,48.7c-0.3,0-0.5-0.2-0.5-0.5V45c0-0.3,0.2-0.5,0.5-0.5c0.3,0,0.5,0.2,0.5,0.5v3.2
				C9.8,48.4,9.5,48.7,9.2,48.7z M9.2,42.3c-0.3,0-0.5-0.2-0.5-0.5v-3.2c0-0.3,0.2-0.5,0.5-0.5c0.3,0,0.5,0.2,0.5,0.5v3.2
				C9.8,42.1,9.5,42.3,9.2,42.3z M9.2,35.9c-0.3,0-0.5-0.2-0.5-0.5V34c0-0.7,0.2-1.4,0.6-2c0.2-0.2,0.5-0.3,0.7-0.1
				c0.2,0.2,0.3,0.5,0.1,0.7C9.9,33,9.8,33.5,9.8,34v1.4C9.8,35.7,9.5,35.9,9.2,35.9z M41.2,31.7H38c-0.3,0-0.5-0.2-0.5-0.5
				c0-0.3,0.2-0.5,0.5-0.5h3.2c0.3,0,0.5,0.2,0.5,0.5C41.7,31.4,41.5,31.7,41.2,31.7z M34.8,31.7h-3.2c-0.3,0-0.5-0.2-0.5-0.5
				c0-0.3,0.2-0.5,0.5-0.5h3.2c0.3,0,0.5,0.2,0.5,0.5C35.4,31.4,35.1,31.7,34.8,31.7z M28.5,31.7h-3.2c-0.3,0-0.5-0.2-0.5-0.5
				c0-0.3,0.2-0.5,0.5-0.5h3.2c0.3,0,0.5,0.2,0.5,0.5C29,31.4,28.8,31.7,28.5,31.7z M22.1,31.7h-3.2c-0.3,0-0.5-0.2-0.5-0.5
				c0-0.3,0.2-0.5,0.5-0.5h3.2c0.3,0,0.5,0.2,0.5,0.5C22.6,31.4,22.4,31.7,22.1,31.7z M15.7,31.7h-3.2c-0.3,0-0.5-0.2-0.5-0.5
				c0-0.3,0.2-0.5,0.5-0.5h3.2c0.3,0,0.5,0.2,0.5,0.5C16.3,31.4,16,31.7,15.7,31.7z"/>
		</g>
	</g>
	<g>
		<g>
			<path class="st2" d="M153.6,72.6h-3.2c-0.3,0-0.5-0.2-0.5-0.5c0-0.3,0.2-0.5,0.5-0.5h3.2c0.3,0,0.5,0.2,0.5,0.5
				C154.1,72.3,153.9,72.6,153.6,72.6z M147.2,72.6H144c-0.3,0-0.5-0.2-0.5-0.5c0-0.3,0.2-0.5,0.5-0.5h3.2c0.3,0,0.5,0.2,0.5,0.5
				C147.7,72.3,147.5,72.6,147.2,72.6z M140.8,72.6h-3.2c-0.3,0-0.5-0.2-0.5-0.5c0-0.3,0.2-0.5,0.5-0.5h3.2c0.3,0,0.5,0.2,0.5,0.5
				C141.4,72.3,141.1,72.6,140.8,72.6z M134.5,72.6h-3.2c-0.3,0-0.5-0.2-0.5-0.5c0-0.3,0.2-0.5,0.5-0.5h3.2c0.3,0,0.5,0.2,0.5,0.5
				C135,72.3,134.8,72.6,134.5,72.6z M128.1,72.6h-3.2c-0.3,0-0.5-0.2-0.5-0.5c0-0.3,0.2-0.5,0.5-0.5h3.2c0.3,0,0.5,0.2,0.5,0.5
				C128.6,72.3,128.4,72.6,128.1,72.6z"/>
		</g>
	</g>
	<g class="st7">
		<path class="st2" d="M130.5,89.4H82.1l29.4-67.1h19c0,0,3.4,1.5,3.4,3.4V86C133.9,87.9,132.4,89.4,130.5,89.4z"/>
	</g>
</g>
</svg>
