<?xml version="1.0" encoding="utf-8"?>
<!-- Generator: Adobe Illustrator 19.2.1, SVG Export Plug-In . SVG Version: 6.00 Build 0)  -->
<!DOCTYPE svg PUBLIC "-//W3C//DTD SVG 1.1//EN" "http://www.w3.org/Graphics/SVG/1.1/DTD/svg11.dtd">
<svg version="1.1" id="Layer_1" xmlns="http://www.w3.org/2000/svg" xmlns:xlink="http://www.w3.org/1999/xlink" x="0px" y="0px"
	 viewBox="0 0 16 16" style="enable-background:new 0 0 16 16;" xml:space="preserve">
<path d="M0,9.8c0-4.5,2.9-7.3,4.1-8.3c0.4-0.3,0.7-0.3,1,0.1l0.7,0.6c0.3,0.3,0.2,0.8-0.1,1.1C5.2,3.6,2.6,5.6,2.6,8.8
	c0.1,0,0.6-0.2,1.4-0.2c1.7,0,3.1,1.3,3.1,3.1s-1.4,3.1-3.3,3.1C2.1,14.7,0,13.6,0,9.8z M8.9,9.8c0-4.5,2.9-7.3,4.1-8.3
	c0.4-0.3,0.7-0.3,1.1,0.1l0.7,0.6c0.3,0.3,0.2,0.8-0.1,1.1c-0.5,0.4-3.1,2.4-3.1,5.6c0.1,0,0.6-0.2,1.4-0.2c1.7,0,3.1,1.3,3.1,3.1
	s-1.4,3.1-3.3,3.1C11,14.7,8.9,13.6,8.9,9.8z"/>
</svg>
