<?xml version="1.0" encoding="utf-8"?>
<!-- Generator: Adobe Illustrator 19.2.1, SVG Export Plug-In . SVG Version: 6.00 Build 0)  -->
<!DOCTYPE svg PUBLIC "-//W3C//DTD SVG 1.1//EN" "http://www.w3.org/Graphics/SVG/1.1/DTD/svg11.dtd">
<svg version="1.1" id="Layer_1" xmlns="http://www.w3.org/2000/svg" xmlns:xlink="http://www.w3.org/1999/xlink" x="0px" y="0px"
	 viewBox="0 0 203 126" style="enable-background:new 0 0 203 126;" xml:space="preserve">
<style type="text/css">
	.st0{fill:none;}
	.st1{fill:#28B34B;}
	.st2{fill:#414042;}
</style>
<g id="Layer_1_1_">
	<g>
		<rect x="91.6" y="95.4" class="st0" width="16.4" height="23.3"/>
		
			<rect x="43.3" y="95.6" transform="matrix(0.9707 -0.2403 0.2403 0.9707 -24.2628 15.5246)" class="st0" width="16.4" height="23.3"/>
		<path class="st1" d="M60.4,58.9c-2.1-10.8-12.5-18-23.3-15.9c-10.8,2-18,12.5-16,23.3c1.6,8.4,2.9,15.6,3.5,18.4
			c11.6-3.8,24.9-6.6,39-8.5C62.9,72.2,61.3,63.5,60.4,58.9z M34.6,46.5l4.4-0.9l0.7,3.1l-4.3,0.9L34.6,46.5z M36,52.7l4.4-0.9
			l0.7,3.1l-4.4,0.9L36,52.7z M37.3,59l4.4-0.9l0.7,3.1L38,62.1L37.3,59z M38.7,65.3l4.4-0.9l0.7,3.1l-4.4,0.9L38.7,65.3z M40,71.6
			l4.4-0.9l0.7,3.1l-4.4,0.9L40,71.6z"/>
		<circle class="st2" cx="101.5" cy="14.4" r="14.3"/>
		<path class="st2" d="M32,37.9c7.9-0.3,14.1-6.9,13.8-14.8C45.6,15.2,38.9,9,31,9.3c-7.9,0.3-14.1,6.9-13.8,14.8
			C17.5,32,24.2,38.2,32,37.9z"/>
		<path class="st1" d="M121.5,74.5c0-3.8,0-13.4,0-18.4c0-11-8.9-20-20-20s-20,8.9-20,20c0,8.3,0,15.4,0,18.4
			c6.5-0.4,13.2-0.7,20-0.7C108.2,73.9,114.9,74.1,121.5,74.5z M101.5,46.1c1,0,1.8,0.8,1.8,1.8c0,1-0.8,1.8-1.8,1.8
			c-1,0-1.8-0.8-1.8-1.8C99.6,46.9,100.5,46.1,101.5,46.1z M99.6,56.7c0-1,0.8-1.8,1.8-1.8s1.8,0.8,1.8,1.8c0,1-0.8,1.8-1.8,1.8
			S99.6,57.7,99.6,56.7z"/>
		<path class="st2" d="M172.3,36.1c7.8-1.1,13.3-8.2,12.3-16c-1.1-7.8-8.2-13.3-16-12.3s-13.3,8.2-12.3,16
			C157.3,31.6,164.5,37.1,172.3,36.1z"/>
		<path class="st2" d="M140.9,86.4c-0.1,0.9,3.9,5.3,3.4,5.7c-1.3,0.7-7.7-4.5-11.1-6c-1-0.4-1.3,5.9-0.5,6.5
			c3.2,3.2,6.1,5.6,10.2,7.6c3.6,1.7,10.7-1.3,8.3-6.2C150.7,93,141.2,83.4,140.9,86.4z"/>
		<path class="st2" d="M142.4,76.6c-6.8-0.9-13.8-1.7-20.9-2.2c-6.5-0.4-13.2-0.7-20-0.7c-6.7,0-13.4,0.3-20,0.7
			c-6,0.4-12,1-17.8,1.8c-14.2,1.8-27.4,4.7-39,8.5c-9,2.9-17,6.4-23.8,10.2l2.2,3.9c22.2-12.8,59-20.5,98.3-20.5
			c26.1,0,50.9,3.3,71.7,9.5c0.3-1.3,0.6-2.7,0.7-4.4C164,80.5,153.5,78.2,142.4,76.6z"/>
		<path class="st2" d="M186.5,87.7c0,0.1,0,0.1,0,0.2c-0.1,1.6-0.3,3.1-0.5,4.4c5,2,9.7,4.2,13.7,6.5l2.2-3.9
			C197.5,92.3,192.2,89.9,186.5,87.7z"/>
		<path class="st1" d="M87.1,123.1h25.2V90.9H87.1V123.1z M91.6,95.4h16.4v23.3H91.6V95.4z"/>
		<path class="st1" d="M35.4,94.6l7.7,31.2l24.5-6l-7.7-31.2L35.4,94.6z M46.4,120.5l-5.6-22.6l15.9-3.9l5.6,22.6L46.4,120.5z"/>
		<polygon class="st2" points="66.4,92.6 71.6,113.5 74.5,116.4 75.9,112.4 70.8,91.6 		"/>
		<polygon class="st2" points="116.7,119 118.9,121.8 121.1,119 121.1,95.5 116.7,95.5 		"/>
		<path class="st1" d="M186.5,87.7c0.4-12.6,0-21.4-1.4-27.7c-1.1-8.3-7.4-15.3-16-17c-10.8-2-21.2,5-23.3,15.9
			c-0.9,4.8-2.6,13.9-3.4,17.8c11.2,1.6,21.7,3.9,31.5,6.7c0,1.7-0.3,3.2-0.7,4.4c-3.3,11-18,6.3-18,6.3l-1.3,7.1
			c0,0,28.1,12.3,32.2-8.9c0.3-1.3,0.4-2.8,0.5-4.4C186.5,87.8,186.5,87.7,186.5,87.7z M164.8,74.3l-7.1-0.7l6.4-20.6l0.8,0.2
			l2.2,0.3L164.8,74.3z M167.7,52l-0.5-0.1l-2.2-0.3l-0.8-0.2l-0.4-0.1l-0.1-5.3l5.9,0.8L167.7,52z"/>
	</g>
</g>
<g id="Layer_2">
</g>
<g id="Layer_3">
</g>
<g id="Layer_4">
</g>
</svg>
