<?xml version="1.0" encoding="utf-8"?>
<!-- Generator: Adobe Illustrator 19.2.1, SVG Export Plug-In . SVG Version: 6.00 Build 0)  -->
<!DOCTYPE svg PUBLIC "-//W3C//DTD SVG 1.1//EN" "http://www.w3.org/Graphics/SVG/1.1/DTD/svg11.dtd">
<svg version="1.1" id="Layer_1" xmlns="http://www.w3.org/2000/svg" xmlns:xlink="http://www.w3.org/1999/xlink" x="0px" y="0px"
	 viewBox="0 0 457 164" style="enable-background:new 0 0 457 164;" xml:space="preserve">
<style type="text/css">
	.st0{fill:#FFFFFF;}
</style>
<g>
	<g>
		<path class="st0" d="M45.8,124.6c0-11.2,4-28.9,8.3-36.7h-9.4c-2.7,0-3.4,0.4-4.7,2.6c-0.1,0.3-0.3,0.7-0.6,1.2
			c-3-3.2-6.1-4.5-10.8-4.5c-15.3,0-28.7,16.5-28.7,35c0,12.4,7.5,21,18.4,21c6.4,0,11.1-2.7,15.4-8.7c1.6,5.2,5.7,8.7,10.5,8.7
			c4.9,0,8-2.4,9.3-7.3l0.7-2.5c-0.6,0.1-1.3,0.1-1.5,0.1C48,133.3,45.8,130.6,45.8,124.6z M29.5,121.6c-2.5,5.7-5.8,8.8-9.4,8.8
			c-2.9,0-4.4-2.5-4.4-7.3c0-11.7,6.7-23.4,13.3-23.4c2.7,0,4.3,1.9,4.3,4.8C33.3,108.7,31.4,117.2,29.5,121.6z M79.5,87.9l3-16
			l-17.5,2.9c0.6,1.9,0.8,3.6,0.8,5.8c0,1.3-0.1,2.4-0.5,4.4L65,87.9h-1.3c-3.5,0-5.8,2-6.4,5.3l-1.3,7.9c2.1-0.7,3-0.8,4.2-0.8h2.4
			l-3.6,22.5c-0.3,2.3-0.6,5-0.6,6.7c0,9,5.5,13.7,16.2,13.7c6.4,0,9.1-1.7,9.8-6.1l1-7c-2.4,0.8-3.8,1-5.9,1
			c-3.7,0-5.4-1.5-5.4-4.7c0-0.3,0-1,0.1-1.7c0-0.8,0.1-1.5,0.1-1.9l3.6-22.5c5.2-0.3,6.9-1.6,8.1-6.1L88,87c-3.2,0.8-4,0.9-5.2,0.9
			H79.5z M170.7,132c-3.1,0-5-1.6-5-4.5c0-1.2,0.2-3.7,0.6-5.8l2.7-17.1c0.4-2,0.5-3.4,0.5-5.6c0-7.3-5.4-11.8-14.2-11.8
			c-6.5,0-10.8,1.6-16.3,6.1c-2.8-4.4-6.2-6.1-12.4-6.1c-5.9,0-10.3,1.7-15.4,6.1c-2.5-4.2-5.9-5.9-11.2-5.9c-4.3,0-6.5,0.9-7.5,3.2
			L89,97.8c1.4-0.4,2-0.5,3-0.5c4.3,0,6,1.4,6,5c0,0.9-0.1,2.2-0.6,5.1L91.8,142h15.7l5-31c0.9-6,5.8-11.1,10.6-11.1
			c1.8,0,2.7,0.9,2.7,3.2c0,0.6-0.1,1.6-0.2,2.4l-5.9,36.5h15.6l5-30.9c1-6.6,5.4-11.2,10.5-11.2c1.8,0,2.8,1,2.8,3.2
			c0,0.5-0.1,1.4-0.3,2.7l-2.3,14.9c-0.6,4.1-1,7.8-1,9.7c0,7.3,5.9,12.6,14.1,12.6c3.8,0,6.4-1.5,7.7-4.6l3-6.7
			C172.6,131.9,171.8,132,170.7,132z M218.1,89.9c-4.3-2-7.2-2.7-11.8-2.7c-13.4,0-23.5,9.5-23.5,22.2c0,5.2,1.5,8,5.5,10.9
			c-4.3,1.9-6.2,4.4-6.2,7.9c0,2.9,1.3,4.5,5,6.7c-9.2,1-14.5,6.1-14.5,14.2c0,9.4,9.4,14.8,25.4,14.8c16.3,0,27.5-7.2,27.5-17.7
			c0-8.2-4.9-11.7-19.3-13.2c-7.3-0.8-10.2-2.1-10.2-4.9c0-2.3,2.2-3.4,7.2-3.6c12.3-0.6,20.2-8,20.2-18.9c0-1.7-0.2-3-0.8-5.8
			c2.7,0.5,4.2,0.6,5,0.6c2.4,0,3.6-0.9,4.3-3.2l2.5-8.3c-3.1,0.8-4,0.9-8.1,0.9H218.1z M199.9,142.6c7.9,0,10.9,1.3,10.9,4.6
			c0,3.8-4.4,5.7-13.3,5.7c-7.3,0-10.6-1.5-10.6-4.9C186.8,144.1,190.7,142.6,199.9,142.6z M201.8,116.5c-3,0-4.5-2-4.5-5.8
			c0-7.5,3.6-13.6,8.1-13.6c2.7,0,4.3,2,4.3,5.2C209.6,110.1,206,116.5,201.8,116.5z M281.3,127c0-1.3,0.1-2.4,0.5-4.7l5.7-35.3
			l-17.6,2.8c0.3,1.5,0.5,2.5,0.5,4.3c0,2-0.1,3.6-0.7,7.2l-2.3,14.4c-1.6,10.2-5.5,15.4-11.6,15.4c-1.9,0-2.9-1-2.9-2.9
			c0-0.9,0-1.3,0.1-2l3.2-20.2c0.3-2.1,0.5-4.2,0.5-6.1c0-7.6-4.9-12.5-12.4-12.5c-3.5,0-5.3,0.9-6.2,3l-3.4,7.5h1.7
			c3.3,0,4.5,1.3,4.5,4.2c0,0.9-0.1,3-0.3,4.2l-3.1,19.9c-0.2,1.6-0.5,3.4-0.5,4.6c0,7.9,5.2,12.3,14.2,12.3
			c6.8,0,11.4-1.9,16.6-6.7c1.6,4.4,5.7,6.7,11.4,6.7c4.3,0,6.7-1.5,8.2-4.9l2.8-6.4c-1.7,0.2-2.5,0.2-3.5,0.2
			C282.7,132,281.3,130.8,281.3,127z M327.3,87.4c-5.5,0-9.5,2.5-13.6,9l1.5-9.5L300,89.5c0.3,1.6,0.5,2.6,0.5,3.9
			c0,2.7-0.1,4.4-0.8,8.5l-6.5,40.1h15.6l4.4-27.5c1.5-9.6,5.4-13.9,12.7-13.9c2.1,0,3.5,0.3,5.2,1.5l1.4-8.9
			c0.1-0.6,0.2-1.4,0.2-1.7C332.8,88.8,330.9,87.4,327.3,87.4z M382.4,127c0-1.3,0.1-2.4,0.5-4.7l5.7-35.3l-17.6,2.8
			c0.3,1.5,0.5,2.5,0.5,4.3c0,2-0.1,3.6-0.7,7.2l-2.3,14.4c-1.6,10.2-5.5,15.4-11.6,15.4c-1.8,0-2.9-1-2.9-2.9c0-0.9,0-1.3,0.1-2
			l3.2-20.2c0.3-2.1,0.5-4.2,0.5-6.1c0-7.6-4.9-12.5-12.4-12.5c-3.5,0-5.3,0.9-6.2,3l-3.4,7.5h1.7c3.4,0,4.5,1.3,4.5,4.2
			c0,0.9-0.1,3-0.4,4.2l-3.1,19.9c-0.2,1.6-0.5,3.4-0.5,4.6c0,7.9,5.2,12.3,14.2,12.3c6.8,0,11.5-1.9,16.7-6.7
			c1.6,4.4,5.7,6.7,11.4,6.7c4.3,0,6.7-1.5,8.2-4.9l2.8-6.4c-1.7,0.2-2.5,0.2-3.5,0.2C383.7,132,382.4,130.8,382.4,127z M207.3,5
			c1.4,0,2.5-1.1,2.5-2.5c0-1.4-1.1-2.5-2.5-2.5c-1.4,0-2.5,1.1-2.5,2.5C204.8,3.9,205.9,5,207.3,5z M207.3,19.8
			c1.6,0,2.9-1.3,2.9-2.9c0-1.6-1.3-2.9-2.9-2.9c-1.6,0-2.9,1.3-2.9,2.9C204.4,18.5,205.7,19.8,207.3,19.8z M207.3,34.7
			c1.9,0,3.4-1.5,3.4-3.4c0-1.9-1.5-3.4-3.4-3.4c-1.9,0-3.4,1.5-3.4,3.4C203.9,33.1,205.4,34.7,207.3,34.7z M207.3,49.5
			c2.1,0,3.8-1.7,3.8-3.8c0-2.1-1.7-3.8-3.8-3.8c-2.1,0-3.8,1.7-3.8,3.8C203.5,47.8,205.2,49.5,207.3,49.5z M207.3,64.4
			c2.4,0,4.3-1.9,4.3-4.3c0-2.4-1.9-4.3-4.3-4.3c-2.4,0-4.3,1.9-4.3,4.3C203,62.4,204.9,64.4,207.3,64.4z M178.2,8.8
			c1.3-0.4,2.1-1.7,1.8-3c-0.4-1.3-1.7-2.1-3-1.8c-1.3,0.4-2.1,1.7-1.7,3C175.5,8.4,176.9,9.2,178.2,8.8z M178.4,21.1
			c0.4,1.6,2,2.5,3.6,2.1c1.6-0.4,2.5-2,2.1-3.6c-0.4-1.6-2-2.5-3.6-2.1C178.9,17.9,178,19.5,178.4,21.1z M181.7,35.1
			c0.5,1.8,2.3,2.9,4.1,2.4c1.8-0.5,2.9-2.3,2.4-4.2c-0.5-1.8-2.3-2.9-4.1-2.4C182.3,31.4,181.2,33.3,181.7,35.1z M185,49.1
			c0.5,2.1,2.6,3.3,4.7,2.7c2-0.5,3.3-2.7,2.7-4.7c-0.5-2-2.6-3.3-4.7-2.7C185.7,45,184.4,47.1,185,49.1z M191.3,57.9
			c-2.3,0.6-3.6,3-3,5.3c0.6,2.3,3,3.7,5.2,3c2.3-0.6,3.6-3,3-5.3C195.9,58.6,193.6,57.3,191.3,57.9z M151.1,20.1
			c1.2-0.7,1.6-2.2,0.9-3.4c-0.7-1.2-2.2-1.6-3.4-0.9c-1.2,0.7-1.6,2.2-0.9,3.4C148.4,20.3,149.9,20.7,151.1,20.1z M158.5,32.9
			c1.4-0.8,1.9-2.6,1.1-4c-0.8-1.4-2.6-1.9-4-1.1c-1.4,0.8-1.9,2.6-1.1,4C155.3,33.3,157.1,33.7,158.5,32.9z M165.9,45.8
			c1.6-0.9,2.2-3,1.2-4.6c-0.9-1.6-3-2.2-4.6-1.2c-1.6,0.9-2.2,3-1.2,4.6C162.2,46.2,164.3,46.7,165.9,45.8z M168.1,57.2
			c1.1,1.8,3.4,2.5,5.2,1.4c1.8-1.1,2.5-3.4,1.4-5.2c-1.1-1.8-3.4-2.5-5.2-1.4C167.6,53,167,55.4,168.1,57.2z M176.4,64.1
			c-2.1,1.2-2.8,3.8-1.6,5.9c1.2,2.1,3.8,2.8,5.9,1.6c2-1.2,2.8-3.8,1.6-5.9C181.1,63.6,178.5,62.9,176.4,64.1z M127.8,38
			c1-1,1-2.5,0-3.5c-1-1-2.5-1-3.5,0c-1,1-1,2.5,0,3.5C125.2,38.9,126.8,38.9,127.8,38z M138.2,48.5c1.1-1.1,1.1-3,0-4.2
			c-1.1-1.2-3-1.2-4.1,0c-1.1,1.1-1.1,3,0,4.2C135.2,49.6,137.1,49.6,138.2,48.5z M148.7,59c1.3-1.3,1.3-3.5,0-4.8
			c-1.3-1.3-3.5-1.3-4.8,0c-1.3,1.3-1.3,3.5,0,4.8C145.3,60.3,147.4,60.3,148.7,59z M159.2,69.5c1.5-1.5,1.5-3.9,0-5.4
			c-1.5-1.5-3.9-1.5-5.4,0c-1.5,1.5-1.5,3.9,0,5.4C155.3,71,157.7,71,159.2,69.5z M163.6,73.9c-1.7,1.7-1.7,4.4,0,6.1
			c1.7,1.7,4.4,1.7,6.1,0c1.7-1.7,1.7-4.4,0-6.1C168,72.2,165.3,72.2,163.6,73.9z M263.5,20.1c1.2,0.7,2.7,0.3,3.4-0.9
			c0.7-1.2,0.3-2.7-0.9-3.4c-1.2-0.7-2.7-0.3-3.4,0.9C261.9,17.9,262.3,19.4,263.5,20.1z M256.1,32.9c1.4,0.8,3.2,0.3,4-1.1
			c0.8-1.4,0.3-3.2-1.1-4c-1.4-0.8-3.2-0.3-4,1.1C254.2,30.3,254.7,32.1,256.1,32.9z M248.7,45.8c1.6,0.9,3.7,0.4,4.6-1.2
			c0.9-1.6,0.4-3.7-1.2-4.6c-1.6-0.9-3.7-0.4-4.6,1.2C246.5,42.8,247.1,44.8,248.7,45.8z M241.3,58.6c1.8,1.1,4.2,0.4,5.2-1.4
			c1.1-1.8,0.4-4.2-1.4-5.3c-1.8-1.1-4.2-0.4-5.2,1.4C238.8,55.2,239.5,57.6,241.3,58.6z M238.2,64.1c-2.1-1.2-4.7-0.5-5.9,1.6
			c-1.2,2.1-0.5,4.7,1.6,5.9c2.1,1.2,4.7,0.5,5.9-1.6C240.9,67.9,240.2,65.2,238.2,64.1z M286.8,34.5c-1,1-1,2.5,0,3.5
			c1,1,2.5,1,3.5,0c1-1,1-2.5,0-3.5C289.3,33.5,287.8,33.5,286.8,34.5z M280.5,48.5c1.1-1.1,1.1-3,0-4.2c-1.1-1.2-3-1.2-4.1,0
			c-1.1,1.1-1.1,3,0,4.2C277.5,49.6,279.3,49.6,280.5,48.5z M265.8,59c1.3,1.3,3.5,1.3,4.8,0c1.3-1.3,1.3-3.5,0-4.8
			c-1.3-1.3-3.5-1.3-4.8,0C264.5,55.5,264.5,57.6,265.8,59z M260.8,69.5c1.5-1.5,1.5-3.9,0-5.4c-1.5-1.5-3.9-1.5-5.4,0
			c-1.5,1.5-1.5,3.9,0,5.4C256.9,71,259.3,71,260.8,69.5z M244.9,73.9c-1.7,1.7-1.7,4.4,0,6.1c1.7,1.7,4.4,1.7,6.1,0
			c1.7-1.7,1.7-4.4,0-6.1C249.3,72.2,246.6,72.2,244.9,73.9z M236.4,8.8c1.3,0.4,2.7-0.4,3-1.8c0.4-1.3-0.4-2.7-1.8-3
			c-1.3-0.4-2.7,0.4-3,1.8C234.3,7.1,235.1,8.4,236.4,8.8z M232.6,23.1c1.6,0.4,3.2-0.5,3.6-2.1c0.4-1.6-0.5-3.2-2.1-3.6
			c-1.6-0.4-3.2,0.5-3.6,2.1C230.1,21.1,231,22.7,232.6,23.1z M228.7,37.5c1.8,0.5,3.7-0.6,4.1-2.4c0.5-1.8-0.6-3.7-2.4-4.2
			c-1.8-0.5-3.7,0.6-4.1,2.4C225.8,35.1,226.9,37,228.7,37.5z M224.9,51.8c2,0.6,4.2-0.7,4.7-2.7c0.5-2-0.7-4.2-2.7-4.7
			c-2-0.5-4.1,0.7-4.7,2.7C221.6,49.2,222.8,51.3,224.9,51.8z M221.1,66.2c2.3,0.6,4.6-0.7,5.3-3c0.6-2.3-0.7-4.6-3-5.3
			c-2.3-0.6-4.6,0.7-5.2,3C217.4,63.2,218.8,65.6,221.1,66.2z M421.8,87.1c-12.1,0-20.6,6.7-20.6,16.1c0,5.8,2.3,8.9,11.6,15.8
			c4.5,3.5,5.5,4.6,5.5,6.6c0,3.1-2.6,4.8-7.4,4.8c-5.4,0-10.6-1.8-14.1-5.2l-1,6.4c-0.2,1.4-0.3,2.8-0.3,3.6
			c0,4.8,5.9,7.7,15.5,7.7c14.4,0,23.1-6.9,23.1-18.2c0-5.8-2.4-9.2-10.7-15.6c-5.5-4.1-6.2-4.8-6.2-6.7c0-2.2,2-3.6,5.1-3.6
			c3.9,0,9,2.1,12.5,5.3l2.3-6.4c0.5-1.3,0.8-2.4,0.8-3.1C437.9,90.3,431.4,87.1,421.8,87.1z M451,78.2c-3.2,0-5.9,2.5-5.9,5.9
			c0,3.4,2.7,5.8,5.9,5.8c3.3,0,6-2.5,6-5.8C457,80.7,454.3,78.2,451,78.2z M451,89c-2.8,0-4.8-1.9-4.8-4.9c0-3,2-4.9,4.8-4.9
			c2.8,0,4.9,1.9,4.9,4.9C455.9,87.1,453.8,89,451,89z M453.7,83.3c0-1.3-0.9-2.5-2.8-2.5h-2v6.5h1.2v-1.6h0.8c0.1,0,0.3,0,0.4,0
			l1.1,1.6h1.3l-1.3-1.9C453.2,85,453.7,84.2,453.7,83.3z M450.9,84.8h-0.8v-2.9h0.8c1.1,0,1.6,0.6,1.6,1.5
			C452.5,84.2,452,84.8,450.9,84.8z"/>
	</g>
</g>
</svg>
