<?xml version="1.0" encoding="utf-8"?>
<!-- Generator: Adobe Illustrator 21.0.0, SVG Export Plug-In . SVG Version: 6.00 Build 0)  -->
<svg version="1.1" id="Layer_1" xmlns="http://www.w3.org/2000/svg" xmlns:xlink="http://www.w3.org/1999/xlink" x="0px" y="0px"
     viewBox="0 0 960 560" style="enable-background:new 0 0 960 560;" xml:space="preserve">
<style type="text/css">
    .st0{fill:#434343;}
    .st1{fill:#0CB3DB;}
    .st2{fill:none;}
    .st3{fill:#FED00F;}
    .st4{fill:#7ACC23;}
    .st5{fill:#1DBCBD;}
    .st6{fill:#ED1D8E;}
    .st7{fill:#805DA8;}
    .st8{fill:#414042;}
    .st9{fill:#28B34B;}
    .st10{fill:#F47E4F;}
    .st11{fill:#31A5D7;}
    .st12{opacity:0.5;fill:none;stroke:#EFEFEF;stroke-miterlimit:10;enable-background:new    ;}
    .st13{fill:none;stroke:#31A5D7;stroke-width:1.18;stroke-miterlimit:10;}
    .st14{fill:#FFFFFF;stroke:#31A5D7;stroke-width:1.18;stroke-miterlimit:10;}
    .st15{fill:none;stroke:#F47E4F;stroke-width:1.18;stroke-miterlimit:10;}
    .st16{fill:#FFFFFF;stroke:#F47E4F;stroke-width:1.18;stroke-miterlimit:10;}
    .st17{fill:none;stroke:#28B34B;stroke-width:1.18;stroke-miterlimit:10;}
    .st18{fill:#FFFFFF;stroke:#28B34B;stroke-width:1.18;stroke-miterlimit:10;}
    .st19{fill:none;stroke:#805DA8;stroke-width:1.18;stroke-miterlimit:10;}
    .st20{fill:#683C97;}
    .st21{fill:#FFFFFF;stroke:#683C97;stroke-width:1.18;stroke-miterlimit:10;}
    .st22{fill:none;stroke:#ED1D8E;stroke-width:1.18;stroke-miterlimit:10;}
    .st23{fill:#FFFFFF;stroke:#ED1D8E;stroke-width:1.18;stroke-miterlimit:10;}
    .st24{fill:none;stroke:#1DBCBD;stroke-width:1.18;stroke-miterlimit:10;}
    .st25{fill:#FFFFFF;stroke:#1DBCBD;stroke-width:1.18;stroke-miterlimit:10;}
    .st26{fill:none;stroke:#7ACC23;stroke-width:1.18;stroke-miterlimit:10;}
    .st27{fill:#FFFFFF;stroke:#7ACC23;stroke-width:1.18;stroke-miterlimit:10;}
    .st28{fill:none;stroke:#FED00F;stroke-width:1.18;stroke-miterlimit:10;}
    .st29{fill:#FFFFFF;stroke:#FED00F;stroke-width:1.18;stroke-miterlimit:10;}
    .st30{fill:none;stroke:#31A5D7;stroke-width:0.5;stroke-miterlimit:10;stroke-opacity:0.5;}
    .st31{fill:none;stroke:#F47E4F;stroke-width:0.5;stroke-miterlimit:10;stroke-opacity:0.5;}
    .st32{fill:none;stroke:#28B34B;stroke-width:0.5;stroke-miterlimit:10;stroke-opacity:0.5;}
    .st33{fill:none;stroke:#805DA8;stroke-width:0.5;stroke-miterlimit:10;stroke-opacity:0.5;}
    .st34{fill:none;stroke:#ED1D8E;stroke-width:0.5;stroke-miterlimit:10;stroke-opacity:0.5;}
    .st35{fill:none;stroke:#1DBCBD;stroke-width:0.5;stroke-miterlimit:10;stroke-opacity:0.5;}
    .st36{fill:none;stroke:#7ACC23;stroke-width:0.5;stroke-miterlimit:10;stroke-opacity:0.5;}
    .st37{fill:none;stroke:#FED00F;stroke-width:0.5;stroke-miterlimit:10;stroke-opacity:0.5;}
</style>
<g id="maintenance">
    <g>
        <path class="st0" d="M797.5,168.6c4.9-4.9,12.9-4.9,17.8,0c4.9,4.9,4.9,12.9,0,17.8L778.8,223l4.2,4.2l36.5-36.5
            c7.2-7.2,7.2-19,0-26.2s-19-7.2-26.2,0L756.8,201l4.2,4.2L797.5,168.6z"/>
        <polygon class="st0" points="706.4,279.6 704.3,285.1 693.3,291.7 692.3,290.7 698.8,279.7 704.4,277.5 739.8,242.1 735.6,237.9
            701.1,272.4 694.5,275 685.1,291.9 692.1,298.9 709,289.5 711.5,282.9 746.1,248.3 741.9,244.1"/>
        <polygon class="st0" points="764.9,209.1 769.1,213.3 806,176.5 801.8,172.2"/>
        <polygon class="st0" points="811.7,182.2 807.5,178 770.7,214.9 774.9,219.1"/>
        <path class="st1" d="M755.2,209.7c-12.3-12.2-20.8-22.1-21.5-25.7c0-0.2-0.1-0.4-0.1-0.6c-0.3-5.4-2.5-10.6-6.6-14.7
            c-6.8-6.7-16.7-8.4-25.1-4.8l0.3,0.3l15.5,15.5c1.7,1.7,0.3,5.8-3,9.1s-7.4,4.7-9.1,3l-15.5-15.5l-0.3-0.3
            c-3.5,8.3-1.9,18.3,4.9,25.1c4.1,4.1,9.4,6.3,14.7,6.6c0.2,0,0.4,0.1,0.6,0.1c3.6,0.6,13.5,9.2,25.7,21.4l64.4,64.4
            c5.4,5.4,14.1,5.4,19.5,0c5.4-5.4,5.4-14.1,0-19.5L755.2,209.7z M813,287c-1.7,1.7-4.5,1.7-6.3,0c-1.7-1.7-1.7-4.5,0-6.3
            c1.7-1.7,4.5-1.7,6.3,0C814.7,282.5,814.7,285.3,813,287z"/>
    </g>
</g>
<g id="launch">
    <g>
        <g>
            <path class="st1" d="M669,265.5c-0.7,0-1.4-0.3-1.9-0.8c-1-1.1-0.9-2.7,0.1-3.7l109.4-100.8c1-1,2.7-0.9,3.7,0.1
                c1,1.1,0.9,2.7-0.1,3.7L670.7,264.8C670.2,265.2,669.6,265.5,669,265.5z"/>
        </g>
        <g>
            <path class="st0" d="M650.3,308.8c-0.7,0-1.4-0.3-1.9-0.8c-1-1.1-0.9-2.7,0.1-3.7l101.8-93.7c1-1,2.7-0.9,3.7,0.1
                c1,1.1,0.9,2.7-0.1,3.7L652.1,308C651.6,308.5,651,308.8,650.3,308.8z"/>
        </g>
        <g>
            <path class="st1" d="M590.9,383.9c-0.7,0-1.4-0.3-1.9-0.8c-1-1.1-0.9-2.7,0.1-3.7l179-165c1-1,2.7-0.9,3.7,0.1
                c1,1.1,0.9,2.7-0.1,3.7l-179,165C592.1,383.6,591.5,383.9,590.9,383.9z"/>
        </g>
        <g>
            <path class="st1" d="M732.9,271.8c-0.7,0-1.4-0.3-1.9-0.8c-1-1.1-0.9-2.7,0.1-3.7l29.7-27.4c1-1,2.7-0.9,3.7,0.1
                c1,1.1,0.9,2.7-0.1,3.7l-29.7,27.4C734.2,271.5,733.6,271.8,732.9,271.8z"/>
        </g>
        <g>
            <path class="st0" d="M732.9,296.8c-0.7,0-1.4-0.3-1.9-0.8c-1-1.1-0.9-2.7,0.1-3.7l84-77.4c1-1,2.7-0.9,3.7,0.1
                c1,1.1,0.9,2.7-0.1,3.7l-84,77.4C734.2,296.6,733.6,296.8,732.9,296.8z"/>
        </g>
        <g>
            <g>
                <g>
                    <path class="st0" d="M855.7,112.4c-2.1,1.9-4.1,3.9-6,5.8c-8,0.5-21.4,4.4-38.7,20.7c0,0,16-3.3,14.3,7.1
                        c-2.7,3.7-5.1,7.2-7,10.5l15.2,16.1c3.4-1.7,7-3.9,10.9-6.4c10.4-1,6.2,14.7,6.2,14.7c17.3-16.3,22-29.4,23-37.3
                        c2.1-1.8,4.1-3.7,6.2-5.7c29.8-28.3,42-63.8,42-63.8S885.6,84.2,855.7,112.4z M892.1,109.4c-2.2,2-5.5,1.9-7.6-0.2
                        c-2-2.2-1.9-5.5,0.2-7.6c2.2-2,5.5-1.9,7.6,0.2C894.4,104,894.3,107.4,892.1,109.4z"/>
                </g>
            </g>
            <g>
                <path class="st1" d="M778.4,209.4l2.8-5.9c1.5-3.2,14.8-30.9,20-35.8c2.8-2.6,6.4-4,10.2-4c4.1,0,8.1,1.7,10.9,4.7
                    c5.6,6,5.3,15.5-0.7,21.1c-5.2,4.8-33.8,16.2-37,17.5L778.4,209.4z M811.4,168.9c-2.5,0-4.8,0.9-6.6,2.6
                    c-2.8,2.6-10.3,16.9-15.9,28.2c11.7-4.8,26.4-11.3,29.2-14c3.9-3.7,4.1-9.8,0.5-13.8C816.6,170,814.1,168.9,811.4,168.9z"/>
            </g>
        </g>
    </g>
</g>
<g id="quality_assurance">
    <g>
        <rect x="730.6" y="177.4" class="st2" width="83.3" height="10.7"/>
        <path class="st2" d="M847.2,164.1H697.3v23.7h6.7h4v4v57.1h122.7v-36.6c0-2.3,1.9-4.1,4.1-4.1h12.4V164.1z M761.3,238.1
            c-1.7,0-3-1.4-3-3c0-1.7,1.4-3,3-3c1.7,0,3,1.4,3,3C764.4,236.6,763,238.1,761.3,238.1z M772.2,238.1c-1.7,0-3-1.4-3-3
            c0-1.7,1.4-3,3-3c1.7,0,3,1.4,3,3C775.3,236.6,773.9,238.1,772.2,238.1z M783.1,238.1c-1.7,0-3-1.4-3-3c0-1.7,1.4-3,3-3
            c1.7,0,3,1.4,3,3C786.2,236.6,784.8,238.1,783.1,238.1z M816.5,226.5h-88.6v-29.4h88.6V226.5z M816.5,190.8h-88.6v-16h88.6V190.8z"/>
        <path class="st3" d="M727.9,190.8h88.6v-16h-88.6V190.8z M730.6,177.4h83.3V188h-83.3C730.6,188.1,730.6,177.4,730.6,177.4z"/>
        <rect x="727.9" y="197.1" class="st3" width="88.6" height="29.4"/>
        <circle class="st3" cx="772.2" cy="235.1" r="3"/>
        <circle class="st3" cx="783.1" cy="235.1" r="3"/>
        <circle class="st3" cx="761.3" cy="235.1" r="3"/>
        <polygon class="st0" points="792,259.5 752.5,259.5 752.5,277.4 736.9,277.4 736.9,285.5 807.6,285.5 807.6,277.4 792,277.4"/>
        <path class="st3" d="M658.8,212.6H692c1.6,0,2.8-1.3,2.8-2.8c0-1.6-1.3-2.8-2.8-2.8h-33.2c-1.6,0-2.8,1.3-2.8,2.8
            C655.9,211.4,657.2,212.6,658.8,212.6z"/>
        <polygon class="st0" points="653.3,202.9 648.1,202.9 644,212.4 641.5,209.2 638.1,211.1 644.4,216.9"/>
        <path class="st3" d="M692.4,232.2h-33.3c-1.6,0-2.8,1.3-2.8,2.8c0,1.6,1.3,2.8,2.8,2.8h33.2c1.6,0,2.8-1.3,2.8-2.8
            C695.2,233.6,693.9,232.2,692.4,232.2z"/>
        <polygon class="st0" points="652.9,228.1 647.8,228.1 643.7,237.6 641.2,234.5 637.8,236.2 644,242.1"/>
        <path class="st0" d="M880.9,208.1h-29.7V160H693.4v27.7h-10.3v-10.2c0-2.1-1.7-3.9-3.9-3.9h-25.5c-2.1,0-3.9,1.7-3.9,3.9v10.2H629
            h-4v4V294v4h4h75h4v-4v-41.2h122.7v41c0,2.3,1.9,4.1,4.1,4.1h46.1c2.3,0,4.1-1.9,4.1-4.1v-81.5C885,210,883.1,208.1,880.9,208.1z
             M666.5,178.2c1.6,0,2.8,1.3,2.8,2.8c0,1.6-1.3,2.8-2.8,2.8c-1.6,0-2.8-1.3-2.8-2.8S664.9,178.2,666.5,178.2z M704,294h-75V191.8
            h75V294z M830.7,212.2v36.6H708v-57.1v-4h-4h-6.7V164h149.9v44.1h-12.4C832.5,208.1,830.7,210,830.7,212.2z M857.8,294
            c-1.6,0-2.9-1.3-2.9-2.9s1.3-2.9,2.9-2.9c1.6,0,2.9,1.3,2.9,2.9S859.4,294,857.8,294z M878.8,283.4h-42v-68.6h42V283.4z"/>
        <path class="st3" d="M874.3,220.8h-32.9v13.4h32.9V220.8L874.3,220.8z M871.7,231.6H844v-8.1h27.7V231.6z"/>
        <rect x="841.4" y="239.5" class="st3" width="32.9" height="24.7"/>
        <circle class="st3" cx="857.8" cy="271.5" r="2.5"/>
        <circle class="st3" cx="867" cy="271.5" r="2.5"/>
        <circle class="st3" cx="848.7" cy="271.5" r="2.5"/>
        <path class="st3" d="M692.4,258h-33.3c-1.6,0-2.8,1.3-2.8,2.8c0,1.6,1.3,2.8,2.8,2.8h33.2c1.6,0,2.8-1.3,2.8-2.8
            C695.2,259.4,693.9,258,692.4,258z"/>
        <polygon class="st0" points="652.9,254 647.8,254 643.7,263.5 641.2,260.4 637.8,262.1 644,268"/>
    </g>
</g>
<g id="backend_development">
    <g>
        <g>
            <path class="st0" d="M694.6,155.7l18.9-8.4v4.8l-13.7,5.4v0.1l13.7,5.6v4.8l-18.9-8.4C694.6,159.6,694.6,155.7,694.6,155.7z"/>
            <path class="st0" d="M790.3,159.7l-18.9,8.1v-4.8l14-5.5l0,0l-14-5.6v-4.6l18.9,8.1L790.3,159.7L790.3,159.7z"/>
        </g>
        <g>
            <path class="st4" d="M641.9,166.3h-18.4v-18.4h18.4V166.3z M627.8,162h10.1v-10h-10.1V162z"/>
        </g>
        <g>
            <path class="st4" d="M641.9,201.7h-18.4v-18.4h18.4V201.7z M627.8,197.6h10.1v-10.1h-10.1V197.6z"/>
        </g>
        <g>
            <path class="st4" d="M641.9,237.1h-18.4v-18.4h18.4V237.1z M627.8,233h10.1v-10.1h-10.1V233z"/>
        </g>
        <g>
            <path class="st4" d="M641.9,272.6h-18.4v-18.4h18.4V272.6z M627.8,268.5h10.1v-10.1h-10.1V268.5z"/>
        </g>
        <g>
            <path class="st4" d="M641.9,308h-18.4v-18.4h18.4V308z M627.8,303.9h10.1v-10.1h-10.1V303.9z"/>
        </g>
        <g>
            <rect x="667.8" y="147" class="st0" width="3.8" height="163.6"/>
        </g>
        <g>
            <path class="st0" d="M694.6,297.3l18.9-8.3v4.8l-13.7,5.4v0.1l13.7,5.5v4.8l-18.9-8.4C694.6,301.1,694.6,297.3,694.6,297.3z"/>
            <path class="st0" d="M770.3,311l7.1-28.1h4.5l-7.1,28.1H770.3z"/>
            <path class="st0" d="M803,301.4l-18.9,8.1v-4.8l14-5.5v-0.1l-14-5.6v-4.8l18.9,8.1V301.4z"/>
        </g>
        <g>
            <rect x="725.1" y="291.7" class="st4" width="34.8" height="14"/>
        </g>
        <g>
            <rect x="725.1" y="150.1" class="st4" width="34.8" height="14"/>
        </g>
        <g>
            <rect x="696" y="185.5" class="st4" width="34.8" height="14"/>
        </g>
        <g>
            <rect x="822.6" y="185.5" class="st4" width="34.8" height="14"/>
        </g>
        <g>
            <rect x="742.5" y="185.5" class="st0" width="69.3" height="14"/>
        </g>
        <g>
            <rect x="822.6" y="256.3" class="st0" width="34.8" height="14"/>
        </g>
        <g>
            <rect x="869.1" y="256.3" class="st0" width="17.4" height="14"/>
        </g>
        <g>
            <rect x="696" y="256.3" class="st4" width="115.6" height="14"/>
        </g>
        <g>
            <rect x="696.3" y="221" class="st0" width="34.8" height="13.9"/>
        </g>
        <g>
            <rect x="742.9" y="221" class="st4" width="34.6" height="14"/>
        </g>
    </g>
</g>
<g id="frontend_development">
    <g>
        <g>
            <path class="st0" d="M694.6,155.8l18.9-8.4v4.7l-13.6,5.5v0.1l13.6,5.6v4.7l-18.9-8.4V155.8z"/>
            <path class="st0" d="M790.3,159.8l-18.9,8.2v-4.7l14-5.5v-0.1l-14-5.6v-4.7l18.9,8.2V159.8L790.3,159.8z"/>
        </g>
        <g>
            <path class="st5" d="M641.9,166.2h-18.4v-18.4h18.4V166.2z M627.7,162.1h10.1v-10h-10.1V162.1z"/>
        </g>
        <g>
            <path class="st5" d="M641.9,201.6h-18.4v-18.4h18.4V201.6z M627.7,197.5h10.1v-10.1h-10.1V197.5z"/>
        </g>
        <g>
            <path class="st5" d="M641.9,237.1h-18.4v-18.4h18.4V237.1z M627.7,232.9h10.1v-10.1h-10.1V232.9z"/>
        </g>
        <g>
            <path class="st5" d="M641.9,272.5h-18.4v-18.4h18.4V272.5z M627.7,268.5h10.1v-10.1h-10.1V268.5z"/>
        </g>
        <g>
            <path class="st5" d="M641.9,308h-18.4v-18.4h18.4V308z M627.7,303.8h10.1v-10.1h-10.1V303.8z"/>
        </g>
        <g>
            <rect x="667.8" y="146.9" class="st0" width="3.7" height="163.6"/>
        </g>
        <g>
            <path class="st0" d="M694.6,297.2l18.9-8.3v4.7l-13.6,5.5v0.1l13.6,5.5v4.7l-18.9-8.4V297.2z"/>
            <path class="st0" d="M770.3,311l7.2-28.1h4.5l-7.2,28.1H770.3z"/>
            <path class="st0" d="M803,301.3l-18.9,8.2v-4.7l14-5.5v-0.1l-14-5.6V289l18.9,8.2V301.3z"/>
        </g>
        <g>
            <rect x="725.1" y="291.8" class="st5" width="34.8" height="14"/>
        </g>
        <g>
            <rect x="725.1" y="150.1" class="st5" width="34.8" height="14"/>
        </g>
        <g>
            <rect x="696" y="185.5" class="st5" width="34.8" height="14"/>
        </g>
        <g>
            <rect x="822.6" y="185.5" class="st5" width="34.8" height="14"/>
        </g>
        <g>
            <rect x="742.5" y="185.5" class="st0" width="69.2" height="14"/>
        </g>
        <g>
            <rect x="822.6" y="256.4" class="st0" width="34.8" height="14"/>
        </g>
        <g>
            <rect x="869.1" y="256.4" class="st0" width="17.4" height="14"/>
        </g>
        <g>
            <rect x="696" y="256.4" class="st5" width="115.6" height="14"/>
        </g>
        <g>
            <rect x="696.3" y="220.9" class="st0" width="34.8" height="13.9"/>
        </g>
        <g>
            <rect x="742.8" y="220.9" class="st5" width="34.6" height="14"/>
        </g>
    </g>
</g>
<g id="design">
    <g>
        <path class="st6" d="M782.7,312.9l-1.9-1.9l2.1-2.1l-3.8-3.8l-2.1,2.1l-1.9-1.9l2.1-2.1l-3.8-3.8l-2.1,2.1l-1.9-1.9l2.1-2.1
            l-3.8-3.8l-2.1,2.1l-1.9-1.9l2.1-2.1l-3.8-3.8l-2.1,2.1l-1.9-1.9l2.1-2.1l-3.8-3.8l-2.1,2.1l-1.9-1.9l2.1-2.1l-4.4-4.4l-40.6,40.6
            h81.2l-6.1-6.1L782.7,312.9z M732,307.7l18.2-18.3l18.3,18.3H732z"/>
        <path class="st0" d="M710.7,268.6l7.3-2c0,0,13.7-14,30.2-30.6c-0.9-0.9-1.9-1.8-2.9-2.7C731,247.6,719,260,715.8,263.2
            c-0.8,0.2-1.9,0.5-2.9,0.8c0.3-1.1,0.6-2.2,0.8-2.9c3.1-3.1,15.5-15.2,29.8-29.4c-0.9-0.9-1.9-1.8-2.8-2.8
            c-16.6,16.4-30.5,30.1-30.5,30.1l-2,7.3l-1,3.5L710.7,268.6z"/>
        <path class="st6" d="M686.5,183.9l-3.2-2.3c-1.3,1.8-2.6,3.7-3.8,5.6l3.4,2.1C684,187.4,685.2,185.6,686.5,183.9z"/>
        <path class="st6" d="M671.5,244.9l-3.9,0.6c0.3,2.2,0.8,4.5,1.3,6.6l3.9-0.9C672.2,249.2,671.8,247.1,671.5,244.9z"/>
        <path class="st6" d="M679.3,269.4l-3.5,1.8c1,2,2.1,4,3.3,5.9l3.4-2.1C681.3,273.2,680.3,271.3,679.3,269.4z"/>
        <path class="st6" d="M674.5,257.5l-3.8,1.2c0.7,2.1,1.5,4.3,2.3,6.4l3.7-1.5C675.8,261.6,675.2,259.5,674.5,257.5z"/>
        <path class="st6" d="M697,166.7l2.6,3c1.6-1.4,3.3-2.7,5.1-4l-2.3-3.2C700.5,163.9,698.8,165.3,697,166.7z"/>
        <path class="st6" d="M708,158.8l2.1,3.4c1.8-1.1,3.7-2.2,5.6-3.1l-1.8-3.5C711.8,156.5,709.8,157.6,708,158.8z"/>
        <path class="st6" d="M674.8,206.7l-3.8-1.2c-0.7,2.1-1.3,4.3-1.9,6.5l3.8,0.9C673.5,210.8,674,208.8,674.8,206.7z"/>
        <path class="st6" d="M670.7,232.4V232h-4v0.4c0,2.1,0.1,4.3,0.2,6.4l4-0.3C670.7,236.5,670.7,234.5,670.7,232.4z"/>
        <path class="st6" d="M671.7,219.2l-3.9-0.6c-0.4,2.2-0.6,4.5-0.8,6.7l3.9,0.3C671,223.5,671.3,221.4,671.7,219.2z"/>
        <path class="st6" d="M679.7,194.9l-3.5-1.8c-1,2-2,4.1-2.8,6.1l3.7,1.5C677.8,198.7,678.7,196.8,679.7,194.9z"/>
        <path class="st6" d="M694.8,174.1l-2.8-2.8c-1.6,1.6-3.1,3.3-4.6,5l3,2.6C691.8,177.2,693.3,175.6,694.8,174.1z"/>
        <path class="st6" d="M843.3,219.1h-5.2c-5-32-27.6-58.2-57.6-68.4h24.1c0.7,1.2,2,2.1,3.5,2.1c2.2,0,4.1-1.8,4.1-4.1
            c0-2.2-1.8-4.1-4.1-4.1c-1.5,0-2.8,0.8-3.5,2.1H763c-0.9-0.1-1.7-0.2-2.6-0.3v0.3h-0.1v-5.3h-14.8v5.4h-0.1h-44.3
            c-0.7-1.2-2-2.1-3.5-2.1c-2.2,0-4.1,1.8-4.1,4.1c0,2.2,1.8,4.1,4.1,4.1c1.5,0,2.8-0.8,3.5-2.1h24c-1.8,0.6-3.5,1.2-5.2,1.9
            l1.5,3.7c2-0.8,4-1.6,6.1-2.2l-1.1-3.4h6.9l0.4,1.6c2.1-0.5,4.2-0.9,6.3-1.2l-0.1-0.4h5.4h0.1v4.9v0.5h14.7v-0.5v-4.9h0.1h2.4
            c36.4,4.4,65.5,32.5,71.4,68.4H831v12.3h4.2c0,0.3,0,0.7,0,1c0,18.6-6.2,36.4-17.6,50.8h-9.8v12.3H820v-9.2
            c12.3-15.3,19-34.2,19-54c0-0.3,0-0.7,0-1h4.2L843.3,219.1L843.3,219.1z M756.3,152.2h-6.8v-6.8h6.8V152.2z M816.2,291.7h-4.4
            v-4.4h4.4V291.7z M839.5,227.5H835v-4.4h4.4V227.5z"/>
        <path class="st6" d="M784.3,254.9c0,0.1,0,0.2,0,0.3c0,0-0.1,1.2-1.3,2.4c-1.2,1.2-2.4,1.3-2.4,1.3c-0.1,0-0.2,0-0.3,0l2.7,8
            c0,0,7.9,1.6,14.7,6.3l0.9-0.9c-4.7-6.8-6.3-14.7-6.3-14.7L784.3,254.9z M788.8,263.3c-0.7,0.7-2,0.7-2.7,0c-0.7-0.7-0.7-2,0-2.7
            c0.7-0.7,2-0.7,2.7,0C789.5,261.4,789.5,262.6,788.8,263.3z"/>
        <path class="st0" d="M798.2,186.4c0.5-0.4-7-7.9-7.8-7.9c0,0,0,0-0.1,0c-7.7,8.4-23.1,23.9-38.4,39.1
            c-14.8-14.9-37-36.2-39.5-36.2l0,0c-2.9,0.1-4.6,3.5-3.7,7.4c0.9,3.9,28.1,31.9,42,45.1c13.2,12.6,25.5,22.8,28,23.4
            c0.1,0,0.2,0,0.2,0h0.1c0,0,1.2-0.1,2.4-1.3s1.3-2.4,1.3-2.4c0-0.1,0-0.2,0-0.3c-0.6-2.6-10.8-14.8-23.4-28
            c-0.1-0.1-0.2-0.2-0.3-0.3C774.2,209.6,789.8,194.2,798.2,186.4z M756.2,222.1c-0.5-0.5-1-1-1.5-1.6
            c13.8-13.8,27.8-27.8,36.1-36.6c0.7,0.7,1.4,1.4,2.1,2.1C784,194.3,770,208.2,756.2,222.1z"/>
        <path class="st6" d="M689,279.2c-4.5,0-8.2,3.7-8.2,8.2s3.7,8.2,8.2,8.2s8.2-3.7,8.2-8.2S693.5,279.2,689,279.2z M689,291.6
            c-2.3,0-4.2-1.9-4.2-4.2s1.9-4.2,4.2-4.2s4.3,1.9,4.3,4.2C693.2,289.7,691.3,291.6,689,291.6z"/>
    </g>
</g>
<g id="information_architecture">
    <g>
        <g>
            <g>
                <g>
                    <g>
                        <path class="st7" d="M836,258.2h-5.3v-21.4c0-0.7-0.6-1.3-1.3-1.3H680.8c-0.7,0-1.3,0.6-1.3,1.3v21.4h-5.3v-21.4
                            c0-3.6,3-6.6,6.6-6.6h148.6c3.6,0,6.6,3,6.6,6.6V258.2L836,258.2z"/>
                    </g>
                </g>
                <g>
                    <g>
                        <rect x="752.3" y="214" class="st7" width="5.3" height="44.2"/>
                    </g>
                </g>
            </g>
        </g>
        <g>
            <path class="st8" d="M808.8,124.5v-4.7h-11.3l-8.2-8.2v-11.2h-4.7v8.9h-6v-8.9H774v8.9h-6v-8.9h-4.7v8.9h-6v-8.9h-4.7v8.9h-6
                v-8.9h-4.7v8.9h-6v-8.9h-4.7v8.9h-6v-8.9h-4.7v11.3l-8.2,8.2h-11.1v4.7h8.9v6h-8.9v4.7h8.9v6h-8.9v4.7h8.9v6h-8.9v4.7h8.9v6h-8.9
                v4.7h8.9v6h-8.9v4.7h8.9v6h-8.9v4.7h11.3l8.2,8.2v11.3h4.7v-8.9h6v8.9h4.6v-8.9h6v8.9h4.7v-8.9h6v8.9h4.7v-8.9h6v8.9h4.7v-8.9h6
                v8.9h4.7v-8.9h6v8.9h4.7v-11.5l8.2-8.2H809v-4.7h-9v-6h8.9v-4.7H800v-6h8.9v-4.7H800v-6h8.9v-4.7H800v-6h8.9v-4.7H800v-6h8.9
                v-4.7H800v-6L808.8,124.5L808.8,124.5z M797.2,124.8v58.8l-12.8,12.8h-58.8l-12.9-12.8v-58.8l12.8-12.8h58.8L797.2,124.8z"/>
        </g>
        <g>
            <path class="st7" d="M782.5,116.7h-54.9l-10.1,10.1v54.9l10.1,10.1h54.9l10.1-10.1v-54.9L782.5,116.7z M779.8,171.9l-7.1,7.1
                h-35.4l-7.1-7.1v-35.3l7.1-7.1h35.4l7.1,7.1V171.9z"/>
        </g>
        <g>
            <rect x="743" y="141.9" class="st8" width="24" height="24.7"/>
        </g>
        <g>
            <rect x="771.8" y="140.7" class="st7" width="3.6" height="2.3"/>
        </g>
        <g>
            <rect x="771.8" y="165.4" class="st7" width="3.6" height="2.3"/>
        </g>
        <g>
            <rect x="771.8" y="144.9" class="st7" width="3.6" height="2.3"/>
        </g>
        <g>
            <rect x="771.8" y="149" class="st7" width="3.6" height="2.3"/>
        </g>
        <g>
            <rect x="771.8" y="153.1" class="st7" width="3.6" height="2.3"/>
        </g>
        <g>
            <rect x="771.8" y="157.2" class="st7" width="3.6" height="2.3"/>
        </g>
        <g>
            <rect x="771.8" y="161.3" class="st7" width="3.6" height="2.3"/>
        </g>
        <g>
            <rect x="734.7" y="140.7" class="st7" width="3.8" height="2.3"/>
        </g>
        <g>
            <rect x="734.7" y="165.4" class="st7" width="3.8" height="2.3"/>
        </g>
        <g>
            <rect x="734.7" y="144.9" class="st7" width="3.8" height="2.3"/>
        </g>
        <g>
            <rect x="734.7" y="149" class="st7" width="3.8" height="2.3"/>
        </g>
        <g>
            <rect x="734.7" y="153.1" class="st7" width="3.8" height="2.3"/>
        </g>
        <g>
            <rect x="734.7" y="157.2" class="st7" width="3.8" height="2.3"/>
        </g>
        <g>
            <rect x="734.7" y="161.3" class="st7" width="3.8" height="2.3"/>
        </g>
        <g>
            <rect x="766.2" y="171.3" class="st7" width="2.3" height="3.3"/>
        </g>
        <g>
            <rect x="741.5" y="171.3" class="st7" width="2.3" height="3.3"/>
        </g>
        <g>
            <rect x="762" y="171.3" class="st7" width="2.3" height="3.3"/>
        </g>
        <g>
            <rect x="758" y="171.3" class="st7" width="2.3" height="3.3"/>
        </g>
        <g>
            <rect x="753.8" y="171.3" class="st7" width="2.3" height="3.3"/>
        </g>
        <g>
            <rect x="749.8" y="171.3" class="st7" width="2.3" height="3.3"/>
        </g>
        <g>
            <rect x="745.7" y="171.3" class="st7" width="2.3" height="3.3"/>
        </g>
        <g>
            <rect x="766.2" y="133.9" class="st7" width="2.3" height="3.3"/>
        </g>
        <g>
            <rect x="741.5" y="133.9" class="st7" width="2.3" height="3.3"/>
        </g>
        <g>
            <rect x="762" y="133.9" class="st7" width="2.3" height="3.3"/>
        </g>
        <g>
            <rect x="758" y="133.9" class="st7" width="2.3" height="3.3"/>
        </g>
        <g>
            <rect x="753.8" y="133.9" class="st7" width="2.3" height="3.3"/>
        </g>
        <g>
            <rect x="749.8" y="133.9" class="st7" width="2.3" height="3.3"/>
        </g>
        <g>
            <rect x="745.7" y="133.9" class="st7" width="2.3" height="3.3"/>
        </g>
        <g>
            <path class="st8" d="M767.8,281.2h-25.6v-25.6h25.6V281.2z M747.5,275.9h15v-15h-15V275.9z"/>
        </g>
        <g>
            <path class="st8" d="M689.5,281.2H664v-25.6h25.6V281.2z M669.2,275.9h15v-15h-15C669.2,260.9,669.2,275.9,669.2,275.9z"/>
        </g>
        <g>
            <path class="st7" d="M846,281.2h-25.6v-25.6H846V281.2z M825.8,275.9h15v-15h-15V275.9z"/>
        </g>
        <g>
            <g>
                <g>
                    <g>
                        <path class="st8" d="M757.7,334.7h-5.3v-21.4c0-0.7-0.6-1.3-1.3-1.3h-72.3v-5.3H751c3.6,0,6.6,3,6.6,6.6
                            C757.7,313.3,757.7,334.7,757.7,334.7z"/>
                    </g>
                </g>
                <g>
                    <g>
                        <rect x="674.2" y="286.5" class="st8" width="5.3" height="48.2"/>
                    </g>
                </g>
            </g>
        </g>
        <g>
            <path class="st7" d="M689.5,357.6H664V332h25.6V357.6z M669.2,352.3h15v-15h-15C669.2,337.3,669.2,352.3,669.2,352.3z"/>
        </g>
        <g>
            <path class="st8" d="M767.8,357.6h-25.6V332h25.6V357.6z M747.5,352.3h15v-15h-15V352.3z"/>
        </g>
    </g>
</g>
<g id="kick_off">
    <g>
        <rect x="743.3" y="267.5" class="st2" width="19.5" height="27.7"/>

            <rect x="685.8" y="267.9" transform="matrix(0.9707 -0.2403 0.2403 0.9707 -47.3149 175.395)" class="st2" width="19.5" height="27.7"/>
        <path class="st9" d="M706.2,224.1c-2.5-12.9-14.9-21.4-27.8-18.9c-12.9,2.4-21.4,14.9-19,27.8c1.9,10,3.5,18.6,4.2,21.9c13.8-4.5,29.6-7.9,46.5-10.1C709.2,240,707.2,229.6,706.2,224.1z M675.4,209.4l5.2-1.1l0.8,3.7l-5.1,1.1L675.4,209.4zM677.1,216.8l5.2-1.1l0.8,3.7l-5.2,1.1L677.1,216.8z M678.7,224.2l5.2-1.1l0.8,3.7l-5.2,1.1L678.7,224.2z M680.3,231.8l5.2-1.1l0.8,3.7l-5.2,1.1L680.3,231.8z M681.9,239.2l5.2-1.1l0.8,3.7l-5.2,1.1L681.9,239.2z"/>
        <circle class="st8" cx="755.1" cy="171.1" r="17"/>
        <path class="st8" d="M672.4,199.1c9.4-0.3,16.8-8.2,16.4-17.6c-0.3-9.4-8.2-16.8-17.6-16.4c-9.4,0.3-16.8,8.2-16.4,17.6
            C655.1,192.1,663,199.4,672.4,199.1z"/>
        <path class="st9" d="M778.9,242.8c0-4.5,0-16,0-21.9c0-13.1-10.6-23.8-23.8-23.8c-13.2,0-23.8,10.6-23.8,23.8c0,9.9,0,18.3,0,21.9
            c7.8-0.5,15.7-0.8,23.8-0.8C763.1,242,771.1,242.2,778.9,242.8z M755.1,208.9c1.2,0,2.2,1,2.2,2.2s-1,2.2-2.2,2.2
            c-1.2,0-2.2-1-2.2-2.2S753.9,208.9,755.1,208.9z M752.9,221.5c0-1.2,1-2.2,2.2-2.2c1.2,0,2.2,1,2.2,2.2c0,1.2-1,2.2-2.2,2.2
            C753.9,223.6,752.9,222.6,752.9,221.5z"/>
        <path class="st8" d="M839.4,196.9c9.3-1.3,15.9-9.8,14.6-19.1c-1.3-9.3-9.8-15.9-19.1-14.6c-9.3,1.3-15.9,9.8-14.6,19.1
            C821.6,191.6,830.1,198.1,839.4,196.9z"/>
        <path class="st8" d="M802.1,256.9c-0.1,1.1,4.6,6.3,4,6.8c-1.6,0.8-9.2-5.4-13.2-7.1c-1.2-0.5-1.5,7-0.6,7.8
            c3.8,3.8,7.3,6.7,12.1,9c4.3,2,12.8-1.5,9.9-7.4C813.7,264.8,802.4,253.4,802.1,256.9z"/>
        <path class="st8" d="M803.8,245.2c-8.1-1.1-16.4-2-24.9-2.6c-7.8-0.5-15.7-0.8-23.8-0.8c-8,0-16,0.3-23.8,0.8
            c-7.2,0.5-14.3,1.2-21.2,2.1c-16.9,2.2-32.6,5.6-46.5,10.1c-10.7,3.5-20.3,7.6-28.3,12.2l2.6,4.6c26.5-15.3,70.3-24.4,117.1-24.4
            c31.1,0,60.6,3.9,85.4,11.3c0.4-1.5,0.7-3.2,0.8-5.3C829.6,249.9,817,247.1,803.8,245.2z"/>
        <path class="st8" d="M856.4,258.5c0,0.1,0,0.1,0,0.2c-0.1,1.9-0.3,3.7-0.6,5.2c6,2.4,11.5,5,16.3,7.8l2.6-4.6
            C869.4,264,863.2,261,856.4,258.5z"/>
        <path class="st9" d="M738,300.5h30v-38.3h-30V300.5z M743.3,267.5h19.5v27.7h-19.5V267.5z"/>
        <path class="st9" d="M676.4,266.6l9.2,37.2l29.2-7.2l-9.2-37.2L676.4,266.6z M689.5,297.5l-6.7-26.9l18.9-4.7l6.7,26.9
            L689.5,297.5z"/>
        <polygon class="st8" points="713.3,264.2 719.5,289.1 723,292.5 724.6,287.9 718.5,263"/>
        <polygon class="st8" points="773.2,295.8 775.8,299 778.5,295.8 778.5,267.6 773.2,267.6"/>
        <path class="st9" d="M856.4,258.5c0.5-15,0-25.5-1.7-33c-1.3-9.9-8.8-18.2-19.1-20.2c-12.9-2.4-25.3,6-27.8,18.9
            c-1.1,5.7-3.1,16.5-4,21.2c13.3,1.9,25.9,4.6,37.5,8c0,2-0.3,3.8-0.8,5.3c-3.9,13.1-21.4,7.5-21.4,7.5l-1.5,8.4
            c0,0,33.5,14.7,38.3-10.6c0.3-1.6,0.5-3.3,0.6-5.2C856.4,258.5,856.4,258.5,856.4,258.5z M830.5,242.5l-8.4-0.8l7.6-24.5l1,0.2
            l2.6,0.4L830.5,242.5z M834,215.9l-0.6-0.1l-2.6-0.4l-1-0.2l-0.5-0.1l-0.1-6.3l7,1L834,215.9z"/>
    </g>
</g>
<g id="client_consultation">
    <g>
        <path class="st2" d="M777.2,141.6h-57.8c-6.5,0-11.8,5.3-11.8,11.8v46l11.2-10.7h22.4v-16.2c0-4,3.2-7.2,7.2-7.2h32.1v-20.4
            C780.5,143.1,779,141.6,777.2,141.6z"/>
        <path class="st8" d="M712.9,281c-6.6-10.7-8-18.2-9.3-22.1c-4-12.1,1.3-29.6-27.9-34.1h-6.9v93.7c0,0,20.4-1.2,24-2
            c6.1-1.4,12.8-5.5,12.4-12.6c-0.2-2.5-0.3-4.7-0.3-6.7c-3,1.1-5.7,1.5-8.1,1.5c-6.2,0-10-2.7-10.3-2.8l2.3-3.3
            c0.3,0.2,6.5,4.4,15.9,0.4C704.2,280.6,703.4,285.5,712.9,281z M687.3,268.1c-2.2,0-4-1.8-4-4c0-2.2,1.8-4,4-4s4,1.8,4,4
            C691.3,266.4,689.5,268.1,687.3,268.1z M693.2,257.4c-0.2-0.1-5-3.9-12.2,0l-1.9-3.5c9.6-5.3,16.4,0.2,16.7,0.4L693.2,257.4z"/>
        <path class="st10" d="M834.5,223.6c-29.2,2.8-23.8,25.3-27.9,37.3c-1.3,3.9-2.7,11.4-9.3,22.1c9.9,4.7,8.8-0.9,8.2,13.9
            c8.1,2.7,12.7-2,12.7-2.1l2.9,2.7c-0.2,0.2-4,4.2-10.7,4.2c-1.5,0-3.2-0.2-5.1-0.7c-0.1,1.5-0.2,3.1-0.3,4.9
            c-0.2,4,0.4,10.8,6.1,13.2c3.3,1.4,30.1,2.7,30.1,2.7v-99L834.5,223.6z M821.8,270.1c-2.2,0-4-1.8-4-4c0-2.2,1.8-4,4-4s4,1.8,4,4
            C825.8,268.4,824,270.1,821.8,270.1z M827.8,259.4c-0.2-0.1-5-3.9-12.2,0l-1.9-3.5c9.6-5.3,16.4,0.2,16.7,0.4L827.8,259.4z"/>
        <path class="st10" d="M718.8,188.7l-11.3,10.7v-46c0-6.5,5.3-11.8,11.8-11.8h57.8c1.8,0,3.3,1.5,3.3,3.3v20.4h5.3v-20.4
            c0-4.7-3.9-8.6-8.6-8.6h-57.7c-9.4,0-17.1,7.7-17.1,17.1v58.4L721,194h20.3v-5.3H718.8z"/>
        <path class="st8" d="M806.3,179c0-7.5-6.1-13.7-13.7-13.7h-6.8h-5.3h-32.1c-4,0-7.2,3.2-7.2,7.2v16.2v5.3v10.9
            c0,3.1,2.6,5.7,5.7,5.7h44.2l15.1,14.4L806.3,179L806.3,179z M801,212.7l-7.7-7.4H747c-0.2,0-0.4-0.2-0.4-0.4v-32.4
            c0-1,0.9-1.9,1.9-1.9h44.2c4.6,0,8.4,3.8,8.4,8.4L801,212.7L801,212.7z"/>
    </g>
</g>
<g id="discovery">
    <g>
        <path class="st2" d="M750,178.7v-5.8h-12.8v5.6c1.9-0.9,4-1.4,6.3-1.4S748,177.7,750,178.7z"/>
        <rect x="719.8" y="211.8" class="st2" width="8" height="11.3"/>
        <rect x="719.8" y="145.9" class="st2" width="8" height="5.9"/>
        <polygon class="st11" points="727.8,223.1 719.8,223.1 719.8,211.8 713.5,211.8 713.5,229.5 734.2,229.5 734.2,211.8 727.8,211.8"/>
        <polygon class="st11" points="719.8,145.9 727.8,145.9 727.8,151.8 734.2,151.8 734.2,139.5 713.5,139.5 713.5,151.8 719.8,151.8"/>
        <polygon class="st11" points="728.8,281.6 739.5,281.6 741.5,280.1 736.8,273.8 716,289 720.8,295.4 731.5,287.6 728.8,287.6"/>
        <path class="st8" d="M739.5,281.6h-10.8v6h2.7H752c0.8-1.8,1.5-3.8,2.1-6H739.5z"/>
        <path class="st11" d="M787.5,301.5c-17.5-9.8-14.8-41.3-14.8-41.3h-16.2c0,8.5-0.9,15.5-2.5,21.4c-0.6,2.1-1.3,4.1-2.1,6
            c-5.7,13.4-16,18.3-26.9,18.3c-16.4,0-18.3,12.7-18.3,12.7h96.7C803.3,318.6,800,308.5,787.5,301.5z"/>
        <path class="st8" d="M802,240.1c5.4-6.5,8.6-14.9,8.6-24c0-20.9-17-37.8-37.8-37.8H756v-11.5h-18.7v-15.1h-3h-6.4h-8h-6.4h-3v60.1
            h3h6.4h8h6.4h3v-6.6c-5-2.4-8.5-7.5-8.5-13.4s3.5-11,8.5-13.4v-5.7H750v5.8c2.5,1.3,4.7,3.2,6.1,5.6h16.5
            c17.6,0,31.9,14.3,31.9,31.9c0,7.6-2.7,14.6-7.2,20.1C799.2,237.1,800.8,238.5,802,240.1z"/>
        <path class="st8" d="M772.7,248.1h-22.5v-2.3h-50.7v10.6h50.7V254h22.5c4.4,0,8.7-0.8,12.6-2.2c-1.2-1.6-2-3.5-2.1-5.6
            C780,247.4,776.3,248.1,772.7,248.1z"/>
        <path class="st11" d="M797.5,236.2c-1.2-0.5-2.6-0.9-4.1-0.9c-5.6,0-10.2,4.6-10.2,10.2c0,0.2,0,0.4,0,0.7c0.1,2.1,0.9,4,2.1,5.6
            c1.9,2.4,4.8,3.9,8,3.9c5.6,0,10.2-4.6,10.2-10.2c0-2-0.6-3.9-1.6-5.4C800.8,238.5,799.2,237.1,797.5,236.2z M793.3,249.8
            c-2.3,0-4.2-1.9-4.2-4.2c0-2.3,1.9-4.2,4.2-4.2c2.3,0,4.2,1.9,4.2,4.2C797.5,247.9,795.7,249.8,793.3,249.8z"/>
        <path class="st11" d="M750,178.7c-2-1-4.2-1.5-6.5-1.5c-2.2,0-4.4,0.5-6.3,1.4c-5,2.4-8.5,7.5-8.5,13.4c0,5.9,3.5,11,8.5,13.4
            c1.9,0.9,4,1.4,6.3,1.4c8.2,0,14.8-6.6,14.8-14.8c0-2.8-0.8-5.4-2.1-7.6C754.8,181.9,752.5,179.9,750,178.7z"/>
    </g>
</g>
<g id="rings">
    <circle id="discovery_circle" class="st12" cx="271" cy="271" r="268.8"/>
    <circle id="client_consultation_circle" class="st12" cx="271" cy="271" r="251.5"/>
    <circle id="kick_off_circle" class="st12" cx="271" cy="271" r="234.2"/>
    <circle id="information_architecture_development_circle" class="st12" cx="271" cy="271" r="216.9"/>
    <circle id="design_circle" class="st12" cx="271" cy="271" r="199.4"/>
    <circle id="front_end_development_circle" class="st12" cx="271" cy="271" r="182.1"/>
    <circle id="back_end_development_circle" class="st12" cx="271" cy="271" r="164.8"/>
    <circle id="quality_assurance_circle" class="st12" cx="271" cy="271" r="147.5"/>
    <circle id="launch_circle" class="st12" cx="271" cy="271" r="130.1"/>
    <g id="discovery_line">
        <path class="st13" d="M500.6,130.9c25.7,42.3,39.4,90.7,39.4,140.3"/>
        <circle class="st11" cx="539.9" cy="271.2" r="1.9"/>
        <circle class="st14" cx="500.6" cy="130.9" r="3.8"/>
    </g>
    <g id="client_consultation_line">
        <path class="st15" d="M486.5,141c-27.8-45.9-69.4-81.8-119-102.3"/>
        <circle class="st10" cx="486.5" cy="141" r="1.9"/>
        <circle class="st16" cx="367.5" cy="38.7" r="3.8"/>
    </g>
    <g id="kick_off_line">
        <path class="st17" d="M368.1,57.8c-30.5-13.8-63.6-21-97.1-21c-13,0-26.1,1.1-38.9,3.2"/>
        <circle class="st9" cx="368.1" cy="57.8" r="1.9"/>
        <circle class="st18" cx="232.4" cy="40.1" r="3.8"/>
    </g>
    <g id="information_architecture_development_line">
        <path class="st19" d="M271,54.1c-64,0-124.7,28.3-165.9,77.2"/>
        <circle class="st20" cx="271" cy="54.1" r="1.9"/>
        <circle class="st21" cx="105.2" cy="131.2" r="3.8"/>
    </g>
    <g id="design_line">
        <path class="st22" d="M148.1,114c-48.3,37.8-76.6,95.8-76.4,157.1"/>
        <circle class="st6" cx="148.1" cy="114" r="1.9"/>
        <circle class="st23" cx="72" cy="271.2" r="3.8"/>
    </g>
    <g id="front_end_development_line">
        <path class="st24" d="M93.1,232.5c-14.8,69,11.3,140.1,67.2,183.2"/>
        <circle class="st5" cx="93.1" cy="232.5" r="1.9"/>
        <circle class="st25" cx="160.1" cy="415.8" r="3.8"/>
    </g>
    <g id="back_end_development_line">
        <path class="st26" d="M106.3,271.2c0,77.7,54,144.8,130,161.1c6.4,1.1,12.7,2.1,19.1,2.5"/>
        <circle class="st4" cx="106.3" cy="271.2" r="1.9"/>
        <circle class="st27" cx="255.5" cy="434.8" r="3.8"/>
    </g>
    <g id="quality_assurance_line">
        <path class="st28" d="M227,411.9c14.1,4.6,29.1,7,44,6.7l0,0c13,0,26.2-1.7,38.8-5.1"/>
        <circle class="st3" cx="227" cy="411.9" r="1.9"/>
        <circle class="st29" cx="309.8" cy="413.5" r="3.8"/>
    </g>
</g>
</svg>
