<?xml version="1.0" encoding="utf-8"?>
<!-- Generator: Adobe Illustrator 18.1.1, SVG Export Plug-In . SVG Version: 6.00 Build 0)  -->
<svg version="1.1" id="Isolation_Mode" xmlns="http://www.w3.org/2000/svg" xmlns:xlink="http://www.w3.org/1999/xlink" x="0px"
	 y="0px" viewBox="0 0 612 792" enable-background="new 0 0 612 792" xml:space="preserve">
<g>
	<g>
		<path fill="none" d="M306,440.5c-11.4,0-22.8-3.3-32.8-9.6l-139.9-88.9v165.2c0,8.6,6.9,15.5,15.7,15.5h314.4
			c8.6,0,15.7-6.9,15.7-15.5V341.9L339,430.9C328.8,437.2,317.4,440.5,306,440.5z"/>
		<path fill="none" d="M463.3,269.1H148.7c-8.6,0-15.7,6.9-15.7,15.5v20.6l156.9,99.6c9.8,6.1,22.2,6.1,32,0l156.9-99.6v-20.6
			C478.8,276,471.9,269.1,463.3,269.1z"/>
		<path d="M463.3,238.1H148.7c-25.9,0-46.9,20.8-46.9,46.5v222.8c0,25.7,21,46.5,46.9,46.5h314.4c25.9,0,46.9-20.8,46.9-46.5V284.6
			C510.2,258.9,489,238.1,463.3,238.1z M478.8,507.4c0,8.6-6.9,15.5-15.7,15.5H148.7c-8.6,0-15.7-6.9-15.7-15.5V342.1L273,431.1
			c10,6.3,21.4,9.6,32.8,9.6s22.8-3.3,32.8-9.6l139.9-88.9L478.8,507.4z M478.8,305.2l-156.9,99.6c-9.8,6.1-22.2,6.1-32,0L133,305.2
			v-20.6c0-8.6,6.9-15.5,15.7-15.5h314.4c8.6,0,15.7,6.9,15.7,15.5V305.2z"/>
	</g>
	<rect y="90" fill="none" width="612" height="612"/>
</g>
</svg>
