<?xml version="1.0" encoding="utf-8"?>
<!-- Generator: Adobe Illustrator 19.2.1, SVG Export Plug-In . SVG Version: 6.00 Build 0)  -->
<!DOCTYPE svg PUBLIC "-//W3C//DTD SVG 1.1//EN" "http://www.w3.org/Graphics/SVG/1.1/DTD/svg11.dtd">
<svg version="1.1" id="Layer_1" xmlns="http://www.w3.org/2000/svg" xmlns:xlink="http://www.w3.org/1999/xlink" x="0px" y="0px"
	 viewBox="0 0 16 16" style="enable-background:new 0 0 16 16;" xml:space="preserve">
<path d="M3.6,16H0.3V5.3h3.3V16z M1.9,3.9C0.9,3.9,0,3,0,1.9S0.9,0,1.9,0C3,0,3.8,0.9,3.8,1.9C3.8,3,3,3.9,1.9,3.9z M16,16h-3.3
	v-5.2c0-1.2,0-2.8-1.7-2.8s-2,1.3-2,2.7V16H5.7V5.3h3.2v1.5l0,0C9.3,6,10.4,5.1,12,5.1c3.4,0,4,2.2,4,5.1V16z"/>
</svg>
