<?xml version="1.0" encoding="utf-8"?>
<!-- Generator: Adobe Illustrator 19.2.1, SVG Export Plug-In . SVG Version: 6.00 Build 0)  -->
<!DOCTYPE svg PUBLIC "-//W3C//DTD SVG 1.1//EN" "http://www.w3.org/Graphics/SVG/1.1/DTD/svg11.dtd">
<svg version="1.1" id="Layer_1" xmlns="http://www.w3.org/2000/svg" xmlns:xlink="http://www.w3.org/1999/xlink" x="0px" y="0px"
	 viewBox="0 0 362 300" style="enable-background:new 0 0 362 300;" xml:space="preserve">
<style type="text/css">
	.st0{opacity:0.9;}
	.st1{fill:#444444;}
	.st2{opacity:0.9;fill:#444444;}
	.st3{opacity:0.3;}
	.st4{opacity:0.4;}
	.st5{fill:#3F3F3F;}
	.st6{fill:none;stroke:#5FD9FF;stroke-width:2;stroke-miterlimit:10;}
	.st7{fill:none;stroke:#0AB8FA;stroke-width:2;stroke-miterlimit:10;}
	.st8{fill:#00AEEF;}
	.st9{fill:#5FD9FF;}
	.st10{fill:#0AB8FA;}
	.st11{fill:#282828;}
	.st12{fill:#FFFFFF;}
	.st13{fill:#D2D7D9;}
	.st14{fill:#2E2D2F;}
</style>
<g class="st0">
	<g>
		<g>
			<path class="st1" d="M228.9,117c-10.5-2.4-21,4-23.4,14.5c-2.4,10.4,4.2,20.8,14.7,23.3c10.5,2.4,21-4.1,23.4-14.5
				C246,129.8,239.4,119.4,228.9,117z M222.4,145.2c-5.2-1.2-8.5-6.4-7.3-11.6c1.2-5.2,6.4-8.4,11.7-7.2c5.3,1.2,8.5,6.4,7.3,11.6
				C232.9,143.2,227.6,146.4,222.4,145.2z"/>
			<path class="st2" d="M285.8,153l2-0.5l1.2-1.8l-0.3-2.1l-1.6-1.4l-8.4-2.8l0.5-3.8l8.8-0.7l1.9-1l0.8-2l-0.7-2l-1.8-1l-8.8-1
				l-0.3-3.8l8.5-2.5l1.6-1.3l0.3-2.1l-1.1-1.8l-2-0.6l-8.8,0.8l-1.1-3.6l7.8-4.2l1.3-1.6l-0.1-2.1l-1.5-1.5l-2.1-0.2l-8.4,2.7
				l-1.9-3.3l6.7-5.7l0.9-1.9l-0.5-2l-1.7-1.2l-2.1,0.2l-7.7,4.3l-2.5-2.9l5.4-6.9l0.5-2l-1-1.9l-2-0.8l-2,0.7l-6.6,5.8l-3.1-2.3
				l3.8-7.9l0.1-2.1l-1.3-1.6l-2.1-0.4l-1.8,1.1l-5.2,7.1l-3.5-1.6l2.1-8.5l-0.4-2.1l-1.6-1.3l-2.1,0l-1.6,1.4l-3.6,8l-3.7-0.9
				l0.2-8.8l-0.8-2l-1.9-1l-2.1,0.5l-1.2,1.7l-1.9,8.6l-3.8-0.1l-1.6-8.6l-1.2-1.7l-2-0.6l-1.9,0.9l-0.8,1.9l0,8.8l-3.8,0.7
				l-3.4-8.1l-1.5-1.5l-2.1-0.1l-1.7,1.3l-0.4,2l1.8,8.6l-3.5,1.5l-5-7.3l-1.8-1.1l-2.1,0.3L191,80l0,2.1l3.6,8l-3.1,2.2l-6.4-6.1
				l-2-0.8l-2,0.7l-1,1.8l0.5,2.1l5.2,7.2l-2.6,2.8l-7.6-4.6l-2.1-0.3l-1.8,1.1l-0.6,2l0.9,1.9l6.6,5.9l-2,3.3l-8.4-3l-2.1,0.1
				l-1.5,1.5l-0.2,2.1l1.3,1.7l7.7,4.5l-1.2,3.6l-8.8-1.2l-2,0.6l-1.2,1.8l0.3,2.1l1.6,1.4l8.4,2.8l-0.5,3.8l-8.8,0.7l-1.9,1l-0.8,2
				l0.7,2l1.8,1l8.8,1l0.3,3.8l-8.5,2.5l-1.6,1.3l-0.3,2.1l1.1,1.8l2,0.6l8.8-0.8l1.1,3.6l-7.8,4.2l-1.3,1.6l0.1,2.1l1.5,1.5
				l2.1,0.2l8.4-2.6l1.9,3.3l-6.7,5.7l-0.9,1.9l0.5,2l1.7,1.2l2.1-0.2l7.7-4.3l2.5,2.9l-5.4,6.9l-0.5,2l1,1.9l2,0.8l2-0.7l6.6-5.8
				l3.1,2.3l-3.8,7.9l-0.1,2.1l1.3,1.6l2.1,0.4l1.8-1.1l5.2-7.1l3.5,1.6l-2.1,8.5l0.3,2.1l1.6,1.3l2.1,0l1.6-1.4l3.6-8l3.7,0.9
				l-0.2,8.8l0.8,1.9l1.9,1l2.1-0.5l1.2-1.7l1.9-8.6l3.8,0.1l1.6,8.6l1.2,1.8l2,0.6l1.9-0.9l0.8-1.9l0-8.8l3.8-0.7l3.4,8.1l1.5,1.5
				l2.1,0.1l1.7-1.3l0.4-2.1l-1.8-8.6l3.5-1.5l5,7.3l1.8,1.1l2.1-0.3l1.4-1.6l0-2.1l-3.6-8.1l3.1-2.2l6.4,6.1l2,0.7l2-0.7l1-1.8
				l-0.5-2l-5.2-7.2l2.6-2.8l7.6,4.6l2.1,0.3l1.8-1.1l0.6-2l-0.9-1.9l-6.5-5.9l1.9-3.3l8.4,3l2.1-0.1l1.5-1.5l0.2-2.1l-1.3-1.7
				l-7.7-4.5l1.2-3.6L285.8,153L285.8,153z M267.2,145.6c-5.4,23.3-28.8,37.8-52.3,32.4c-23.5-5.4-38.3-28.7-32.9-52
				c5.4-23.3,28.8-37.8,52.3-32.4C257.8,99,272.5,122.3,267.2,145.6z"/>
		</g>
		<g class="st3">
			<path class="st1" d="M194.2,67.7c0,0-6.4-2.5-6.9-2.7c-0.5-0.2-0.5-1.5-0.5-1.5c0,0,0,0-0.1,0c0.1-0.3,0.1-0.6,0.2-1
				c0-0.3,0-0.6,0.1-1c0,0,0.1,0,0.1,0c0,0,0.3-1.3,0.9-1.3c0.6-0.1,7.4-0.8,7.4-0.8c0.6-0.1,1.2-0.6,1.3-1.1
				c0.1-1.4,0.1-2.1-0.1-3.5c-0.1-0.5-0.7-1-1.4-1c0,0-6.9-0.1-7.4-0.1c-0.6,0-1-1.3-1-1.3c0,0,0,0-0.1,0c-0.1-0.6-0.3-1.3-0.4-1.9
				c0,0,0,0,0.1,0c0,0-0.1-1.3,0.4-1.6c0.5-0.2,6.7-3.3,6.7-3.3c0.6-0.3,1-0.9,0.8-1.5c-0.4-1.4-0.6-2-1.3-3.2
				c-0.3-0.5-1-0.7-1.6-0.5c0,0-6.5,2.2-7,2.4c-0.5,0.2-1.4-0.9-1.4-0.9c0,0,0,0-0.1,0c-0.3-0.5-0.7-1.1-1-1.6c0,0,0,0,0.1-0.1
				c0,0-0.6-1.2-0.2-1.6c0.4-0.4,5.2-5.4,5.2-5.4c0.4-0.5,0.6-1.2,0.3-1.7c-0.8-1.1-1.3-1.7-2.3-2.6c-0.4-0.3-1.2-0.3-1.7,0.1
				c0,0-5.4,4.3-5.8,4.7c-0.4,0.3-1.6-0.3-1.6-0.3c0,0,0,0-0.1,0c-0.5-0.4-1-0.8-1.5-1.2c0,0,0,0,0,0c0,0-1-0.9-0.7-1.4
				c0.2-0.5,3-6.8,3-6.8c0.3-0.6,0.1-1.3-0.3-1.7c-1.1-0.8-1.8-1.1-3.1-1.6c-0.5-0.2-1.2,0.1-1.5,0.7c0,0-3.6,5.9-3.8,6.4
				c-0.3,0.5-1.6,0.2-1.6,0.2c0,0,0,0,0,0c-0.6-0.2-1.2-0.4-1.9-0.6c0,0,0,0,0-0.1c0,0-1.2-0.6-1.2-1.1c0-0.6,0.5-7.4,0.5-7.4
				c0-0.6-0.3-1.3-0.9-1.4c-1.3-0.4-2-0.5-3.4-0.5c-0.5,0-1.1,0.5-1.2,1.2c0,0-1.3,6.8-1.4,7.3c-0.1,0.5-1.4,0.8-1.4,0.8
				c0,0,0,0,0,0.1c-0.6,0-1.3,0-1.9,0.1c0,0,0,0,0,0c0,0-1.3-0.1-1.5-0.6c-0.2-0.5-2.1-7.2-2.1-7.2c-0.2-0.6-0.8-1.1-1.3-1.1
				c-1.4,0.1-2.1,0.3-3.4,0.7c-0.5,0.2-0.8,0.9-0.7,1.5c0,0,1.1,6.8,1.2,7.4c0.1,0.5-1.1,1.2-1.1,1.2c0,0,0,0,0,0
				c-0.6,0.2-1.2,0.5-1.8,0.8c0,0,0,0,0-0.1c0,0-1.3,0.4-1.6-0.1c-0.3-0.5-4.4-6-4.4-6c-0.4-0.5-1.1-0.8-1.6-0.6
				c-1.3,0.6-1.9,1-2.9,1.9c-0.4,0.4-0.5,1.1-0.2,1.7c0,0,3.3,6,3.6,6.5c0.3,0.5-0.6,1.5-0.6,1.5c0,0,0,0,0,0.1
				c-0.5,0.4-1,0.8-1.4,1.3c0,0,0,0-0.1,0c0,0-1.1,0.8-1.5,0.5c-0.5-0.3-6.2-4.2-6.2-4.2c-0.5-0.4-1.3-0.4-1.7,0
				c-1,1-1.4,1.5-2.1,2.7c-0.3,0.5-0.1,1.2,0.4,1.6c0,0,5.2,4.5,5.6,4.9c0.4,0.4,0,1.6,0,1.6c0,0,0,0,0,0c-0.3,0.6-0.6,1.1-0.9,1.7
				c0,0,0,0-0.1,0c0,0-0.8,1.1-1.3,1c-0.5-0.1-7.2-1.8-7.2-1.8c-0.6-0.2-1.3,0.1-1.6,0.6c-0.6,1.3-0.8,1.9-1,3.3
				c-0.1,0.5,0.4,1.2,0.9,1.4c0,0,6.4,2.5,6.9,2.7c0.5,0.2,0.5,1.5,0.5,1.5c0,0,0,0,0.1,0c-0.1,0.3-0.1,0.6-0.2,1c0,0.3,0,0.6-0.1,1
				c0,0,0,0-0.1,0c0,0-0.3,1.3-0.9,1.3c-0.6,0.1-7.4,0.8-7.4,0.8c-0.6,0.1-1.2,0.6-1.3,1.1c-0.1,1.4-0.1,2.1,0.1,3.5
				c0.1,0.5,0.7,1,1.4,1c0,0,6.9,0.1,7.4,0.1c0.6,0,1,1.3,1,1.3c0,0,0,0,0.1,0c0.1,0.6,0.3,1.3,0.4,1.9c0,0,0,0-0.1,0
				c0,0,0.1,1.3-0.4,1.6c-0.5,0.2-6.7,3.3-6.7,3.3c-0.6,0.3-1,0.9-0.8,1.5c0.4,1.3,0.6,2,1.3,3.2c0.3,0.5,1,0.7,1.6,0.5
				c0,0,6.5-2.2,7-2.4c0.5-0.2,1.4,0.9,1.4,0.9c0,0,0,0,0.1,0c0.3,0.6,0.7,1.1,1,1.6c0,0,0,0-0.1,0.1c0,0,0.6,1.2,0.2,1.6
				c-0.4,0.4-5.2,5.4-5.2,5.4c-0.4,0.5-0.6,1.2-0.3,1.7c0.8,1.2,1.3,1.7,2.3,2.6c0.4,0.3,1.2,0.3,1.7-0.1c0,0,5.4-4.3,5.8-4.7
				c0.4-0.3,1.6,0.3,1.6,0.3c0,0,0,0,0.1,0c0.5,0.4,1,0.8,1.5,1.2c0,0,0,0,0,0c0,0,1,0.9,0.7,1.4c-0.2,0.5-3,6.8-3,6.8
				c-0.3,0.6-0.1,1.3,0.3,1.6c1.1,0.8,1.8,1.1,3.1,1.6c0.5,0.2,1.2-0.1,1.5-0.7c0,0,3.6-5.9,3.8-6.4c0.3-0.5,1.6-0.2,1.6-0.2
				c0,0,0,0,0,0c0.6,0.2,1.2,0.4,1.9,0.5c0,0,0,0.1,0,0.1c0,0,1.2,0.6,1.2,1.1c0,0.5-0.5,7.4-0.5,7.4c0,0.6,0.3,1.3,0.9,1.5
				c1.3,0.4,2,0.5,3.4,0.5c0.5,0,1.1-0.6,1.2-1.2c0,0,1.3-6.8,1.4-7.3c0.1-0.6,1.4-0.8,1.4-0.8c0,0,0,0,0-0.1c0.7,0,1.3,0,1.9,0
				c0,0,0,0,0,0c0,0,1.3,0.1,1.5,0.6c0.2,0.5,2.1,7.2,2.1,7.2c0.2,0.6,0.8,1.1,1.3,1.1c1.4-0.1,2.1-0.3,3.4-0.8
				c0.5-0.2,0.8-0.9,0.7-1.5c0,0-1.1-6.8-1.2-7.3c-0.1-0.6,1.1-1.2,1.1-1.2c0,0,0,0,0,0c0.6-0.2,1.2-0.5,1.8-0.8c0,0,0,0,0,0.1
				c0,0,1.3-0.4,1.6,0.1c0.3,0.5,4.4,6,4.4,6c0.4,0.5,1.1,0.8,1.6,0.6c1.3-0.6,1.9-1,2.9-1.9c0.4-0.4,0.5-1.1,0.2-1.7
				c0,0-3.3-6-3.6-6.5c-0.3-0.5,0.6-1.5,0.6-1.5c0,0,0,0,0-0.1c0.5-0.4,1-0.8,1.4-1.3c0,0,0,0,0,0c0,0,1.1-0.8,1.6-0.5
				c0.5,0.3,6.2,4.2,6.2,4.2c0.5,0.4,1.3,0.4,1.7,0c1-1,1.4-1.5,2.1-2.7c0.3-0.5,0.1-1.2-0.4-1.6c0,0-5.2-4.5-5.6-4.9
				c-0.4-0.4,0.1-1.6,0.1-1.6c0,0,0,0,0,0c0.3-0.6,0.6-1.1,0.9-1.7c0,0,0,0,0.1,0c0,0,0.7-1.1,1.3-1c0.5,0.1,7.2,1.8,7.2,1.8
				c0.6,0.2,1.3-0.1,1.6-0.6c0.6-1.3,0.8-1.9,1-3.3C195.3,68.6,194.8,67.9,194.2,67.7z M152.6,79.5c-11.7-1.5-19.9-12.3-18.4-24
				c1.5-11.7,12.3-19.9,23.9-18.4c11.7,1.5,19.9,12.3,18.4,24C175,72.8,164.3,81.1,152.6,79.5z"/>
			
				<ellipse transform="matrix(0.1308 -0.9914 0.9914 0.1308 77.2155 204.7936)" class="st1" cx="155.4" cy="58.4" rx="7.5" ry="7.5"/>
		</g>
		<g class="st4">
			<path class="st1" d="M103.8,160.1c0,0-5.9-2.2-6.4-2.3c-0.5-0.2-0.5-1.4-0.5-1.4c0,0,0,0-0.1,0c0-0.3,0.1-0.6,0.1-0.9
				c0-0.3,0-0.6,0.1-0.9c0,0,0,0,0.1,0c0,0,0.3-1.2,0.8-1.2c0.5-0.1,6.7-0.8,6.7-0.8c0.6-0.1,1.1-0.5,1.1-1c0.1-1.3,0.1-1.9-0.2-3.2
				c-0.1-0.5-0.7-0.9-1.3-0.9c0,0-6.3,0-6.8,0c-0.5,0-0.9-1.1-0.9-1.1c0,0,0,0-0.1,0c-0.1-0.6-0.3-1.2-0.4-1.7c0,0,0,0,0,0
				c0,0-0.1-1.2,0.3-1.4c0.5-0.2,6-3.1,6-3.1c0.5-0.3,0.9-0.9,0.7-1.3c-0.3-1.2-0.6-1.8-1.3-2.9c-0.3-0.4-0.9-0.6-1.5-0.4
				c0,0-5.9,2.1-6.4,2.3c-0.5,0.2-1.3-0.8-1.3-0.8c0,0,0,0-0.1,0c-0.3-0.5-0.6-1-1-1.5c0,0,0,0,0,0c0,0-0.5-1.1-0.2-1.5
				c0.3-0.4,4.6-5,4.6-5c0.4-0.4,0.5-1.1,0.2-1.5c-0.7-1-1.2-1.5-2.2-2.3c-0.4-0.3-1.1-0.2-1.5,0.1c0,0-4.8,4-5.2,4.3
				c-0.4,0.3-1.4-0.3-1.4-0.3c0,0,0,0-0.1,0c-0.5-0.4-0.9-0.7-1.4-1.1c0,0,0,0,0,0c0,0-0.9-0.8-0.7-1.3c0.2-0.5,2.7-6.2,2.7-6.2
				c0.2-0.5,0.1-1.2-0.3-1.5c-1-0.7-1.6-1-2.8-1.4c-0.5-0.2-1.1,0.2-1.4,0.7c0,0-3.1,5.4-3.4,5.9c-0.3,0.4-1.5,0.2-1.5,0.2
				c0,0,0,0,0,0c-0.6-0.2-1.1-0.3-1.7-0.5c0,0,0,0,0-0.1c0,0-1.1-0.5-1.1-1c0-0.5,0.4-6.8,0.4-6.8c0-0.6-0.3-1.2-0.8-1.3
				c-1.2-0.3-1.9-0.4-3.1-0.4c-0.5,0-1,0.5-1.1,1.1c0,0-1.1,6.2-1.2,6.7c-0.1,0.5-1.3,0.7-1.3,0.7c0,0,0,0,0,0.1
				c-0.6,0-1.2,0-1.8,0.1c0,0,0,0,0,0c0,0-1.2-0.1-1.4-0.6c-0.1-0.5-2-6.5-2-6.5c-0.2-0.5-0.7-1-1.2-0.9c-1.3,0.1-1.9,0.3-3.1,0.7
				c-0.5,0.2-0.7,0.8-0.6,1.4c0,0,1.1,6.2,1.2,6.7c0.1,0.5-1,1.1-1,1.1c0,0,0,0,0,0c-0.6,0.2-1.1,0.5-1.6,0.7c0,0,0,0,0-0.1
				c0,0-1.2,0.3-1.5-0.1c-0.3-0.4-4.1-5.4-4.1-5.4c-0.3-0.5-1-0.7-1.5-0.5c-1.1,0.5-1.7,0.9-2.6,1.7c-0.4,0.3-0.4,1-0.1,1.5
				c0,0,3.1,5.4,3.4,5.9c0.3,0.4-0.5,1.4-0.5,1.4c0,0,0,0,0,0.1c-0.4,0.4-0.9,0.8-1.3,1.2c0,0,0,0-0.1,0c0,0-1,0.7-1.4,0.5
				c-0.4-0.3-5.7-3.7-5.7-3.7c-0.5-0.3-1.2-0.3-1.5,0c-0.9,0.9-1.3,1.4-1.9,2.5c-0.2,0.4,0,1.1,0.4,1.5c0,0,4.8,4,5.2,4.4
				c0.4,0.3,0,1.5,0,1.5c0,0,0,0,0,0c-0.3,0.5-0.5,1-0.8,1.6c0,0,0,0,0,0c0,0-0.7,1-1.2,0.9c-0.5-0.1-6.6-1.5-6.6-1.5
				c-0.6-0.1-1.2,0.1-1.4,0.6c-0.5,1.2-0.7,1.8-0.9,3c-0.1,0.5,0.3,1,0.9,1.2c0,0,5.9,2.2,6.4,2.3c0.5,0.2,0.5,1.4,0.5,1.4
				c0,0,0,0,0.1,0c0,0.3-0.1,0.6-0.1,0.9c0,0.3,0,0.6-0.1,0.9c0,0,0,0-0.1,0c0,0-0.3,1.2-0.8,1.2c-0.5,0.1-6.7,0.8-6.7,0.8
				c-0.6,0.1-1.1,0.5-1.1,1c-0.1,1.3-0.1,1.9,0.2,3.2c0.1,0.5,0.7,0.9,1.3,0.9c0,0,6.3,0,6.8,0c0.5,0,0.9,1.1,0.9,1.1c0,0,0,0,0,0
				c0.1,0.6,0.3,1.1,0.4,1.7c0,0,0,0,0,0c0,0,0.1,1.2-0.3,1.4c-0.5,0.2-6,3.1-6,3.1c-0.5,0.3-0.9,0.9-0.7,1.4
				c0.3,1.2,0.6,1.8,1.3,2.9c0.3,0.4,0.9,0.6,1.5,0.4c0,0,5.9-2.1,6.4-2.3c0.5-0.2,1.3,0.8,1.3,0.8c0,0,0,0,0.1,0
				c0.3,0.5,0.6,1,1,1.5c0,0,0,0,0,0.1c0,0,0.5,1.1,0.2,1.4c-0.3,0.4-4.6,5-4.6,5c-0.4,0.4-0.5,1.1-0.2,1.5c0.7,1,1.2,1.5,2.2,2.3
				c0.4,0.3,1.1,0.2,1.5-0.1c0,0,4.8-4,5.2-4.3c0.4-0.3,1.4,0.3,1.4,0.3c0,0,0,0,0.1,0c0.5,0.4,0.9,0.7,1.4,1.1c0,0,0,0,0,0
				c0,0,0.9,0.8,0.7,1.3c-0.2,0.5-2.7,6.2-2.7,6.2c-0.2,0.5-0.1,1.2,0.3,1.5c1,0.7,1.6,1,2.8,1.4c0.5,0.2,1.1-0.2,1.4-0.7
				c0,0,3.1-5.4,3.4-5.9c0.3-0.4,1.5-0.2,1.5-0.2c0,0,0,0,0,0c0.6,0.2,1.1,0.3,1.7,0.5c0,0,0,0,0,0.1c0,0,1.1,0.5,1.1,1
				c0,0.5-0.4,6.8-0.4,6.8c0,0.6,0.3,1.2,0.8,1.3c1.2,0.3,1.9,0.4,3.1,0.4c0.5,0,1-0.5,1.1-1.1c0,0,1.1-6.2,1.2-6.7
				c0.1-0.5,1.3-0.7,1.3-0.7c0,0,0,0,0-0.1c0.6,0,1.2,0,1.8-0.1c0,0,0,0,0,0c0,0,1.2,0.1,1.4,0.6c0.1,0.5,2,6.5,2,6.5
				c0.2,0.5,0.7,1,1.2,0.9c1.3-0.1,1.9-0.3,3.1-0.7c0.5-0.2,0.7-0.8,0.6-1.4c0,0-1.1-6.2-1.2-6.7c-0.1-0.5,1-1.1,1-1.1c0,0,0,0,0,0
				c0.5-0.2,1.1-0.5,1.6-0.7c0,0,0,0,0,0.1c0,0,1.2-0.3,1.5,0.1c0.3,0.4,4.1,5.4,4.1,5.4c0.3,0.5,1,0.7,1.5,0.5
				c1.1-0.5,1.7-0.9,2.6-1.7c0.4-0.3,0.4-1,0.1-1.5c0,0-3.1-5.4-3.4-5.9c-0.3-0.4,0.5-1.4,0.5-1.4c0,0,0,0,0-0.1
				c0.4-0.4,0.9-0.8,1.3-1.2c0,0,0,0,0,0c0,0,1-0.7,1.4-0.4c0.4,0.3,5.7,3.7,5.7,3.7c0.5,0.3,1.2,0.3,1.5,0c0.9-0.9,1.3-1.4,1.9-2.5
				c0.2-0.4,0-1.1-0.4-1.5c0,0-4.8-4-5.2-4.4c-0.4-0.3,0-1.5,0-1.5c0,0,0,0,0,0c0.3-0.5,0.5-1,0.8-1.6c0,0,0,0,0,0
				c0,0,0.7-1,1.2-0.9c0.5,0.1,6.6,1.5,6.6,1.5c0.6,0.1,1.2-0.1,1.4-0.6c0.5-1.2,0.7-1.8,0.9-3C104.8,160.9,104.3,160.3,103.8,160.1
				z M66.1,171.5C55.4,170.3,47.8,160.6,49,150c1.2-10.7,10.9-18.3,21.5-17.1c10.7,1.2,18.3,10.9,17.1,21.5
				C86.4,165.1,76.7,172.7,66.1,171.5z"/>
		</g>
		<path class="st2" d="M171.8,183.6c0.4-0.5,0.6-1.2,0.5-1.8c-0.1-0.6-0.3-1.3-0.8-1.8c-0.5-0.5-1.1-0.8-1.8-0.8
			c-0.6-0.1-1.3,0.1-1.8,0.6c-0.6,0.5-3.6,3-6.3,5.2c-0.9-0.8-1.8-1.5-2.7-2.2c1.6-3.1,3.4-6.5,3.7-7.2c0.3-0.6,0.3-1.3,0.2-1.9
			c-0.2-0.6-0.6-1.2-1.2-1.5c-0.6-0.4-1.3-0.5-1.9-0.4c-0.6,0.1-1.3,0.4-1.7,0.9c-0.5,0.6-2.9,3.6-5,6.3c-1-0.6-2.1-1.1-3.1-1.6
			c0.9-3.3,2-7,2.2-7.8c0.2-0.7,0.1-1.3-0.3-1.9c-0.3-0.6-0.8-1-1.5-1.3c-0.6-0.3-1.3-0.2-1.9,0c-0.6,0.2-1.2,0.6-1.5,1.3
			c-0.3,0.7-2.1,4.1-3.6,7.2c-1.1-0.3-2.2-0.6-3.4-0.9c0.2-3.5,0.5-7.3,0.5-8.1c0-0.7-0.2-1.3-0.6-1.8c-0.4-0.5-1-0.8-1.7-0.9
			c-0.7-0.1-1.3,0-1.9,0.4c-0.6,0.3-1,0.9-1.2,1.5c-0.2,0.8-1.1,4.5-2,7.8c-1.2-0.1-2.3-0.2-3.5-0.2c-0.5-3.4-1.1-7.3-1.2-8
			c-0.1-0.7-0.5-1.3-1-1.6c-0.5-0.4-1.2-0.6-1.8-0.6c-0.7,0-1.3,0.3-1.8,0.8c-0.5,0.4-0.8,1.1-0.8,1.7c0,0.8-0.2,4.6-0.3,8.1
			c-1.2,0.1-2.3,0.3-3.5,0.5c-1.2-3.2-2.6-6.9-2.8-7.6c-0.2-0.7-0.7-1.1-1.3-1.4c-0.6-0.3-1.3-0.4-1.9-0.2c-0.7,0.2-1.2,0.6-1.6,1.1
			c-0.4,0.5-0.6,1.2-0.4,1.9c0.1,0.8,0.8,4.6,1.4,8c-1.1,0.4-2.2,0.8-3.3,1.3c-1.9-2.9-3.9-6.2-4.4-6.8c-0.4-0.6-1-0.9-1.6-1.1
			c-0.6-0.2-1.3-0.1-1.9,0.2c-0.6,0.3-1.1,0.8-1.3,1.4c-0.3,0.6-0.3,1.3-0.1,1.9c0.3,0.7,1.7,4.3,3,7.5c-1,0.6-2,1.2-2.9,1.9
			c-2.4-2.5-5.1-5.2-5.7-5.8c-0.5-0.5-1.1-0.7-1.8-0.7c-0.7,0-1.3,0.2-1.8,0.6c-0.5,0.4-0.9,1-1,1.7c-0.1,0.6,0,1.3,0.4,1.9
			c0.4,0.6,2.6,3.9,4.5,6.8c-0.4,0.4-0.9,0.8-1.3,1.2c-0.4,0.4-0.8,0.8-1.2,1.3c-2.9-1.9-6.1-4.1-6.8-4.5c-0.6-0.4-1.3-0.5-1.9-0.4
			c-0.6,0.1-1.2,0.5-1.7,1c-0.4,0.5-0.6,1.2-0.6,1.8c0,0.7,0.2,1.3,0.7,1.8c0.6,0.5,3.3,3.2,5.8,5.7c-0.7,1-1.3,1.9-1.9,2.9
			c-3.2-1.3-6.8-2.7-7.5-3c-0.6-0.3-1.3-0.2-1.9,0c-0.6,0.3-1.1,0.7-1.4,1.3c-0.3,0.6-0.4,1.3-0.2,1.9c0.2,0.6,0.5,1.2,1.1,1.6
			c0.7,0.4,3.9,2.5,6.8,4.3c-0.5,1.1-0.9,2.2-1.3,3.3c-3.4-0.6-7.2-1.2-8-1.4c-0.7-0.1-1.3,0.1-1.9,0.4c-0.5,0.4-0.9,0.9-1.1,1.6
			c-0.2,0.7-0.1,1.3,0.2,1.9c0.3,0.6,0.8,1.1,1.4,1.3c0.7,0.3,4.3,1.6,7.6,2.8c-0.2,1.2-0.4,2.3-0.5,3.5c-3.5,0.1-7.3,0.3-8.1,0.3
			c-0.7,0-1.3,0.4-1.7,0.8c-0.4,0.5-0.7,1.1-0.8,1.8c0,0.7,0.2,1.3,0.6,1.8c0.4,0.5,1,0.9,1.6,1c0.8,0.1,4.6,0.7,8,1.2
			c0,1.2,0.1,2.3,0.2,3.5c-3.3,0.9-7.1,1.8-7.9,2c-0.7,0.2-1.2,0.6-1.5,1.2c-0.3,0.6-0.5,1.2-0.4,1.9c0.1,0.7,0.5,1.3,0.9,1.7
			c0.5,0.4,1.1,0.7,1.8,0.6c0.8,0,4.6-0.3,8.1-0.5c0.3,1.1,0.6,2.3,0.9,3.4c-3.1,1.6-6.6,3.3-7.3,3.6c-0.6,0.3-1,0.9-1.3,1.5
			c-0.2,0.6-0.2,1.3,0,1.9c0.3,0.7,0.7,1.2,1.3,1.5c0.6,0.3,1.3,0.4,1.9,0.2c0.7-0.2,4.5-1.2,7.8-2.2c0.5,1.1,1,2.1,1.6,3.1
			c-2.7,2.2-5.7,4.5-6.3,5c-0.5,0.4-0.8,1.1-0.9,1.7c-0.1,0.6,0,1.3,0.4,1.9c0.4,0.6,0.9,1,1.6,1.1c0.6,0.2,1.3,0.2,1.9-0.2
			c0.7-0.4,4.1-2.1,7.2-3.7c0.7,0.9,1.4,1.8,2.2,2.7c-2.2,2.7-4.7,5.6-5.2,6.2c-0.4,0.5-0.6,1.2-0.6,1.8c0.1,0.7,0.3,1.3,0.8,1.8
			c0.5,0.5,1.1,0.8,1.8,0.8c0.6,0.1,1.3-0.1,1.9-0.5c0.6-0.5,3.6-3,6.2-5.2c0.9,0.8,1.8,1.5,2.7,2.2c-1.6,3.1-3.4,6.5-3.8,7.2
			c-0.3,0.6-0.3,1.3-0.2,1.9c0.2,0.6,0.6,1.2,1.2,1.6c0.6,0.4,1.2,0.5,1.9,0.4c0.6-0.1,1.3-0.4,1.7-0.9c0.5-0.6,2.9-3.6,5-6.3
			c1,0.6,2.1,1.1,3.1,1.6c-0.9,3.3-2,7-2.2,7.8c-0.2,0.7-0.1,1.3,0.2,1.9c0.3,0.6,0.8,1,1.5,1.3c0.6,0.2,1.3,0.2,1.9,0
			c0.6-0.2,1.2-0.6,1.5-1.3c0.3-0.7,2.1-4.1,3.6-7.2c1.1,0.3,2.3,0.6,3.4,0.9c-0.2,3.5-0.5,7.3-0.5,8.1c0,0.7,0.2,1.3,0.6,1.8
			c0.4,0.5,1,0.9,1.7,1c0.7,0.1,1.3-0.1,1.9-0.4c0.6-0.4,1-0.9,1.2-1.5c0.2-0.8,1.2-4.5,2-7.9c1.2,0.1,2.3,0.2,3.5,0.2
			c0.5,3.4,1.1,7.3,1.2,8c0.1,0.7,0.5,1.3,1,1.6c0.5,0.4,1.2,0.6,1.9,0.6c0.7,0,1.3-0.3,1.8-0.8c0.5-0.4,0.8-1.1,0.8-1.8
			c0-0.8,0.2-4.6,0.3-8.1c1.2-0.1,2.3-0.3,3.5-0.5c1.2,3.3,2.6,6.9,2.8,7.6c0.2,0.7,0.7,1.1,1.3,1.4c0.6,0.3,1.3,0.4,1.9,0.2
			c0.7-0.2,1.2-0.6,1.6-1.1c0.4-0.5,0.6-1.2,0.4-1.9c-0.1-0.8-0.8-4.6-1.4-8c1.1-0.4,2.2-0.8,3.3-1.3c1.9,2.9,3.9,6.2,4.4,6.8
			c0.4,0.6,1,0.9,1.6,1.1c0.6,0.1,1.3,0.1,1.9-0.2c0.6-0.3,1.1-0.8,1.3-1.4c0.3-0.6,0.3-1.3,0-1.9c-0.3-0.7-1.7-4.3-3-7.5
			c1-0.6,2-1.2,2.9-1.9c2.4,2.5,5.1,5.3,5.7,5.8c0.5,0.5,1.1,0.7,1.8,0.8c0.6,0,1.3-0.2,1.8-0.6c0.5-0.4,0.9-1,1-1.7
			c0.1-0.6,0-1.3-0.4-1.9c-0.4-0.7-2.6-3.9-4.5-6.8c0.4-0.4,0.8-0.8,1.3-1.2c0.4-0.4,0.8-0.8,1.2-1.3c2.9,1.9,6.1,4.1,6.8,4.5
			c0.6,0.4,1.3,0.5,1.9,0.4c0.6-0.1,1.2-0.4,1.7-1c0.4-0.5,0.6-1.2,0.6-1.8c0-0.7-0.3-1.3-0.8-1.8c-0.6-0.5-3.3-3.2-5.8-5.7
			c0.7-0.9,1.3-1.9,1.9-2.9c3.2,1.3,6.8,2.7,7.5,3c0.6,0.2,1.3,0.2,1.9-0.1c0.6-0.2,1.1-0.7,1.4-1.3c0.3-0.6,0.4-1.3,0.2-1.9
			c-0.2-0.6-0.5-1.2-1.1-1.6c-0.7-0.4-3.9-2.5-6.8-4.3c0.5-1.1,0.9-2.2,1.3-3.3c3.4,0.6,7.2,1.2,8,1.4c0.7,0.1,1.3-0.1,1.9-0.4
			c0.5-0.4,0.9-0.9,1.1-1.6c0.2-0.7,0.1-1.3-0.2-1.9c-0.3-0.6-0.8-1.1-1.4-1.3c-0.7-0.3-4.3-1.6-7.6-2.8c0.2-1.1,0.4-2.3,0.5-3.5
			c3.5-0.1,7.3-0.3,8.1-0.3c0.7,0,1.3-0.4,1.7-0.8c0.4-0.5,0.7-1.1,0.8-1.8c0-0.7-0.2-1.3-0.6-1.8c-0.4-0.5-1-0.9-1.6-1
			c-0.8-0.1-4.6-0.7-8-1.2c0-1.2-0.1-2.3-0.2-3.5c3.4-0.9,7.1-1.8,7.8-2c0.7-0.2,1.2-0.6,1.5-1.2c0.3-0.6,0.5-1.2,0.4-1.9
			c-0.1-0.7-0.5-1.3-1-1.7c-0.5-0.4-1.1-0.7-1.8-0.6c-0.8,0.1-4.6,0.3-8.1,0.5c-0.3-1.1-0.6-2.3-0.9-3.4c3.1-1.5,6.6-3.2,7.3-3.6
			c0.6-0.3,1-0.9,1.3-1.5c0.2-0.6,0.2-1.3,0-1.9c-0.2-0.7-0.7-1.2-1.3-1.5c-0.6-0.3-1.2-0.4-1.9-0.3c-0.8,0.2-4.5,1.2-7.8,2.2
			c-0.5-1-1-2.1-1.6-3.1c2.7-2.2,5.7-4.6,6.4-5c0.5-0.4,0.8-1.1,0.9-1.7c0.1-0.6-0.1-1.3-0.4-1.9c-0.4-0.6-0.9-1-1.6-1.2
			c-0.6-0.2-1.3-0.2-1.9,0.1c-0.7,0.4-4.1,2.2-7.2,3.8c-0.7-0.9-1.4-1.8-2.2-2.7C168.8,187.2,171.3,184.2,171.8,183.6z M122.5,216.4
			c3.5-3.5,9.1-3.5,12.6,0c3.5,3.5,3.5,9.1,0,12.6c-3.5,3.5-9.1,3.5-12.6,0C119,225.5,119,219.9,122.5,216.4z M100.6,251
			c-14.5-14.5-15.5-37.4-3.1-53l15.9,15.9c-3.9,6.8-3,15.6,2.8,21.5c1.1,1.1,2.3,2,3.6,2.7l-6,21.7C109,257.8,104.5,254.9,100.6,251
			z M157.1,251c-9.3,9.3-22.1,13-34.2,11.2l5.9-21.6c4.6,0,9.1-1.7,12.6-5.2c3.5-3.5,5.2-8,5.2-12.6l21.7-5.9
			C170.1,229,166.4,241.7,157.1,251z M165.9,207.8l-21.7,5.9c-0.8-1.3-1.6-2.5-2.7-3.7c-5.8-5.8-14.6-6.7-21.5-2.8l-15.9-16
			c15.7-12.4,38.5-11.3,53,3.2C161,198.4,164,203,165.9,207.8z"/>
	</g>
	<circle class="st5" cx="210.1" cy="20.1" r="17.6"/>
	<circle class="st6" cx="28.6" cy="226.8" r="27.4"/>
	<polygon class="st7" points="213.1,297.5 235.4,258.9 257.7,297.5 	"/>
	<g>
		<polygon class="st8" points="282.6,85.1 265.5,114.8 299.8,114.8 		"/>
		<polygon class="st9" points="334.1,114.8 317,85.1 299.8,114.8 		"/>
		<polygon class="st10" points="282.6,85.1 317,85.1 299.8,55.3 		"/>
	</g>
	<g>
		<g>
			<rect x="88.6" y="106.4" class="st8" width="162.7" height="128.6"/>
		</g>
		<g>
			<rect x="97.3" y="117" class="st11" width="145.3" height="109.6"/>
		</g>
	</g>
	<g>
		<g>
			<g>
				<path class="st12" d="M113.5,141.3v-3.1l12.5-5.3v3.1l-9.6,3.8l9.6,3.8v3L113.5,141.3z"/>
				<path class="st12" d="M156.1,146.5v-3l9.6-3.8l-9.6-3.8v-3.1l12.5,5.3v3.1L156.1,146.5z"/>
			</g>
			<g>
				<rect x="130.1" y="135.8" class="st12" width="21.9" height="7.5"/>
			</g>
		</g>
		<g>
			<rect x="130.1" y="158.6" class="st10" width="31.7" height="8.3"/>
			<rect x="130.1" y="189" class="st10" width="10.3" height="8.3"/>
			<rect x="147.7" y="189" class="st12" width="10.3" height="8.3"/>
			<rect x="169" y="158.6" class="st12" width="35" height="8.3"/>
			<rect x="130.1" y="173.4" class="st9" width="53.9" height="8.3"/>
			<rect x="191.3" y="173.4" class="st10" width="25.8" height="8.3"/>
		</g>
	</g>
	<polygon class="st8" points="27.3,52.2 15.5,31.8 27.3,11.3 50.9,11.3 62.7,31.8 50.9,52.2 	"/>
	<g>
		<path class="st13" d="M361,221.1h-76.2c-0.6,0-1-0.5-1-1v-18.1c0-0.6,0.4-1,1-1H361c0.5,0,1,0.4,1,1v18.1
			C362,220.6,361.6,221.1,361,221.1z"/>
		<circle class="st14" cx="294.9" cy="211" r="3.9"/>
	</g>
	<path class="st14" d="M353.4,213.7h-18.8c-0.5,0-0.9-0.4-0.9-0.9v-3.5c0-0.5,0.4-0.9,0.9-0.9h18.8c0.5,0,0.9,0.4,0.9,0.9v3.5
		C354.3,213.3,353.9,213.7,353.4,213.7z"/>
	<g>
		<path class="st13" d="M77.2,83.7H1c-0.6,0-1-0.5-1-1V64.6c0-0.6,0.5-1,1-1h76.2c0.6,0,1,0.4,1,1v18.1
			C78.2,83.3,77.7,83.7,77.2,83.7z"/>
		<circle class="st14" cx="11" cy="73.7" r="3.9"/>
		<path class="st14" d="M69.6,76.3H50.7c-0.5,0-0.9-0.4-0.9-0.9v-3.5c0-0.5,0.4-0.9,0.9-0.9h18.8c0.5,0,0.9,0.4,0.9,0.9v3.5
			C70.5,75.9,70,76.3,69.6,76.3z"/>
	</g>
</g>
</svg>
