<?xml version="1.0" encoding="utf-8"?>
<!-- Generator: Adobe Illustrator 19.2.1, SVG Export Plug-In . SVG Version: 6.00 Build 0)  -->
<!DOCTYPE svg PUBLIC "-//W3C//DTD SVG 1.1//EN" "http://www.w3.org/Graphics/SVG/1.1/DTD/svg11.dtd">
<svg version="1.1" id="Layer_1" xmlns="http://www.w3.org/2000/svg" xmlns:xlink="http://www.w3.org/1999/xlink" x="0px" y="0px"
	 viewBox="0 0 164 130" style="enable-background:new 0 0 164 130;" xml:space="preserve">
<style type="text/css">
	.st0{fill:#0AB8FA;}
	.st1{fill:#1E1E1E;}
	.st2{fill:#FFFFFF;}
	.st3{fill:#444444;}
	.st4{fill:#302F31;}
	.st5{clip-path:url(#SVGID_2_);}
	.st6{fill:#BFBFBF;}
	.st7{fill:#D2D7D9;}
	.st8{opacity:0.2;clip-path:url(#SVGID_2_);fill:#FFFFFF;}
	.st9{opacity:0.3;}
</style>
<g>
	<g>
		<g>
			<rect x="76.2" y="0.8" class="st0" width="54" height="39.4"/>
		</g>
		<g>
			<rect x="79.1" y="4.4" class="st1" width="48.2" height="33.1"/>
		</g>
		<g>
			<path class="st2" d="M85.2,16.1v-1.5c0.3,0,0.5-0.1,0.7-0.1c0.2-0.1,0.3-0.2,0.4-0.4c0.1-0.2,0.2-0.4,0.2-0.7
				c0-0.2,0.1-0.6,0.1-1.1c0-0.8,0-1.4,0.1-1.7c0.1-0.3,0.2-0.6,0.4-0.8c0.2-0.2,0.5-0.4,0.9-0.5c0.3-0.1,0.7-0.1,1.2-0.1h0.3v1.5
				c-0.5,0-0.8,0-0.9,0.1c-0.1,0.1-0.2,0.1-0.3,0.2c-0.1,0.1-0.1,0.3-0.1,0.6c0,0.3,0,0.8-0.1,1.5c0,0.4-0.1,0.8-0.2,1
				c-0.1,0.3-0.2,0.5-0.3,0.6c-0.1,0.2-0.3,0.3-0.6,0.5c0.3,0.1,0.5,0.3,0.6,0.5c0.2,0.2,0.3,0.4,0.4,0.7c0.1,0.3,0.1,0.6,0.2,1.1
				c0,0.7,0,1.2,0,1.4c0,0.3,0,0.5,0.1,0.6c0.1,0.1,0.2,0.2,0.3,0.3c0.1,0.1,0.4,0.1,0.9,0.1v1.5h-0.3c-0.6,0-1,0-1.3-0.1
				c-0.3-0.1-0.6-0.2-0.8-0.5c-0.2-0.2-0.4-0.5-0.4-0.8c-0.1-0.3-0.1-0.8-0.1-1.5c0-0.8,0-1.3-0.1-1.5c-0.1-0.3-0.2-0.6-0.4-0.7
				C85.9,16.2,85.6,16.1,85.2,16.1z"/>
			<path class="st2" d="M94.5,18.7v-1.8h1.8v1.8H94.5z"/>
			<path class="st2" d="M98.1,18.7v-1.8h1.8v1.8H98.1z"/>
			<path class="st2" d="M101.7,18.7v-1.8h1.8v1.8H101.7z"/>
			<path class="st2" d="M105.3,18.7v-1.8h1.8v1.8H105.3z"/>
			<path class="st2" d="M109,18.7v-1.8h1.8v1.8H109z"/>
			<path class="st2" d="M112.6,18.7v-1.8h1.8v1.8H112.6z"/>
		</g>
	</g>
	<g>
		<g>
			<path class="st3" d="M144.9,76.2h-2v-8.8c0-0.8-0.7-1.5-1.5-1.5H130v-2h11.5c1.9,0,3.5,1.6,3.5,3.5V76.2z"/>
		</g>
		<g>
			<circle class="st4" cx="130.2" cy="64.9" r="2.5"/>
			<path class="st3" d="M130.2,68.4c-1.9,0-3.5-1.6-3.5-3.5c0-1.9,1.6-3.5,3.5-3.5c1.9,0,3.5,1.6,3.5,3.5
				C133.7,66.8,132.1,68.4,130.2,68.4z M130.2,63.3c-0.8,0-1.5,0.7-1.5,1.5c0,0.8,0.7,1.5,1.5,1.5c0.8,0,1.5-0.7,1.5-1.5
				C131.7,64,131,63.3,130.2,63.3z"/>
		</g>
		<g>
			<polygon class="st3" points="143.9,80.3 140.6,75 143.9,75 147.2,75 			"/>
		</g>
	</g>
	<g>
		<g>
			<path class="st3" d="M21.2,59.3h-2V26.7c0-1.9,1.6-3.5,3.5-3.5h43.5v2H22.7c-0.8,0-1.5,0.7-1.5,1.5V59.3z"/>
		</g>
		<g>
			<circle class="st4" cx="66.2" cy="24.2" r="2.5"/>
			<path class="st3" d="M66.2,27.8c-1.9,0-3.5-1.6-3.5-3.5s1.6-3.5,3.5-3.5c1.9,0,3.5,1.6,3.5,3.5S68.2,27.8,66.2,27.8z M66.2,22.7
				c-0.8,0-1.5,0.7-1.5,1.5c0,0.8,0.7,1.5,1.5,1.5c0.8,0,1.5-0.7,1.5-1.5C67.7,23.4,67.1,22.7,66.2,22.7z"/>
		</g>
		<g>
			<circle class="st4" cx="20.2" cy="59.3" r="2.5"/>
			<path class="st3" d="M20.2,62.8c-1.9,0-3.5-1.6-3.5-3.5c0-1.9,1.6-3.5,3.5-3.5s3.5,1.6,3.5,3.5C23.8,61.2,22.2,62.8,20.2,62.8z
				 M20.2,57.8c-0.8,0-1.5,0.7-1.5,1.5s0.7,1.5,1.5,1.5s1.5-0.7,1.5-1.5S21.1,57.8,20.2,57.8z"/>
		</g>
	</g>
	<g>
		<path class="st3" d="M25.6,118.6c0-0.1-0.1-0.3-0.1-0.4c0-0.1-0.1-0.2-0.2-0.2c-0.1,0-0.1-0.1-0.2-0.1h-3.3v-3.5
			c0-0.1,0-0.1-0.1-0.2c0-0.1-0.1-0.1-0.2-0.2c-0.1,0-0.2-0.1-0.4-0.1c-0.2,0-0.3,0-0.6,0c-0.2,0-0.4,0-0.6,0
			c-0.2,0-0.3,0.1-0.4,0.1c-0.1,0-0.2,0.1-0.2,0.2c0,0.1-0.1,0.1-0.1,0.2v3.5h-3.3c-0.1,0-0.1,0-0.2,0.1c-0.1,0-0.1,0.1-0.1,0.2
			c0,0.1-0.1,0.2-0.1,0.4c0,0.1,0,0.3,0,0.5c0,0.2,0,0.4,0,0.5c0,0.1,0.1,0.3,0.1,0.3c0,0.1,0.1,0.2,0.2,0.2c0.1,0,0.1,0.1,0.2,0.1
			h3.2v3.5c0,0.1,0,0.1,0.1,0.2c0,0.1,0.1,0.1,0.2,0.1c0.1,0,0.2,0.1,0.4,0.1c0.2,0,0.3,0,0.6,0c0.2,0,0.4,0,0.6,0
			c0.2,0,0.3-0.1,0.4-0.1c0.1,0,0.2-0.1,0.2-0.1c0-0.1,0.1-0.1,0.1-0.2v-3.5h3.3c0.1,0,0.1,0,0.2-0.1c0.1,0,0.1-0.1,0.2-0.2
			c0-0.1,0.1-0.2,0.1-0.3c0-0.1,0-0.3,0-0.5C25.6,118.9,25.6,118.7,25.6,118.6z"/>
	</g>
	<g>
		<g>
			<g>
				<defs>
					<path id="SVGID_1_" d="M116,104.7H40.7c-1.8,0-3.2-1.4-3.2-3.2V51.8c0-1.8,1.4-3.2,3.2-3.2H116c1.8,0,3.2,1.4,3.2,3.2v49.6
						C119.2,103.2,117.8,104.7,116,104.7z"/>
				</defs>
				<clipPath id="SVGID_2_">
					<use xlink:href="#SVGID_1_"  style="overflow:visible;"/>
				</clipPath>
				<g class="st5">
					<rect x="32.4" y="47.5" class="st0" width="91.9" height="49.2"/>
				</g>
				<g class="st5">
					<g>
						<g>
							<path class="st3" d="M105.2,61.9H51.5v-5.8c0-0.4,0.3-0.8,0.8-0.8h52.2c0.4,0,0.8,0.3,0.8,0.8V61.9z"/>
						</g>
						<g>
							<g>
								<circle class="st2" cx="54.3" cy="58.7" r="0.9"/>
							</g>
							<g>
								<circle class="st2" cx="56.9" cy="58.7" r="0.9"/>
							</g>
							<g>
								<circle class="st2" cx="59.5" cy="58.7" r="0.9"/>
							</g>
						</g>
					</g>
					<g>
						<rect x="51.5" y="61.9" class="st2" width="53.8" height="56.2"/>
					</g>
					<g>
						<g>
							<g>
								<rect x="59.6" y="84.8" class="st0" width="7.7" height="8"/>
							</g>
							<g>
								<rect x="69.5" y="84.8" class="st0" width="7.7" height="8"/>
							</g>
							<g>
								<rect x="79.5" y="84.8" class="st0" width="7.7" height="8"/>
							</g>
							<g>
								<rect x="89.4" y="84.8" class="st0" width="7.7" height="8"/>
							</g>
						</g>
						<g>
							<rect x="59.6" y="70.1" class="st0" width="37.5" height="12.9"/>
						</g>
						<g>
							<g>
								<rect x="59.6" y="94.9" class="st6" width="10.5" height="14.1"/>
							</g>
							<g>
								<g>
									<rect x="72.3" y="94.9" class="st6" width="24.8" height="1.7"/>
								</g>
								<g>
									<rect x="72.3" y="98" class="st6" width="24.8" height="1.7"/>
								</g>
								<g>
									<rect x="72.3" y="101.1" class="st6" width="24.8" height="1.7"/>
								</g>
								<g>
									<rect x="72.3" y="104.3" class="st6" width="24.8" height="1.7"/>
								</g>
								<g>
									<rect x="72.3" y="107.4" class="st6" width="14.6" height="1.7"/>
								</g>
							</g>
						</g>
						<g>
							<g>
								<rect x="66.1" y="66.5" class="st6" width="24.6" height="1.7"/>
							</g>
						</g>
					</g>
				</g>
				<g class="st5">
					<rect x="32.4" y="96.6" class="st7" width="91.9" height="18.4"/>
				</g>
				<polygon class="st8" points="121.9,108.8 75.3,108.8 103.7,44.3 121.9,44.3 				"/>
			</g>
			<g>
				<path class="st7" d="M88.8,116.7l-2.5-8.1c-0.2-0.5-0.6-0.9-1.2-0.9H71.1c-0.5,0-1,0.3-1.2,0.9l-2.5,8.1
					c-0.2,0.5-0.6,0.9-1.2,0.9h-1.5c-0.7,0-1.2,0.5-1.2,1.2l0,0c0,0.7,0.5,1.2,1.2,1.2h3.6h19.5h3.6c0.7,0,1.2-0.5,1.2-1.2l0,0
					c0-0.7-0.5-1.2-1.2-1.2H90C89.5,117.5,89,117.2,88.8,116.7z"/>
			</g>
			<g class="st9">
				<path class="st3" d="M86.3,108.6c-0.2-0.5-0.6-0.9-1.2-0.9H71.1c-0.5,0-1,0.3-1.2,0.9l-1,3.1h18.3L86.3,108.6z"/>
			</g>
		</g>
	</g>
	<g>
		<g>
			<g>
				<path class="st7" d="M154.1,129.2h-20.2c-1.6,0-3-1.4-3-3V89.1c0-1.6,1.4-3,3-3h20.2c1.6,0,3,1.4,3,3v37.1
					C157.1,127.8,155.8,129.2,154.1,129.2z"/>
			</g>
			<g>
				<rect x="134.1" y="90.1" class="st0" width="19.8" height="31.1"/>
			</g>
			<g>
				<circle class="st2" cx="144" cy="125.1" r="2.1"/>
			</g>
		</g>
		<g>
			<path class="st2" d="M147.8,105.5c0-0.1,0-0.2-0.1-0.3c0-0.1-0.1-0.1-0.1-0.1c0,0-0.1,0-0.1,0H145v-2.7c0-0.1,0-0.1,0-0.2
				c0,0-0.1-0.1-0.2-0.1c-0.1,0-0.2-0.1-0.3-0.1c-0.1,0-0.3,0-0.4,0c-0.2,0-0.3,0-0.4,0c-0.1,0-0.2,0-0.3,0.1
				c-0.1,0-0.1,0.1-0.2,0.1c0,0,0,0.1,0,0.2v2.7h-2.5c-0.1,0-0.1,0-0.1,0c0,0-0.1,0.1-0.1,0.1c0,0.1-0.1,0.2-0.1,0.3
				c0,0.1,0,0.3,0,0.4c0,0.2,0,0.3,0,0.4c0,0.1,0,0.2,0.1,0.3c0,0.1,0.1,0.1,0.1,0.1c0,0,0.1,0,0.1,0h2.5v2.7c0,0.1,0,0.1,0,0.2
				c0,0,0.1,0.1,0.2,0.1c0.1,0,0.2,0.1,0.3,0.1c0.1,0,0.3,0,0.4,0c0.2,0,0.3,0,0.4,0c0.1,0,0.2,0,0.3-0.1c0.1,0,0.1-0.1,0.2-0.1
				c0,0,0-0.1,0-0.2v-2.7h2.5c0.1,0,0.1,0,0.2,0c0,0,0.1-0.1,0.1-0.1c0-0.1,0.1-0.2,0.1-0.3c0-0.1,0-0.2,0-0.4
				C147.8,105.7,147.8,105.6,147.8,105.5z"/>
		</g>
	</g>
	<g>
		<path class="st3" d="M0,90.2v-1.9L7.8,85v1.9l-6,2.4l6,2.3v1.9L0,90.2z"/>
		<path class="st3" d="M9.3,95.4l4.1-12.2h1.9l-4.1,12.2H9.3z"/>
		<path class="st3" d="M16.8,93.5v-1.9l6-2.3l-6-2.4V85l7.8,3.3v1.9L16.8,93.5z"/>
	</g>
	<g>
		<path class="st3" d="M139.5,49.5v-1.9l7.8-3.3v1.9l-6,2.4l6,2.3v1.9L139.5,49.5z"/>
		<path class="st3" d="M156.2,52.7v-1.9l6-2.3l-6-2.4v-1.9l7.8,3.3v1.9L156.2,52.7z"/>
	</g>
</g>
</svg>
