<?xml version="1.0" encoding="utf-8"?>
<!-- Generator: Adobe Illustrator 19.2.1, SVG Export Plug-In . SVG Version: 6.00 Build 0)  -->
<!DOCTYPE svg PUBLIC "-//W3C//DTD SVG 1.1//EN" "http://www.w3.org/Graphics/SVG/1.1/DTD/svg11.dtd">
<svg version="1.1" id="Layer_1" xmlns="http://www.w3.org/2000/svg" xmlns:xlink="http://www.w3.org/1999/xlink" x="0px" y="0px"
	 viewBox="0 0 86 140" style="enable-background:new 0 0 86 140;" xml:space="preserve">
<style type="text/css">
	.st0{fill:none;}
	.st1{fill:#31A5D7;}
	.st2{fill:#414042;}
</style>
<g id="Layer_1_1_">
	<g>
		<path class="st0" d="M39.2,31v-4.5h-9.9v4.3c1.5-0.7,3.1-1.1,4.9-1.1C35.9,29.8,37.6,30.3,39.2,31z"/>
		<rect x="15.8" y="56.6" class="st0" width="6.2" height="8.7"/>
		<rect x="15.8" y="5.6" class="st0" width="6.2" height="4.6"/>
		<polygon class="st1" points="22,65.4 15.8,65.4 15.8,56.6 10.8,56.6 10.8,70.3 26.9,70.3 26.9,56.6 22,56.6 		"/>
		<polygon class="st1" points="15.8,5.6 22,5.6 22,10.2 26.9,10.2 26.9,0.7 10.8,0.7 10.8,10.2 15.8,10.2 		"/>
		<polygon class="st1" points="22.7,110.7 31,110.7 32.5,109.6 28.9,104.6 12.9,116.4 16.5,121.4 24.8,115.3 22.7,115.3 		"/>
		<path class="st2" d="M31,110.7h-8.4v4.6h2.1h15.9c0.6-1.4,1.2-2.9,1.6-4.6H31z"/>
		<path class="st1" d="M68.2,126.1c-13.5-7.6-11.5-32-11.5-32H44.2c0,6.6-0.7,12-1.9,16.6c-0.5,1.6-1,3.2-1.6,4.6
			c-4.4,10.4-12.4,14.2-20.8,14.2c-12.7,0-14.2,9.8-14.2,9.8h74.9C80.4,139.3,77.9,131.5,68.2,126.1z"/>
		<path class="st2" d="M79.3,78.6c4.2-5,6.7-11.5,6.7-18.6c0-16.2-13.2-29.3-29.3-29.3h-13v-8.9H29.3V10.2h-2.3h-5h-6.2h-5H8.5v46.5
			h2.3h5H22h5h2.3v-5.1c-3.9-1.9-6.6-5.8-6.6-10.4s2.7-8.5,6.6-10.4v-4.4h9.9v4.5c1.9,1,3.6,2.5,4.7,4.3h12.8
			c13.6,0,24.7,11.1,24.7,24.7c0,5.9-2.1,11.3-5.6,15.6C77.3,76.2,78.5,77.3,79.3,78.6z"/>
		<path class="st2" d="M56.7,84.7H39.2V83H0v8.2h39.2v-1.8h17.4c3.4,0,6.7-0.6,9.8-1.7c-0.9-1.2-1.5-2.7-1.6-4.3
			C62.3,84.2,59.5,84.7,56.7,84.7z"/>
		<path class="st1" d="M75.9,75.6c-0.9-0.4-2-0.7-3.2-0.7c-4.3,0-7.9,3.6-7.9,7.9c0,0.2,0,0.3,0,0.5c0.1,1.6,0.7,3.1,1.6,4.3
			c1.5,1.9,3.7,3,6.2,3c4.3,0,7.9-3.6,7.9-7.9c0-1.5-0.5-3-1.2-4.2C78.5,77.3,77.3,76.2,75.9,75.6z M72.7,86.1
			c-1.8,0-3.3-1.5-3.3-3.3c0-1.8,1.5-3.3,3.3-3.3s3.3,1.5,3.3,3.3S74.5,86.1,72.7,86.1z"/>
		<path class="st1" d="M39.2,31c-1.5-0.8-3.3-1.2-5-1.2c-1.7,0-3.4,0.4-4.9,1.1c-3.9,1.9-6.6,5.8-6.6,10.4s2.7,8.5,6.6,10.4
			c1.5,0.7,3.1,1.1,4.9,1.1c6.3,0,11.5-5.1,11.5-11.5c0-2.2-0.6-4.2-1.6-5.9C42.8,33.5,41.1,32,39.2,31z"/>
	</g>
</g>
<g id="Layer_2">
</g>
<g id="Layer_3">
</g>
<g id="Layer_4">
</g>
</svg>
