<?xml version="1.0" encoding="utf-8"?>
<!-- Generator: Adobe Illustrator 19.2.1, SVG Export Plug-In . SVG Version: 6.00 Build 0)  -->
<!DOCTYPE svg PUBLIC "-//W3C//DTD SVG 1.1//EN" "http://www.w3.org/Graphics/SVG/1.1/DTD/svg11.dtd">
<svg version="1.1" id="Layer_1" xmlns="http://www.w3.org/2000/svg" xmlns:xlink="http://www.w3.org/1999/xlink" x="0px" y="0px"
	 viewBox="0 0 16 16" style="enable-background:new 0 0 16 16;" xml:space="preserve">
<path d="M13.1,0.2H2.9C1.3,0.2,0,1.4,0,3v10c0,1.6,1.3,2.8,2.9,2.8h10.2c1.6,0,2.9-1.3,2.9-2.8V3C16,1.4,14.7,0.2,13.1,0.2z
	 M11.2,2.4c0-0.4,0.3-0.6,0.7-0.6c0.6,0,1.3,0,1.9,0c0.3,0,0.6,0.2,0.6,0.5c0,0,0,0.1,0,0.1c0,0.6,0,1.2,0,1.8
	c0,0.3-0.2,0.6-0.5,0.6c0,0-0.1,0-0.1,0c-0.3,0-0.6,0-1,0c-0.3,0-0.6,0-1,0c-0.3,0-0.6-0.2-0.6-0.5c0,0,0-0.1,0-0.1
	C11.2,3.6,11.2,3,11.2,2.4z M8,4.8c1.8,0,3.2,1.4,3.2,3.1C11.2,9.6,9.8,11,8,11c-1.8,0-3.2-1.4-3.2-3.1C4.8,6.2,6.2,4.8,8,4.8z
	 M14.4,6.7c0,1.8,0,3.6,0,5.5c0,0.4,0,0.8,0,1.2c0,0.3-0.2,0.5-0.5,0.6c-0.1,0-0.1,0-0.2,0c-1.8,0-3.7,0-5.5,0c-2,0-4,0-5.9,0
	c-0.1,0-0.2,0-0.3,0c-0.2-0.1-0.4-0.3-0.4-0.5c0,0,0-0.1,0-0.1c0-2.2,0-4.4,0-6.6c0,0,0,0,0-0.1c0.5,0,1,0,1.5,0
	c-0.3,1.3-0.2,2.5,0.5,3.6c0.5,0.8,1.2,1.4,2,1.9c0.8,0.4,1.8,0.7,2.7,0.6c1.6-0.1,2.9-0.8,3.9-2c0.9-1.3,1.2-2.6,0.8-4.1
	C13.5,6.7,13.9,6.7,14.4,6.7C14.4,6.7,14.4,6.7,14.4,6.7z"/>
</svg>
