<svg id="Layer_1" data-name="Layer 1" xmlns="http://www.w3.org/2000/svg" viewBox="0 0 331.77 180.89"><defs><style>.cls-1{fill:#424242;}.cls-2{fill:#31a5d7;}</style></defs><title>logo</title><path class="cls-1" d="M255.21,372.4a23.82,23.82,0,0,1-.14,2.82,7.75,7.75,0,0,1-.43,1.88,2.52,2.52,0,0,1-.71,1.05,1.47,1.47,0,0,1-.94.34H234.52v59.43a1.6,1.6,0,0,1-.37,1,2.59,2.59,0,0,1-1.23.74,11.85,11.85,0,0,1-2.31.46,37.74,37.74,0,0,1-7.24,0,11.85,11.85,0,0,1-2.31-.46,2.58,2.58,0,0,1-1.22-.74,1.59,1.59,0,0,1-.37-1V378.49H201a1.44,1.44,0,0,1-1-.34,2.65,2.65,0,0,1-.68-1.05,7.64,7.64,0,0,1-.43-1.88,23.41,23.41,0,0,1-.14-2.82,24.73,24.73,0,0,1,.14-2.91,7.71,7.71,0,0,1,.43-1.91,2.41,2.41,0,0,1,.68-1,1.52,1.52,0,0,1,1-.31h52a1.56,1.56,0,0,1,.94.31,2.3,2.3,0,0,1,.71,1,7.83,7.83,0,0,1,.43,1.91A25.16,25.16,0,0,1,255.21,372.4Z" transform="translate(-140.43 -305.07)"/><path class="cls-1" d="M316.39,437.92a1.6,1.6,0,0,1-.37,1,2.61,2.61,0,0,1-1.23.74,11.77,11.77,0,0,1-2.28.46,31.07,31.07,0,0,1-3.59.17,32.54,32.54,0,0,1-3.68-.17,11.21,11.21,0,0,1-2.28-.46,2.57,2.57,0,0,1-1.2-.74,1.59,1.59,0,0,1-.37-1v-29.8H273.82v29.8a1.68,1.68,0,0,1-.34,1,2.39,2.39,0,0,1-1.2.74,11.82,11.82,0,0,1-2.28.46,38,38,0,0,1-7.26,0,11.85,11.85,0,0,1-2.31-.46,2.58,2.58,0,0,1-1.23-.74,1.59,1.59,0,0,1-.37-1V368.29a1.58,1.58,0,0,1,.37-1,2.61,2.61,0,0,1,1.23-.74,12,12,0,0,1,2.31-.46,38.69,38.69,0,0,1,7.26,0,12,12,0,0,1,2.28.46,2.41,2.41,0,0,1,1.2.74,1.67,1.67,0,0,1,.34,1v27.07H301.4V368.29a1.59,1.59,0,0,1,.37-1,2.59,2.59,0,0,1,1.2-.74,11.36,11.36,0,0,1,2.28-.46,32.53,32.53,0,0,1,3.68-.17,31.07,31.07,0,0,1,3.59.17,11.94,11.94,0,0,1,2.28.46,2.63,2.63,0,0,1,1.23.74,1.59,1.59,0,0,1,.37,1v69.63Z" transform="translate(-140.43 -305.07)"/><path class="cls-1" d="M376.49,438a2.24,2.24,0,0,1-.23,1.05,1.82,1.82,0,0,1-1.08.71,10.75,10.75,0,0,1-2.51.4c-1.1.07-2.6,0.11-4.5,0.11-1.6,0-2.87,0-3.82-.11a8.62,8.62,0,0,1-2.25-.43,2.41,2.41,0,0,1-1.17-.8,4.43,4.43,0,0,1-.57-1.17l-6.61-16.47q-1.2-2.79-2.33-5a15.88,15.88,0,0,0-2.54-3.62,9.21,9.21,0,0,0-3.22-2.19,11.11,11.11,0,0,0-4.22-.74h-4.67v28.09a1.6,1.6,0,0,1-.37,1,2.6,2.6,0,0,1-1.23.74,11.79,11.79,0,0,1-2.28.46,38,38,0,0,1-7.26,0,11.86,11.86,0,0,1-2.31-.46,2.38,2.38,0,0,1-1.19-.74,1.67,1.67,0,0,1-.34-1V371a4.56,4.56,0,0,1,1.28-3.62,4.66,4.66,0,0,1,3.16-1.11h19.08q2.91,0,4.79.11t3.42,0.28a31.1,31.1,0,0,1,8,2.17,19.18,19.18,0,0,1,6,4,16.75,16.75,0,0,1,3.79,5.87,21.55,21.55,0,0,1,1.31,7.78,22.84,22.84,0,0,1-.94,6.75,17.34,17.34,0,0,1-2.76,5.44,18.22,18.22,0,0,1-4.5,4.16,24.42,24.42,0,0,1-6.09,2.85,16.93,16.93,0,0,1,3.1,1.94,16.33,16.33,0,0,1,2.74,2.76,26.58,26.58,0,0,1,2.42,3.7,47.73,47.73,0,0,1,2.22,4.7l6.21,14.53q0.85,2.17,1.14,3.16A6.08,6.08,0,0,1,376.49,438Zm-19.32-50a11,11,0,0,0-1.65-6.15,9,9,0,0,0-5.42-3.53,21,21,0,0,0-2.59-.46,36.62,36.62,0,0,0-4-.17h-6.72v20.91h7.63a18.3,18.3,0,0,0,5.58-.77,11.15,11.15,0,0,0,4-2.16,8.83,8.83,0,0,0,2.39-3.33A11.25,11.25,0,0,0,357.17,388Z" transform="translate(-140.43 -305.07)"/><path class="cls-1" d="M423.6,434.1a22.16,22.16,0,0,1-.14,2.77,6.89,6.89,0,0,1-.42,1.79,2.3,2.3,0,0,1-.71,1,1.54,1.54,0,0,1-.94.31h-37a4.66,4.66,0,0,1-3.16-1.11,4.56,4.56,0,0,1-1.28-3.62V371a4.57,4.57,0,0,1,1.28-3.62,4.67,4.67,0,0,1,3.16-1.11h36.81a1.54,1.54,0,0,1,.91.29,2.22,2.22,0,0,1,.68,1,7.88,7.88,0,0,1,.43,1.82,22.7,22.7,0,0,1,.14,2.82,21.56,21.56,0,0,1-.14,2.71,7.36,7.36,0,0,1-.43,1.79,2.45,2.45,0,0,1-.68,1,1.44,1.44,0,0,1-.91.31H394.83v18H417.1a1.57,1.57,0,0,1,.94.31,2.36,2.36,0,0,1,.71,1,6.86,6.86,0,0,1,.43,1.77,26,26,0,0,1,0,5.44,6.77,6.77,0,0,1-.43,1.74,2.14,2.14,0,0,1-.71.94,1.67,1.67,0,0,1-.94.28H394.83v20.8h26.55a1.54,1.54,0,0,1,.94.31,2.3,2.3,0,0,1,.71,1,6.89,6.89,0,0,1,.42,1.8A22.19,22.19,0,0,1,423.6,434.1Z" transform="translate(-140.43 -305.07)"/><path class="cls-1" d="M471.31,434.1a22,22,0,0,1-.14,2.77,7.06,7.06,0,0,1-.42,1.79,2.28,2.28,0,0,1-.71,1,1.55,1.55,0,0,1-.94.31H432a4.67,4.67,0,0,1-3.16-1.11,4.57,4.57,0,0,1-1.28-3.62V371a4.57,4.57,0,0,1,1.28-3.62,4.67,4.67,0,0,1,3.16-1.11h36.81a1.53,1.53,0,0,1,.91.29,2.23,2.23,0,0,1,.68,1,7.67,7.67,0,0,1,.43,1.82,23.15,23.15,0,0,1,.14,2.82,22,22,0,0,1-.14,2.71,7.17,7.17,0,0,1-.43,1.79,2.46,2.46,0,0,1-.68,1,1.43,1.43,0,0,1-.91.31H442.53v18h22.28a1.57,1.57,0,0,1,.94.31,2.35,2.35,0,0,1,.71,1,6.73,6.73,0,0,1,.43,1.77,26.55,26.55,0,0,1,0,5.44,6.63,6.63,0,0,1-.43,1.74,2.13,2.13,0,0,1-.71.94,1.67,1.67,0,0,1-.94.28H442.53v20.8h26.55a1.55,1.55,0,0,1,.94.31,2.29,2.29,0,0,1,.71,1,7.05,7.05,0,0,1,.42,1.8A22,22,0,0,1,471.31,434.1Z" transform="translate(-140.43 -305.07)"/><path class="cls-1" d="M226.06,446.66a3.4,3.4,0,0,1-.69,2.48,3.7,3.7,0,0,1-2.55.67,3.65,3.65,0,0,1-2.5-.65,3.36,3.36,0,0,1-.68-2.44,3.43,3.43,0,0,1,.69-2.49,3.74,3.74,0,0,1,2.55-.66,3.66,3.66,0,0,1,2.5.65A3.36,3.36,0,0,1,226.06,446.66Zm-0.6,37.91a0.68,0.68,0,0,1-.13.42,1,1,0,0,1-.41.3,2.83,2.83,0,0,1-.79.19,10.72,10.72,0,0,1-1.29.06,10.39,10.39,0,0,1-1.26-.06,3,3,0,0,1-.8-0.19,0.84,0.84,0,0,1-.41-0.3,0.76,0.76,0,0,1-.11-0.42V456.23a0.81,0.81,0,0,1,.11-0.41,0.83,0.83,0,0,1,.41-0.31,3.21,3.21,0,0,1,.8-0.19,10.73,10.73,0,0,1,1.26-.06,11.07,11.07,0,0,1,1.29.06,3,3,0,0,1,.79.19,0.94,0.94,0,0,1,.41.31,0.73,0.73,0,0,1,.13.41v28.34Z" transform="translate(-140.43 -305.07)"/><path class="cls-1" d="M257.22,484.57a0.69,0.69,0,0,1-.13.42,1,1,0,0,1-.41.3,2.83,2.83,0,0,1-.79.19,10.37,10.37,0,0,1-1.26.06,10.72,10.72,0,0,1-1.29-.06,2.83,2.83,0,0,1-.79-0.19,1,1,0,0,1-.41-0.3,0.68,0.68,0,0,1-.13-0.42V468a16.27,16.27,0,0,0-.38-3.9,8,8,0,0,0-1.1-2.55,4.78,4.78,0,0,0-1.87-1.64,6,6,0,0,0-2.66-.57,6.72,6.72,0,0,0-3.9,1.38,21.23,21.23,0,0,0-4.09,4.06v19.81a0.69,0.69,0,0,1-.13.42,1,1,0,0,1-.41.3,2.82,2.82,0,0,1-.79.19,10.7,10.7,0,0,1-1.29.06,10.36,10.36,0,0,1-1.26-.06,3,3,0,0,1-.8-0.19,0.84,0.84,0,0,1-.41-0.3,0.75,0.75,0,0,1-.11-0.42V456.23a0.88,0.88,0,0,1,.09-0.43,0.83,0.83,0,0,1,.38-0.32,2.07,2.07,0,0,1,.72-0.19,13.74,13.74,0,0,1,2.31,0,1.81,1.81,0,0,1,.71.19,1,1,0,0,1,.36.32,0.78,0.78,0,0,1,.11.43V460a17.42,17.42,0,0,1,4.77-3.92,10.21,10.21,0,0,1,4.8-1.25,10.73,10.73,0,0,1,4.77,1,8.64,8.64,0,0,1,3.13,2.57,10.29,10.29,0,0,1,1.72,3.77,22.36,22.36,0,0,1,.52,5.18v17.29Z" transform="translate(-140.43 -305.07)"/><path class="cls-1" d="M279.17,482.49a6.66,6.66,0,0,1-.13,1.45,1.64,1.64,0,0,1-.38.79,2.53,2.53,0,0,1-.76.47,6.48,6.48,0,0,1-1.15.36q-0.65.14-1.37,0.23a10.61,10.61,0,0,1-1.45.1,10.91,10.91,0,0,1-3.78-.58,6.15,6.15,0,0,1-2.58-1.76,7.26,7.26,0,0,1-1.46-3,17.52,17.52,0,0,1-.46-4.26V459.72h-4a0.85,0.85,0,0,1-.76-0.5,3.51,3.51,0,0,1-.28-1.64,5.36,5.36,0,0,1,.08-1,2.91,2.91,0,0,1,.2-0.68,0.82,0.82,0,0,1,.33-0.38,1,1,0,0,1,.46-0.11h3.94v-6.73a0.79,0.79,0,0,1,.11-0.41,0.89,0.89,0,0,1,.41-0.33,2.63,2.63,0,0,1,.8-0.2,10.29,10.29,0,0,1,1.26-.06,10.63,10.63,0,0,1,1.29.06,2.45,2.45,0,0,1,.79.2,1,1,0,0,1,.41.33,0.73,0.73,0,0,1,.13.41v6.73h7.27a0.87,0.87,0,0,1,.44.11,1,1,0,0,1,.33.38,2.18,2.18,0,0,1,.21.68,6.86,6.86,0,0,1,.06,1,3.52,3.52,0,0,1-.28,1.64,0.85,0.85,0,0,1-.76.5h-7.27v15.81a9,9,0,0,0,.87,4.42,3.27,3.27,0,0,0,3.1,1.5,5.28,5.28,0,0,0,1.29-.14,10,10,0,0,0,1-.3,8.06,8.06,0,0,0,.76-0.3,1.5,1.5,0,0,1,.57-0.14,0.59,0.59,0,0,1,.3.08,0.52,0.52,0,0,1,.22.3,3.64,3.64,0,0,1,.14.6A5.89,5.89,0,0,1,279.17,482.49Z" transform="translate(-140.43 -305.07)"/><path class="cls-1" d="M308,469.17a2.18,2.18,0,0,1-.62,1.75,2.14,2.14,0,0,1-1.41.52H287.28a17.44,17.44,0,0,0,.47,4.25,8.2,8.2,0,0,0,1.58,3.24,7.09,7.09,0,0,0,2.88,2.08,11.4,11.4,0,0,0,4.33.72,17.72,17.72,0,0,0,3.61-.33,22.32,22.32,0,0,0,2.74-.74c0.77-.28,1.4-0.52,1.9-0.74a3.09,3.09,0,0,1,1.12-.33,0.68,0.68,0,0,1,.66.44,2.23,2.23,0,0,1,.14.61,8.16,8.16,0,0,1,0,1,6.94,6.94,0,0,1,0,.71c0,0.2,0,.38-0.08.53a1.38,1.38,0,0,1-.16.43,2,2,0,0,1-.28.37,4.8,4.8,0,0,1-1,.56,14.77,14.77,0,0,1-2.2.77c-0.9.25-1.95,0.47-3.13,0.68a23.15,23.15,0,0,1-3.8.3,17.62,17.62,0,0,1-6.13-1,11.44,11.44,0,0,1-4.42-2.9,12.42,12.42,0,0,1-2.71-4.82,22.5,22.5,0,0,1-.91-6.74,21.22,21.22,0,0,1,.94-6.57,13.92,13.92,0,0,1,2.72-4.94,11.91,11.91,0,0,1,4.3-3.12,14.19,14.19,0,0,1,5.64-1.09,13.65,13.65,0,0,1,5.68,1.07,10.78,10.78,0,0,1,3.86,2.88,11.56,11.56,0,0,1,2.22,4.25,18.55,18.55,0,0,1,.71,5.21v0.94Zm-5.23-1.54a9.47,9.47,0,0,0-1.82-6.42,6.94,6.94,0,0,0-5.69-2.33,7.55,7.55,0,0,0-3.39.72,7.38,7.38,0,0,0-2.44,1.93,8.74,8.74,0,0,0-1.52,2.78,11.67,11.67,0,0,0-.6,3.32h15.46Z" transform="translate(-140.43 -305.07)"/><path class="cls-1" d="M330.17,458.09q0,0.69,0,1.17a2.93,2.93,0,0,1-.13.74,1.06,1.06,0,0,1-.24.41,0.53,0.53,0,0,1-.39.14,1.72,1.72,0,0,1-.61-0.14c-0.24-.1-0.52-0.19-0.82-0.28s-0.64-.19-1-0.27a5.65,5.65,0,0,0-1.23-.13,4,4,0,0,0-1.54.32,5.92,5.92,0,0,0-1.59,1,13,13,0,0,0-1.75,1.92q-0.91,1.2-2,2.93v18.64a0.68,0.68,0,0,1-.13.42,0.94,0.94,0,0,1-.41.3,2.78,2.78,0,0,1-.79.19,10.71,10.71,0,0,1-1.29.06,10.4,10.4,0,0,1-1.26-.06,3,3,0,0,1-.8-0.19,0.85,0.85,0,0,1-.41-0.3,0.74,0.74,0,0,1-.11-0.42V456.23a0.89,0.89,0,0,1,.1-0.43,0.83,0.83,0,0,1,.38-0.32,2.08,2.08,0,0,1,.73-0.19,13.71,13.71,0,0,1,2.31,0,1.82,1.82,0,0,1,.71.19,1,1,0,0,1,.36.32,0.79,0.79,0,0,1,.11.43v4.12a21.91,21.91,0,0,1,2.19-2.77,12.39,12.39,0,0,1,1.93-1.69,6.07,6.07,0,0,1,1.81-.85,7,7,0,0,1,1.81-.24c0.27,0,.58,0,0.93,0a8.59,8.59,0,0,1,1.08.17,10.16,10.16,0,0,1,1,.28,2.19,2.19,0,0,1,.64.32,0.87,0.87,0,0,1,.25.3,1.71,1.71,0,0,1,.11.36,4.11,4.11,0,0,1,.06.65C330.17,457.22,330.17,457.61,330.17,458.09Z" transform="translate(-140.43 -305.07)"/><path class="cls-1" d="M355.19,484.6a0.66,0.66,0,0,1-.25.56,1.81,1.81,0,0,1-.69.29,6.87,6.87,0,0,1-1.29.09,7.5,7.5,0,0,1-1.31-.09,1.6,1.6,0,0,1-.71-0.29,0.71,0.71,0,0,1-.22-0.56v-2.84a14,14,0,0,1-4.14,3.09,11,11,0,0,1-4.83,1.11,13.15,13.15,0,0,1-4-.59,8.76,8.76,0,0,1-3.09-1.68,7.58,7.58,0,0,1-2-2.71,9,9,0,0,1-.71-3.65,8.44,8.44,0,0,1,1-4.15,8.09,8.09,0,0,1,2.8-2.93,13.7,13.7,0,0,1,4.47-1.75,28,28,0,0,1,6-.58H350v-2.2a10.85,10.85,0,0,0-.35-2.9,4.93,4.93,0,0,0-1.12-2.09,4.77,4.77,0,0,0-2-1.26,9.17,9.17,0,0,0-3-.43,11.91,11.91,0,0,0-3.45.46,19,19,0,0,0-2.68,1c-0.77.37-1.4,0.7-1.92,1a2.64,2.64,0,0,1-1.15.46,0.78,0.78,0,0,1-.44-0.13,1.06,1.06,0,0,1-.33-0.38,1.91,1.91,0,0,1-.2-0.65,5.37,5.37,0,0,1-.07-0.86,5.23,5.23,0,0,1,.11-1.24,1.82,1.82,0,0,1,.53-0.87,6.92,6.92,0,0,1,1.46-1,16.79,16.79,0,0,1,2.39-1,21.09,21.09,0,0,1,3-.76,17.69,17.69,0,0,1,3.24-.3,17,17,0,0,1,5.2.7,8.46,8.46,0,0,1,3.46,2,7.85,7.85,0,0,1,1.92,3.32,16,16,0,0,1,.6,4.63V484.6ZM350,471.66h-4.44a17,17,0,0,0-3.72.36,7.74,7.74,0,0,0-2.61,1.07,4.43,4.43,0,0,0-1.53,1.7,5.12,5.12,0,0,0-.49,2.28,4.56,4.56,0,0,0,1.4,3.51,5.51,5.51,0,0,0,3.92,1.31,7.26,7.26,0,0,0,3.79-1,16.14,16.14,0,0,0,3.67-3.18v-6Z" transform="translate(-140.43 -305.07)"/><path class="cls-1" d="M382.84,480.25c0,0.36,0,.67,0,0.93a3.57,3.57,0,0,1-.11.66,2.67,2.67,0,0,1-.19.47,3.24,3.24,0,0,1-.5.6,7.78,7.78,0,0,1-1.34,1,13.73,13.73,0,0,1-2.13,1,15.69,15.69,0,0,1-2.57.74,14.09,14.09,0,0,1-2.86.29,13.73,13.73,0,0,1-5.41-1,10.2,10.2,0,0,1-4-2.94,13.43,13.43,0,0,1-2.43-4.76,23.07,23.07,0,0,1-.83-6.5,22.34,22.34,0,0,1,1-7.2,13.55,13.55,0,0,1,2.8-4.92,11.11,11.11,0,0,1,4.19-2.86,14.38,14.38,0,0,1,5.21-.92,13.53,13.53,0,0,1,2.63.25,14.15,14.15,0,0,1,2.35.66,10.24,10.24,0,0,1,1.9.94,7.83,7.83,0,0,1,1.21.92,4.38,4.38,0,0,1,.52.6,2.46,2.46,0,0,1,.24.52,3.54,3.54,0,0,1,.13.68c0,0.25,0,.56,0,0.94a3.72,3.72,0,0,1-.28,1.71,0.81,0.81,0,0,1-.7.49,1.8,1.8,0,0,1-1.09-.52,17,17,0,0,0-1.56-1.15,12,12,0,0,0-2.28-1.15,8.69,8.69,0,0,0-3.16-.52,6.56,6.56,0,0,0-5.75,2.89q-2,2.88-2,8.36a19.85,19.85,0,0,0,.52,4.8,10,10,0,0,0,1.53,3.45,6.28,6.28,0,0,0,2.47,2.06,8,8,0,0,0,3.35.68,8.09,8.09,0,0,0,3.15-.57,13.21,13.21,0,0,0,2.34-1.24c0.66-.45,1.22-0.87,1.67-1.23a2,2,0,0,1,1.05-.55,0.57,0.57,0,0,1,.38.13,1,1,0,0,1,.27.43,3.16,3.16,0,0,1,.16.76A10.27,10.27,0,0,1,382.84,480.25Z" transform="translate(-140.43 -305.07)"/><path class="cls-1" d="M412.13,455.41a1.6,1.6,0,0,1,1.29.43,1.91,1.91,0,0,1,.34,1.24v27.49a0.68,0.68,0,0,1-.13.42,0.94,0.94,0,0,1-.42.3,3,3,0,0,1-.8.19,10.05,10.05,0,0,1-1.23.06,10.66,10.66,0,0,1-1.29-.06,3,3,0,0,1-.8-0.19,0.93,0.93,0,0,1-.43-0.3,0.68,0.68,0,0,1-.13-0.42V459.72H393.9v15.81a9,9,0,0,0,.87,4.42,3.27,3.27,0,0,0,3.1,1.5,5.27,5.27,0,0,0,1.29-.14,9.87,9.87,0,0,0,1-.3,8,8,0,0,0,.75-0.3,1.53,1.53,0,0,1,.57-0.14,0.59,0.59,0,0,1,.3.08,0.52,0.52,0,0,1,.22.3,3.34,3.34,0,0,1,.14.6,6,6,0,0,1,.06.94,6.3,6.3,0,0,1-.13,1.43,1.72,1.72,0,0,1-.38.79,2.32,2.32,0,0,1-.76.49,6.46,6.46,0,0,1-1.15.36q-0.65.14-1.37,0.23a10.61,10.61,0,0,1-1.45.1,10.9,10.9,0,0,1-3.78-.58,6.16,6.16,0,0,1-2.58-1.76,7.29,7.29,0,0,1-1.47-3,17.58,17.58,0,0,1-.46-4.26V459.72h-4a0.84,0.84,0,0,1-.76-0.5,3.48,3.48,0,0,1-.28-1.64,5.39,5.39,0,0,1,.08-1,2.83,2.83,0,0,1,.2-0.68,0.82,0.82,0,0,1,.33-0.38,1,1,0,0,1,.46-0.11h3.93v-6.73a0.77,0.77,0,0,1,.11-0.41,0.89,0.89,0,0,1,.41-0.33,2.63,2.63,0,0,1,.8-0.2,10.31,10.31,0,0,1,1.26-.06,10.65,10.65,0,0,1,1.29.06,2.4,2.4,0,0,1,.79.2,1,1,0,0,1,.41.33,0.73,0.73,0,0,1,.13.41v6.73h18.23Zm2.24-8.75a3.4,3.4,0,0,1-.69,2.48,3.7,3.7,0,0,1-2.55.67,3.64,3.64,0,0,1-2.5-.65,3.35,3.35,0,0,1-.68-2.44,3.43,3.43,0,0,1,.69-2.49,3.74,3.74,0,0,1,2.55-.66,3.65,3.65,0,0,1,2.5.65A3.36,3.36,0,0,1,414.37,446.66Z" transform="translate(-140.43 -305.07)"/><path class="cls-1" d="M444.39,456.17a2,2,0,0,1,0,.27c0,0.09,0,.19,0,0.3l-0.08.34c0,0.13-.07.27-0.11,0.41l-9.67,26.92a1.63,1.63,0,0,1-.33.57,1.41,1.41,0,0,1-.61.35,5.16,5.16,0,0,1-1,.17c-0.42,0-.94,0-1.57,0s-1.16,0-1.58-.06a5,5,0,0,1-1-.19,1.52,1.52,0,0,1-.62-0.34,1.62,1.62,0,0,1-.34-0.54l-9.64-26.92c-0.08-.25-0.15-0.47-0.2-0.67a2.8,2.8,0,0,1-.1-0.43,2.16,2.16,0,0,1,0-.23,0.77,0.77,0,0,1,.13-0.44,0.79,0.79,0,0,1,.43-0.3,2.75,2.75,0,0,1,.79-0.14c0.32,0,.73,0,1.21,0s1.1,0,1.46,0a2.94,2.94,0,0,1,.85.17,1,1,0,0,1,.44.31,2.36,2.36,0,0,1,.27.47l8,23.36L431.1,480l0.09-.38,7.9-23.36a1.15,1.15,0,0,1,.22-0.47,1.2,1.2,0,0,1,.46-0.31,2.84,2.84,0,0,1,.82-0.17c0.35,0,.8,0,1.37,0s0.88,0,1.2,0a2.18,2.18,0,0,1,.74.16,0.86,0.86,0,0,1,.38.3A0.78,0.78,0,0,1,444.39,456.17Z" transform="translate(-140.43 -305.07)"/><path class="cls-1" d="M472.2,469.17a2.18,2.18,0,0,1-.62,1.75,2.14,2.14,0,0,1-1.41.52H451.52a17.57,17.57,0,0,0,.47,4.25,8.23,8.23,0,0,0,1.58,3.24,7.09,7.09,0,0,0,2.88,2.08,11.41,11.41,0,0,0,4.33.72,17.71,17.71,0,0,0,3.61-.33,22.39,22.39,0,0,0,2.74-.74c0.77-.28,1.4-0.52,1.9-0.74a3.07,3.07,0,0,1,1.12-.33,0.72,0.72,0,0,1,.39.11,0.74,0.74,0,0,1,.27.34,2.3,2.3,0,0,1,.14.61,8.45,8.45,0,0,1,0,1,6.55,6.55,0,0,1,0,.71c0,0.2,0,.38-0.08.53a1.34,1.34,0,0,1-.16.43,2,2,0,0,1-.28.37,4.75,4.75,0,0,1-1,.56,14.68,14.68,0,0,1-2.2.77c-0.91.25-1.95,0.47-3.13,0.68a23.15,23.15,0,0,1-3.79.3,17.62,17.62,0,0,1-6.13-1,11.44,11.44,0,0,1-4.42-2.9,12.41,12.41,0,0,1-2.71-4.82,22.53,22.53,0,0,1-.91-6.74,21.23,21.23,0,0,1,.95-6.57A14,14,0,0,1,449.8,459a11.91,11.91,0,0,1,4.3-3.12,14.18,14.18,0,0,1,5.63-1.09,13.65,13.65,0,0,1,5.69,1.07,10.78,10.78,0,0,1,3.86,2.88,11.56,11.56,0,0,1,2.22,4.25,18.57,18.57,0,0,1,.71,5.21v0.94ZM467,467.63a9.48,9.48,0,0,0-1.82-6.42,6.93,6.93,0,0,0-5.69-2.33,7.57,7.57,0,0,0-3.39.72,7.38,7.38,0,0,0-2.44,1.93,8.62,8.62,0,0,0-1.52,2.78,11.63,11.63,0,0,0-.6,3.32H467Z" transform="translate(-140.43 -305.07)"/><path class="cls-2" d="M219.5,346.08a26.08,26.08,0,0,1-.26,4,8.52,8.52,0,0,1-.78,2.6,3.57,3.57,0,0,1-1.21,1.41,2.75,2.75,0,0,1-1.47.43H188.94v28.91a2.6,2.6,0,0,1-.43,1.49A3.38,3.38,0,0,1,187,386a10.67,10.67,0,0,1-2.76.73,36.59,36.59,0,0,1-8.63,0,10.66,10.66,0,0,1-2.76-.73,3.73,3.73,0,0,1-1.51-1.11,2.43,2.43,0,0,1-.47-1.49V354.52H144.14a2.53,2.53,0,0,1-1.42-.43,3.71,3.71,0,0,1-1.16-1.41,9.29,9.29,0,0,1-.82-2.6,22.27,22.27,0,0,1-.3-4,26.23,26.23,0,0,1,.26-4,9.5,9.5,0,0,1,.73-2.64,3.56,3.56,0,0,1,1.08-1.41,2.33,2.33,0,0,1,1.38-.43h27V308.82a2.82,2.82,0,0,1,.47-1.58,3.44,3.44,0,0,1,1.51-1.2,10.78,10.78,0,0,1,2.76-.72,36.18,36.18,0,0,1,8.63,0,10.79,10.79,0,0,1,2.76.72,3.16,3.16,0,0,1,1.47,1.2,3,3,0,0,1,.43,1.58v28.82H216a2.4,2.4,0,0,1,1.34.43,3.4,3.4,0,0,1,1.12,1.41,9.56,9.56,0,0,1,.73,2.64A26.25,26.25,0,0,1,219.5,346.08Z" transform="translate(-140.43 -305.07)"/></svg>