<?xml version="1.0" encoding="utf-8"?>
<!-- Generator: Adobe Illustrator 19.2.1, SVG Export Plug-In . SVG Version: 6.00 Build 0)  -->
<!DOCTYPE svg PUBLIC "-//W3C//DTD SVG 1.1//EN" "http://www.w3.org/Graphics/SVG/1.1/DTD/svg11.dtd">
<svg version="1.1" id="Layer_1" xmlns="http://www.w3.org/2000/svg" xmlns:xlink="http://www.w3.org/1999/xlink" x="0px" y="0px"
	 viewBox="0 0 146 130" style="enable-background:new 0 0 146 130;" xml:space="preserve">
<style type="text/css">
	.st0{fill:#444444;}
	.st1{opacity:0.3;}
	.st2{opacity:0.4;}
	.st3{fill:#1E1E1E;}
	.st4{fill:none;stroke:#5FD9FF;stroke-width:2;stroke-miterlimit:10;}
	.st5{fill:none;stroke:#0AB8FA;stroke-width:2;stroke-miterlimit:10;}
	.st6{fill:#0AB8FA;}
	.st7{fill:#5FD9FF;}
	.st8{fill:#FFFFFF;}
	.st9{fill:#D2D7D9;}
	.st10{fill:#2E2D2F;}
</style>
<g>
	<g>
		<g>
			<path class="st0" d="M93.9,49.4c-4.3-1-8.6,1.7-9.6,5.9c-1,4.3,1.7,8.6,6,9.6c4.3,1,8.6-1.7,9.6-5.9
				C100.9,54.7,98.2,50.4,93.9,49.4z M91.2,61c-2.2-0.5-3.5-2.6-3-4.8c0.5-2.1,2.6-3.5,4.8-3c2.2,0.5,3.5,2.6,3,4.8
				C95.6,60.2,93.4,61.5,91.2,61z"/>
			<path class="st0" d="M117.3,64.2l0.8-0.2l0.5-0.7l-0.1-0.9l-0.7-0.6l-3.5-1.1l0.2-1.5l3.6-0.3l0.8-0.4l0.3-0.8l-0.3-0.8l-0.8-0.4
				l-3.6-0.4l-0.1-1.6l3.5-1l0.7-0.5l0.1-0.8l-0.5-0.7l-0.8-0.3l-3.6,0.3l-0.5-1.5l3.2-1.7l0.5-0.7l0-0.9l-0.6-0.6l-0.9-0.1
				l-3.5,1.1l-0.8-1.4l2.8-2.3l0.4-0.8l-0.2-0.8l-0.7-0.5l-0.9,0.1l-3.2,1.8l-1-1.2l2.2-2.8l0.2-0.8l-0.4-0.8l-0.8-0.3l-0.8,0.3
				l-2.7,2.4l-1.3-0.9l1.6-3.3l0-0.9l-0.5-0.7l-0.9-0.2l-0.7,0.4l-2.2,2.9l-1.4-0.7l0.8-3.5l-0.1-0.8l-0.7-0.6l-0.9,0l-0.6,0.6
				l-1.5,3.3l-1.5-0.4l0.1-3.6l-0.3-0.8l-0.8-0.4l-0.8,0.2L94,31.4l-0.8,3.5l-1.6,0L91,31.3l-0.5-0.7l-0.8-0.2l-0.8,0.4l-0.3,0.8
				l0,3.6L87,35.4l-1.4-3.3L85,31.5l-0.9-0.1l-0.7,0.5l-0.2,0.8l0.7,3.5l-1.4,0.6l-2.1-3l-0.7-0.5l-0.9,0.1l-0.6,0.7l0,0.9l1.5,3.3
				l-1.3,0.9l-2.6-2.5l-0.8-0.3l-0.8,0.3l-0.4,0.8l0.2,0.8l2.1,2.9l-1.1,1.1L72,40.6l-0.9-0.1l-0.7,0.5l-0.2,0.8l0.4,0.8l2.7,2.4
				l-0.8,1.3L69,45.1l-0.9,0.1l-0.6,0.6l-0.1,0.9l0.5,0.7l3.1,1.8l-0.5,1.5L67,50.1l-0.8,0.2l-0.5,0.7l0.1,0.9l0.7,0.6l3.5,1.1
				l-0.2,1.5l-3.6,0.3l-0.8,0.4L65,56.7l0.3,0.8l0.8,0.4l3.6,0.4l0.1,1.5l-3.5,1l-0.7,0.5l-0.1,0.9l0.5,0.7l0.8,0.3l3.6-0.3l0.5,1.5
				l-3.2,1.7l-0.5,0.7l0,0.9l0.6,0.6l0.9,0.1l3.5-1.1l0.8,1.4L70.1,71l-0.4,0.8l0.2,0.8l0.7,0.5l0.9-0.1l3.2-1.8l1,1.2l-2.2,2.9
				l-0.2,0.8l0.4,0.8l0.8,0.3l0.8-0.3l2.7-2.4l1.3,0.9l-1.6,3.3l0,0.9l0.5,0.7l0.9,0.2l0.7-0.4l2.2-2.9l1.4,0.7l-0.8,3.5l0.1,0.8
				l0.7,0.5l0.9,0l0.6-0.6l1.5-3.3l1.5,0.4l-0.1,3.6l0.3,0.8l0.8,0.4l0.8-0.2l0.5-0.7l0.8-3.5l1.6,0l0.7,3.5l0.5,0.7l0.8,0.2
				l0.8-0.4l0.3-0.8l0-3.6l1.5-0.3l1.4,3.3l0.6,0.6l0.9,0.1l0.7-0.5l0.2-0.8l-0.7-3.5l1.4-0.6l2.1,3l0.7,0.5l0.9-0.1l0.6-0.7l0-0.9
				l-1.5-3.3l1.3-0.9l2.6,2.5l0.8,0.3l0.8-0.3l0.4-0.8l-0.2-0.8l-2.1-2.9l1.1-1.1l3.1,1.9l0.9,0.1l0.7-0.5l0.2-0.8l-0.4-0.8
				l-2.7-2.4l0.8-1.3l3.4,1.2l0.9,0l0.6-0.6l0.1-0.9l-0.5-0.7l-3.1-1.8l0.5-1.5L117.3,64.2L117.3,64.2z M109.6,61.2
				c-2.2,9.6-11.8,15.5-21.5,13.3c-9.7-2.2-15.7-11.8-13.5-21.4c2.2-9.6,11.8-15.5,21.5-13.3C105.8,42.1,111.9,51.6,109.6,61.2z"/>
		</g>
		<g class="st1">
			<path class="st0" d="M79.7,29.2c0,0-2.6-1-2.9-1.1c-0.2-0.1-0.2-0.6-0.2-0.6c0,0,0,0,0,0c0-0.1,0.1-0.3,0.1-0.4
				c0-0.1,0-0.3,0-0.4c0,0,0,0,0,0c0,0,0.1-0.5,0.4-0.6c0.2,0,3-0.3,3-0.3c0.3,0,0.5-0.2,0.5-0.4c0.1-0.6,0-0.9-0.1-1.4
				c0-0.2-0.3-0.4-0.6-0.4c0,0-2.8-0.1-3.1-0.1c-0.2,0-0.4-0.5-0.4-0.5c0,0,0,0,0,0c0-0.3-0.1-0.5-0.2-0.8c0,0,0,0,0,0
				c0,0-0.1-0.5,0.2-0.6c0.2-0.1,2.7-1.3,2.7-1.3c0.2-0.1,0.4-0.4,0.3-0.6c-0.1-0.6-0.3-0.8-0.5-1.3C79,18,78.7,18,78.4,18
				c0,0-2.7,0.9-2.9,1c-0.2,0.1-0.6-0.4-0.6-0.4c0,0,0,0,0,0c-0.1-0.2-0.3-0.4-0.4-0.7c0,0,0,0,0,0c0,0-0.2-0.5-0.1-0.7
				c0.2-0.2,2.1-2.2,2.1-2.2c0.2-0.2,0.2-0.5,0.1-0.7c-0.3-0.5-0.5-0.7-1-1.1c-0.2-0.1-0.5-0.1-0.7,0.1c0,0-2.2,1.8-2.4,1.9
				c-0.2,0.1-0.6-0.1-0.6-0.1c0,0,0,0,0,0c-0.2-0.2-0.4-0.3-0.6-0.5c0,0,0,0,0,0c0,0-0.4-0.4-0.3-0.6c0.1-0.2,1.2-2.8,1.2-2.8
				c0.1-0.2,0.1-0.5-0.1-0.7c-0.5-0.3-0.7-0.5-1.3-0.7c-0.2-0.1-0.5,0.1-0.6,0.3c0,0-1.5,2.4-1.6,2.6c-0.1,0.2-0.7,0.1-0.7,0.1
				c0,0,0,0,0,0c-0.2-0.1-0.5-0.2-0.8-0.2c0,0,0,0,0,0c0,0-0.5-0.2-0.5-0.5c0-0.2,0.2-3,0.2-3c0-0.3-0.1-0.5-0.4-0.6
				c-0.6-0.2-0.8-0.2-1.4-0.2c-0.2,0-0.4,0.2-0.5,0.5c0,0-0.5,2.8-0.6,3c0,0.2-0.6,0.3-0.6,0.3c0,0,0,0,0,0c-0.3,0-0.5,0-0.8,0
				c0,0,0,0,0,0c0,0-0.5,0-0.6-0.3c-0.1-0.2-0.8-2.9-0.8-2.9c-0.1-0.2-0.3-0.5-0.5-0.4c-0.6,0-0.9,0.1-1.4,0.3
				c-0.2,0.1-0.3,0.4-0.3,0.6c0,0,0.4,2.8,0.5,3c0,0.2-0.4,0.5-0.4,0.5c0,0,0,0,0,0c-0.2,0.1-0.5,0.2-0.7,0.3c0,0,0,0,0,0
				c0,0-0.5,0.1-0.7,0c-0.1-0.2-1.8-2.5-1.8-2.5c-0.2-0.2-0.4-0.3-0.7-0.2c-0.5,0.2-0.8,0.4-1.2,0.8c-0.2,0.1-0.2,0.5-0.1,0.7
				c0,0,1.4,2.5,1.5,2.7c0.1,0.2-0.2,0.6-0.2,0.6c0,0,0,0,0,0c-0.2,0.2-0.4,0.3-0.6,0.5c0,0,0,0,0,0c0,0-0.4,0.3-0.6,0.2
				c-0.2-0.1-2.5-1.7-2.5-1.7c-0.2-0.1-0.5-0.1-0.7,0c-0.4,0.4-0.6,0.6-0.9,1.1c-0.1,0.2,0,0.5,0.2,0.7c0,0,2.1,1.9,2.3,2
				c0.2,0.2,0,0.7,0,0.7c0,0,0,0,0,0c-0.1,0.2-0.3,0.5-0.4,0.7c0,0,0,0,0,0c0,0-0.3,0.4-0.5,0.4c-0.2-0.1-3-0.7-3-0.7
				c-0.3-0.1-0.6,0-0.6,0.2c-0.2,0.5-0.3,0.8-0.4,1.4c0,0.2,0.1,0.5,0.4,0.6c0,0,2.6,1,2.9,1.1c0.2,0.1,0.2,0.6,0.2,0.6c0,0,0,0,0,0
				c0,0.1-0.1,0.3-0.1,0.4c0,0.1,0,0.3,0,0.4c0,0,0,0,0,0c0,0-0.1,0.5-0.4,0.6c-0.2,0-3,0.3-3,0.3c-0.3,0-0.5,0.2-0.5,0.5
				c-0.1,0.6,0,0.9,0.1,1.4c0,0.2,0.3,0.4,0.6,0.4c0,0,2.8,0.1,3.1,0.1c0.2,0,0.4,0.5,0.4,0.5c0,0,0,0,0,0c0.1,0.3,0.1,0.5,0.2,0.8
				c0,0,0,0,0,0c0,0,0.1,0.5-0.2,0.6c-0.2,0.1-2.7,1.3-2.7,1.3c-0.2,0.1-0.4,0.4-0.3,0.6c0.1,0.6,0.3,0.8,0.5,1.3
				c0.1,0.2,0.4,0.3,0.7,0.2c0,0,2.7-0.9,2.9-1c0.2-0.1,0.6,0.3,0.6,0.3c0,0,0,0,0,0c0.1,0.2,0.3,0.5,0.4,0.7c0,0,0,0,0,0
				c0,0,0.2,0.5,0.1,0.7c-0.2,0.2-2.1,2.2-2.1,2.2c-0.2,0.2-0.2,0.5-0.1,0.7c0.3,0.5,0.5,0.7,1,1c0.2,0.1,0.5,0.1,0.7-0.1
				c0,0,2.2-1.8,2.4-1.9c0.2-0.1,0.6,0.1,0.6,0.1c0,0,0,0,0,0c0.2,0.2,0.4,0.3,0.6,0.5c0,0,0,0,0,0c0,0,0.4,0.4,0.3,0.6
				c-0.1,0.2-1.2,2.8-1.2,2.8c-0.1,0.2-0.1,0.5,0.1,0.7c0.5,0.3,0.7,0.5,1.3,0.7c0.2,0.1,0.5-0.1,0.6-0.3c0,0,1.5-2.4,1.6-2.6
				c0.1-0.2,0.7-0.1,0.7-0.1c0,0,0,0,0,0c0.2,0.1,0.5,0.2,0.8,0.2c0,0,0,0,0,0c0,0,0.5,0.2,0.5,0.5c0,0.2-0.2,3-0.2,3
				c0,0.3,0.1,0.5,0.4,0.6c0.6,0.1,0.8,0.2,1.4,0.2c0.2,0,0.4-0.2,0.5-0.5c0,0,0.5-2.8,0.6-3c0-0.2,0.6-0.3,0.6-0.3c0,0,0,0,0,0
				c0.3,0,0.5,0,0.8,0c0,0,0,0,0,0c0,0,0.5,0,0.6,0.3c0.1,0.2,0.8,2.9,0.8,2.9c0.1,0.2,0.3,0.5,0.5,0.4c0.6,0,0.9-0.1,1.4-0.3
				c0.2-0.1,0.3-0.4,0.3-0.6c0,0-0.4-2.8-0.5-3c0-0.2,0.4-0.5,0.4-0.5c0,0,0,0,0,0c0.2-0.1,0.5-0.2,0.7-0.3c0,0,0,0,0,0
				c0,0,0.5-0.1,0.7,0c0.1,0.2,1.8,2.5,1.8,2.5c0.2,0.2,0.4,0.3,0.7,0.2c0.5-0.2,0.8-0.4,1.2-0.8c0.2-0.1,0.2-0.5,0.1-0.7
				c0,0-1.4-2.5-1.5-2.7c-0.1-0.2,0.2-0.6,0.2-0.6c0,0,0,0,0,0c0.2-0.2,0.4-0.3,0.6-0.5c0,0,0,0,0,0c0,0,0.4-0.3,0.6-0.2
				c0.2,0.1,2.5,1.7,2.5,1.7c0.2,0.1,0.5,0.1,0.7,0c0.4-0.4,0.6-0.6,0.9-1.1c0.1-0.2,0-0.5-0.2-0.7c0,0-2.1-1.9-2.3-2
				c-0.2-0.2,0-0.7,0-0.7c0,0,0,0,0,0c0.1-0.2,0.3-0.5,0.4-0.7c0,0,0,0,0,0c0,0,0.3-0.5,0.5-0.4c0.2,0.1,3,0.7,3,0.7
				c0.3,0.1,0.5,0,0.6-0.2c0.2-0.5,0.3-0.8,0.4-1.4C80.1,29.5,79.9,29.3,79.7,29.2z M62.6,34.1c-4.8-0.6-8.2-5-7.5-9.8
				c0.6-4.8,5-8.2,9.8-7.5c4.8,0.6,8.2,5,7.5,9.8C71.8,31.3,67.4,34.7,62.6,34.1z"/>
			<ellipse transform="matrix(0.1308 -0.9914 0.9914 0.1308 30.2584 85.2329)" class="st0" cx="63.7" cy="25.4" rx="3.1" ry="3.1"/>
		</g>
		<g class="st2">
			<path class="st0" d="M42.5,67.2c0,0-2.4-0.9-2.6-1c-0.2-0.1-0.2-0.6-0.2-0.6c0,0,0,0,0,0c0-0.1,0-0.2,0.1-0.4c0-0.1,0-0.2,0-0.4
				c0,0,0,0,0,0c0,0,0.1-0.5,0.3-0.5c0.2,0,2.8-0.3,2.8-0.3c0.2,0,0.5-0.2,0.5-0.4c0-0.5,0-0.8-0.1-1.3c0-0.2-0.3-0.4-0.5-0.4
				c0,0-2.6,0-2.8,0c-0.2,0-0.4-0.5-0.4-0.5c0,0,0,0,0,0c0-0.2-0.1-0.5-0.2-0.7c0,0,0,0,0,0c0,0-0.1-0.5,0.1-0.6
				c0.2-0.1,2.5-1.3,2.5-1.3c0.2-0.1,0.4-0.4,0.3-0.6c-0.1-0.5-0.2-0.7-0.5-1.2c-0.1-0.2-0.4-0.2-0.6-0.2c0,0-2.4,0.9-2.6,0.9
				c-0.2,0.1-0.5-0.3-0.5-0.3c0,0,0,0,0,0c-0.1-0.2-0.3-0.4-0.4-0.6c0,0,0,0,0,0c0,0-0.2-0.4-0.1-0.6c0.1-0.2,1.9-2,1.9-2
				c0.2-0.2,0.2-0.5,0.1-0.6c-0.3-0.4-0.5-0.6-0.9-0.9c-0.2-0.1-0.4-0.1-0.6,0.1c0,0-2,1.7-2.1,1.8c-0.2,0.1-0.6-0.1-0.6-0.1
				c0,0,0,0,0,0c-0.2-0.1-0.4-0.3-0.6-0.4c0,0,0,0,0,0c0,0-0.4-0.3-0.3-0.5c0.1-0.2,1.1-2.6,1.1-2.6c0.1-0.2,0-0.5-0.1-0.6
				c-0.4-0.3-0.7-0.4-1.2-0.6c-0.2-0.1-0.5,0.1-0.6,0.3c0,0-1.3,2.2-1.4,2.4c-0.1,0.2-0.6,0.1-0.6,0.1c0,0,0,0,0,0
				c-0.2-0.1-0.5-0.1-0.7-0.2c0,0,0,0,0,0c0,0-0.5-0.2-0.4-0.4c0-0.2,0.1-2.8,0.1-2.8c0-0.2-0.1-0.5-0.3-0.5
				c-0.5-0.1-0.8-0.2-1.3-0.1c-0.2,0-0.4,0.2-0.4,0.4c0,0-0.5,2.5-0.5,2.7c0,0.2-0.5,0.3-0.5,0.3c0,0,0,0,0,0c-0.2,0-0.5,0-0.7,0
				c0,0,0,0,0,0c0,0-0.5,0-0.6-0.2c-0.1-0.2-0.8-2.7-0.8-2.7c-0.1-0.2-0.3-0.4-0.5-0.4c-0.5,0.1-0.8,0.1-1.3,0.3
				c-0.2,0.1-0.3,0.3-0.3,0.6c0,0,0.4,2.5,0.5,2.7c0,0.2-0.4,0.5-0.4,0.5c0,0,0,0,0,0c-0.2,0.1-0.4,0.2-0.7,0.3c0,0,0,0,0,0
				c0,0-0.5,0.1-0.6,0c-0.1-0.2-1.7-2.2-1.7-2.2c-0.1-0.2-0.4-0.3-0.6-0.2c-0.5,0.2-0.7,0.4-1.1,0.7c-0.2,0.1-0.2,0.4-0.1,0.6
				c0,0,1.3,2.2,1.4,2.4c0.1,0.2-0.2,0.6-0.2,0.6c0,0,0,0,0,0c-0.2,0.2-0.4,0.3-0.5,0.5c0,0,0,0,0,0c0,0-0.4,0.3-0.6,0.2
				c-0.2-0.1-2.3-1.5-2.3-1.5c-0.2-0.1-0.5-0.1-0.6,0c-0.4,0.4-0.5,0.6-0.8,1c-0.1,0.2,0,0.5,0.2,0.6c0,0,2,1.7,2.1,1.8
				c0.2,0.1,0,0.6,0,0.6c0,0,0,0,0,0c-0.1,0.2-0.2,0.4-0.3,0.6c0,0,0,0,0,0c0,0-0.3,0.4-0.5,0.4c-0.2,0-2.7-0.6-2.7-0.6
				c-0.2-0.1-0.5,0-0.6,0.2c-0.2,0.5-0.3,0.7-0.4,1.2c0,0.2,0.1,0.4,0.4,0.5c0,0,2.4,0.9,2.6,1c0.2,0.1,0.2,0.6,0.2,0.6c0,0,0,0,0,0
				c0,0.1,0,0.2-0.1,0.4c0,0.1,0,0.2,0,0.4c0,0,0,0,0,0c0,0-0.1,0.5-0.3,0.5c-0.2,0-2.8,0.3-2.8,0.3c-0.2,0-0.5,0.2-0.5,0.4
				c0,0.5,0,0.8,0.1,1.3c0,0.2,0.3,0.4,0.5,0.4c0,0,2.6,0,2.8,0c0.2,0,0.4,0.5,0.4,0.5c0,0,0,0,0,0c0,0.2,0.1,0.5,0.2,0.7
				c0,0,0,0,0,0c0,0,0.1,0.5-0.1,0.6c-0.2,0.1-2.5,1.3-2.5,1.3c-0.2,0.1-0.4,0.4-0.3,0.6c0.1,0.5,0.2,0.7,0.5,1.2
				c0.1,0.2,0.4,0.2,0.6,0.2c0,0,2.4-0.9,2.6-0.9c0.2-0.1,0.5,0.3,0.5,0.3c0,0,0,0,0,0c0.1,0.2,0.3,0.4,0.4,0.6c0,0,0,0,0,0
				c0,0,0.2,0.4,0.1,0.6c-0.1,0.2-1.9,2-1.9,2c-0.2,0.2-0.2,0.5-0.1,0.6c0.3,0.4,0.5,0.6,0.9,0.9c0.2,0.1,0.4,0.1,0.6-0.1
				c0,0,2-1.6,2.1-1.8c0.2-0.1,0.6,0.1,0.6,0.1c0,0,0,0,0,0c0.2,0.2,0.4,0.3,0.6,0.4c0,0,0,0,0,0c0,0,0.4,0.3,0.3,0.5
				c-0.1,0.2-1.1,2.6-1.1,2.6c-0.1,0.2,0,0.5,0.1,0.6c0.4,0.3,0.7,0.4,1.2,0.6c0.2,0.1,0.5-0.1,0.6-0.3c0,0,1.3-2.2,1.4-2.4
				c0.1-0.2,0.6-0.1,0.6-0.1c0,0,0,0,0,0c0.2,0.1,0.5,0.1,0.7,0.2c0,0,0,0,0,0c0,0,0.5,0.2,0.4,0.4c0,0.2-0.1,2.8-0.1,2.8
				c0,0.2,0.1,0.5,0.3,0.5c0.5,0.1,0.8,0.2,1.3,0.1c0.2,0,0.4-0.2,0.4-0.4c0,0,0.5-2.5,0.5-2.7c0-0.2,0.5-0.3,0.5-0.3c0,0,0,0,0,0
				c0.2,0,0.5,0,0.7,0c0,0,0,0,0,0c0,0,0.5,0,0.6,0.2c0.1,0.2,0.8,2.7,0.8,2.7c0.1,0.2,0.3,0.4,0.5,0.4c0.5-0.1,0.8-0.1,1.3-0.3
				c0.2-0.1,0.3-0.3,0.3-0.6c0,0-0.4-2.5-0.5-2.7c0-0.2,0.4-0.5,0.4-0.5c0,0,0,0,0,0c0.2-0.1,0.4-0.2,0.7-0.3c0,0,0,0,0,0
				c0,0,0.5-0.1,0.6,0c0.1,0.2,1.7,2.2,1.7,2.2c0.1,0.2,0.4,0.3,0.6,0.2c0.5-0.2,0.7-0.4,1.1-0.7c0.2-0.1,0.2-0.4,0.1-0.6
				c0,0-1.3-2.2-1.4-2.4c-0.1-0.2,0.2-0.6,0.2-0.6c0,0,0,0,0,0c0.2-0.2,0.4-0.3,0.5-0.5c0,0,0,0,0,0c0,0,0.4-0.3,0.6-0.2
				c0.2,0.1,2.3,1.5,2.3,1.5c0.2,0.1,0.5,0.1,0.6,0c0.4-0.4,0.5-0.6,0.8-1c0.1-0.2,0-0.5-0.2-0.6c0,0-2-1.7-2.1-1.8
				c-0.2-0.1,0-0.6,0-0.6c0,0,0,0,0,0c0.1-0.2,0.2-0.4,0.3-0.6c0,0,0,0,0,0c0,0,0.3-0.4,0.5-0.4c0.2,0.1,2.7,0.6,2.7,0.6
				c0.2,0.1,0.5,0,0.6-0.2c0.2-0.5,0.3-0.7,0.4-1.2C42.9,67.5,42.8,67.2,42.5,67.2z M27.1,71.8c-4.4-0.5-7.5-4.5-7-8.8
				c0.5-4.4,4.5-7.5,8.8-7c4.4,0.5,7.5,4.5,7,8.8C35.4,69.2,31.4,72.3,27.1,71.8z"/>
		</g>
		<g class="st2">
			<path class="st0" d="M100.8,87.7c0,0-2.8-1.1-3.1-1.2c-0.2-0.1-0.2-0.7-0.2-0.7c0,0,0,0,0,0c0-0.1,0.1-0.3,0.1-0.4
				c0-0.1,0-0.3,0-0.4c0,0,0,0,0,0c0,0,0.1-0.6,0.4-0.6c0.2,0,3.2-0.4,3.2-0.4c0.3,0,0.5-0.3,0.6-0.5c0.1-0.6,0-1-0.1-1.6
				c0-0.2-0.3-0.4-0.6-0.4c0,0-3,0-3.3,0c-0.2,0-0.4-0.6-0.4-0.6c0,0,0,0,0,0c-0.1-0.3-0.1-0.6-0.2-0.9c0,0,0,0,0,0
				c0,0-0.1-0.6,0.2-0.7c0.2-0.1,2.9-1.6,2.9-1.6c0.2-0.1,0.4-0.4,0.4-0.7c-0.2-0.6-0.3-0.9-0.6-1.4c-0.1-0.2-0.4-0.3-0.7-0.2
				c0,0-2.8,1.1-3.1,1.2c-0.2,0.1-0.6-0.4-0.6-0.4c0,0,0,0,0,0c-0.1-0.2-0.3-0.5-0.5-0.7c0,0,0,0,0,0c0,0-0.3-0.5-0.1-0.7
				c0.2-0.2,2.2-2.5,2.2-2.5c0.2-0.2,0.2-0.6,0.1-0.8c-0.4-0.5-0.6-0.8-1-1.1c-0.2-0.2-0.5-0.1-0.7,0.1c0,0-2.3,2-2.5,2.2
				c-0.2,0.2-0.7-0.1-0.7-0.1c0,0,0,0,0,0c-0.2-0.2-0.4-0.4-0.7-0.5c0,0,0,0,0,0c0,0-0.4-0.4-0.3-0.7c0.1-0.2,1.3-3.1,1.3-3.1
				c0.1-0.3,0-0.6-0.1-0.8c-0.5-0.4-0.8-0.5-1.4-0.7c-0.2-0.1-0.5,0.1-0.7,0.3c0,0-1.5,2.7-1.7,3c-0.1,0.2-0.7,0.1-0.7,0.1
				c0,0,0,0,0,0c-0.3-0.1-0.5-0.2-0.8-0.2c0,0,0,0,0,0c0,0-0.5-0.2-0.5-0.5c0-0.3,0.2-3.4,0.2-3.4c0-0.3-0.2-0.6-0.4-0.6
				C86.1,65,85.8,65,85.2,65c-0.2,0-0.5,0.3-0.5,0.5c0,0-0.5,3.1-0.6,3.4c0,0.3-0.6,0.4-0.6,0.4c0,0,0,0,0,0c-0.3,0-0.6,0-0.9,0
				c0,0,0,0,0,0c0,0-0.6,0-0.7-0.3c-0.1-0.2-0.9-3.2-0.9-3.2c-0.1-0.3-0.3-0.5-0.6-0.5c-0.6,0.1-0.9,0.1-1.5,0.4
				c-0.2,0.1-0.4,0.4-0.3,0.7c0,0,0.5,3.1,0.5,3.4c0,0.2-0.5,0.6-0.5,0.6c0,0,0,0,0,0c-0.3,0.1-0.5,0.2-0.8,0.4c0,0,0,0,0,0
				c0,0-0.6,0.2-0.7,0c-0.1-0.2-1.9-2.7-1.9-2.7c-0.2-0.2-0.5-0.3-0.7-0.2c-0.6,0.3-0.8,0.5-1.3,0.9c-0.2,0.2-0.2,0.5-0.1,0.8
				c0,0,1.5,2.7,1.6,2.9c0.1,0.2-0.3,0.7-0.3,0.7c0,0,0,0,0,0c-0.2,0.2-0.4,0.4-0.6,0.6c0,0,0,0,0,0c0,0-0.5,0.4-0.7,0.2
				c-0.2-0.1-2.7-1.8-2.7-1.8c-0.2-0.2-0.6-0.2-0.7,0c-0.4,0.5-0.6,0.7-0.9,1.3c-0.1,0.2,0,0.6,0.2,0.7c0,0,2.3,2,2.5,2.2
				c0.2,0.2,0,0.7,0,0.7c0,0,0,0,0,0c-0.1,0.3-0.3,0.5-0.4,0.8c0,0,0,0,0,0c0,0-0.3,0.5-0.6,0.5c-0.2-0.1-3.2-0.7-3.2-0.7
				c-0.3-0.1-0.6,0.1-0.7,0.3c-0.3,0.6-0.3,0.9-0.4,1.5c0,0.2,0.2,0.5,0.4,0.6c0,0,2.8,1.1,3.1,1.2c0.2,0.1,0.2,0.7,0.2,0.7
				c0,0,0,0,0,0c0,0.1-0.1,0.3-0.1,0.4c0,0.1,0,0.3,0,0.4c0,0,0,0,0,0c0,0-0.1,0.6-0.4,0.6c-0.2,0-3.2,0.4-3.2,0.4
				c-0.3,0-0.5,0.3-0.6,0.5c-0.1,0.6,0,1,0.1,1.6c0,0.2,0.3,0.4,0.6,0.4c0,0,3,0,3.3,0c0.2,0,0.4,0.6,0.4,0.6c0,0,0,0,0,0
				c0.1,0.3,0.1,0.6,0.2,0.9c0,0,0,0,0,0c0,0,0.1,0.6-0.2,0.7c-0.2,0.1-2.9,1.6-2.9,1.6c-0.2,0.1-0.4,0.4-0.4,0.7
				c0.2,0.6,0.3,0.9,0.6,1.4c0.1,0.2,0.4,0.3,0.7,0.2c0,0,2.8-1.1,3.1-1.2c0.2-0.1,0.6,0.4,0.6,0.4c0,0,0,0,0,0
				c0.1,0.3,0.3,0.5,0.5,0.7c0,0,0,0,0,0c0,0,0.3,0.5,0.1,0.7c-0.2,0.2-2.2,2.5-2.2,2.5C70,95.7,70,96,70.1,96.2
				c0.4,0.5,0.6,0.7,1,1.1c0.2,0.2,0.5,0.1,0.7-0.1c0,0,2.3-2,2.5-2.2c0.2-0.2,0.7,0.1,0.7,0.1c0,0,0,0,0,0c0.2,0.2,0.4,0.4,0.7,0.5
				c0,0,0,0,0,0c0,0,0.4,0.4,0.3,0.7c-0.1,0.2-1.3,3.1-1.3,3.1c-0.1,0.3-0.1,0.6,0.1,0.8c0.5,0.4,0.8,0.5,1.4,0.7
				c0.2,0.1,0.5-0.1,0.7-0.3c0,0,1.5-2.7,1.7-3c0.1-0.2,0.7-0.1,0.7-0.1c0,0,0,0,0,0c0.3,0.1,0.5,0.2,0.8,0.2c0,0,0,0,0,0
				c0,0,0.5,0.2,0.5,0.5c0,0.3-0.2,3.4-0.2,3.4c0,0.3,0.2,0.6,0.4,0.7c0.6,0.2,0.9,0.2,1.5,0.2c0.2,0,0.5-0.3,0.5-0.6
				c0,0,0.5-3.1,0.6-3.3c0-0.3,0.6-0.4,0.6-0.4c0,0,0,0,0,0c0.3,0,0.6,0,0.9,0c0,0,0,0,0,0c0,0,0.6,0,0.7,0.3
				c0.1,0.2,0.9,3.2,0.9,3.2c0.1,0.3,0.3,0.5,0.6,0.5c0.6-0.1,0.9-0.1,1.5-0.4c0.2-0.1,0.4-0.4,0.3-0.7c0,0-0.5-3.1-0.5-3.3
				c0-0.3,0.5-0.6,0.5-0.6c0,0,0,0,0,0c0.3-0.1,0.5-0.2,0.8-0.4c0,0,0,0,0,0c0,0,0.6-0.2,0.7,0c0.1,0.2,1.9,2.7,1.9,2.7
				c0.2,0.2,0.5,0.3,0.7,0.2c0.6-0.3,0.8-0.5,1.3-0.9c0.2-0.2,0.2-0.5,0.1-0.8c0,0-1.5-2.7-1.6-2.9c-0.1-0.2,0.3-0.7,0.3-0.7
				c0,0,0,0,0,0c0.2-0.2,0.4-0.4,0.6-0.6c0,0,0,0,0,0c0,0,0.5-0.4,0.7-0.2c0.2,0.1,2.7,1.8,2.7,1.8c0.2,0.2,0.6,0.2,0.7,0
				c0.4-0.5,0.6-0.7,0.9-1.3c0.1-0.2,0-0.6-0.2-0.7c0,0-2.3-2-2.5-2.2c-0.2-0.2,0-0.7,0-0.7c0,0,0,0,0,0c0.1-0.3,0.3-0.5,0.4-0.8
				c0,0,0,0,0,0c0,0,0.3-0.5,0.6-0.5c0.2,0.1,3.2,0.8,3.2,0.8c0.3,0.1,0.6-0.1,0.7-0.3c0.3-0.6,0.3-0.9,0.4-1.5
				C101.3,88.1,101.1,87.8,100.8,87.7z M82.7,93.5c-5.1-0.6-8.8-5.4-8.2-10.8c0.6-5.4,5.3-9.2,10.4-8.6c5.1,0.6,8.8,5.4,8.2,10.8
				C92.4,90.2,87.8,94.1,82.7,93.5z"/>
		</g>
		<path class="st0" d="M70.5,76.8c0.2-0.2,0.2-0.5,0.2-0.8c0-0.3-0.1-0.5-0.3-0.7c-0.2-0.2-0.5-0.3-0.7-0.3c-0.3,0-0.5,0-0.8,0.2
			c-0.2,0.2-1.5,1.2-2.6,2.1c-0.4-0.3-0.7-0.6-1.1-0.9c0.7-1.3,1.4-2.7,1.5-2.9c0.1-0.3,0.1-0.5,0.1-0.8c-0.1-0.3-0.2-0.5-0.5-0.6
			c-0.2-0.2-0.5-0.2-0.8-0.2c-0.3,0-0.5,0.2-0.7,0.4c-0.2,0.3-1.2,1.5-2.1,2.6c-0.4-0.2-0.8-0.5-1.3-0.7c0.4-1.4,0.8-2.9,0.9-3.2
			c0.1-0.3,0-0.6-0.1-0.8c-0.1-0.2-0.3-0.4-0.6-0.5c-0.3-0.1-0.5-0.1-0.8,0c-0.3,0.1-0.5,0.3-0.6,0.5c-0.1,0.3-0.8,1.7-1.5,3
			c-0.5-0.1-0.9-0.3-1.4-0.4c0.1-1.4,0.2-3,0.2-3.3c0-0.3-0.1-0.5-0.3-0.7c-0.2-0.2-0.4-0.3-0.7-0.4c-0.3,0-0.6,0-0.8,0.2
			c-0.2,0.1-0.4,0.4-0.5,0.6c-0.1,0.3-0.5,1.8-0.8,3.2c-0.5,0-1-0.1-1.4-0.1c-0.2-1.4-0.4-3-0.5-3.3c0-0.3-0.2-0.5-0.4-0.7
			c-0.2-0.2-0.5-0.3-0.8-0.2c-0.3,0-0.5,0.1-0.7,0.3c-0.2,0.2-0.3,0.4-0.3,0.7c0,0.3-0.1,1.9-0.1,3.3c-0.5,0.1-0.9,0.1-1.4,0.2
			c-0.5-1.3-1-2.8-1.2-3.1c-0.1-0.3-0.3-0.5-0.5-0.6c-0.2-0.1-0.5-0.1-0.8-0.1c-0.3,0.1-0.5,0.2-0.6,0.5c-0.2,0.2-0.2,0.5-0.2,0.8
			c0.1,0.3,0.3,1.9,0.6,3.3c-0.5,0.2-0.9,0.3-1.3,0.5c-0.8-1.2-1.6-2.5-1.8-2.8c-0.2-0.2-0.4-0.4-0.7-0.5c-0.3-0.1-0.5,0-0.8,0.1
			c-0.3,0.1-0.4,0.3-0.5,0.6c-0.1,0.2-0.1,0.5,0,0.8c0.1,0.3,0.7,1.8,1.2,3.1c-0.4,0.2-0.8,0.5-1.2,0.8c-1-1-2.1-2.2-2.3-2.4
			c-0.2-0.2-0.5-0.3-0.7-0.3c-0.3,0-0.5,0.1-0.8,0.3c-0.2,0.2-0.4,0.4-0.4,0.7c0,0.3,0,0.5,0.1,0.8c0.2,0.3,1.1,1.6,1.8,2.8
			c-0.2,0.2-0.3,0.3-0.5,0.5c-0.2,0.2-0.3,0.3-0.5,0.5C36.6,78,35.2,77.1,35,77c-0.2-0.2-0.5-0.2-0.8-0.1c-0.3,0-0.5,0.2-0.7,0.4
			c-0.2,0.2-0.3,0.5-0.3,0.8c0,0.3,0.1,0.5,0.3,0.7c0.2,0.2,1.4,1.3,2.4,2.3c-0.3,0.4-0.5,0.8-0.8,1.2c-1.3-0.5-2.8-1.1-3.1-1.2
			c-0.3-0.1-0.5-0.1-0.8,0c-0.2,0.1-0.5,0.3-0.6,0.5c-0.1,0.3-0.2,0.5-0.1,0.8c0.1,0.3,0.2,0.5,0.5,0.7c0.3,0.2,1.6,1,2.8,1.8
			c-0.2,0.4-0.4,0.9-0.5,1.3c-1.4-0.2-3-0.5-3.3-0.6c-0.3,0-0.6,0-0.8,0.2c-0.2,0.2-0.4,0.4-0.5,0.7c-0.1,0.3,0,0.5,0.1,0.8
			c0.1,0.2,0.3,0.4,0.6,0.5c0.3,0.1,1.8,0.7,3.1,1.2c-0.1,0.5-0.2,0.9-0.2,1.4c-1.4,0.1-3,0.1-3.3,0.1c-0.3,0-0.5,0.1-0.7,0.3
			C28.1,91,28,91.3,28,91.5c0,0.3,0.1,0.5,0.2,0.8c0.2,0.2,0.4,0.4,0.7,0.4c0.3,0,1.9,0.3,3.3,0.5c0,0.5,0,1,0.1,1.4
			c-1.4,0.4-2.9,0.7-3.2,0.8c-0.3,0.1-0.5,0.3-0.6,0.5c-0.1,0.2-0.2,0.5-0.2,0.8c0,0.3,0.2,0.5,0.4,0.7c0.2,0.2,0.5,0.3,0.8,0.3
			c0.3,0,1.9-0.1,3.3-0.2c0.1,0.5,0.2,0.9,0.4,1.4c-1.3,0.6-2.7,1.3-3,1.5c-0.3,0.1-0.4,0.4-0.5,0.6c-0.1,0.3-0.1,0.5,0,0.8
			c0.1,0.3,0.3,0.5,0.5,0.6c0.2,0.1,0.5,0.2,0.8,0.1c0.3-0.1,1.8-0.5,3.2-0.9c0.2,0.4,0.4,0.9,0.7,1.3c-1.1,0.9-2.4,1.9-2.6,2.1
			c-0.2,0.2-0.3,0.4-0.4,0.7c0,0.3,0,0.5,0.2,0.8c0.2,0.2,0.4,0.4,0.6,0.5c0.3,0.1,0.5,0.1,0.8-0.1c0.3-0.1,1.7-0.9,3-1.5
			c0.3,0.4,0.6,0.8,0.9,1.1c-0.9,1.1-1.9,2.3-2.1,2.6c-0.2,0.2-0.2,0.5-0.2,0.8c0,0.3,0.1,0.5,0.3,0.7c0.2,0.2,0.5,0.3,0.7,0.3
			c0.3,0,0.5,0,0.8-0.2c0.2-0.2,1.5-1.2,2.6-2.1c0.4,0.3,0.7,0.6,1.1,0.9c-0.7,1.3-1.4,2.7-1.5,2.9c-0.1,0.3-0.1,0.5-0.1,0.8
			c0.1,0.3,0.2,0.5,0.5,0.6c0.2,0.2,0.5,0.2,0.8,0.2c0.3,0,0.5-0.2,0.7-0.4c0.2-0.3,1.2-1.5,2.1-2.6c0.4,0.2,0.8,0.5,1.3,0.7
			c-0.4,1.4-0.8,2.9-0.9,3.2c-0.1,0.3,0,0.6,0.1,0.8c0.1,0.2,0.3,0.4,0.6,0.5c0.3,0.1,0.5,0.1,0.8,0c0.3-0.1,0.5-0.3,0.6-0.5
			c0.1-0.3,0.8-1.7,1.5-3c0.5,0.1,0.9,0.3,1.4,0.4c-0.1,1.4-0.2,3-0.2,3.3c0,0.3,0.1,0.5,0.3,0.7c0.2,0.2,0.4,0.3,0.7,0.4
			c0.3,0,0.6,0,0.8-0.2c0.2-0.1,0.4-0.4,0.5-0.6c0.1-0.3,0.5-1.8,0.8-3.2c0.5,0,1,0.1,1.4,0.1c0.2,1.4,0.4,3,0.5,3.3
			c0,0.3,0.2,0.5,0.4,0.7c0.2,0.2,0.5,0.3,0.8,0.2c0.3,0,0.5-0.1,0.7-0.3c0.2-0.2,0.3-0.4,0.3-0.7c0-0.3,0.1-1.9,0.1-3.3
			c0.5-0.1,1-0.1,1.4-0.2c0.5,1.3,1.1,2.8,1.2,3.1c0.1,0.3,0.3,0.5,0.5,0.6c0.2,0.1,0.5,0.1,0.8,0.1c0.3-0.1,0.5-0.2,0.7-0.5
			c0.2-0.2,0.2-0.5,0.2-0.8c-0.1-0.3-0.3-1.9-0.6-3.3c0.5-0.2,0.9-0.3,1.3-0.5c0.8,1.2,1.6,2.5,1.8,2.8c0.2,0.2,0.4,0.4,0.7,0.5
			c0.3,0.1,0.5,0,0.8-0.1c0.3-0.1,0.4-0.3,0.5-0.6c0.1-0.2,0.1-0.5,0-0.8c-0.1-0.3-0.7-1.8-1.2-3.1c0.4-0.2,0.8-0.5,1.2-0.8
			c1,1,2.1,2.2,2.3,2.4c0.2,0.2,0.5,0.3,0.7,0.3c0.3,0,0.5-0.1,0.8-0.3c0.2-0.2,0.4-0.4,0.4-0.7c0-0.3,0-0.5-0.1-0.8
			c-0.2-0.3-1.1-1.6-1.8-2.8c0.2-0.2,0.3-0.3,0.5-0.5c0.2-0.2,0.3-0.3,0.5-0.5c1.2,0.8,2.5,1.7,2.8,1.8c0.2,0.2,0.5,0.2,0.8,0.1
			c0.3,0,0.5-0.2,0.7-0.4c0.2-0.2,0.3-0.5,0.3-0.8c0-0.3-0.1-0.5-0.3-0.7c-0.2-0.2-1.4-1.3-2.4-2.3c0.3-0.4,0.5-0.8,0.8-1.2
			c1.3,0.5,2.8,1.1,3.1,1.2c0.3,0.1,0.5,0.1,0.8,0c0.2-0.1,0.5-0.3,0.6-0.5c0.1-0.3,0.2-0.5,0.1-0.8c-0.1-0.3-0.2-0.5-0.5-0.7
			c-0.3-0.2-1.6-1-2.8-1.8c0.2-0.4,0.4-0.9,0.5-1.3c1.4,0.2,3,0.5,3.3,0.6c0.3,0,0.6,0,0.8-0.2c0.2-0.2,0.4-0.4,0.5-0.7
			c0.1-0.3,0-0.6-0.1-0.8c-0.1-0.2-0.3-0.4-0.6-0.5c-0.3-0.1-1.8-0.7-3.1-1.2c0.1-0.5,0.2-0.9,0.2-1.4c1.4-0.1,3-0.1,3.3-0.1
			c0.3,0,0.5-0.1,0.7-0.3c0.2-0.2,0.3-0.4,0.3-0.7c0-0.3-0.1-0.5-0.2-0.8C77.2,93.2,77,93,76.7,93c-0.3,0-1.9-0.3-3.3-0.5
			c0-0.5,0-1-0.1-1.4c1.4-0.4,2.9-0.7,3.2-0.8c0.3-0.1,0.5-0.3,0.6-0.5c0.1-0.2,0.2-0.5,0.2-0.8c0-0.3-0.2-0.5-0.4-0.7
			c-0.2-0.2-0.5-0.3-0.7-0.3c-0.3,0-1.9,0.1-3.3,0.2c-0.1-0.5-0.2-0.9-0.4-1.4c1.3-0.6,2.7-1.3,3-1.5c0.3-0.1,0.4-0.4,0.5-0.6
			c0.1-0.3,0.1-0.5,0-0.8c-0.1-0.3-0.3-0.5-0.5-0.6c-0.2-0.1-0.5-0.2-0.8-0.1c-0.3,0.1-1.8,0.5-3.2,0.9c-0.2-0.4-0.4-0.9-0.7-1.3
			c1.1-0.9,2.4-1.9,2.6-2.1c0.2-0.2,0.3-0.4,0.4-0.7c0-0.3,0-0.5-0.2-0.8c-0.2-0.2-0.4-0.4-0.6-0.5c-0.3-0.1-0.5-0.1-0.8,0.1
			c-0.3,0.2-1.7,0.9-2.9,1.5c-0.3-0.4-0.6-0.8-0.9-1.1C69.3,78.3,70.3,77,70.5,76.8z M50.2,90.3c1.4-1.4,3.7-1.4,5.2,0
			c1.4,1.4,1.4,3.7,0,5.2c-1.4,1.4-3.7,1.4-5.2,0C48.8,94,48.8,91.7,50.2,90.3z M41.2,104.5c-6-6-6.4-15.3-1.3-21.8l6.5,6.6
			c-1.6,2.8-1.2,6.4,1.2,8.8c0.5,0.5,1,0.8,1.5,1.1l-2.4,8.9C44.7,107.3,42.8,106.1,41.2,104.5z M64.4,104.5
			c-3.8,3.8-9.1,5.3-14,4.6l2.4-8.9c1.9,0,3.7-0.7,5.2-2.1c1.4-1.4,2.1-3.3,2.1-5.2l8.9-2.4C69.8,95.4,68.3,100.7,64.4,104.5z
			 M68.1,86.8l-8.9,2.4c-0.3-0.5-0.7-1-1.1-1.5c-2.4-2.4-6-2.8-8.8-1.2L42.6,80c6.4-5.1,15.8-4.7,21.8,1.3
			C66,82.9,67.3,84.8,68.1,86.8z"/>
	</g>
	<circle class="st3" cx="84.2" cy="11.7" r="9.2"/>
	<circle class="st4" cx="11.6" cy="94.5" r="11.2"/>
	<polygon class="st5" points="88.4,127.6 97.6,111.7 106.7,127.6 	"/>
	<g>
		<polygon class="st6" points="116,36.3 108.9,48.5 123,48.5 		"/>
		<polygon class="st7" points="137.1,48.5 130.1,36.3 123,48.5 		"/>
		<polygon class="st6" points="116,36.3 130.1,36.3 123,24.1 		"/>
	</g>
	<g>
		<g>
			<rect x="36.3" y="45.1" class="st6" width="66.8" height="52.8"/>
		</g>
		<g>
			<rect x="39.9" y="49.5" class="st3" width="59.7" height="45"/>
		</g>
	</g>
	<g>
		<g>
			<g>
				<path class="st8" d="M44.5,57.4v-1.3l5.1-2.2v1.3l-3.9,1.6l3.9,1.5v1.2L44.5,57.4z"/>
				<path class="st8" d="M62,59.6v-1.2l3.9-1.5L62,55.2V54l5.1,2.2v1.3L62,59.6z"/>
			</g>
			<g>
				<rect x="51.3" y="55.2" class="st8" width="9" height="3.1"/>
			</g>
		</g>
		<g>
			<rect x="51.3" y="64.5" class="st6" width="13" height="3.4"/>
			<rect x="51.3" y="77" class="st6" width="4.2" height="3.4"/>
			<rect x="58.6" y="77" class="st8" width="4.2" height="3.4"/>
			<rect x="67.3" y="64.5" class="st8" width="14.4" height="3.4"/>
			<rect x="51.3" y="70.6" class="st7" width="22.2" height="3.4"/>
			<rect x="76.5" y="70.6" class="st6" width="10.6" height="3.4"/>
		</g>
	</g>
	<polygon class="st6" points="14.1,22.8 9.3,14.4 14.1,6 23.8,6 28.7,14.4 23.8,22.8 	"/>
	<g>
		<path class="st9" d="M144.6,92.2h-30.1c-0.5,0-1-0.5-1-1v-6.3c0-0.5,0.5-1,1-1h30.1c0.6,0,1,0.5,1,1v6.3
			C145.6,91.7,145.1,92.2,144.6,92.2z"/>
		<circle class="st10" cx="118" cy="88.1" r="1.6"/>
	</g>
	<path class="st10" d="M141.5,89.1h-6.7c-0.5,0-0.9-0.4-0.9-0.9v-0.4c0-0.5,0.4-0.9,0.9-0.9h6.7c0.5,0,0.9,0.4,0.9,0.9v0.4
		C142.4,88.7,142,89.1,141.5,89.1z"/>
	<g>
		<path class="st9" d="M34,35.8H3.9c-0.5,0-1-0.5-1-1v-6.3c0-0.6,0.5-1,1-1H34c0.5,0,1,0.4,1,1v6.3C35,35.3,34.6,35.8,34,35.8z"/>
		<circle class="st10" cx="7.4" cy="31.6" r="1.6"/>
		<path class="st10" d="M30.9,32.7h-6.7c-0.5,0-0.9-0.4-0.9-0.9v-0.4c0-0.5,0.4-0.9,0.9-0.9h6.7c0.5,0,0.9,0.4,0.9,0.9v0.4
			C31.8,32.3,31.4,32.7,30.9,32.7z"/>
	</g>
</g>
</svg>
