<?xml version="1.0" encoding="utf-8"?>
<!-- Generator: Adobe Illustrator 19.2.1, SVG Export Plug-In . SVG Version: 6.00 Build 0)  -->
<!DOCTYPE svg PUBLIC "-//W3C//DTD SVG 1.1//EN" "http://www.w3.org/Graphics/SVG/1.1/DTD/svg11.dtd">
<svg version="1.1" id="Layer_1" xmlns="http://www.w3.org/2000/svg" xmlns:xlink="http://www.w3.org/1999/xlink" x="0px" y="0px"
	 viewBox="0 0 16 16" style="enable-background:new 0 0 16 16;" xml:space="preserve">
<path d="M15.7,5.2l-0.3-0.3c-0.2-0.2-0.4-0.3-0.7-0.3c-0.1,0-0.1,0-0.2-0.1c-0.1-0.1-0.1-0.2-0.1-0.3l0.1-0.4l-0.2-0.3l0-0.1l0-0.1
	c-0.1-0.1-2.2-2.7-5-2.7h0C8.9,0.8,8.4,0.8,8,0.9C7.7,1,7.5,1.2,7.3,1.5l0,0l0,0C7.2,1.9,7.2,2.3,7.4,2.6c0.2,0.3,0.5,0.5,0.9,0.5h0
	c0.4,0,1.1,0.1,1.7,0.7c0.1,0.1,0.2,0.2,0,0.3L7.5,6.3L2.7,1.6c-0.2-0.2-0.7-0.2-0.9,0L0.2,3.3C0.1,3.5,0,3.6,0,3.8
	C0,4,0.1,4.1,0.2,4.3l4.6,4.6l-3.2,3.1c-0.5,0.4-0.5,1.1-0.1,1.5l1.1,1.2C2.8,14.9,3,15,3.3,15c0.3,0,0.6-0.1,0.8-0.3l3.3-3.2
	l3.7,3.6c0.1,0.1,0.3,0.2,0.4,0.2c0.2,0,0.3-0.1,0.4-0.2l1.7-1.8c0.1-0.1,0.2-0.3,0.2-0.5c0-0.2-0.1-0.3-0.2-0.5L10,8.7l2-2.2
	c0,0,0.1-0.1,0.2-0.1c0.1-0.1,0.2-0.1,0.2-0.1c0.1,0,0.1,0,0.2,0.1c0.1,0.1,0.1,0.1,0.1,0.2c0,0.2,0.1,0.4,0.3,0.6l0.3,0.4
	c0.2,0.2,0.5,0.3,0.8,0.3c0.3,0,0.5-0.1,0.7-0.3l0.8-0.8C16.1,6.4,16.1,5.7,15.7,5.2z M1,3.8l1.3-1.4l0.5,0.5L2.1,3.7l0.5,0.5
	l0.7-0.8l0.9,0.9L3.9,4.8l0.5,0.5l0.4-0.4l0.9,0.9L5.4,6.3l0.5,0.5l0.4-0.4l0.5,0.5L6.2,7.5c0,0,0,0-0.1,0.1L5.4,8.2L1,3.8z
	 M10.3,10.2l-0.4,0.4l0.5,0.5l0.4-0.4l1,1l-0.7,0.8l0.5,0.5l0.7-0.8l0.5,0.5l-1.4,1.4l-3.5-3.4l0.5-0.5c0,0,0.1-0.1,0.1-0.1l0.7-0.8
	L10.3,10.2z M15.1,6.1l-0.8,0.8c0,0-0.1,0.1-0.1,0.1c-0.1,0-0.1,0-0.1-0.1l-0.3-0.3c0,0,0-0.1-0.1-0.1c0-0.2-0.1-0.5-0.3-0.7
	c-0.2-0.3-0.6-0.4-0.9-0.4c-0.2,0-0.4,0.1-0.6,0.2l0,0l0,0c-0.1,0-0.1,0.1-0.2,0.2c0,0,0,0,0,0c0,0-3.5,3.8-3.5,3.8c0,0,0,0,0,0
	L3.5,14c-0.1,0.1-0.1,0.1-0.2,0.1c0,0-0.1,0-0.1,0l-1.1-1.2c-0.1-0.1,0-0.2,0.1-0.3l4.5-4.4c0,0,0,0,0,0l3.9-3.4
	c0.3-0.3,0.6-0.9,0-1.6c-0.8-0.9-1.8-1-2.3-1c0,0,0,0,0,0c0,0,0,0,0,0C8.2,2.2,8.1,2,8.1,1.9l0,0c0,0,0.1-0.1,0.1-0.1
	c0.4-0.1,0.7-0.1,1-0.1c2.5,0,4.4,2.3,4.4,2.3l0,0c-0.1,0.4,0,0.8,0.3,1.1c0.2,0.2,0.5,0.3,0.7,0.4c0,0,0.1,0,0.1,0.1l0.3,0.3
	C15.1,5.9,15.1,6,15.1,6.1z"/>
</svg>
