<?xml version="1.0" encoding="utf-8"?>
<!-- Generator: Adobe Illustrator 19.2.1, SVG Export Plug-In . SVG Version: 6.00 Build 0)  -->
<!DOCTYPE svg PUBLIC "-//W3C//DTD SVG 1.1//EN" "http://www.w3.org/Graphics/SVG/1.1/DTD/svg11.dtd">
<svg version="1.1" id="Layer_1" xmlns="http://www.w3.org/2000/svg" xmlns:xlink="http://www.w3.org/1999/xlink" x="0px" y="0px"
	 viewBox="0 0 16 16" style="enable-background:new 0 0 16 16;" xml:space="preserve">
<path d="M11.1,13.8c-1.3,0-2.1-0.5-2.3-1.2c-0.1-0.5,0.2-0.9,0.4-1.2c0.1-0.2,0.2-0.3,0.2-0.5c0-0.1,0-0.5-1-0.6c-0.1,0-0.3,0-0.4,0
	c-0.1,0-0.3,0-0.4,0c-1,0.1-1,0.4-1,0.6c0,0.1,0.1,0.3,0.2,0.5c0.2,0.3,0.5,0.7,0.4,1.2c-0.2,0.8-1,1.2-2.3,1.2l-0.1,0l-0.1,0
	c-0.2,0-0.5,0-0.8-0.1c-0.2,0-0.4-0.1-0.5-0.1l0,0c0,0-0.1-0.1-0.2-0.2c-0.2-0.2-0.1-0.6,0.1-1.3c0-0.1,0-0.2,0.1-0.3l0-0.2
	c0.1-0.5,0.1-0.9,0.1-1.3c0-0.2,0-0.7-0.2-0.9c0,0,0,0,0,0c0,0,0,0-0.1,0c-0.1,0-0.1,0-0.2,0c-0.1,0-0.3,0.2-0.4,0.3
	c-0.2,0.2-0.4,0.4-0.7,0.5c-0.2,0.1-0.5,0.1-0.7,0.1C0.8,10.2,0.5,10,0.4,9.7C0.1,9.2,0,8.5,0,8.1l0-0.1l0,0c0-0.4,0.1-1.1,0.4-1.6
	C0.5,6,0.8,5.8,1,5.7c0.2-0.1,0.5-0.1,0.8,0.1c0.3,0.1,0.5,0.3,0.7,0.5c0.1,0.1,0.3,0.2,0.4,0.3c0.2,0.1,0.3,0,0.3,0
	c0.2-0.2,0.2-0.7,0.2-0.9c0-0.4,0-0.8-0.1-1.3l0-0.2c0,0,0-0.1-0.1-0.3C3.1,3.2,3,2.9,3.2,2.6c0.1-0.1,0.2-0.2,0.2-0.2
	C3.5,2.3,3.7,2.3,4,2.3c0.2,0,0.6,0,0.8,0l0.1,0l0.1,0c1.3,0,2.1,0.5,2.3,1.2C7.3,3.9,7,4.3,6.8,4.6C6.7,4.8,6.6,5,6.6,5.1
	c0,0.1,0,0.5,1,0.6c0.1,0,0.3,0,0.4,0c0.1,0,0.3,0,0.4,0c1-0.1,1-0.4,1-0.6c0-0.1-0.1-0.3-0.2-0.5C9,4.3,8.7,3.9,8.8,3.5
	c0.2-0.8,1-1.2,2.3-1.2l0.1,0l0.1,0c0.2,0,0.5,0,0.8,0.1c0.2,0,0.4,0.1,0.5,0.1c0.1,0,0.2,0.1,0.2,0.2c0.2,0.2,0.1,0.6-0.1,1.3
	c0,0.1,0,0.2-0.1,0.3l0,0.2c-0.1,0.5-0.1,0.9-0.1,1.3c0,0.2,0,0.7,0.2,0.9c0,0,0,0,0,0c0,0,0,0,0.1,0l0,0c0.1,0,0.1,0,0.2,0
	c0.1,0,0.3-0.2,0.4-0.3c0.2-0.2,0.4-0.4,0.7-0.5c0.2-0.1,0.5-0.1,0.7-0.1c0.3,0.1,0.5,0.3,0.7,0.6C15.9,6.8,16,7.5,16,7.9l0,0l0,0
	l0,0l0,0c0,0.4-0.1,1.1-0.4,1.6c-0.2,0.3-0.4,0.5-0.7,0.6c-0.1,0-0.2,0-0.3,0c0,0,0,0,0,0c-0.2,0-0.3,0-0.5-0.1
	c-0.3-0.1-0.5-0.3-0.7-0.5c-0.1-0.1-0.3-0.2-0.4-0.3c-0.2-0.1-0.3,0-0.3,0c-0.2,0.2-0.2,0.7-0.2,0.9c0,0.4,0,0.9,0.1,1.3l0,0.2
	c0,0.1,0,0.1,0.1,0.3c0.2,0.7,0.2,1,0.1,1.3c-0.1,0.1-0.2,0.2-0.2,0.2c-0.1,0.1-0.3,0.1-0.5,0.1c-0.2,0-0.6,0-0.8,0L11.1,13.8
	L11.1,13.8z M8,9.5c0.2,0,0.3,0,0.5,0c1.6,0.1,1.8,0.9,1.8,1.5c0,0.4-0.2,0.6-0.4,0.9c-0.1,0.2-0.3,0.4-0.2,0.5
	c0.1,0.4,0.8,0.5,1.4,0.5l0.1,0l0.1,0c0.3,0,0.5,0,0.7,0c0,0,0.1,0,0.1,0c0-0.2-0.1-0.4-0.1-0.5c0-0.1-0.1-0.3-0.1-0.3l0-0.2
	c-0.1-0.5-0.1-1-0.1-1.5c0-0.4,0-1.1,0.5-1.6l0.1-0.1c0.3-0.2,0.7-0.2,1.1-0.1c0.2,0.1,0.4,0.2,0.6,0.4c0.2,0.1,0.3,0.3,0.5,0.3
	c0.1,0,0.1,0,0.2,0c0.1,0,0.1-0.1,0.2-0.2C15,9,15.1,8.5,15.1,8v0c0-0.5-0.1-1-0.2-1.2c-0.1-0.1-0.1-0.2-0.2-0.2c0,0-0.1,0-0.2,0
	c-0.2,0.1-0.3,0.2-0.5,0.3c-0.2,0.2-0.4,0.3-0.6,0.4c-0.4,0.2-0.8,0.1-1.1-0.1l-0.1-0.1c-0.5-0.4-0.5-1.2-0.5-1.6c0-0.5,0-1,0.1-1.5
	l0-0.2c0-0.1,0-0.2,0.1-0.3c0-0.1,0.1-0.4,0.1-0.5c0,0-0.1,0-0.1,0c-0.2,0-0.4,0-0.7,0l-0.1,0l-0.1,0c-0.6,0-1.4,0.2-1.4,0.5
	c0,0.1,0.1,0.3,0.2,0.5C10,4.4,10.2,4.7,10.3,5c0,0.6-0.2,1.3-1.8,1.5c-0.1,0-0.3,0-0.5,0c-0.2,0-0.3,0-0.5,0C6,6.4,5.7,5.6,5.7,5
	c0-0.4,0.2-0.6,0.4-0.9c0.1-0.2,0.3-0.4,0.2-0.5C6.3,3.3,5.5,3.1,4.9,3.1l-0.1,0l-0.1,0c-0.3,0-0.5,0-0.7,0c0,0-0.1,0-0.1,0
	C4,3.3,4,3.6,4.1,3.7C4.1,3.8,4.1,4,4.1,4l0,0.2c0.1,0.5,0.1,1,0.1,1.4c0,0.4,0,1.1-0.5,1.6L3.7,7.3C3.4,7.5,3,7.5,2.6,7.3
	C2.4,7.3,2.2,7.1,2,6.9C1.8,6.8,1.6,6.6,1.5,6.6c-0.1,0-0.1,0-0.2,0c-0.1,0-0.1,0.1-0.2,0.2C1,7,0.9,7.4,0.9,7.9l0,0.1l0,0.1
	C0.9,8.6,1,9,1.1,9.2c0.1,0.1,0.1,0.2,0.2,0.2c0,0,0.1,0,0.2,0c0.2-0.1,0.3-0.2,0.5-0.3c0.2-0.2,0.4-0.3,0.6-0.4
	C3,8.5,3.4,8.5,3.7,8.7l0.1,0.1c0,0,0,0,0,0c0,0,0,0,0,0c0.5,0.4,0.5,1.2,0.5,1.6c0,0.5,0,1-0.1,1.4l0,0.2c0,0.1,0,0.2-0.1,0.3
	C4,12.4,4,12.7,4,12.8c0,0,0.1,0,0.1,0c0.2,0,0.4,0,0.7,0l0.1,0l0.1,0c0.6,0,1.4-0.2,1.4-0.5c0-0.1-0.1-0.3-0.2-0.5
	c-0.2-0.3-0.4-0.5-0.4-0.9c0-0.6,0.2-1.3,1.8-1.5C7.7,9.5,7.8,9.5,8,9.5z"/>
</svg>
