<?xml version="1.0" encoding="utf-8"?>
<!-- Generator: Adobe Illustrator 18.1.1, SVG Export Plug-In . SVG Version: 6.00 Build 0)  -->
<svg version="1.1" xmlns="http://www.w3.org/2000/svg" xmlns:xlink="http://www.w3.org/1999/xlink" x="0px" y="0px"
	 viewBox="0 0 172.5 185.5" enable-background="new 0 0 172.5 185.5" xml:space="preserve">
<g id="Layer_1">
	<g>
		<path fill="none" d="M108.4,5.3H50.6c-6.5,0-11.8,5.3-11.8,11.8v46L50,52.4h22.4V36.2c0-4,3.2-7.2,7.2-7.2h32.1V8.6
			C111.7,6.8,110.2,5.3,108.4,5.3z"/>
		<path fill="#414042" d="M44.1,144.7c-6.6-10.7-8-18.2-9.3-22.1c-4-12.1,1.3-29.6-27.9-34.1H0v93.7c0,0,20.4-1.2,24-2
			c6.1-1.4,12.8-5.5,12.4-12.6c-0.2-2.5-0.3-4.7-0.3-6.7c-3,1.1-5.7,1.5-8.1,1.5c-6.2,0-10-2.7-10.3-2.8l2.3-3.3
			c0.3,0.2,6.5,4.4,15.9,0.4C35.4,144.3,34.6,149.2,44.1,144.7z M18.5,131.8c-2.2,0-4-1.8-4-4c0-2.2,1.8-4,4-4s4,1.8,4,4
			C22.5,130.1,20.7,131.8,18.5,131.8z M24.4,121.1c-0.2-0.1-5-3.9-12.2,0l-1.9-3.5c9.6-5.3,16.4,0.2,16.7,0.4L24.4,121.1z"/>
		<path fill="#F47E4F" d="M165.7,87.3c-29.2,2.8-23.8,25.3-27.9,37.3c-1.3,3.9-2.7,11.4-9.3,22.1c9.9,4.7,8.8-0.9,8.2,13.9
			c8.1,2.7,12.7-2,12.7-2.1l2.9,2.7c-0.2,0.2-4,4.2-10.7,4.2c-1.5,0-3.2-0.2-5.1-0.7c-0.1,1.5-0.2,3.1-0.3,4.9
			c-0.2,4,0.4,10.8,6.1,13.2c3.3,1.4,30.1,2.7,30.1,2.7v-99L165.7,87.3z M153,133.9c-2.2,0-4-1.8-4-4c0-2.2,1.8-4,4-4
			c2.2,0,4,1.8,4,4C157,132.1,155.2,133.9,153,133.9z M159,123.1c-0.2-0.1-5-3.9-12.2,0l-1.9-3.5c9.6-5.3,16.4,0.2,16.7,0.4
			L159,123.1z"/>
		<path fill="#F47E4F" d="M50,52.4L38.7,63.1v-46c0-6.5,5.3-11.8,11.8-11.8h57.8c1.8,0,3.3,1.5,3.3,3.3V29h5.3V8.6
			c0-4.7-3.9-8.6-8.6-8.6H50.6c-9.4,0-17.1,7.7-17.1,17.1v58.4l18.7-17.8h20.3v-5.3H50z"/>
		<path fill="#414042" d="M137.5,42.7c0-7.5-6.1-13.7-13.7-13.7H117h-5.3H79.6c-4,0-7.2,3.2-7.2,7.2v16.2v5.3v10.9
			c0,3.1,2.6,5.7,5.7,5.7h44.2l15.1,14.4V42.7z M132.2,76.4l-7.7-7.4H78.2c-0.2,0-0.4-0.2-0.4-0.4V36.2c0-1,0.9-1.9,1.9-1.9h44.2
			c4.6,0,8.4,3.8,8.4,8.4V76.4z"/>
	</g>
</g>
<g id="Layer_2">
</g>
<g id="Layer_3">
</g>
<g id="Layer_4">
</g>
</svg>
