<?xml version="1.0" encoding="utf-8"?>
<!-- Generator: Adobe Illustrator 18.1.1, SVG Export Plug-In . SVG Version: 6.00 Build 0)  -->
<svg version="1.1" xmlns="http://www.w3.org/2000/svg" xmlns:xlink="http://www.w3.org/1999/xlink" x="0px" y="0px"
	 viewBox="0 0 263 175.5" enable-background="new 0 0 263 175.5" xml:space="preserve">
<g id="Layer_1">
	<g>
		<path fill="#ED1D8E" d="M116,171.5l-1.9-1.9l2.1-2.1l-3.8-3.8l-2.1,2.1l-1.9-1.9l2.1-2.1l-3.8-3.8l-2.1,2.1l-1.9-1.9l2.1-2.1
			l-3.8-3.8l-2.1,2.1l-1.9-1.9l2.1-2.1l-3.8-3.8l-2.1,2.1l-1.9-1.9l2.1-2.1l-3.8-3.8l-2.1,2.1l-1.9-1.9l2.1-2.1l-4.4-4.4l-40.6,40.6
			h81.2l-6.1-6.1L116,171.5z M65.3,166.3L83.5,148l18.3,18.3H65.3z"/>
		<path fill="#434343" d="M44,127.2c0,0,7.3-2,7.3-2c0,0,13.7-14,30.2-30.6c-0.9-0.9-1.9-1.8-2.9-2.7
			c-14.2,14.3-26.3,26.7-29.4,29.9c-0.8,0.2-1.9,0.5-2.9,0.8c0.3-1.1,0.6-2.2,0.8-2.9c3.1-3.1,15.5-15.2,29.8-29.4
			c-0.9-0.9-1.9-1.8-2.8-2.8c-16.6,16.4-30.5,30.1-30.5,30.1l-2,7.3l-1,3.5L44,127.2z"/>
		<path fill="#ED1D8E" d="M19.8,42.5l-3.2-2.3c-1.3,1.8-2.6,3.7-3.8,5.6l3.4,2.1C17.3,46,18.5,44.2,19.8,42.5z"/>
		<path fill="#ED1D8E" d="M4.9,103.5L1,104.1c0.3,2.2,0.8,4.5,1.3,6.6l3.9-0.9C5.6,107.8,5.2,105.7,4.9,103.5z"/>
		<path fill="#ED1D8E" d="M12.7,128l-3.5,1.8c1,2,2.1,4,3.3,5.9l3.4-2.1C14.7,131.8,13.7,129.9,12.7,128z"/>
		<path fill="#ED1D8E" d="M7.8,116.1l-3.8,1.2c0.7,2.1,1.5,4.3,2.3,6.4l3.7-1.5C9.2,120.2,8.5,118.1,7.8,116.1z"/>
		<path fill="#ED1D8E" d="M30.4,25.3l2.6,3c1.6-1.4,3.3-2.7,5.1-4l-2.3-3.2C33.9,22.5,32.1,23.9,30.4,25.3z"/>
		<path fill="#ED1D8E" d="M41.3,17.4l2.1,3.4c1.8-1.1,3.7-2.2,5.6-3.1l-1.8-3.5C45.2,15.1,43.2,16.2,41.3,17.4z"/>
		<path fill="#ED1D8E" d="M8.1,65.3l-3.8-1.2c-0.7,2.1-1.3,4.3-1.9,6.5l3.8,0.9C6.8,69.4,7.4,67.4,8.1,65.3z"/>
		<path fill="#ED1D8E" d="M4,91v-0.4l-4,0V91c0,2.1,0.1,4.3,0.2,6.4l4-0.3C4,95.1,4,93.1,4,91z"/>
		<path fill="#ED1D8E" d="M5,77.8l-3.9-0.6c-0.4,2.2-0.6,4.5-0.8,6.7l3.9,0.3C4.4,82.1,4.7,80,5,77.8z"/>
		<path fill="#ED1D8E" d="M13,53.5l-3.5-1.8c-1,2-2,4.1-2.8,6.1l3.7,1.5C11.1,57.3,12,55.4,13,53.5z"/>
		<path fill="#ED1D8E" d="M28.2,32.7l-2.8-2.8c-1.6,1.6-3.1,3.3-4.6,5l3,2.6C25.2,35.8,26.7,34.2,28.2,32.7z"/>
		<path fill="#ED1D8E" d="M176.7,77.7h-5.2c-5-32-27.6-58.2-57.6-68.4H138c0.7,1.2,2,2.1,3.5,2.1c2.2,0,4.1-1.8,4.1-4.1
			c0-2.2-1.8-4.1-4.1-4.1c-1.5,0-2.8,0.8-3.5,2.1H96.4c-0.9-0.1-1.7-0.2-2.6-0.3v0.3h-0.1V0H78.9v5.4h-0.1H34.5
			c-0.7-1.2-2-2.1-3.5-2.1c-2.2,0-4.1,1.8-4.1,4.1c0,2.2,1.8,4.1,4.1,4.1c1.5,0,2.8-0.8,3.5-2.1h24c-1.8,0.6-3.5,1.2-5.2,1.9
			l1.5,3.7c2-0.8,4-1.6,6.1-2.2l-1.1-3.4h6.9l0.4,1.6c2.1-0.5,4.2-0.9,6.3-1.2l-0.1-0.4h5.4h0.1v4.9v0.5h14.7v-0.5V9.4h0.1h2.4
			c36.4,4.4,65.5,32.5,71.4,68.4h-3.1v12.3h4.2c0,0.3,0,0.7,0,1c0,18.6-6.2,36.4-17.6,50.8h-9.8v12.3h12.3V145
			c12.3-15.3,19-34.2,19-54c0-0.3,0-0.7,0-1h4.2V77.7z M89.7,10.8h-6.8V4h6.8V10.8z M149.5,150.3h-4.4v-4.4h4.4V150.3z M172.8,86.1
			h-4.4v-4.4h4.4V86.1z"/>
		<path fill="#ED1D8E" d="M117.7,113.5c0,0.1,0,0.2,0,0.3c0,0-0.1,1.2-1.3,2.4c-1.2,1.2-2.4,1.3-2.4,1.3c-0.1,0-0.2,0-0.3,0l2.7,8
			c0,0,7.9,1.6,14.7,6.3l0.9-0.9c-4.7-6.8-6.3-14.7-6.3-14.7L117.7,113.5z M122.1,121.9c-0.7,0.7-2,0.7-2.7,0c-0.7-0.7-0.7-2,0-2.7
			c0.7-0.7,2-0.7,2.7,0C122.9,120,122.9,121.2,122.1,121.9z"/>
		<path fill="#434343" d="M131.6,45c0.5-0.4-7-7.9-7.8-7.9c0,0,0,0-0.1,0c-7.7,8.4-23.1,23.9-38.4,39.1C70.5,61.3,48.3,40,45.8,40
			c0,0,0,0,0,0c-2.9,0.1-4.6,3.5-3.7,7.4c0.9,3.9,28.1,31.9,42,45.1c13.2,12.6,25.5,22.8,28,23.4c0.1,0,0.2,0,0.2,0c0,0,0.1,0,0.1,0
			c0,0,1.2-0.1,2.4-1.3c1.2-1.2,1.3-2.4,1.3-2.4c0-0.1,0-0.2,0-0.3c-0.6-2.6-10.8-14.8-23.4-28c-0.1-0.1-0.2-0.2-0.3-0.3
			C107.6,68.2,123.2,52.8,131.6,45z M89.6,80.7c-0.5-0.5-1-1-1.5-1.6c13.8-13.8,27.8-27.8,36.1-36.6c0.7,0.7,1.4,1.4,2.1,2.1
			C117.4,52.9,103.4,66.8,89.6,80.7z"/>
		<path fill="#ED1D8E" d="M22.4,137.8c-4.5,0-8.2,3.7-8.2,8.2c0,4.5,3.7,8.2,8.2,8.2c4.5,0,8.2-3.7,8.2-8.2
			C30.6,141.5,26.9,137.8,22.4,137.8z M22.4,150.2c-2.3,0-4.2-1.9-4.2-4.2c0-2.3,1.9-4.2,4.2-4.2c2.3,0,4.3,1.9,4.3,4.2
			C26.6,148.3,24.7,150.2,22.4,150.2z"/>
	</g>
</g>
<g id="Layer_2">
    <g>
        <g>
            <path fill="#434343" d="M71.1,8.8L90,0.4v4.7l-13.6,5.5v0.1L90,16.3v4.7l-18.9-8.4V8.8z"/>
            <path fill="#434343" d="M166.8,12.8l-18.9,8.2v-4.7l14-5.5v-0.1l-14-5.6V0.4l18.9,8.2V12.8z"/>
        </g>
        <g>
            <path fill="#1DBCBD" d="M18.4,19.3H0V0.9h18.4V19.3z M4.2,15.1h10.1V5.1H4.2V15.1z"/>
        </g>
        <g>
            <path fill="#1DBCBD" d="M18.4,54.7H0V36.3h18.4V54.7z M4.2,50.6h10.1V40.5H4.2V50.6z"/>
        </g>
        <g>
            <path fill="#1DBCBD" d="M18.4,90.2H0V71.8h18.4V90.2z M4.2,86h10.1V75.9H4.2V86z"/>
        </g>
        <g>
            <path fill="#1DBCBD" d="M18.4,125.6H0v-18.4h18.4V125.6z M4.2,121.5h10.1v-10.1H4.2V121.5z"/>
        </g>
        <g>
            <path fill="#1DBCBD" d="M18.4,161.1H0v-18.4h18.4V161.1z M4.2,156.9h10.1v-10.1H4.2V156.9z"/>
        </g>
        <g>
            <rect x="44.3" y="0" fill="#434343" width="3.7" height="163.6"/>
        </g>
        <g>
            <path fill="#434343" d="M71.1,150.3L90,142v4.7l-13.6,5.5v0.1l13.6,5.5v4.7l-18.9-8.4V150.3z"/>
            <path fill="#434343" d="M146.8,164.1L154,136h4.5l-7.2,28.1H146.8z"/>
            <path fill="#434343" d="M179.5,154.4l-18.9,8.2v-4.7l14-5.5v-0.1l-14-5.6V142l18.9,8.2V154.4z"/>
        </g>
        <g>
            <rect x="101.6" y="144.8" fill="#1DBCBD" width="34.8" height="14"/>
        </g>
        <g>
            <rect x="101.6" y="3.2" fill="#1DBCBD" width="34.8" height="14"/>
        </g>
        <g>
            <rect x="72.5" y="38.6" fill="#1DBCBD" width="34.8" height="14"/>
        </g>
        <g>
            <rect x="199.1" y="38.6" fill="#1DBCBD" width="34.8" height="14"/>
        </g>
        <g>
            <rect x="119" y="38.6" fill="#434343" width="69.2" height="14"/>
        </g>
        <g>
            <rect x="199.1" y="109.4" fill="#434343" width="34.8" height="14"/>
        </g>
        <g>
            <rect x="245.6" y="109.4" fill="#434343" width="17.4" height="14"/>
        </g>
        <g>
            <rect x="72.5" y="109.4" fill="#1DBCBD" width="115.6" height="14"/>
        </g>
        <g>
            <rect x="72.8" y="74" fill="#434343" width="34.8" height="13.9"/>
        </g>
        <g>
            <rect x="119.3" y="74" fill="#1DBCBD" width="34.6" height="14"/>
        </g>
    </g>
</g>
<g id="Layer_3">
</g>
<g id="Layer_4">
</g>
</svg>
