<?xml version="1.0" encoding="utf-8"?>
<!-- Generator: Adobe Illustrator 18.1.1, SVG Export Plug-In . SVG Version: 6.00 Build 0)  -->
<svg version="1.1" xmlns="http://www.w3.org/2000/svg" xmlns:xlink="http://www.w3.org/1999/xlink" x="0px" y="0px"
	 viewBox="0 0 111.1 179.1" enable-background="new 0 0 111.1 179.1" xml:space="preserve">
<g id="Layer_1">
	<g>
		<path fill="none" d="M50.6,39.2v-5.8H37.8V39c1.9-0.9,4-1.4,6.3-1.4C46.4,37.6,48.6,38.2,50.6,39.2z"/>
		<rect x="20.4" y="72.3" fill="none" width="8" height="11.3"/>
		<rect x="20.4" y="6.4" fill="none" width="8" height="5.9"/>
		<polygon fill="#31A5D7" points="28.4,83.6 20.4,83.6 20.4,72.3 14,72.3 14,90 34.8,90 34.8,72.3 28.4,72.3 		"/>
		<polygon fill="#31A5D7" points="20.4,6.4 28.4,6.4 28.4,12.3 34.8,12.3 34.8,0 14,0 14,12.3 20.4,12.3 		"/>
		<polygon fill="#31A5D7" points="29.3,142.1 40.1,142.1 42,140.7 37.3,134.3 16.6,149.5 21.3,155.9 32,148.1 29.3,148.1 		"/>
		<path fill="#414042" d="M40.1,142.1H29.3v6H32h20.5c0.8-1.8,1.5-3.8,2.1-6H40.1z"/>
		<path fill="#31A5D7" d="M88.1,162c-17.5-9.8-14.8-41.3-14.8-41.3H57.1c0,8.5-0.9,15.5-2.5,21.4c-0.6,2.1-1.3,4.1-2.1,6
			c-5.7,13.4-16,18.3-26.9,18.3c-16.4,0-18.3,12.7-18.3,12.7h96.7C103.9,179.1,100.6,169,88.1,162z"/>
		<path fill="#414042" d="M102.5,100.7c5.4-6.5,8.6-14.9,8.6-24c0-20.9-17-37.8-37.8-37.8H56.5V27.4H37.8V12.3h-3h-6.4h-8H14h-3
			v60.1h3h6.4h8h6.4h3v-6.6c-5-2.4-8.5-7.5-8.5-13.4c0-5.9,3.5-11,8.5-13.4v-5.7h12.8v5.8c2.5,1.3,4.7,3.2,6.1,5.6h16.5
			c17.6,0,31.9,14.3,31.9,31.9c0,7.6-2.7,14.6-7.2,20.1C99.8,97.6,101.4,99,102.5,100.7z"/>
		<path fill="#414042" d="M73.2,108.6H50.7v-2.3H0v10.6h50.7v-2.3h22.5c4.4,0,8.7-0.8,12.6-2.2c-1.2-1.6-2-3.5-2.1-5.6
			C80.5,107.9,76.9,108.6,73.2,108.6z"/>
		<path fill="#31A5D7" d="M98,96.8c-1.2-0.5-2.6-0.9-4.1-0.9c-5.6,0-10.2,4.6-10.2,10.2c0,0.2,0,0.4,0,0.7c0.1,2.1,0.9,4,2.1,5.6
			c1.9,2.4,4.8,3.9,8,3.9c5.6,0,10.2-4.6,10.2-10.2c0-2-0.6-3.9-1.6-5.4C101.4,99,99.8,97.6,98,96.8z M93.9,110.3
			c-2.3,0-4.2-1.9-4.2-4.2c0-2.3,1.9-4.2,4.2-4.2c2.3,0,4.2,1.9,4.2,4.2C98.1,108.4,96.2,110.3,93.9,110.3z"/>
		<path fill="#31A5D7" d="M50.6,39.2c-2-1-4.2-1.5-6.5-1.5c-2.2,0-4.4,0.5-6.3,1.4c-5,2.4-8.5,7.5-8.5,13.4c0,5.9,3.5,11,8.5,13.4
			c1.9,0.9,4,1.4,6.3,1.4c8.2,0,14.8-6.6,14.8-14.8c0-2.8-0.8-5.4-2.1-7.6C55.3,42.4,53.1,40.4,50.6,39.2z"/>
	</g>
</g>
<g id="Layer_2">
</g>
<g id="Layer_3">
</g>
<g id="Layer_4">
</g>
</svg>
