<?xml version="1.0" encoding="utf-8"?>
<!-- Generator: Adobe Illustrator 18.1.1, SVG Export Plug-In . SVG Version: 6.00 Build 0)  -->
<svg version="1.1" xmlns="http://www.w3.org/2000/svg" xmlns:xlink="http://www.w3.org/1999/xlink" x="0px" y="0px"
     viewBox="0 0 239.6 149.7" enable-background="new 0 0 239.6 149.7" xml:space="preserve">
    <g>
        <rect x="108" y="113.4" fill="none" width="19.5" height="27.7"/>

            <rect x="46.4" y="117.7" transform="matrix(-0.2403 -0.9707 0.9707 -0.2403 -48.9382 216.6669)" fill="none" width="27.7" height="19.5"/>
        <path fill="#28B34B" d="M70.9,70C68.4,57.1,56,48.6,43.1,51.1C30.2,53.5,21.7,66,24.1,78.9c1.9,10,3.5,18.6,4.2,21.9
            c13.8-4.5,29.6-7.9,46.5-10.1C73.9,85.8,71.9,75.5,70.9,70z M40.1,55.2l5.2-1.1l0.8,3.7L41,58.9L40.1,55.2z M41.8,62.6l5.2-1.1
            l0.8,3.7l-5.2,1.1L41.8,62.6z M43.4,70.1l5.2-1.1l0.8,3.7l-5.2,1.1L43.4,70.1z M45,77.6l5.2-1.1l0.8,3.7l-5.2,1.1L45,77.6z
             M46.6,85.1l5.2-1.1l0.8,3.7l-5.2,1.1L46.6,85.1z"/>
        <circle fill="#414042" cx="119.8" cy="17" r="17"/>
        <path fill="#414042" d="M37.1,44.9c9.4-0.3,16.8-8.2,16.4-17.6c-0.3-9.4-8.2-16.8-17.6-16.4c-9.4,0.3-16.8,8.2-16.4,17.6
            C19.8,37.9,27.7,45.3,37.1,44.9z"/>
        <path fill="#28B34B" d="M143.6,88.6c0-4.5,0-16,0-21.9c0-13.1-10.6-23.8-23.8-23.8S96,53.5,96,66.7c0,9.9,0,18.3,0,21.9
            c7.8-0.5,15.7-0.8,23.8-0.8C127.8,87.8,135.8,88.1,143.6,88.6z M119.8,54.7c1.2,0,2.2,1,2.2,2.2c0,1.2-1,2.2-2.2,2.2
            s-2.2-1-2.2-2.2C117.6,55.7,118.6,54.7,119.8,54.7z M117.6,67.3c0-1.2,1-2.2,2.2-2.2c1.2,0,2.2,1,2.2,2.2s-1,2.2-2.2,2.2
            C118.6,69.5,117.6,68.5,117.6,67.3z"/>
        <path fill="#414042" d="M204.1,42.8c9.3-1.3,15.9-9.8,14.6-19.1c-1.3-9.3-9.8-15.9-19.1-14.6c-9.3,1.3-15.9,9.8-14.6,19.1
            S194.8,44,204.1,42.8z"/>
        <path fill="#414042" d="M166.8,102.7c-0.1,1.1,4.6,6.3,4,6.8c-1.6,0.8-9.2-5.4-13.2-7.1c-1.2-0.5-1.5,7-0.6,7.8
            c3.8,3.8,7.3,6.7,12.1,9c4.3,2,12.8-1.5,9.9-7.4C178.4,110.6,167.1,99.2,166.8,102.7z"/>
        <path fill="#414042" d="M168.5,91.1c-8.1-1.1-16.4-2-24.9-2.6c-7.8-0.5-15.7-0.8-23.8-0.8c-8,0-16,0.3-23.8,0.8
            c-7.2,0.5-14.3,1.2-21.2,2.1c-16.9,2.2-32.6,5.6-46.5,10.1C17.6,104.2,8,108.3,0,112.9l2.6,4.6c26.5-15.3,70.3-24.4,117.1-24.4
            c31.1,0,60.6,3.9,85.4,11.3c0.4-1.5,0.7-3.2,0.8-5.3C194.3,95.7,181.7,93,168.5,91.1z"/>
        <path fill="#414042" d="M221.1,104.3c0,0.1,0,0.1,0,0.2c-0.1,1.9-0.3,3.7-0.6,5.2c6,2.4,11.5,5,16.3,7.8l2.6-4.6
            C234.1,109.8,227.9,106.9,221.1,104.3z"/>
        <path fill="#28B34B" d="M102.7,146.4h30v-38.3h-30V146.4z M108,113.4h19.5v27.7H108V113.4z"/>
        <path fill="#28B34B" d="M41.1,112.5l9.2,37.2l29.2-7.2l-9.2-37.2L41.1,112.5z M54.2,143.3l-6.7-26.9l18.9-4.7l6.7,26.9L54.2,143.3
            z"/>
        <polygon fill="#414042" points="78,110.1 84.2,135 87.7,138.4 89.3,133.7 83.2,108.9      "/>
        <polygon fill="#414042" points="137.9,141.6 140.5,144.9 143.2,141.6 143.2,113.5 137.9,113.5         "/>
        <path fill="#28B34B" d="M221.1,104.3c0.5-15,0-25.5-1.7-33c-1.3-9.9-8.8-18.2-19.1-20.2c-12.9-2.4-25.3,6-27.8,18.9
            c-1.1,5.7-3.1,16.5-4,21.2c13.3,1.9,25.9,4.6,37.5,8c0,2-0.3,3.8-0.8,5.3c-3.9,13.1-21.4,7.5-21.4,7.5l-1.5,8.4
            c0,0,33.5,14.7,38.3-10.6c0.3-1.6,0.5-3.3,0.6-5.2C221.1,104.4,221.1,104.3,221.1,104.3z M195.2,88.3l-8.4-0.8l7.6-24.5l1,0.2
            l2.6,0.4L195.2,88.3z M198.7,61.8l-0.6-0.1l-2.6-0.4l-1-0.2L194,61l-0.1-6.3l7,1L198.7,61.8z"/>
    </g>
</svg>
