<?xml version="1.0" encoding="utf-8"?>
<!-- Generator: Adobe Illustrator 18.1.1, SVG Export Plug-In . SVG Version: 6.00 Build 0)  -->
<svg version="1.1" xmlns="http://www.w3.org/2000/svg" xmlns:xlink="http://www.w3.org/1999/xlink" x="0px" y="0px"
	 viewBox="0 0 260 137.9" enable-background="new 0 0 260 137.9" xml:space="preserve">
<g id="Layer_1">
	<g>
		<rect x="105.6" y="17.4" fill="none" width="83.3" height="10.7"/>
		<path fill="none" d="M222.2,4H72.3v23.7H79h4v4v57.1h122.7V52.2c0-2.3,1.9-4.1,4.1-4.1h12.4V4z M136.3,78c-1.7,0-3-1.4-3-3
			c0-1.7,1.4-3,3-3c1.7,0,3,1.4,3,3C139.4,76.6,138,78,136.3,78z M147.2,78c-1.7,0-3-1.4-3-3c0-1.7,1.4-3,3-3c1.7,0,3,1.4,3,3
			C150.3,76.6,148.9,78,147.2,78z M158.1,78c-1.7,0-3-1.4-3-3c0-1.7,1.4-3,3-3c1.7,0,3,1.4,3,3C161.2,76.6,159.8,78,158.1,78z
			 M191.5,66.4h-88.6V37h88.6V66.4z M191.5,30.7h-88.6V14.7h88.6V30.7z"/>
		<path fill="#FED00F" d="M102.9,30.7h88.6V14.7h-88.6V30.7z M105.6,17.4h83.3V28h-83.3V17.4z"/>
		<rect x="102.9" y="37" fill="#FED00F" width="88.6" height="29.4"/>
		<circle fill="#FED00F" cx="147.2" cy="75" r="3"/>
		<circle fill="#FED00F" cx="158.1" cy="75" r="3"/>
		<circle fill="#FED00F" cx="136.3" cy="75" r="3"/>
		<polygon fill="#434343" points="167,99.4 127.5,99.4 127.5,117.3 111.9,117.3 111.9,125.5 182.6,125.5 182.6,117.3 167,117.3 		
			"/>
		<path fill="#FED00F" d="M33.8,52.6H67c1.6,0,2.8-1.3,2.8-2.8c0-1.6-1.3-2.8-2.8-2.8H33.8c-1.6,0-2.8,1.3-2.8,2.8
			C30.9,51.3,32.2,52.6,33.8,52.6z"/>
		<polygon fill="#434343" points="28.3,42.8 23.1,42.8 19,52.3 16.5,49.2 13.1,51 19.4,56.8 		"/>
		<path fill="#FED00F" d="M67.4,72.2H34.1c-1.6,0-2.8,1.3-2.8,2.8c0,1.6,1.3,2.8,2.8,2.8h33.2c1.6,0,2.8-1.3,2.8-2.8
			C70.2,73.5,68.9,72.2,67.4,72.2z"/>
		<polygon fill="#434343" points="27.9,68 22.8,68 18.7,77.6 16.2,74.4 12.8,76.2 19,82 		"/>
		<path fill="#434343" d="M255.9,48.1h-29.7V0H68.4v27.7H58.1V17.5c0-2.1-1.7-3.9-3.9-3.9H28.7c-2.1,0-3.9,1.7-3.9,3.9v10.2H4H0v4
			v102.2v4h4H79h4v-4V92.7h122.7v41c0,2.3,1.9,4.1,4.1,4.1h46.1c2.3,0,4.1-1.9,4.1-4.1V52.2C260,49.9,258.1,48.1,255.9,48.1z
			 M41.5,18.2c1.6,0,2.8,1.3,2.8,2.8c0,1.6-1.3,2.8-2.8,2.8c-1.6,0-2.8-1.3-2.8-2.8C38.7,19.5,39.9,18.2,41.5,18.2z M79,133.9H4
			V31.7H79V133.9z M205.7,52.2v36.6H83V31.7v-4h-4h-6.7V4h149.9v44.1h-12.4C207.5,48.1,205.7,49.9,205.7,52.2z M232.8,133.9
			c-1.6,0-2.9-1.3-2.9-2.9c0-1.6,1.3-2.9,2.9-2.9c1.6,0,2.9,1.3,2.9,2.9C235.7,132.6,234.4,133.9,232.8,133.9z M253.8,123.3h-42
			V54.7h42V123.3z"/>
		<path fill="#FED00F" d="M249.3,60.7h-32.9v13.4h32.9V60.7z M246.7,71.5H219v-8.1h27.7V71.5z"/>
		<rect x="216.4" y="79.4" fill="#FED00F" width="32.9" height="24.7"/>
		<circle fill="#FED00F" cx="232.8" cy="111.4" r="2.5"/>
		<circle fill="#FED00F" cx="242" cy="111.4" r="2.5"/>
		<circle fill="#FED00F" cx="223.7" cy="111.4" r="2.5"/>
		<path fill="#FED00F" d="M67.4,98H34.1c-1.6,0-2.8,1.3-2.8,2.8c0,1.6,1.3,2.8,2.8,2.8h33.2c1.6,0,2.8-1.3,2.8-2.8
			C70.2,99.3,68.9,98,67.4,98z"/>
		<polygon fill="#434343" points="27.9,93.9 22.8,93.9 18.7,103.4 16.2,100.3 12.8,102.1 19,107.9 		"/>
	</g>
</g>
<g id="Layer_2">
</g>
<g id="Layer_3">
</g>
<g id="Layer_4">
</g>
</svg>
