<?xml version="1.0" encoding="utf-8"?>
<svg version="1.1" id="Rings" xmlns="http://www.w3.org/2000/svg" xmlns:xlink="http://www.w3.org/1999/xlink" x="0px" y="0px"
	 viewBox="0 0 640.1 339.4" style="enable-background:new 0 0 640.1 339.4;" xml:space="preserve">
<style type="text/css">
	.st0{opacity:0.5;fill:none;stroke:#EFEFEF;stroke-miterlimit:10;enable-background:new    ;}

	.st1{fill:none;stroke:#31A5D7;stroke-width:1.18;stroke-miterlimit:10;}
	.st2{fill:#31A5D7;}
	.st3{fill:#FFFFFF;stroke:#31A5D7;stroke-width:1.18;stroke-miterlimit:10;}

	.st4{fill:none;stroke:#F47E4F;stroke-width:1.18;stroke-miterlimit:10;}
	.st5{fill:#F47E4F;}
	.st6{fill:#FFFFFF;stroke:#F47E4F;stroke-width:1.18;stroke-miterlimit:10;}

	.st7{fill:none;stroke:#28B34B;stroke-width:1.18;stroke-miterlimit:10;}
	.st8{fill:#28B34B;}
	.st9{fill:#FFFFFF;stroke:#28B34B;stroke-width:1.18;stroke-miterlimit:10;}

	.st10{fill:none;stroke:#805DA8;stroke-width:1.18;stroke-miterlimit:10;}
	.st11{fill:#683C97;}
	.st12{fill:#FFFFFF;stroke:#683C97;stroke-width:1.18;stroke-miterlimit:10;}

	.st13{fill:none;stroke:#ED1D8E;stroke-width:1.18;stroke-miterlimit:10;}
	.st14{fill:#ED1D8E;}
	.st15{fill:#FFFFFF;stroke:#ED1D8E;stroke-width:1.18;stroke-miterlimit:10;}

	.st16{fill:none;stroke:#1DBCBD;stroke-width:1.18;stroke-miterlimit:10;}
	.st17{fill:#1DBCBD;}
	.st18{fill:#FFFFFF;stroke:#1DBCBD;stroke-width:1.18;stroke-miterlimit:10;}

	.st19{fill:none;stroke:#7ACC23;stroke-width:1.18;stroke-miterlimit:10;}
	.st20{fill:#7ACC23;}
	.st21{fill:#FFFFFF;stroke:#7ACC23;stroke-width:1.18;stroke-miterlimit:10;}

	.st22{fill:none;stroke:#FED00F;stroke-width:1.18;stroke-miterlimit:10;}
	.st23{fill:#FED00F;}
	.st24{fill:#FFFFFF;stroke:#FED00F;stroke-width:1.18;stroke-miterlimit:10;}
</style>
<title>Info Graphic</title>



<circle class="st0" cx="169.7" cy="169.7" r="169.2"/>
<circle class="st0" cx="169.7" cy="169.7" r="158.3"/>
<circle class="st0" cx="169.7" cy="169.7" r="147.4"/>
<circle class="st0" cx="169.7" cy="169.7" r="136.5"/>
<circle class="st0" cx="169.7" cy="169.7" r="125.5"/>
<circle class="st0" cx="169.7" cy="169.7" r="114.6"/>
<circle class="st0" cx="169.7" cy="169.7" r="103.7"/>
<circle class="st0" cx="169.7" cy="169.7" r="92.8"/>
<circle class="st0" cx="169.7" cy="169.7" r="81.9"/>

<g id="discovery">
	<path class="st1" d="M314.2,81.5c16.2,26.6,24.8,57.1,24.8,88.3"/>
	<circle class="st2" cx="338.9" cy="169.8" r="1.2"/>
	<circle class="st3" cx="314.2" cy="81.5" r="2.4"/>
</g>
<g id="client_consultation">
	<path class="st4" d="M305.3,87.9c-17.5-28.9-43.7-51.5-74.9-64.4"/>
	<circle class="st5" cx="305.3" cy="87.9" r="1.2"/>
	<circle class="st6" cx="230.4" cy="23.5" r="2.4"/>
</g>
<g id="kick_off">
	<path class="st7" d="M230.8,35.5c-19.2-8.7-40-13.2-61.1-13.2c-8.2,0-16.4,0.7-24.5,2"/>
	<circle class="st8" cx="230.8" cy="35.5" r="1.2"/>
	<circle class="st9" cx="145.4" cy="24.4" r="2.4"/>
</g>
<g id="information_architecture_development">
	<path class="st10" d="M169.7,33.2C129.4,33.2,91.2,51,65.3,81.8"/>
	<circle class="st11" cx="169.7" cy="33.2" r="1.2"/>
	<circle class="st12" cx="65.3" cy="81.7" r="2.4"/>
</g>
<g id="design">
	<path class="st13" d="M92.3,70.9c-30.4,23.8-48.2,60.3-48.1,98.9"/>
	<circle class="st14" cx="92.3" cy="70.9" r="1.2"/>
	<circle class="st15" cx="44.4" cy="169.8" r="2.4"/>
</g>
<g id="front_end_development">
	<path class="st16" d="M57.7,145.5c-9.3,43.4,7.1,88.2,42.3,115.3"/>
	<circle class="st17" cx="57.7" cy="145.5" r="1.2"/>
	<circle class="st18" cx="99.9" cy="260.8" r="2.4"/>
</g>
<g id="back_end_development">
	<path class="st19" d="M66,169.8c0,48.9,34,91.1,81.8,101.4c4,0.7,8,1.3,12,1.6"/>
	<circle class="st20" cx="66" cy="169.8" r="1.2"/>
	<circle class="st21" cx="159.9" cy="272.8" r="2.4"/>
</g>
<g id="quality_assurance">
	<path class="st22" d="M142,258.4c8.9,2.9,18.3,4.4,27.7,4.2l0,0c8.2,0,16.5-1.1,24.4-3.2"/>
	<circle class="st23" cx="142" cy="258.4" r="1.2"/>
	<circle class="st24" cx="194.1" cy="259.4" r="2.4"/>
</g>

<circle cx="338.9" cy="169.8" r="0" fill="none" stroke="#31A5D7" stroke-width="0.5" stroke-miterlimit="10" stroke-opacity="0.5">
</circle>

<circle cx="328" cy="169.8" r="0" fill="none" stroke="#F47E4F" stroke-width="0.5" stroke-miterlimit="10" stroke-opacity="0.5">
</circle>
<circle cx="317.1" cy="169.8" r="0" fill="none" stroke="#28B34B" stroke-width="0.5" stroke-miterlimit="10" stroke-opacity="0.5">
</circle>
<circle cx="306.2" cy="169.8" r="0" fill="none" stroke="#805DA8" stroke-width="0.5" stroke-miterlimit="10" stroke-opacity="0.5">
</circle>
<circle cx="295.3" cy="169.8" r="0" fill="none" stroke="#ED1D8E" stroke-width="0.5" stroke-miterlimit="10" stroke-opacity="0.5">
</circle>
<circle cx="284.4" cy="169.8" r="0" fill="none" stroke="#1DBCBD" stroke-width="0.5" stroke-miterlimit="10" stroke-opacity="0.5">
</circle>
<circle cx="273.5" cy="169.8" r="0" fill="none" stroke="#7ACC23" stroke-width="0.5" stroke-miterlimit="10" stroke-opacity="0.5">
</circle>
<circle cx="262.6" cy="169.8" r="0" fill="none" stroke="#FED00F" stroke-width="0.5" stroke-miterlimit="10" stroke-opacity="0.5">
</circle>
</svg>
