<?xml version="1.0" encoding="utf-8"?>
<!-- Generator: Adobe Illustrator 19.2.1, SVG Export Plug-In . SVG Version: 6.00 Build 0)  -->
<!DOCTYPE svg PUBLIC "-//W3C//DTD SVG 1.1//EN" "http://www.w3.org/Graphics/SVG/1.1/DTD/svg11.dtd">
<svg version="1.1" id="Layer_1" xmlns="http://www.w3.org/2000/svg" xmlns:xlink="http://www.w3.org/1999/xlink" x="0px" y="0px"
	 viewBox="0 0 16 16" style="enable-background:new 0 0 16 16;" xml:space="preserve">
<path d="M14.4,13.1c-0.3,0-0.6-0.3-0.6-0.6V7.3c0-0.3,0.3-0.6,0.6-0.6C14.7,6.7,15,7,15,7.3v5.2C15,12.8,14.7,13.1,14.4,13.1z
	 M1.6,12.5c-0.3,0-0.6-0.3-0.6-0.6V7.1C1,3.2,4.2,0,8,0h0c2.7,0,5.2,1.7,6.4,4.2c0.1,0.3,0,0.6-0.3,0.8c-0.3,0.1-0.6,0-0.8-0.3
	c-0.9-2.1-3-3.5-5.3-3.5c0,0,0,0,0,0c-3.2,0-5.8,2.7-5.8,6v4.8C2.2,12.2,1.9,12.5,1.6,12.5z M10.9,16c-0.2,0-0.3-0.1-0.4-0.2
	c-0.2-0.2-0.2-0.6,0-0.8c0.7-0.7,1.1-1.6,1.1-2.6V7.1c0-2-1.6-3.7-3.6-3.7c-1.1,0-2.1,0.5-2.8,1.4C5,5,4.6,5.1,4.4,4.9
	C4.3,4.8,4.2,4.6,4.2,4.5c0-0.2,0-0.3,0.1-0.4C5.2,2.9,6.6,2.2,8,2.2c2.6,0,4.7,2.2,4.7,4.8v5.3c0,1.3-0.5,2.5-1.4,3.5
	C11.2,15.9,11.1,16,10.9,16z M3.8,14c-0.3,0-0.6-0.3-0.6-0.6V7.1c0-0.3,0.3-0.6,0.6-0.6c0.3,0,0.6,0.3,0.6,0.6v6.3
	C4.4,13.7,4.2,14,3.8,14z M8,15.1L8,15.1c-1.5,0-2.6-1.2-2.6-2.7V7.3c0-1.5,1.2-2.7,2.6-2.7c1.5,0,2.6,1.2,2.6,2.7l0,2.2
	c0,0.3-0.3,0.6-0.6,0.6c-0.3,0-0.6-0.3-0.6-0.6V7.3c0-0.8-0.7-1.5-1.5-1.5c-0.8,0-1.5,0.7-1.5,1.5v5.1c0,0.8,0.7,1.5,1.5,1.5
	c0.2,0,0.5-0.1,0.7-0.2c0.3-0.1,0.6,0,0.8,0.3c0.1,0.3,0,0.6-0.3,0.8C8.8,15,8.4,15.1,8,15.1z M8,12.6c-0.3,0-0.6-0.3-0.6-0.6V7.5
	c0-0.3,0.3-0.6,0.6-0.6c0.3,0,0.6,0.3,0.6,0.6V12C8.6,12.4,8.3,12.6,8,12.6z"/>
</svg>
