<?xml version="1.0" encoding="utf-8"?>
<!-- Generator: Adobe Illustrator 19.2.1, SVG Export Plug-In . SVG Version: 6.00 Build 0)  -->
<!DOCTYPE svg PUBLIC "-//W3C//DTD SVG 1.1//EN" "http://www.w3.org/Graphics/SVG/1.1/DTD/svg11.dtd">
<svg version="1.1" id="Layer_1" xmlns="http://www.w3.org/2000/svg" xmlns:xlink="http://www.w3.org/1999/xlink" x="0px" y="0px"
	 viewBox="0 0 16 16" style="enable-background:new 0 0 16 16;" xml:space="preserve">
<path d="M16,3c-0.6,0.3-1.2,0.4-1.9,0.5c0.7-0.4,1.2-1.1,1.4-1.8c-0.6,0.4-1.3,0.7-2.1,0.8c-0.6-0.6-1.5-1-2.4-1
	c-1.8,0-3.3,1.5-3.3,3.3c0,0.3,0,0.5,0.1,0.8C5.2,5.4,2.7,4.1,1.1,2.1C0.8,2.5,0.7,3.1,0.7,3.7c0,1.1,0.6,2.2,1.5,2.8
	c-0.5,0-1-0.2-1.5-0.4c0,0,0,0,0,0c0,1.6,1.1,2.9,2.6,3.2C3,9.4,2.7,9.5,2.4,9.5c-0.2,0-0.4,0-0.6-0.1c0.4,1.3,1.6,2.3,3.1,2.3
	c-1.1,0.9-2.5,1.4-4.1,1.4c-0.3,0-0.5,0-0.8,0c1.5,0.9,3.2,1.5,5,1.5c6,0,9.3-5,9.3-9.4c0-0.1,0-0.3,0-0.4C15,4.2,15.6,3.7,16,3z"/>
</svg>
