<?xml version="1.0" encoding="utf-8"?>
<!-- Generator: Adobe Illustrator 19.2.1, SVG Export Plug-In . SVG Version: 6.00 Build 0)  -->
<!DOCTYPE svg PUBLIC "-//W3C//DTD SVG 1.1//EN" "http://www.w3.org/Graphics/SVG/1.1/DTD/svg11.dtd">
<svg version="1.1" id="Layer_1" xmlns="http://www.w3.org/2000/svg" xmlns:xlink="http://www.w3.org/1999/xlink" x="0px" y="0px"
	 viewBox="0 0 136 146" style="enable-background:new 0 0 136 146;" xml:space="preserve">
<style type="text/css">
	.st0{fill:none;}
	.st1{fill:#414042;}
	.st2{fill:#F47E4F;}
</style>
<g id="Layer_1_1_">
	<g>
		<path class="st0" d="M85.3,4.5H40.1c-5.1,0-9.2,4.2-9.2,9.2v36l8.8-8.4h17.5V28.7c0-3.1,2.5-5.6,5.6-5.6h25.1v-16
			C87.9,5.7,86.7,4.5,85.3,4.5z"/>
		<path class="st1" d="M35,113.7c-5.2-8.4-6.3-14.3-7.3-17.3c-3.1-9.5,1-23.2-21.8-26.7H0.4V143c0,0,16-0.9,18.8-1.6
			c4.8-1.1,10-4.3,9.7-9.9c-0.2-2-0.2-3.7-0.2-5.2c-2.3,0.9-4.5,1.2-6.3,1.2c-4.9,0-7.8-2.1-8.1-2.2l1.8-2.6
			c0.2,0.2,5.1,3.4,12.5,0.3C28.2,113.4,27.5,117.2,35,113.7z M14.9,103.6c-1.7,0-3.1-1.4-3.1-3.1c0-1.7,1.4-3.1,3.1-3.1
			s3.1,1.4,3.1,3.1C18.1,102.2,16.7,103.6,14.9,103.6z M19.6,95.2c-0.2-0.1-3.9-3.1-9.6,0l-1.5-2.7c7.5-4.2,12.8,0.2,13.1,0.3
			L19.6,95.2z"/>
		<path class="st2" d="M130.2,68.7c-22.9,2.2-18.6,19.8-21.8,29.2c-1,3.1-2.1,8.9-7.3,17.3c7.8,3.7,6.9-0.7,6.4,10.9
			c6.3,2.1,9.9-1.6,9.9-1.6l2.3,2.1c-0.2,0.2-3.1,3.3-8.4,3.3c-1.2,0-2.5-0.2-4-0.5c-0.1,1.2-0.2,2.4-0.2,3.8
			c-0.2,3.1,0.3,8.5,4.8,10.3c2.6,1.1,23.6,2.1,23.6,2.1V68.1L130.2,68.7z M120.3,105.2c-1.7,0-3.1-1.4-3.1-3.1
			c0-1.7,1.4-3.1,3.1-3.1c1.7,0,3.1,1.4,3.1,3.1C123.4,103.8,122,105.2,120.3,105.2z M125,96.8c-0.2-0.1-3.9-3.1-9.6,0l-1.5-2.7
			c7.5-4.2,12.8,0.2,13.1,0.3L125,96.8z"/>
		<path class="st2" d="M39.6,41.4l-8.8,8.4v-36c0-5.1,4.2-9.2,9.2-9.2h45.3c1.4,0,2.6,1.2,2.6,2.6v16H92v-16c0-3.7-3.1-6.7-6.7-6.7
			H40.1c-7.4,0-13.4,6-13.4,13.4v45.7l14.6-13.9h15.9v-4.2H39.6z"/>
		<path class="st1" d="M108.1,33.8c0-5.9-4.8-10.7-10.7-10.7h-5.3h-4.2H62.8c-3.1,0-5.6,2.5-5.6,5.6v12.7v4.2v8.5
			c0,2.4,2,4.5,4.5,4.5h34.6L108,69.8L108.1,33.8L108.1,33.8z M104,60.2l-6-5.8H61.7c-0.2,0-0.3-0.2-0.3-0.3V28.7
			c0-0.8,0.7-1.5,1.5-1.5h34.6c3.6,0,6.6,3,6.6,6.6L104,60.2L104,60.2z"/>
	</g>
</g>
<g id="Layer_2">
</g>
<g id="Layer_3">
</g>
<g id="Layer_4">
</g>
</svg>
