<?xml version="1.0" encoding="utf-8"?>
<!-- Generator: Adobe Illustrator 19.2.1, SVG Export Plug-In . SVG Version: 6.00 Build 0)  -->
<!DOCTYPE svg PUBLIC "-//W3C//DTD SVG 1.1//EN" "http://www.w3.org/Graphics/SVG/1.1/DTD/svg11.dtd">
<svg version="1.1" id="Layer_1" xmlns="http://www.w3.org/2000/svg" xmlns:xlink="http://www.w3.org/1999/xlink" x="0px" y="0px"
	 viewBox="0 0 205 154" style="enable-background:new 0 0 205 154;" xml:space="preserve">
<style type="text/css">
	.st0{stroke:#000000;stroke-width:0.1848;}
	.st1{fill:#FFFFFF;}
	.st2{fill:#00AEEF;}
</style>
<g>
	<g>
		<path class="st0" d="M13.5,136.5H0.4c-0.3,0-0.4-0.1-0.4-0.4v-16.8c0-0.8,0.1-1,0.5-1c0.4,0,0.5,0.2,0.5,1v16.2h12.5
			c0.4,0,0.9,0,0.9,0.5C14.4,136.5,14,136.5,13.5,136.5z"/>
		<path class="st0" d="M29.9,136.5H17.4c-0.3,0-0.4-0.1-0.4-0.4v-17.3c0-0.3,0.1-0.4,0.4-0.4h11.8c0.6,0,0.8,0.2,0.8,0.5
			c0,0.2-0.2,0.5-0.8,0.5H18v7.1h6.1c0.6,0,0.8,0.2,0.8,0.5c0,0.2-0.2,0.5-0.8,0.5H18v8h11.9c0.7,0,0.8,0.2,0.8,0.5
			C30.7,136.2,30.5,136.5,29.9,136.5z"/>
		<path class="st0" d="M49.8,119.6l-7.4,15.9c-0.4,1-0.8,1.2-1.3,1.2c-0.5,0-0.9-0.2-1.3-1.2l-6.8-15.9c-0.1-0.3-0.3-0.5-0.3-0.8
			c0-0.3,0.2-0.5,0.4-0.5c0.3,0,0.5,0.3,0.7,0.7l6.6,15.4c0.3,0.7,0.5,1.2,0.7,1.2c0.2,0,0.4-0.5,0.7-1.2L49,119
			c0.2-0.4,0.3-0.7,0.7-0.7c0.2,0,0.4,0.1,0.4,0.5C50,119,49.9,119.3,49.8,119.6z"/>
		<path class="st0" d="M65.5,136.5H53.1c-0.3,0-0.4-0.1-0.4-0.4v-17.3c0-0.3,0.1-0.4,0.4-0.4h11.8c0.6,0,0.8,0.2,0.8,0.5
			c0,0.2-0.2,0.5-0.8,0.5H53.7v7.1h6.1c0.6,0,0.8,0.2,0.8,0.5c0,0.2-0.2,0.5-0.8,0.5h-6.1v8h11.9c0.7,0,0.8,0.2,0.8,0.5
			C66.3,136.2,66.2,136.5,65.5,136.5z"/>
		<path class="st0" d="M84.4,136.5H71.3c-0.3,0-0.4-0.1-0.4-0.4v-16.8c0-0.8,0.1-1,0.5-1c0.4,0,0.5,0.2,0.5,1v16.2h12.5
			c0.4,0,0.9,0,0.9,0.5C85.3,136.5,84.8,136.5,84.4,136.5z"/>
		<path class="st0" d="M108.6,136.6c-0.4,0-0.5-0.4-0.5-0.9v-7.9H95.5v7.9c0,0.5-0.1,0.9-0.5,0.9c-0.4,0-0.5-0.4-0.5-0.9v-16.5
			c0-0.5,0.1-0.9,0.5-0.9c0.4,0,0.5,0.4,0.5,0.9v7.6h12.5v-7.6c0-0.5,0.1-0.9,0.5-0.9c0.4,0,0.5,0.4,0.5,0.9v16.5
			C109,136.2,109,136.6,108.6,136.6z"/>
		<path class="st0" d="M126.9,136.5h-12.5c-0.3,0-0.4-0.1-0.4-0.4v-17.3c0-0.3,0.1-0.4,0.4-0.4h11.8c0.6,0,0.8,0.2,0.8,0.5
			c0,0.2-0.2,0.5-0.8,0.5h-11.3v7.1h6.1c0.6,0,0.8,0.2,0.8,0.5c0,0.2-0.2,0.5-0.8,0.5h-6.1v8h11.9c0.7,0,0.8,0.2,0.8,0.5
			C127.7,136.2,127.6,136.5,126.9,136.5z"/>
		<path class="st0" d="M146.8,136.6c-0.4,0-0.6-0.4-0.7-0.7l-2.2-4.9h-10.6l-2.6,5.1c-0.1,0.2-0.2,0.5-0.5,0.5
			c-0.3,0-0.5-0.1-0.5-0.5c0-0.2,0.2-0.5,0.3-0.7l8.3-16.7c0.2-0.4,0.3-0.6,0.6-0.6c0.3,0,0.4,0.2,0.6,0.6l7.7,16.9
			c0.1,0.2,0.2,0.4,0.2,0.6C147.3,136.4,147.2,136.6,146.8,136.6z M138.8,119.7l-5.1,10.3h9.7L138.8,119.7z"/>
		<path class="st0" d="M156.9,136.5h-6.3c-0.3,0-0.4-0.1-0.4-0.4v-17.3c0-0.3,0.1-0.4,0.4-0.4h6.3c6.2,0,10,3,10,8.8
			C166.9,133,163.1,136.5,156.9,136.5z M156.9,119.4h-5.7v16.1h5.7c5.9,0,9-3.3,9-8.3C165.9,122.3,162.8,119.4,156.9,119.4z"/>
		<path class="st0" d="M183.1,136.5h-12.5c-0.3,0-0.4-0.1-0.4-0.4v-17.3c0-0.3,0.1-0.4,0.4-0.4h11.8c0.6,0,0.8,0.2,0.8,0.5
			c0,0.2-0.2,0.5-0.8,0.5h-11.3v7.1h6.1c0.6,0,0.8,0.2,0.8,0.5c0,0.2-0.2,0.5-0.8,0.5h-6.1v8h11.9c0.7,0,0.8,0.2,0.8,0.5
			C183.9,136.2,183.8,136.5,183.1,136.5z"/>
		<path class="st0" d="M195,136.5h-6.3c-0.3,0-0.4-0.1-0.4-0.4v-17.3c0-0.3,0.1-0.4,0.4-0.4h6.3c6.2,0,10,3,10,8.8
			C205,133,201.2,136.5,195,136.5z M195,119.4h-5.7v16.1h5.7c5.9,0,9-3.3,9-8.3C204,122.3,200.9,119.4,195,119.4z"/>
	</g>
	<g>
		<path d="M86.3,148.3h-4.1v4.1c0,0.4,0,0.7-0.3,0.7c-0.3,0-0.3-0.2-0.3-0.6v-9.8c0-0.2,0.1-0.2,0.2-0.2h4.4c2.1,0,4.1,0.2,4.1,3
			C90.4,148.1,88.4,148.3,86.3,148.3z M86.3,143h-4.1v4.8h4.1c1.9,0,3.5-0.2,3.5-2.4C89.8,143.2,88.2,143,86.3,143z"/>
		<path d="M99,148.3l2.1,4.3c0,0.1,0.1,0.1,0.1,0.2c0,0.1-0.1,0.3-0.2,0.3c-0.2,0-0.2-0.1-0.3-0.3l-2.2-4.4h-4.8v4.1
			c0,0.4,0,0.7-0.3,0.7c-0.3,0-0.3-0.2-0.3-0.6v-9.8c0-0.2,0.1-0.2,0.2-0.2h5.1c2.1,0,3.5,1,3.5,3C101.7,147.6,100.3,148.1,99,148.3
			z M98.2,143h-4.8v4.8h4.1c2.2,0,3.5-0.3,3.5-2.4C101.2,143.9,100.2,143,98.2,143z"/>
		<path d="M111.6,153h-7.3c-0.2,0-0.2-0.1-0.2-0.2v-10.1c0-0.2,0.1-0.2,0.2-0.2h7c0.4,0,0.5,0.1,0.5,0.3c0,0.1-0.1,0.3-0.5,0.3h-6.6
			v4.2h3.6c0.4,0,0.5,0.1,0.5,0.3c0,0.1-0.1,0.3-0.5,0.3h-3.6v4.7h7c0.4,0,0.5,0.1,0.5,0.3C112.1,152.8,112,153,111.6,153z"/>
		<path d="M119.2,148.3h-4.1v4.1c0,0.4,0,0.7-0.3,0.7c-0.3,0-0.3-0.2-0.3-0.6v-9.8c0-0.2,0.1-0.2,0.2-0.2h4.4c2.1,0,4.1,0.2,4.1,3
			C123.4,148.1,121.4,148.3,119.2,148.3z M119.2,143h-4.1v4.8h4.1c1.9,0,3.5-0.2,3.5-2.4C122.8,143.2,121.1,143,119.2,143z"/>
	</g>
	<g>
		<g>
			<path class="st1" d="M151.3,88.8c0,5.4-4.4,9.8-9.8,9.8H63.4c-5.4,0-9.8-4.4-9.8-9.8V10.7c0-5.4,4.4-9.8,9.8-9.8h78.1
				c5.4,0,9.8,4.4,9.8,9.8V88.8z"/>
			<path class="st2" d="M141.6,0.9H63.4c-5.4,0-9.8,4.4-9.8,9.8v78.1c0,5.4,4.4,9.8,9.8,9.8H74v-1.8c-0.5,0-1.5,0-1.6-1.4
				c-0.3-3,1.7-2.1,2.4-3c0.5-0.6,0.8-2.4,1-3.7c0.1-0.7,0.5-2.2,0.9-3.2c0.9-1.9,2.5-4.6,5.4-4.3c4.4,0.4,9.5-1.5,12.1-2.7
				c2.6-1.2,2.4-5.8,2.4-5.8c0-0.4,0.6-2.5-2.2-3.3c-3.6-0.9-5.2-4-5.3-4.9c-0.1-0.9,0.6-2,0.8-2.3c0.1-0.2,0.1-0.6-0.4-1.1
				c-0.6-0.6,0-1.1,0-1.1s0.5-0.3,0.4-0.9c-0.1-0.8,0.7-1.7,1.1-2.1c0.4-0.4,0.5-1.2,0.2-2.4c-0.3-1.2,0.5-1.4,2.6-1.8
				c2.2-0.4,1.9-2.1,1.9-2.1c1.6-7.5,6.6-7.7,6.6-7.7c11.5-0.9,17.8,5.6,18.2,8c0.4,2.9,1,3.7,1,3.7c2.7,3.5,1.8,10.6,1.8,10.6
				c-1,7.8-6,10.8-6,10.8c-0.9,0.6-2.4,0.8-2.5,1.4c-0.1,0.8,0.7,0.9,0.7,0.9c7.4,0.8,11.6,4.4,13.1,6.9c0.6,0.9,1,2.2,1,2.6
				c0.3,1.6,0.6,3.9,2.2,5.5c1.9,2-0.4,3.7-0.4,3.7v1.5h10.1c5.4,0,9.8-4.4,9.8-9.8V10.7C151.3,5.3,147,0.9,141.6,0.9z"/>
		</g>
		<g>
			<circle cx="36.5" cy="18.4" r="1.1"/>
			<circle cx="37.2" cy="23.1" r="1.1"/>
			<circle cx="39.4" cy="27.4" r="1.1"/>
			<circle cx="42.7" cy="30.7" r="1.1"/>
			<circle cx="46.9" cy="32.9" r="1.1"/>
			<circle cx="51.6" cy="33.6" r="1.1"/>
		</g>
		<g>
			<polygon class="st1" points="84.1,30.5 86.9,30.9 84.9,32.9 85.4,35.7 82.8,34.3 80.3,35.7 80.8,32.9 78.8,30.9 81.6,30.5 
				82.9,27.9 			"/>
			<circle class="st1" cx="56.1" cy="32.9" r="1.1"/>
			<circle class="st1" cx="60.4" cy="30.7" r="1.1"/>
			<circle class="st1" cx="63.7" cy="27.4" r="1.1"/>
			<circle class="st1" cx="65.9" cy="23.2" r="1.1"/>
			<circle class="st1" cx="66.6" cy="18.6" r="1"/>
			<circle class="st1" cx="67.4" cy="13.9" r="1.1"/>
			<circle class="st1" cx="69.5" cy="9.7" r="1.1"/>
			<circle class="st1" cx="72.9" cy="6.4" r="1.1"/>
			<circle class="st1" cx="77.1" cy="4.2" r="1.1"/>
			<circle class="st1" cx="81.8" cy="3.4" r="1.1"/>
			<circle class="st1" cx="86.4" cy="4.2" r="1.1"/>
			<circle class="st1" cx="90.6" cy="6.3" r="1.1"/>
			<circle class="st1" cx="93.9" cy="9.7" r="1.1"/>
			<circle class="st1" cx="96.1" cy="14" r="1.1"/>
			<circle class="st1" cx="96.8" cy="18.7" r="1.1"/>
			<circle class="st1" cx="96" cy="23.3" r="1.1"/>
			<circle class="st1" cx="93.8" cy="27.6" r="1.1"/>
			<circle class="st1" cx="90.5" cy="30.9" r="1.1"/>
		</g>
	</g>
</g>
</svg>
