<svg xmlns="http://www.w3.org/2000/svg" width="243" height="154" viewBox="0 0 243 154">
  <defs>
    <style>
      .cls-1 {
        font-size: 2.681px;
        font-family: "Proxima Nova";
        font-weight: 700;
        text-transform: uppercase;
      }

      .cls-1, .cls-2 {
        fill: #2e2e2e;
      }

      .cls-2 {
        fill-rule: evenodd;
      }
    </style>
  </defs>
  <text id="Global_Professor_Group" data-name="Global Professor Group" class="cls-1" transform="translate(0 147.256) scale(6.663 6.713)">Global Professor Group</text>
  <path id="GPG_Logo" data-name="GPG Logo" class="cls-2" d="M98.662,108.884a53.532,53.532,0,0,0,45.676,0,153.041,153.041,0,0,0-22.838-1.639A148.753,148.753,0,0,0,98.662,108.884Zm-10.8-6.821a53.608,53.608,0,0,0,6.888,4.748,151.184,151.184,0,0,1,26.75-2.274,151.184,151.184,0,0,1,26.75,2.274,52.314,52.314,0,0,0,6.888-4.748c-8.526-2.274-19.929-3.845-33.638-3.845S96.388,99.789,87.862,102.063ZM80.071,94.64a54.894,54.894,0,0,0,5.082,5.35h0A54.894,54.894,0,0,1,80.071,94.64Zm25.479,17.12q-2.508-.8-4.915-1.806A39.166,39.166,0,0,0,105.55,111.76Zm7.791,1.8c-1.772-.267-3.511-0.635-5.249-1.069A52.128,52.128,0,0,0,113.341,113.565Zm8.293-60.689c-0.7,0-.769.033-0.8,0.669-0.167,2.575-.3,5.584-0.368,8.36l3.244,0.435c2.24-.469,3.344-2.14,3.344-5.016C127.051,54.247,125.379,52.876,121.634,52.876Zm33.5-33.939a53.666,53.666,0,0,0-6.888-4.748,151.184,151.184,0,0,1-26.75,2.274,151.184,151.184,0,0,1-26.75-2.274,52.4,52.4,0,0,0-6.888,4.748A132.966,132.966,0,0,0,121.5,22.816,132.962,132.962,0,0,0,155.138,18.937ZM100.6,11.046q2.407-1,4.915-1.806A43.236,43.236,0,0,0,100.6,11.046Zm7.49-2.541c1.7-.435,3.477-0.8,5.249-1.07A52.109,52.109,0,0,0,108.092,8.5Zm36.246,3.611a53.532,53.532,0,0,0-45.676,0A153,153,0,0,0,121.5,13.754,148.674,148.674,0,0,0,144.338,12.116ZM85.153,21.01h0a54.9,54.9,0,0,0-5.082,5.35A54.9,54.9,0,0,1,85.153,21.01Zm72.46,0.067c-9.53,2.775-22.2,4.447-36.113,4.447s-26.583-1.672-36.112-4.447a53.385,53.385,0,0,0,0,78.845c9.53-2.775,22.2-4.447,36.113-4.447s26.583,1.672,36.113,4.447A53.386,53.386,0,0,0,157.613,21.077ZM104.982,68.792a13.144,13.144,0,0,0,.267,3.21l-0.334.468a23.653,23.653,0,0,1-8.694,1.471c-6.754,0-10.968-4.414-10.968-11.636,0-7.992,4.915-12.873,13.108-12.873a38.988,38.988,0,0,1,7.29.936l0.267,0.468a41.357,41.357,0,0,0-.97,6.755l-3.644.234s0.1-.936.1-1.973c0-2.073-1.1-2.842-3.946-2.842-4.38,0-6.52,2.574-6.52,8.059,0,6.085,1.973,9.429,5.885,9.429a5.01,5.01,0,0,0,3.244-.97V66.118c0-1.438.267-1.939-1.037-1.939H97.158l-0.234-.2,0.4-2.608c0.869,0,3.076.1,5.116,0.1a35.117,35.117,0,0,0,3.745-.167l0.267,1.438C105.182,63.576,104.982,64.613,104.982,68.792Zm18.524-3.945h-3.143l-0.033,2.875c0,2.708.234,3.31,1.7,3.31,0.669,0,1.605-.067,1.605-0.067l0.134,0.234-0.368,2.408s-3.243-.1-4.648-0.1c-1.839,0-6.085.268-6.152,0.3l0.3-2.508c1.972-.334,2.541-1,2.541-3.043l0.033-13.977c0-1.538-.267-1.973-1.17-1.973-0.5,0-1.271.067-1.271,0.067l-0.167-.3,0.3-2.207c0.836,0,3.043.033,4.648,0.033,1.337,0,5.584-.167,5.584-0.167,6.888,0,8.894,3.344,8.894,6.955C132.3,61.068,128.154,64.847,123.506,64.847Zm31.9,3.945a13.094,13.094,0,0,0,.267,3.21l-0.334.468a23.653,23.653,0,0,1-8.694,1.471c-6.754,0-10.967-4.414-10.967-11.636,0-7.992,4.915-12.873,13.107-12.873a38.986,38.986,0,0,1,7.289.936l0.268,0.468a41.357,41.357,0,0,0-.97,6.755l-3.644.234s0.1-.936.1-1.973c0-2.073-1.1-2.842-3.946-2.842-4.38,0-6.52,2.574-6.52,8.058,0,6.086,1.973,9.429,5.918,9.429a5.166,5.166,0,0,0,3.277-.97V66.118c0-1.438.234-1.939-1.1-1.939h-1.873l-0.234-.2,0.4-2.608c0.87,0,3.077.1,5.116,0.1a35.117,35.117,0,0,0,3.745-.167l0.268,1.438C155.64,63.576,155.406,64.613,155.406,68.792Z"/>
</svg>
