<?xml version="1.0" encoding="utf-8"?>
<!-- Generator: Adobe Illustrator 19.2.1, SVG Export Plug-In . SVG Version: 6.00 Build 0)  -->
<!DOCTYPE svg PUBLIC "-//W3C//DTD SVG 1.1//EN" "http://www.w3.org/Graphics/SVG/1.1/DTD/svg11.dtd">
<svg version="1.1" id="Layer_1" xmlns="http://www.w3.org/2000/svg" xmlns:xlink="http://www.w3.org/1999/xlink" x="0px" y="0px"
	 viewBox="0 0 225 120" style="enable-background:new 0 0 225 120;" xml:space="preserve">
<style type="text/css">
	.st0{fill:none;}
	.st1{fill:#FED00F;}
	.st2{fill:#434343;}
</style>
<g id="Layer_1_1_">
	<g>
		<rect x="91.4" y="15.4" class="st0" width="72.1" height="9.3"/>
		<path class="st0" d="M192.3,3.8H62.6v20.5h5.8h3.5v3.5v49.4H178V45.5c0-2,1.6-3.5,3.5-3.5h10.7V3.8z M118,67.8
			c-1.5,0-2.6-1.2-2.6-2.6c0-1.5,1.2-2.6,2.6-2.6c1.5,0,2.6,1.2,2.6,2.6C120.6,66.6,119.4,67.8,118,67.8z M127.4,67.8
			c-1.5,0-2.6-1.2-2.6-2.6c0-1.5,1.2-2.6,2.6-2.6c1.5,0,2.6,1.2,2.6,2.6C130.1,66.6,128.9,67.8,127.4,67.8z M136.8,67.8
			c-1.5,0-2.6-1.2-2.6-2.6c0-1.5,1.2-2.6,2.6-2.6c1.5,0,2.6,1.2,2.6,2.6C139.5,66.6,138.3,67.8,136.8,67.8z M165.7,57.8H89V32.4
			h76.7V57.8z M165.7,26.9H89V13.1h76.7V26.9z"/>
		<path class="st1" d="M89,26.9h76.7V13.1H89V26.9z M91.4,15.4h72.1v9.2H91.4C91.4,24.6,91.4,15.4,91.4,15.4z"/>
		<rect x="89" y="32.4" class="st1" width="76.7" height="25.4"/>
		<circle class="st1" cx="127.4" cy="65.2" r="2.6"/>
		<circle class="st1" cx="136.8" cy="65.2" r="2.6"/>
		<circle class="st1" cx="118" cy="65.2" r="2.6"/>
		<polygon class="st2" points="144.5,86.4 110.3,86.4 110.3,101.8 96.8,101.8 96.8,108.9 158,108.9 158,101.8 144.5,101.8 		"/>
		<path class="st1" d="M29.2,45.9H58c1.4,0,2.4-1.1,2.4-2.4c0-1.4-1.1-2.4-2.4-2.4H29.2c-1.4,0-2.4,1.1-2.4,2.4
			C26.7,44.7,27.9,45.9,29.2,45.9z"/>
		<polygon class="st2" points="24.5,37.4 20,37.4 16.4,45.6 14.3,42.9 11.3,44.5 16.8,49.5 		"/>
		<path class="st1" d="M58.3,62.8H29.5c-1.4,0-2.4,1.1-2.4,2.4c0,1.4,1.1,2.4,2.4,2.4h28.7c1.4,0,2.4-1.1,2.4-2.4
			C60.7,63.9,59.6,62.8,58.3,62.8z"/>
		<polygon class="st2" points="24.1,59.2 19.7,59.2 16.2,67.5 14,64.7 11.1,66.3 16.4,71.3 		"/>
		<path class="st2" d="M221.5,42h-25.7V0.3H59.2v24h-8.9v-8.8c0-1.8-1.5-3.4-3.4-3.4H24.8c-1.8,0-3.4,1.5-3.4,3.4v8.8h-18H0v3.5
			v88.4v3.5h3.5h64.9h3.5v-3.5V80.6H178V116c0,2,1.6,3.5,3.5,3.5h39.9c2,0,3.5-1.6,3.5-3.5V45.5C225,43.5,223.4,42,221.5,42z
			 M35.9,16.1c1.4,0,2.4,1.1,2.4,2.4c0,1.4-1.1,2.4-2.4,2.4c-1.4,0-2.4-1.1-2.4-2.4S34.5,16.1,35.9,16.1z M68.4,116.2H3.5V27.8h64.9
			V116.2z M178,45.5v31.7H71.8V27.8v-3.5h-3.5h-5.8V3.8h129.7V42h-10.7C179.6,42,178,43.5,178,45.5z M201.5,116.2
			c-1.4,0-2.5-1.1-2.5-2.5c0-1.4,1.1-2.5,2.5-2.5s2.5,1.1,2.5,2.5C204,115.1,202.8,116.2,201.5,116.2z M219.6,107h-36.3V47.7h36.3
			V107z"/>
		<path class="st1" d="M215.7,52.9h-28.5v11.6h28.5L215.7,52.9L215.7,52.9z M213.5,62.2h-24v-7h24V62.2z"/>
		<rect x="187.3" y="69" class="st1" width="28.5" height="21.4"/>
		<circle class="st1" cx="201.5" cy="96.7" r="2.2"/>
		<circle class="st1" cx="209.4" cy="96.7" r="2.2"/>
		<circle class="st1" cx="193.6" cy="96.7" r="2.2"/>
		<path class="st1" d="M58.3,85.1H29.5c-1.4,0-2.4,1.1-2.4,2.4c0,1.4,1.1,2.4,2.4,2.4h28.7c1.4,0,2.4-1.1,2.4-2.4
			C60.7,86.3,59.6,85.1,58.3,85.1z"/>
		<polygon class="st2" points="24.1,81.6 19.7,81.6 16.2,89.8 14,87.1 11.1,88.7 16.4,93.7 		"/>
	</g>
</g>
<g id="Layer_2">
</g>
<g id="Layer_3">
</g>
<g id="Layer_4">
</g>
</svg>
