<?xml version="1.0" encoding="utf-8"?>
<!-- Generator: Adobe Illustrator 19.2.1, SVG Export Plug-In . SVG Version: 6.00 Build 0)  -->
<!DOCTYPE svg PUBLIC "-//W3C//DTD SVG 1.1//EN" "http://www.w3.org/Graphics/SVG/1.1/DTD/svg11.dtd">
<svg version="1.1" id="Layer_1" xmlns="http://www.w3.org/2000/svg" xmlns:xlink="http://www.w3.org/1999/xlink" x="0px" y="0px"
	 viewBox="0 0 174 174" style="enable-background:new 0 0 174 174;" xml:space="preserve">
<style type="text/css">
	.st0{fill:#ED1D8E;}
	.st1{fill:#434343;}
</style>
<g id="Layer_1_1_">
	<g>
		<path class="st0" d="M114.2,169.5l-1.9-1.9l2.1-2.1l-3.7-3.7l-2.1,2.1l-1.9-1.9l2.1-2.1l-3.7-3.7l-2.1,2.1l-1.9-1.9l2.1-2.1
			l-3.7-3.7l-2.1,2.1l-1.9-1.9l2.1-2.1l-3.7-3.7l-2.1,2.1l-1.9-1.9l2.1-2.1l-3.7-3.7l-2.1,2.1l-1.9-1.9l2.1-2.1l-4.3-4.3l-40,40h80
			l-6-6L114.2,169.5z M64.3,164.3l17.9-18l18,18H64.3z"/>
		<path class="st1" d="M43.3,125.8l7.2-2c0,0,13.5-13.8,29.7-30.1c-0.9-0.9-1.9-1.8-2.9-2.7c-14,14.1-25.9,26.3-29,29.4
			c-0.8,0.2-1.9,0.5-2.9,0.8c0.3-1.1,0.6-2.2,0.8-2.9c3.1-3.1,15.3-15,29.3-29c-0.9-0.9-1.9-1.8-2.8-2.8c-16.3,16.1-30,29.6-30,29.6
			l-2,7.2l-1,3.4L43.3,125.8z"/>
		<path class="st0" d="M19.5,42.4l-3.2-2.3c-1.3,1.8-2.6,3.6-3.7,5.5l3.3,2.1C17,45.9,18.2,44.1,19.5,42.4z"/>
		<path class="st0" d="M4.8,102.5L1,103.1c0.3,2.2,0.8,4.4,1.3,6.5l3.8-0.9C5.5,106.7,5.1,104.7,4.8,102.5z"/>
		<path class="st0" d="M12.5,126.6l-3.4,1.8c1,2,2.1,3.9,3.2,5.8l3.3-2.1C14.5,130.4,13.5,128.5,12.5,126.6z"/>
		<path class="st0" d="M7.7,114.9l-3.7,1.2c0.7,2.1,1.5,4.2,2.3,6.3l3.6-1.5C9.1,119,8.4,116.9,7.7,114.9z"/>
		<path class="st0" d="M29.9,25.5l2.6,3c1.6-1.4,3.2-2.7,5-3.9l-2.3-3.2C33.4,22.7,31.6,24.1,29.9,25.5z"/>
		<path class="st0" d="M40.7,17.7l2.1,3.3c1.8-1.1,3.6-2.2,5.5-3.1l-1.8-3.4C44.5,15.5,42.5,16.5,40.7,17.7z"/>
		<path class="st0" d="M8,64.9l-3.7-1.2c-0.7,2.1-1.3,4.2-1.9,6.4L6.1,71C6.7,68.9,7.3,67,8,64.9z"/>
		<path class="st0" d="M3.9,90.2v-0.4H0v0.4c0,2.1,0.1,4.2,0.2,6.3l3.9-0.3C3.9,94.2,3.9,92.3,3.9,90.2z"/>
		<path class="st0" d="M4.9,77.2l-3.8-0.6c-0.4,2.2-0.6,4.4-0.8,6.6l3.8,0.3C4.3,81.4,4.6,79.4,4.9,77.2z"/>
		<path class="st0" d="M12.8,53.3l-3.4-1.8c-1,2-2,4-2.8,6l3.6,1.5C10.9,57,11.8,55.1,12.8,53.3z"/>
		<path class="st0" d="M27.8,32.8L25,30c-1.6,1.6-3.1,3.2-4.5,4.9l3,2.6C24.8,35.8,26.3,34.3,27.8,32.8z"/>
		<path class="st0" d="M174,77.1h-5.1c-4.9-31.5-27.2-57.3-56.7-67.4h23.7c0.7,1.2,2,2.1,3.4,2.1c2.2,0,4-1.8,4-4c0-2.2-1.8-4-4-4
			c-1.5,0-2.8,0.8-3.4,2.1h-41c-0.9-0.1-1.7-0.2-2.6-0.3v0.3h-0.1V0.6H77.7v5.3h-0.1H34c-0.7-1.2-2-2.1-3.4-2.1c-2.2,0-4,1.8-4,4
			c0,2.2,1.8,4,4,4c1.5,0,2.8-0.8,3.4-2.1h23.6c-1.8,0.6-3.4,1.2-5.1,1.9l1.5,3.6c2-0.8,3.9-1.6,6-2.2l-1.1-3.3h6.8l0.4,1.6
			c2.1-0.5,4.1-0.9,6.2-1.2l-0.1-0.4h5.3h0.1v4.8v0.5h14.5v-0.5V9.8h0.1h2.4c35.8,4.3,64.5,32,70.3,67.4h-3.1v12.1h4.1
			c0,0.3,0,0.7,0,1c0,18.3-6.1,35.8-17.3,50h-9.7v12.1h12.1v-9.1c12.1-15.1,18.7-33.7,18.7-53.2c0-0.3,0-0.7,0-1h4.1L174,77.1
			L174,77.1z M88.3,11.2h-6.7V4.5h6.7V11.2z M147.2,148.6h-4.3v-4.3h4.3V148.6z M170.2,85.4h-4.3V81h4.3V85.4z"/>
		<path class="st0" d="M115.9,112.4c0,0.1,0,0.2,0,0.3c0,0-0.1,1.2-1.3,2.4c-1.2,1.2-2.4,1.3-2.4,1.3c-0.1,0-0.2,0-0.3,0l2.7,7.9
			c0,0,7.8,1.6,14.5,6.2l0.9-0.9c-4.6-6.7-6.2-14.5-6.2-14.5L115.9,112.4z M120.2,120.6c-0.7,0.7-2,0.7-2.7,0s-0.7-2,0-2.7
			s2-0.7,2.7,0C121,118.8,121,119.9,120.2,120.6z"/>
		<path class="st1" d="M129.6,44.9c0.5-0.4-6.9-7.8-7.7-7.8c0,0,0,0-0.1,0c-7.6,8.3-22.7,23.5-37.8,38.5C69.4,61,47.6,40,45.1,40
			l0,0c-2.9,0.1-4.5,3.4-3.6,7.3c0.9,3.8,27.7,31.4,41.4,44.4c13,12.4,25.1,22.5,27.6,23c0.1,0,0.2,0,0.2,0h0.1c0,0,1.2-0.1,2.4-1.3
			c1.2-1.2,1.3-2.4,1.3-2.4c0-0.1,0-0.2,0-0.3c-0.6-2.6-10.6-14.6-23-27.6c-0.1-0.1-0.2-0.2-0.3-0.3C106,67.7,121.3,52.6,129.6,44.9
			z M88.2,80.1c-0.5-0.5-1-1-1.5-1.6c13.6-13.6,27.4-27.4,35.5-36c0.7,0.7,1.4,1.4,2.1,2.1C115.6,52.7,101.8,66.4,88.2,80.1z"/>
		<path class="st0" d="M22.1,136.3c-4.4,0-8.1,3.6-8.1,8.1c0,4.4,3.6,8.1,8.1,8.1s8.1-3.6,8.1-8.1C30.1,139.9,26.5,136.3,22.1,136.3
			z M22.1,148.5c-2.3,0-4.1-1.9-4.1-4.1c0-2.3,1.9-4.1,4.1-4.1s4.2,1.9,4.2,4.1C26.2,146.6,24.3,148.5,22.1,148.5z"/>
	</g>
</g>
<g id="Layer_2">
</g>
<g id="Layer_3">
</g>
<g id="Layer_4">
</g>
</svg>
