<?xml version="1.0" encoding="utf-8"?>
<!-- Generator: Adobe Illustrator 19.2.1, SVG Export Plug-In . SVG Version: 6.00 Build 0)  -->
<!DOCTYPE svg PUBLIC "-//W3C//DTD SVG 1.1//EN" "http://www.w3.org/Graphics/SVG/1.1/DTD/svg11.dtd">
<svg version="1.1" id="Layer_1" xmlns="http://www.w3.org/2000/svg" xmlns:xlink="http://www.w3.org/1999/xlink" x="0px" y="0px"
	 viewBox="0 0 393 167" style="enable-background:new 0 0 393 167;" xml:space="preserve">
<style type="text/css">
	.st0{fill:#FFFFFF;}
</style>
<g>
	<g>
		<path class="st0" d="M13.5,8.5L20.2,57l24-48.6h10L19,75.7h-7.6L0.5,8.5H13.5z"/>
		<path class="st0" d="M79.1,69.7c-6.4,4-12.9,7-19.7,7c-9.2,0-15.3-5.8-15.3-16c0-15.9,14.8-36.4,31.4-36.4
			c7.8,0,10.5,4.8,10.5,9.3c0,6.9-4.5,11.2-10.4,13.8c-5.8,2.6-12.9,3.6-17.9,4.1c-1.2,3.5-1.6,7.2-1.6,9.8c0,4.3,1.9,8.3,6.4,8.3
			c3,0,6.6-1.3,13.3-5.4L79.1,69.7z M76.7,34.2c0-2.1-1.1-3.8-3.5-3.8c-3.4,0-9.3,4.2-14,15.6c5.7-0.6,17.4-2.2,17.4-11.7V34.2z"/>
		<path class="st0" d="M106.9,25.4l-3.7,18.4c2.8-6.4,8.3-19.5,17.2-19.5c0.7,0,1.3,0.1,2.1,0.3l-2,10.2c-0.4-0.1-1.1-0.3-2-0.3
			c-5.6,0-9.9,6.6-13.2,14.6c-4,8.9-6.4,19.6-7.8,26.6H86.2l10.1-50.3H106.9z"/>
		<path class="st0" d="M150.2,32.8c-3.7-1.5-6-1.8-7.9-1.8c-5.3,0-7.8,3-7.8,5.9c0,2.2,0.8,3.6,4.9,7.8l1.6,1.7
			c4.2,4.3,7.8,8.5,7.8,14.5c0,6.5-4.8,15.8-18.6,15.8c-5.6,0-10-1.6-13.8-3.8l3.1-5.9c2.2,1.3,5.7,3.1,10.2,3.1
			c5.6,0,8.4-3.5,8.4-7.1c0-2.9-1.9-5.2-5.7-9.3l-2.5-2.8c-4.2-4.3-6.2-7.7-6.2-12c0-7.8,7.5-14.6,18.1-14.6c3.3,0,7.5,0.9,11,2.3
			L150.2,32.8z"/>
		<path class="st0" d="M189.7,75.7h-10.6l3-14.5c-2.5,4.6-8.4,15.5-18.4,15.5c-7.3,0-11.1-6.1-11.1-14.2c0-15.2,11.2-38.2,32.4-38.2
			c6,0,11.1,1.8,14.5,3.4L189.7,75.7z M164.4,62.5c0,2.5,1.1,6,4.2,6c4.2,0,8.5-6.1,10.8-11.7c1.9-4.7,5.2-13.1,7.9-25.5
			c-0.6-0.3-2.1-0.7-4.2-0.7c-11.2,0-18.7,20.5-18.7,31.8V62.5z"/>
		<path class="st0" d="M229.8,8.5L218,68h22.7l-1.4,7.6h-35.7l13.4-67.2H229.8z"/>
		<path class="st0" d="M266.5,25.4l-10.1,50.3h-11.5L255,25.4H266.5z M271.7,9.1l-9,6.3l-5.9-9.3l9-6.2L271.7,9.1z"/>
		<path class="st0" d="M290.1,25.4l-2.9,14.5c4.3-8.4,10.8-15.5,19-15.5c5.4,0,9.5,3.4,9.5,9.5c0,2.5-0.7,6.4-1.1,8.6L308,75.7
			h-11.5l6.5-32.9c0.2-0.9,1.1-5,1.1-6.9c0-2.9-2.1-3.4-3.3-3.4c-4.9,0-9.4,7.6-11,11.1c-4.1,8.9-6.4,18.8-9.2,32.1h-11.3l10.1-50.3
			H290.1z"/>
		<path class="st0" d="M346.6,1.8l-9.4,47.3c4.9-9.6,13.9-24.5,26.9-24.5c1.3,0,2.1,0.1,3,0.3l-1.2,6.5c-0.8-0.1-1.7-0.3-3.1-0.3
			c-7.2,0-12.3,7.1-13.8,9.1c-0.2,10.5,3.1,24,11.7,35.6h-13.1c-3.6-5.6-7.3-15.2-7.6-25.4c-4.1,8-6.7,16.6-8.5,25.4h-11.2
			l14.8-73.9H346.6z"/>
	</g>
	<g>
		<polygon class="st0" points="136.2,105.1 151.7,105.1 154.1,105.6 155.9,106.4 157.2,107.3 158.5,108.8 171,132.7 148.3,132.7 		
			"/>
		<polygon class="st0" points="148.1,105.1 131.8,105.1 129.5,105.6 127.8,106.2 126.4,107.1 125.1,108.3 113.6,127.5 132.2,127.5 
			143.6,108.1 144.6,107 145.4,106.4 146.4,105.8 147.1,105.4 		"/>
		<polygon class="st0" points="179.3,167.1 202.8,167.1 205.2,166.6 206.6,165.9 207.3,165.2 208.4,163.8 227.6,130 198.8,130 		"/>
		<polygon class="st0" points="198.3,167.1 176.1,167.1 174.1,166.9 171.9,166.3 170.2,165.1 168.5,163.1 150.8,137 176.2,137 
			189.2,158.6 190.7,160.8 191.9,162 193.5,163.7 194.9,165.1 196.6,166.2 		"/>
		<polygon class="st0" points="250.6,87.9 230.5,87.9 227.6,88.5 225.7,89 224,89.8 222.6,90.9 221.7,91.9 201.4,124.9 230,124.9 		
			"/>
		<polygon class="st0" points="232.4,87.9 255.4,87.9 258,88.4 259.5,89.2 260.9,90.1 262.4,91.6 279.9,119.9 253.7,119.9 
			238.7,92.5 238.1,91.9 237.6,91.2 236.8,90.3 235.6,89.3 234.1,88.5 		"/>
	</g>
	<g>
		<path class="st0" d="M392.5,22.6c0,4.4-3.6,7.9-7.9,7.9c-4.4,0-8-3.6-8-8c0-4.4,3.6-7.9,8-7.9C388.9,14.6,392.5,18.2,392.5,22.6
			L392.5,22.6z M391.4,22.5c0-3.8-3.1-6.8-6.8-6.8c-3.8,0-6.9,3-6.9,6.8c0,3.8,3.1,6.9,6.9,6.9C388.3,29.4,391.4,26.4,391.4,22.5
			L391.4,22.5z M383.9,17.7c1.6,0,4.1,0,4.1,2.3c0,1.4-1,2.2-2.1,2.5l3,4.6h-2.5l-2.4-4.1h-0.7v4.1h-2.2v-9.5H383.9z M383.4,18.8
			v3.2h0.4c1.1,0,2-0.1,2-1.8c0-1.4-0.8-1.5-2-1.5H383.4z"/>
	</g>
</g>
</svg>
