<?xml version="1.0" encoding="utf-8"?>
<!-- Generator: Adobe Illustrator 19.2.1, SVG Export Plug-In . SVG Version: 6.00 Build 0)  -->
<!DOCTYPE svg PUBLIC "-//W3C//DTD SVG 1.1//EN" "http://www.w3.org/Graphics/SVG/1.1/DTD/svg11.dtd">
<svg version="1.1" id="Layer_1" xmlns="http://www.w3.org/2000/svg" xmlns:xlink="http://www.w3.org/1999/xlink" x="0px" y="0px"
	 viewBox="0 0 380 320" style="enable-background:new 0 0 380 320;" xml:space="preserve">
<style type="text/css">
	.st0{opacity:0.9;}
	.st1{fill:#00AEEF;}
	.st2{fill:#282828;}
	.st3{fill:#FFFFFF;}
	.st4{fill:#D2D7D9;}
	.st5{fill:#0AB8FA;}
	.st6{clip-path:url(#SVGID_2_);}
	.st7{fill:#444444;}
	.st8{fill:#BFBFBF;}
	.st9{opacity:0.2;clip-path:url(#SVGID_2_);fill:#FFFFFF;}
	.st10{opacity:0.2;}
	.st11{fill:#1F1F1F;}
	.st12{fill:#5FD9FF;}
</style>
<g class="st0">
	<g>
		<g>
			<rect x="185.6" y="0.1" class="st1" width="121.3" height="88.6"/>
		</g>
		<g>
			<rect x="192.1" y="8" class="st2" width="108.3" height="74.4"/>
		</g>
		<g>
			<path class="st3" d="M205.9,34.3v-3.4c0.7,0,1.2-0.1,1.6-0.3c0.4-0.2,0.7-0.5,0.9-0.9c0.3-0.4,0.4-0.9,0.5-1.5
				c0.1-0.5,0.1-1.3,0.1-2.4c0-1.8,0.1-3.1,0.3-3.9c0.2-0.7,0.5-1.3,0.9-1.8c0.4-0.4,1.1-0.8,2-1.1c0.6-0.2,1.5-0.3,2.7-0.3h0.8v3.4
				c-1.1,0-1.7,0.1-2,0.2c-0.3,0.1-0.5,0.3-0.7,0.5c-0.1,0.2-0.2,0.7-0.2,1.3c0,0.6,0,1.7-0.1,3.4c0,0.9-0.2,1.7-0.4,2.3
				c-0.2,0.6-0.5,1.1-0.8,1.5c-0.3,0.4-0.8,0.8-1.4,1.2c0.6,0.3,1,0.7,1.4,1.1c0.4,0.4,0.6,1,0.8,1.6c0.2,0.6,0.3,1.4,0.4,2.5
				c0.1,1.6,0.1,2.6,0.1,3c0,0.6,0.1,1.1,0.2,1.3c0.2,0.2,0.4,0.4,0.7,0.6c0.3,0.1,1,0.2,2,0.2v3.4h-0.8c-1.3,0-2.3-0.1-3-0.3
				c-0.7-0.2-1.3-0.5-1.7-1c-0.5-0.5-0.8-1.1-1-1.8c-0.2-0.7-0.2-1.8-0.2-3.3c0-1.8-0.1-2.9-0.2-3.4c-0.2-0.8-0.5-1.3-1-1.6
				C207.4,34.6,206.8,34.4,205.9,34.3z"/>
			<path class="st3" d="M226.7,40.2v-4h4v4H226.7z"/>
			<path class="st3" d="M234.8,40.2v-4h4v4H234.8z"/>
			<path class="st3" d="M243,40.2v-4h4v4H243z"/>
			<path class="st3" d="M251.1,40.2v-4h4v4H251.1z"/>
			<path class="st3" d="M259.3,40.2v-4h4v4H259.3z"/>
			<path class="st3" d="M267.4,40.2v-4h4v4H267.4z"/>
		</g>
	</g>
	<g>
		<g>
			<path class="st4" d="M349,200.9h-4.5V181c0-1.8-1.5-3.3-3.3-3.3h-19v-4.5h19c4.3,0,7.8,3.5,7.8,7.8V200.9z"/>
		</g>
		<g>
			<path class="st4" d="M315.9,183.3c-4.4,0-7.9-3.5-7.9-7.9s3.5-7.9,7.9-7.9s7.9,3.5,7.9,7.9S320.2,183.3,315.9,183.3z
				 M315.9,172.1c-1.9,0-3.4,1.5-3.4,3.4c0,1.9,1.5,3.4,3.4,3.4s3.4-1.5,3.4-3.4C319.3,173.6,317.7,172.1,315.9,172.1z"/>
		</g>
		<g>
			<polygon class="st4" points="346.8,210.1 339.4,198.2 346.8,198.2 354.1,198.2 			"/>
		</g>
	</g>
	<g>
		<g>
			<path class="st4" d="M64.5,108.8H60V58.2c0-4.3,3.5-7.8,7.8-7.8h82v4.5h-82c-1.8,0-3.3,1.5-3.3,3.3V108.8z"/>
		</g>
		<g>
			<path class="st4" d="M154.2,60.6c-4.4,0-7.9-3.5-7.9-7.9s3.5-7.9,7.9-7.9s7.9,3.5,7.9,7.9S158.6,60.6,154.2,60.6z M154.2,49.3
				c-1.9,0-3.4,1.5-3.4,3.4c0,1.9,1.5,3.4,3.4,3.4c1.9,0,3.4-1.5,3.4-3.4C157.6,50.8,156.1,49.3,154.2,49.3z"/>
		</g>
		<g>
			<path class="st4" d="M62.2,121.2c-4.4,0-7.9-3.5-7.9-7.9s3.5-7.9,7.9-7.9s7.9,3.5,7.9,7.9S66.6,121.2,62.2,121.2z M62.2,109.9
				c-1.9,0-3.4,1.5-3.4,3.4c0,1.9,1.5,3.4,3.4,3.4c1.9,0,3.4-1.5,3.4-3.4C65.6,111.4,64.1,109.9,62.2,109.9z"/>
		</g>
	</g>
	<g>
		<path class="st5" d="M343.7,51.5c0-0.3-0.1-0.5-0.2-0.7c-0.1-0.2-0.2-0.3-0.3-0.4c-0.1-0.1-0.2-0.1-0.3-0.1h-6.1v-6.5
			c0-0.1,0-0.3-0.1-0.4c-0.1-0.1-0.2-0.2-0.4-0.3c-0.2-0.1-0.4-0.1-0.7-0.2c-0.3,0-0.6-0.1-1.1-0.1c-0.4,0-0.8,0-1.1,0.1
			c-0.3,0-0.5,0.1-0.7,0.2c-0.2,0.1-0.3,0.2-0.4,0.3c-0.1,0.1-0.1,0.3-0.1,0.4v6.5h-6.1c-0.1,0-0.2,0-0.3,0.1
			c-0.1,0.1-0.2,0.2-0.3,0.4c-0.1,0.2-0.1,0.4-0.2,0.7c0,0.3-0.1,0.6-0.1,1c0,0.4,0,0.7,0.1,1c0.1,0.3,0.1,0.5,0.2,0.6
			c0.1,0.2,0.2,0.3,0.3,0.4c0.1,0.1,0.2,0.1,0.4,0.1h6v6.6c0,0.1,0,0.3,0.1,0.4c0.1,0.1,0.2,0.2,0.4,0.3c0.2,0.1,0.4,0.1,0.7,0.2
			c0.3,0,0.6,0.1,1.1,0.1c0.4,0,0.8,0,1.1-0.1c0.3,0,0.5-0.1,0.7-0.2c0.2-0.1,0.3-0.2,0.4-0.3c0.1-0.1,0.1-0.2,0.1-0.4v-6.6h6
			c0.1,0,0.3,0,0.4-0.1c0.1-0.1,0.2-0.2,0.3-0.4c0.1-0.2,0.2-0.4,0.2-0.6c0-0.3,0.1-0.6,0.1-1C343.7,52.1,343.7,51.7,343.7,51.5z"/>
	</g>
	<g>
		<g>
			<g>
				<defs>
					<path id="SVGID_1_" d="M288.1,233.3H110.9c-1.8,0-3.2-1.4-3.2-3.2V110.6c0-1.8,1.4-3.2,3.2-3.2h177.2c1.8,0,3.2,1.4,3.2,3.2
						v119.5C291.3,231.8,289.9,233.3,288.1,233.3z"/>
				</defs>
				<clipPath id="SVGID_2_">
					<use xlink:href="#SVGID_1_"  style="overflow:visible;"/>
				</clipPath>
				<g class="st6">
					<rect x="96.3" y="104.8" class="st1" width="206.5" height="110.4"/>
				</g>
				<g class="st6">
					<g>
						<g>
							<path class="st7" d="M259.9,137.4H139.1v-14c0-0.4,0.3-0.8,0.8-0.8h119.2c0.4,0,0.8,0.3,0.8,0.8V137.4z"/>
						</g>
						<g>
							<g>
								<circle class="st3" cx="145.5" cy="130" r="2"/>
							</g>
							<g>
								<circle class="st3" cx="151.4" cy="130" r="2"/>
							</g>
							<g>
								<circle class="st3" cx="157.2" cy="130" r="2"/>
							</g>
						</g>
					</g>
					<g>
						<rect x="139.1" y="137.4" class="st3" width="120.8" height="126.2"/>
					</g>
					<g>
						<g>
							<g>
								<rect x="157.4" y="188.7" class="st5" width="17.3" height="17.9"/>
							</g>
							<g>
								<rect x="179.7" y="188.7" class="st5" width="17.3" height="17.9"/>
							</g>
							<g>
								<rect x="202" y="188.7" class="st5" width="17.3" height="17.9"/>
							</g>
							<g>
								<rect x="224.3" y="188.7" class="st5" width="17.3" height="17.9"/>
							</g>
						</g>
						<g>
							<rect x="157.4" y="155.6" class="st5" width="84.2" height="29"/>
						</g>
						<g>
							<g>
								<rect x="157.4" y="211.5" class="st8" width="23.5" height="31.8"/>
							</g>
							<g>
								<g>
									<rect x="185.9" y="211.5" class="st8" width="55.7" height="3.8"/>
								</g>
								<g>
									<rect x="185.9" y="218.4" class="st8" width="55.7" height="3.8"/>
								</g>
								<g>
									<rect x="185.9" y="225.4" class="st8" width="55.7" height="3.8"/>
								</g>
								<g>
									<rect x="185.9" y="232.4" class="st8" width="55.7" height="3.8"/>
								</g>
								<g>
									<rect x="185.9" y="239.4" class="st8" width="32.8" height="3.8"/>
								</g>
							</g>
						</g>
						<g>
							<g>
								<rect x="171.9" y="147.7" class="st8" width="55.3" height="3.8"/>
							</g>
						</g>
					</g>
				</g>
				<g class="st6">
					<rect x="96.3" y="215.2" class="st4" width="206.5" height="41.4"/>
				</g>
				<polygon class="st9" points="297.3,242.7 192.6,242.7 256.5,97.7 297.3,97.7 				"/>
			</g>
			<g>
				<path class="st4" d="M223,260.2l-5.6-18.2c-0.4-1.1-1.4-1.9-2.6-1.9h-31.6c-1.2,0-2.2,0.8-2.6,1.9l-5.6,18.2
					c-0.4,1.1-1.4,1.9-2.6,1.9H169c-1.5,0-2.7,1.2-2.7,2.7l0,0c0,1.5,1.2,2.7,2.7,2.7h8.2h43.8h8.2c1.5,0,2.7-1.2,2.7-2.7l0,0
					c0-1.5-1.2-2.7-2.7-2.7h-3.4C224.4,262.2,223.4,261.4,223,260.2z"/>
			</g>
			<g class="st10">
				<path class="st7" d="M217.4,242.1c-0.4-1.1-1.4-1.9-2.6-1.9h-31.6c-1.2,0-2.2,0.8-2.6,1.9l-2.1,6.9h41.1L217.4,242.1z"/>
			</g>
		</g>
	</g>
	<g>
		<g>
			<g>
				<path class="st1" d="M373.5,319.9h-52.9c-1.6,0-3-1.3-3-3v-90.7c0-1.7,1.4-3,3-3h52.9c1.6,0,3,1.3,3,3v90.7
					C376.5,318.6,375.1,319.9,373.5,319.9z"/>
			</g>
			<g>
				<rect x="324.8" y="232.2" class="st2" width="44.5" height="69.8"/>
			</g>
			<g>
				<circle class="st3" cx="347" cy="310.8" r="4.6"/>
			</g>
		</g>
		<g>
			<path class="st3" d="M355.5,266.6c0-0.3-0.1-0.5-0.2-0.6c-0.1-0.2-0.2-0.3-0.3-0.3c-0.1-0.1-0.2-0.1-0.3-0.1h-5.7v-6.1
				c0-0.1,0-0.3-0.1-0.4c-0.1-0.1-0.2-0.2-0.3-0.3c-0.2-0.1-0.4-0.1-0.6-0.2c-0.3,0-0.6-0.1-1-0.1c-0.4,0-0.7,0-1,0.1
				c-0.3,0-0.5,0.1-0.6,0.2c-0.2,0.1-0.3,0.2-0.3,0.3c-0.1,0.1-0.1,0.2-0.1,0.4v6.1h-5.6c-0.1,0-0.2,0-0.3,0.1
				c-0.1,0.1-0.2,0.2-0.2,0.3c-0.1,0.2-0.1,0.4-0.2,0.6c0,0.3-0.1,0.6-0.1,0.9c0,0.4,0,0.7,0.1,0.9c0,0.2,0.1,0.4,0.2,0.6
				c0.1,0.2,0.2,0.3,0.3,0.3c0.1,0.1,0.2,0.1,0.3,0.1h5.6v6.1c0,0.1,0,0.2,0.1,0.3c0.1,0.1,0.2,0.2,0.3,0.3c0.2,0.1,0.4,0.1,0.6,0.2
				c0.3,0,0.6,0.1,1,0.1c0.4,0,0.7,0,1-0.1c0.3,0,0.5-0.1,0.6-0.2c0.2-0.1,0.3-0.2,0.3-0.3c0.1-0.1,0.1-0.2,0.1-0.3v-6.1h5.6
				c0.1,0,0.2,0,0.3-0.1c0.1-0.1,0.2-0.2,0.3-0.3c0.1-0.2,0.1-0.4,0.2-0.6c0-0.2,0.1-0.6,0.1-0.9
				C355.5,267.2,355.5,266.9,355.5,266.6z"/>
		</g>
	</g>
	<g>
		<path class="st5" d="M31,190.6l12.8-38.2h5.9l-12.8,38.2H31z"/>
		<path class="st4" d="M54.4,184.7v-5.9l18.6-7.3l-18.6-7.3v-5.9l24.3,10.3v6L54.4,184.7z"/>
	</g>
	<g>
		<path class="st11" d="M325.3,111.6v-4.3l17.5-7.4v4.3l-13.4,5.3l13.4,5.2v4.2L325.3,111.6z"/>
	</g>
	<g>
		<path class="st2" d="M57.6,257v-3.9c0.8,0,1.4-0.2,1.8-0.4c0.4-0.2,0.8-0.5,1.1-1c0.3-0.5,0.5-1,0.6-1.7c0.1-0.5,0.1-1.4,0.1-2.7
			c0-2.1,0.1-3.6,0.3-4.4c0.2-0.8,0.6-1.5,1.1-2c0.5-0.5,1.3-0.9,2.2-1.2c0.7-0.2,1.7-0.3,3.2-0.3h0.9v3.9c-1.2,0-2,0.1-2.3,0.2
			c-0.3,0.1-0.6,0.3-0.8,0.6c-0.2,0.3-0.2,0.8-0.2,1.4c0,0.7,0,2-0.1,3.9c-0.1,1.1-0.2,2-0.4,2.6c-0.2,0.7-0.5,1.2-0.9,1.7
			c-0.4,0.4-0.9,0.9-1.6,1.4c0.6,0.4,1.2,0.8,1.6,1.3c0.4,0.5,0.7,1.1,0.9,1.8c0.2,0.7,0.4,1.7,0.4,2.9c0.1,1.8,0.1,3,0.1,3.5
			c0,0.7,0.1,1.2,0.3,1.5c0.2,0.3,0.4,0.5,0.8,0.6c0.4,0.1,1.1,0.2,2.3,0.2v3.9H68c-1.5,0-2.6-0.1-3.4-0.4c-0.8-0.2-1.5-0.6-2-1.2
			c-0.5-0.5-0.9-1.2-1.1-2c-0.2-0.8-0.3-2.1-0.3-3.8c0-2-0.1-3.3-0.3-3.9c-0.2-0.9-0.6-1.5-1.1-1.9C59.4,257.3,58.6,257.1,57.6,257z
			"/>
		<path class="st5" d="M81.5,263.8v-4.6h4.6v4.6H81.5z"/>
		<path class="st5" d="M90.8,263.8v-4.6h4.6v4.6H90.8z"/>
		<path class="st5" d="M100.2,263.8v-4.6h4.6v4.6H100.2z"/>
		<path class="st5" d="M109.5,263.8v-4.6h4.6v4.6H109.5z"/>
		<path class="st5" d="M118.9,263.8v-4.6h4.6v4.6H118.9z"/>
		<path class="st5" d="M128.2,263.8v-4.6h4.6v4.6H128.2z"/>
	</g>
	<g>
		<path class="st2" d="M285.7,300.9c0-0.3-0.1-0.5-0.2-0.7c-0.1-0.2-0.2-0.3-0.3-0.4c-0.1-0.1-0.2-0.1-0.3-0.1h-6.1v-6.5
			c0-0.1,0-0.3-0.1-0.4c-0.1-0.1-0.2-0.2-0.4-0.3c-0.2-0.1-0.4-0.1-0.7-0.2c-0.3,0-0.6-0.1-1.1-0.1c-0.4,0-0.8,0-1.1,0.1
			c-0.3,0-0.5,0.1-0.7,0.2c-0.2,0.1-0.3,0.2-0.4,0.3c-0.1,0.1-0.1,0.3-0.1,0.4v6.5h-6.1c-0.1,0-0.2,0-0.3,0.1
			c-0.1,0.1-0.2,0.2-0.3,0.4c-0.1,0.2-0.1,0.4-0.2,0.7c0,0.3-0.1,0.6-0.1,1c0,0.4,0,0.7,0.1,1c0.1,0.3,0.1,0.5,0.2,0.6
			c0.1,0.2,0.2,0.3,0.3,0.4c0.1,0.1,0.2,0.1,0.4,0.1h6v6.6c0,0.1,0,0.3,0.1,0.4c0.1,0.1,0.2,0.2,0.4,0.3c0.2,0.1,0.4,0.1,0.7,0.2
			c0.3,0,0.6,0.1,1.1,0.1c0.4,0,0.8,0,1.1-0.1c0.3,0,0.5-0.1,0.7-0.2c0.2-0.1,0.3-0.2,0.4-0.3c0.1-0.1,0.1-0.2,0.1-0.4V304h6
			c0.1,0,0.3,0,0.4-0.1c0.1-0.1,0.2-0.2,0.3-0.4c0.1-0.2,0.2-0.4,0.2-0.6c0-0.3,0.1-0.6,0.1-1C285.8,301.5,285.7,301.2,285.7,300.9z
			"/>
	</g>
	<g>
		<path class="st12" d="M234.5,304.6v-5.3l21.4-9.1v5.2l-16.5,6.5l16.5,6.4v5.2L234.5,304.6z"/>
	</g>
	<path class="st4" d="M2,174.5v-6l24.3-10.3v5.9l-18.6,7.3l18.6,7.3v5.9L2,174.5z"/>
	<path class="st5" d="M360.5,142.9v-4.2l13.4-5.2l-13.4-5.3v-4.3l17.5,7.4v4.3L360.5,142.9z"/>
</g>
</svg>
